<svg xmlns="http://www.w3.org/2000/svg" width="96" height="94" viewBox="0 0 96 94" fill="none"><path opacity="0.0526316" d="M7.45724 76.0692C9.48278 78.7622 15.9566 83.2687 25.6477 79.7503C37.7615 75.3523 42.4466 63.6943 53.2584 57.6495C61.2383 53.188 82.6806 46.491 95.0102 53.8913" stroke="#E85C30"></path><path opacity="0.105263" d="M5.45933 70.4238C7.19209 73.3137 13.1591 78.4717 23.1651 75.9849C35.6726 72.8764 41.5514 61.7717 52.9362 56.8894C61.3391 53.2859 83.3644 48.8655 94.8524 57.5131" stroke="#E85C30"></path><path opacity="0.157895" d="M3.951 64.7016C5.37199 67.7566 10.7668 73.5097 20.9781 72.0817C33.7422 70.2967 40.7504 59.867 52.5835 56.2007C61.3172 53.4947 83.6842 51.3992 94.2048 61.1995" stroke="#E85C30"></path><path opacity="0.210526" d="M2.9375 58.9552C4.03116 62.142 8.79466 68.4271 19.0994 68.0736C31.9803 67.6317 40.0409 57.9912 52.1927 55.581C61.1617 53.8022 83.6254 54.0546 93.0632 64.9002" stroke="#E85C30"></path><path opacity="0.263158" d="M2.41619 53.2367C3.17054 56.5202 7.25053 63.2685 17.5358 63.9934C30.3923 64.8995 39.4172 56.1537 51.7545 55.0262C60.8604 54.1939 83.1746 56.7915 91.4264 68.5636" stroke="#E85C30"></path><path opacity="0.315789" d="M2.38442 47.5947C2.79118 50.9391 6.14298 58.0766 16.296 59.8719C28.9874 62.116 38.8776 54.3609 51.2653 54.5283C60.4083 54.6518 82.3286 59.5661 89.3038 72.1356" stroke="#E85C30"></path><path opacity="0.368421" d="M2.82401 42.0824C2.87874 45.4509 5.46561 52.8994 15.3753 55.7455C27.7624 59.303 38.4096 52.6235 50.7119 54.084C59.7919 55.1619 81.0781 62.3391 86.7004 75.5684" stroke="#E85C30"></path><path opacity="0.421053" d="M3.73267 36.7482C3.43476 40.104 5.22836 47.7819 14.7861 51.6475C26.7332 56.4795 38.0207 50.9489 50.1029 53.6864C59.0204 55.7069 79.4393 65.0683 83.647 78.8124" stroke="#E85C30"></path><path opacity="0.473684" d="M5.07716 31.6402C4.42988 34.9465 5.41056 42.7697 14.5116 47.6125C25.8878 53.666 37.692 49.3448 49.4217 53.3294C58.079 56.2704 77.4068 67.7134 80.1539 81.8218" stroke="#E85C30"></path><path opacity="0.526316" d="M6.83253 26.801C5.84296 30.0215 5.99998 37.9043 14.5446 43.6713C25.2253 50.88 37.4169 47.8155 48.6655 53.0036C56.9678 56.8327 74.9928 70.2321 76.2491 84.5501" stroke="#E85C30"></path><path opacity="0.578947" d="M8.97436 22.2751C7.65335 25.3747 6.98499 33.2307 14.8796 39.8586C24.7478 48.1436 37.1931 46.3693 47.8374 52.704C55.6937 57.3795 72.2184 72.5883 71.9702 86.9591" stroke="#E85C30"></path><path opacity="0.631579" d="M11.4633 18.0985C9.82528 21.0431 8.33885 28.7863 15.4969 36.2026C24.4445 45.4729 37.0072 45.0084 46.9306 52.4203C54.2548 57.8908 69.0982 74.7425 67.3482 89.0087" stroke="#E85C30"></path><path opacity="0.684211" d="M14.2684 14.3058C12.3314 17.0631 10.0432 24.6086 16.3863 32.732C24.3152 42.8863 36.8577 43.7366 45.9515 52.1445C52.6633 58.3501 65.6628 76.66 62.4302 90.6652" stroke="#E85C30"></path><path opacity="0.736842" d="M17.3362 10.9298C15.1214 13.4696 12.0565 20.7348 17.5152 29.4763C24.3386 40.4031 36.7234 42.559 44.8879 51.8707C50.9139 58.7435 61.927 78.311 57.2472 91.9018" stroke="#E85C30"></path><path opacity="0.789474" d="M20.6299 7.9944C18.1615 10.289 14.3535 17.1942 18.868 26.458C24.511 38.0378 36.6025 41.4756 43.7483 51.5891C49.0224 59.0537 57.9285 79.6644 51.8527 92.692" stroke="#E85C30"></path><path opacity="0.842105" d="M24.0977 5.51965C21.4029 7.54385 16.8934 14.0134 20.4142 23.6981C24.8151 35.8039 36.4807 40.4859 42.5296 51.2905C46.994 59.2651 53.6954 80.6932 46.2903 93.0147" stroke="#E85C30"></path><path opacity="0.894737" d="M27.689 3.52211C24.7972 5.25373 19.6358 11.2168 22.1242 21.2162C25.2348 33.7154 36.3469 39.5903 41.2324 50.9676C44.8383 59.3649 49.2616 81.3756 40.6083 92.8561" stroke="#E85C30"></path><path opacity="0.947368" d="M31.3699 2.01462C28.3128 3.43467 22.5559 8.82591 23.9849 19.0305C25.771 31.7861 36.2077 38.7896 39.8764 50.6149C42.5842 59.3429 44.6811 81.6951 34.8742 92.2088" stroke="#E85C30"></path><path d="M35.0606 1C31.8717 2.09294 25.5825 6.85329 25.9362 17.1512C26.3783 30.0236 36.0253 38.0789 38.437 50.2227C40.217 59.1857 39.9644 81.6345 29.1116 91.0661" stroke="#E85C30"></path></svg>