<svg xmlns="http://www.w3.org/2000/svg" width="98" height="96" viewBox="0 0 98 96" fill="none"><path d="M2.12337 24.9561C-4.60002 0.534106 20.3059 -1.95176 38.2798 5.42241C48.7667 9.21486 55.6536 -2.57935 68.6449 2.12757C81.6361 6.83449 66.0623 21.6613 85.9405 29.2708C105.819 36.8803 96.1143 70.927 78.7405 71.3193C61.3667 71.7115 66.1405 77.4383 48.7667 90.5392C31.3929 103.64 2.12341 85.44 9.40164 66.2201C16.6799 47.0002 9.40156 51.3933 2.12337 24.9561Z" stroke="#E85C30" stroke-width="0.8"></path><path d="M5.52261 26.5656C-0.66009 4.15232 22.312 1.55131 38.9175 8.40069C48.6943 11.9817 55.2028 1.16976 67.1767 5.50821C79.4177 9.9437 65.1012 23.5054 83.3649 30.609C101.67 37.7529 92.96 69.2966 76.6268 69.6532C60.3893 70.0097 64.8618 75.4316 48.7356 87.4371C32.6094 99.4426 5.62459 82.7344 12.2412 64.8334C18.8577 47.1999 12.2566 50.9516 5.52261 26.5656Z" stroke="#E85C30" stroke-width="0.8"></path><path d="M8.92187 28.1747C3.27986 7.77012 24.3181 5.05395 39.5552 11.3785C48.6219 14.7481 54.752 4.91845 65.7085 8.88844C77.1992 13.0525 64.1401 25.3492 80.7892 31.9468C97.5219 38.625 89.8056 67.6657 74.5132 67.9866C59.412 68.3076 63.5831 73.4245 48.7046 84.3346C33.826 95.2447 9.12578 80.0284 15.0807 63.4463C21.0356 47.3992 15.1117 50.5095 8.92187 28.1747Z" stroke="#E85C30" stroke-width="0.8"></path><path d="M12.3133 29.7838C7.21202 11.388 26.3164 8.55669 40.1851 14.3565C48.5417 17.5146 54.2934 8.66723 64.2325 12.2687C74.973 16.1614 63.1712 27.193 78.2058 33.2847C93.3657 39.4973 86.6434 66.0349 72.3917 66.3202C58.4269 66.6055 62.2966 71.4175 48.6657 81.2322C35.0348 91.0469 12.6192 77.3224 17.9124 62.0592C23.2057 47.5985 17.9589 50.0675 12.3133 29.7838Z" stroke="#E85C30" stroke-width="0.8"></path><path d="M15.7126 31.3936C11.152 15.0065 28.3225 12.06 40.8229 17.335C48.4693 20.2817 53.8426 12.4166 62.7643 15.6497C72.7546 19.2709 62.2102 29.0374 75.6302 34.6231C89.2173 40.3701 83.4891 64.4048 70.2781 64.6544C57.4497 64.904 61.0179 69.4111 48.6347 78.1304C36.2515 86.8497 16.1204 74.617 20.752 60.6728C25.3836 47.7985 20.814 49.626 15.7126 31.3936Z" stroke="#E85C30" stroke-width="0.8"></path><path d="M19.1198 33.0839C15.0999 18.7055 30.3365 15.6439 41.4685 20.3941C48.4048 23.1293 53.3997 16.2466 61.304 19.1111C70.5441 22.4609 61.257 30.9624 73.0625 36.0422C85.0768 41.3235 80.3427 62.8552 68.1724 63.0691C56.4803 63.2831 59.7471 67.4853 48.6116 75.1092C37.476 82.7331 19.6295 71.9922 23.5995 59.3669C27.5694 48.079 23.677 49.2652 19.1198 33.0839Z" stroke="#E85C30" stroke-width="0.8"></path><path d="M22.5192 34.8717C19.04 22.502 32.3428 19.3252 42.1064 23.5506C48.3325 26.0744 52.949 20.1739 59.8359 22.67C68.3258 25.7483 60.296 32.9847 70.487 37.5586C80.9286 42.3743 77.1884 61.4029 66.0588 61.5812C55.5031 61.7595 58.4686 65.6569 48.5806 72.1854C38.6927 78.7138 23.1309 69.4649 26.4391 58.1584C29.7474 48.4569 26.5322 49.0017 22.5192 34.8717Z" stroke="#E85C30" stroke-width="0.8"></path><path d="M25.9265 36.6648C22.9879 26.3038 34.3569 23.0119 42.7521 26.7126C48.2681 29.0248 52.5062 24.1066 58.3758 26.2343C66.1154 29.0412 59.343 35.0125 67.9194 39.0805C76.7882 43.4305 74.0421 59.9561 63.9532 60.0988C54.5339 60.2414 57.1979 63.8339 48.5576 69.2669C39.9174 74.7 26.6401 66.9429 29.2867 56.9553C31.9333 48.8402 29.3953 48.7437 25.9265 36.6648Z" stroke="#E85C30" stroke-width="0.8"></path></svg>