<svg xmlns="http://www.w3.org/2000/svg" width="98" height="95" viewBox="0 0 98 95" fill="none"><path d="M38.7776 6.50439C36.2336 0.199433 23.6478 -2.91408 25.7247 9.63966C26.0652 11.698 26.0995 15.2424 25.7247 19.5566C25.3814 23.5087 18.6601 25.6712 16.5968 30.7777C13.3611 38.7862 25.4593 44.3682 23.534 48.5781C21.0124 54.0921 13.2914 56.4845 9.02071 59.5011C5.00029 62.341 2.43941 66.8977 1.45613 71.5825C-0.268916 79.8014 2.86162 88.4145 11.4852 88.843C15.8022 89.0576 21.4956 87.2211 28.6456 82.2574C31.8424 80.0381 34.6613 78.2091 37.1665 76.7303C43.6146 72.9239 41.881 81.9274 49.5484 82.2574C53.9173 82.4454 58.4803 74.6726 61.9345 78.8186C64.3907 81.7667 67.2093 85.3438 71.2344 89.0213C78.3033 95.4796 87.1413 96.4305 88.3914 87.2132C88.9815 82.862 87.8807 76.245 84.1047 66.8718C81.6883 60.8736 87.6988 61.085 88.3914 53.3985C89.0839 45.7119 83.4209 42.1671 87.5204 38.9858L87.6025 38.9221C90.7271 36.4975 94.0597 33.9116 95.8797 28.9448C97.4474 24.6664 97.2976 20.429 95.8797 17.1729C94.3621 13.6882 91.3921 11.3276 87.5204 11.2438C83.6355 11.1598 78.8429 13.3681 73.6989 19.0332C70.3074 22.7683 68.0106 14.0773 61.9345 14.9657C55.8585 15.8541 55.014 24.2399 51.374 21.8077C45.0511 17.5828 41.757 13.8886 38.7776 6.50439Z" stroke="#E85C30" stroke-width="0.8"></path><path d="M27.8326 12.386C25.9893 0.957763 37.4906 3.80659 39.8229 9.58663C42.6784 16.653 45.8353 19.9649 51.7672 23.7136C55.1034 25.9136 55.9061 18.2568 61.4697 17.4246C67.0332 16.5924 69.1587 24.4791 72.2715 21.0815C77.0054 15.9284 81.4072 13.952 84.9629 14.0767C88.4956 14.1754 91.2039 16.3593 92.5722 19.5657C93.8499 22.5641 93.9554 26.4553 92.4652 30.3698C90.5203 35.0228 87.7117 37.919 84.8593 40.287C81.1336 43.2329 86.2513 46.4866 85.573 53.4846C84.8946 60.4825 79.3643 60.2707 81.514 65.6833C84.8939 74.1603 85.8565 80.131 85.2856 84.0489C84.1225 92.4101 76.033 91.5137 69.5408 85.6247C65.818 82.2658 63.1806 79.0165 60.8703 76.3825C57.6927 72.6308 53.5019 79.728 49.4825 79.5877C42.4567 79.3219 43.9896 71.1538 38.0831 74.6315C35.764 75.9916 33.1646 77.6612 30.226 79.6789C23.6011 84.189 18.3774 85.7406 14.4734 85.4316C6.63378 85.0092 3.79765 77.1409 5.38474 69.6344C6.29693 65.3432 8.64979 61.1718 12.3357 58.5684C16.3768 55.7138 23.4799 53.4778 25.7871 48.2526C27.5422 44.3683 16.5216 39.2276 19.4533 31.8792C21.3182 27.1711 27.4217 25.1416 27.7388 21.492C28.084 17.5196 28.0959 14.2654 27.8326 12.386Z" stroke="#E85C30" stroke-width="0.8"></path><path d="M30.0243 15.2483C28.4174 4.98303 38.8175 7.55781 40.9347 12.7939C43.6621 19.5186 46.6771 22.4373 52.2095 25.6979C55.2369 27.6584 55.9968 20.7558 61.0397 19.9826C66.0825 19.2094 68.0337 26.266 70.8631 23.2169C75.1802 18.5927 79.1847 16.8546 82.4061 17.0195C85.5944 17.1328 88.0371 19.1327 89.2542 22.0503C90.3898 24.7812 90.4508 28.3132 89.0403 31.8509C86.9893 36.1312 84.7514 39.3254 82.1989 41.6103C78.8524 44.3108 83.4173 47.2628 82.7541 53.5492C82.091 59.8357 77.0489 59.6242 78.9288 64.4335C81.9077 71.9865 82.7307 77.2915 82.1797 80.7634C81.1053 88.2412 73.7762 87.4022 67.8702 82.1019C64.4551 79.0726 62.0027 76.1618 59.8417 73.8503C56.9453 70.5053 53.1329 76.9035 49.4689 76.8113C43.0948 76.6104 44.4248 69.3046 39.0685 72.4422C36.9391 73.679 34.5628 75.1838 31.8868 76.9932C25.7965 81.035 21.0502 82.2968 17.5649 81.8945C10.5208 81.4799 7.98319 74.3821 9.43003 67.6126C10.2698 63.7293 12.4112 59.957 15.7572 57.5985C19.5628 54.9157 26.0376 52.8435 28.1271 47.9245C29.7094 44.3787 19.7826 39.6962 22.406 33.0322C24.0698 28.7381 29.5465 26.8483 29.837 23.5134C30.152 19.8957 30.2102 16.9426 30.0243 15.2483Z" stroke="#E85C30" stroke-width="0.8"></path><path d="M32.1316 17.9954C30.7586 8.85553 40.0734 11.1656 41.9788 15.8768C44.5824 22.2835 47.4603 24.8199 52.6017 27.6044C55.3252 29.3327 56.0434 23.1591 60.5733 22.4421C65.1032 21.7251 66.883 27.9774 69.4335 25.2657C73.3403 21.1536 76.9538 19.6473 79.8459 19.8529C82.6948 19.9812 84.8755 21.8044 85.9433 24.4436C86.9386 26.9168 86.9551 30.1025 85.6222 33.2764C83.4616 37.1992 81.7912 40.702 79.5348 42.9117C76.5622 45.3767 80.5814 48.0376 79.9324 53.6354C79.2834 59.2332 74.7218 59.0214 76.3346 63.2451C78.9172 69.9019 79.6017 74.5606 79.0699 77.5993C78.0825 84.2209 71.5024 83.4363 66.1734 78.7055C63.0608 75.9948 60.7896 73.4118 58.7744 71.4143C56.1549 68.4636 52.7149 74.1862 49.4006 74.1417C43.6685 74.0049 44.7975 67.5346 39.9832 70.3435C38.0401 71.4615 35.8834 72.807 33.4657 74.4148C27.9007 78.003 23.6245 78.9799 20.5525 78.4832C14.293 78.0747 12.0501 71.7217 13.3589 65.6647C14.1275 62.1751 16.0607 58.788 19.072 56.666C22.648 54.1453 28.5047 52.2296 30.3796 47.5993C31.7916 44.3792 22.9432 40.138 25.2623 34.1342C26.7276 30.2386 31.586 28.4818 31.8503 25.4494C32.1357 22.1735 32.2401 19.5106 32.1316 17.9954Z" stroke="#E85C30" stroke-width="0.8"></path><path d="M34.3379 20.7417C33.2013 12.7278 41.4143 14.7731 43.1046 18.9592C45.5797 25.0485 48.3155 27.2024 53.0569 29.5104C55.4715 31.0064 56.1467 25.562 60.1557 24.9012C64.1647 24.2404 65.77 29.6881 68.037 27.3139C71.5266 23.7141 74.7426 22.4397 77.3002 22.6861C79.8047 22.8295 81.7197 24.4759 82.6362 26.8368C83.4893 29.0524 83.4614 31.8917 82.2084 34.7016C79.942 38.2671 78.8421 42.0795 76.8857 44.2142C74.2925 46.4437 77.7587 48.8135 77.125 53.7225C76.4913 58.6315 72.4182 58.4193 73.7612 62.057C75.9427 67.8172 76.4876 71.8293 75.9759 74.4346C75.0772 80.1997 69.2579 79.4696 64.5153 75.3083C61.7108 72.9163 59.6247 70.6612 57.759 68.9779C55.4209 66.4218 52.3594 71.4685 49.4007 71.4718C44.3207 71.3992 45.2468 65.7648 40.983 68.2449C39.2297 69.2441 37.2963 70.4302 35.1413 71.8363C30.1114 74.9708 26.3129 75.6625 23.6596 75.071C18.1959 74.6687 16.2516 69.0607 17.4201 63.7162C18.1162 60.6204 19.8379 57.6188 22.5091 55.7333C25.8492 53.3746 31.0773 51.6151 32.7343 47.2733C33.9735 44.3789 26.2192 40.5791 28.23 35.2355C29.4941 31.7383 33.7256 30.1145 33.9631 27.3846C34.2184 24.4505 34.3689 22.0779 34.3379 20.7417Z" stroke="#E85C30" stroke-width="0.8"></path><path d="M36.5278 23.6177C35.6274 16.7474 42.7385 18.5235 44.2135 22.1751C46.5598 27.9332 49.153 29.6998 53.4938 31.5263C55.5995 32.7867 56.2316 28.0836 59.7196 27.4805C63.2075 26.8774 64.6381 31.5083 66.6216 29.477C69.6939 26.3974 72.5123 25.3578 74.7353 25.6444C76.8953 25.8025 78.5444 27.2684 79.3097 29.3458C80.0208 31.2987 79.9485 33.7853 78.7755 36.2249C76.4042 39.4251 75.874 43.5382 74.2177 45.5932C72.0038 47.5822 74.9172 49.6556 74.2988 53.8648C73.6805 58.074 70.0962 57.8619 71.1694 60.9056C72.95 65.7563 73.3554 69.1129 72.8638 71.2789C72.054 76.1748 66.9956 75.5007 62.8397 71.9182C60.3433 69.8503 58.4427 67.9281 56.7266 66.5628C54.6701 64.4069 51.9873 68.7666 49.3843 68.8175C44.9566 68.8093 45.6799 64.0232 41.9667 66.169C40.4032 67.0472 38.6933 68.0713 36.8011 69.2726C32.3066 71.9463 28.9859 72.3514 26.7514 71.6666C22.0835 71.2714 20.4379 66.4208 21.4659 61.8009C22.0895 59.1057 23.5995 56.4962 25.9306 54.8514C29.0344 52.6601 33.6336 51.061 35.0727 47.0175C36.139 44.4552 29.479 41.1052 31.1814 36.4339C32.2444 33.343 35.8489 31.8558 36.0598 29.4346C36.2849 26.8489 36.4814 24.7719 36.5278 23.6177Z" stroke="#E85C30" stroke-width="0.8"></path><path d="M38.6251 26.3641C37.9591 20.6203 43.983 22.1314 45.2458 25.2579C47.4682 30.6991 49.9243 32.0829 53.8736 33.4325C55.6747 34.4603 56.2651 30.4868 59.2392 29.9399C62.2133 29.393 63.4723 33.2188 65.1763 31.5252C67.8377 28.9581 70.2644 28.1507 72.1575 28.4782C73.9775 28.6514 75.3642 29.9405 75.9799 31.7395C76.5503 33.4346 76.4335 35.5748 75.338 37.6503C72.8567 40.4932 72.8953 44.9171 71.5356 46.8974C69.6965 48.6509 72.063 50.4331 71.4588 53.9532C70.8546 57.4732 67.7516 57.2607 68.5572 59.718C69.9406 63.6716 70.2072 66.3811 69.7349 68.1134C69.0121 72.1523 64.7042 71.5326 61.1263 68.52C58.9329 66.7708 57.2137 65.1768 55.6436 64.1259C53.8644 62.3648 51.5547 66.0483 49.302 66.1471C45.5174 66.2033 46.0393 62.2535 42.8691 64.0704C41.4923 64.8297 40.0022 65.6944 38.3689 66.6939C34.4004 68.9136 31.5507 69.033 29.7303 68.2533C25.8485 67.8641 24.498 63.7588 25.3878 59.8518C25.9402 57.5506 27.2417 55.3266 29.2374 53.9184C32.1114 51.8889 36.0913 50.4461 37.3155 46.6908C38.2112 44.4543 32.6316 41.5457 34.0291 37.5349C34.8932 34.8426 37.8783 33.4882 38.0628 31.3696C38.2582 29.1257 38.5012 27.3392 38.6251 26.3641Z" stroke="#E85C30" stroke-width="0.8"></path><path d="M40.8123 29.1108C40.3824 24.4943 45.3032 25.7404 46.3505 28.3414C48.443 33.4669 50.7552 34.4673 54.3025 35.3393C55.7942 36.1344 56.3413 32.8908 58.7938 32.4001C61.2462 31.9093 62.3302 34.9294 63.7503 33.5737C65.9936 31.5196 68.0221 30.9447 69.5803 31.3132C71.0555 31.5016 72.1761 32.614 72.6406 34.1345C73.0689 35.5718 72.9079 37.3653 71.893 39.0765C69.3085 41.5622 69.9155 46.2995 68.856 48.2056C67.3964 49.7236 69.2099 51.2145 68.6214 54.0448C68.033 56.8751 65.4195 56.6621 65.9555 58.5324C66.9381 61.5879 67.0654 63.6497 66.6134 64.9477C65.9797 68.1289 62.4336 67.5635 59.4432 65.1211C57.5586 63.6909 56.0255 62.4253 54.6057 61.6893C53.1084 60.3234 51.1779 63.3304 49.2815 63.4772C46.15 63.5978 46.4693 60.4851 43.8503 61.9729C42.6638 62.6133 41.3976 63.3185 40.0274 64.116C36.5957 65.8813 34.2244 65.7145 32.8228 64.8392C29.7373 64.456 28.6857 61.0965 29.4348 57.9028C29.9145 55.9957 31.004 54.1575 32.6591 52.986C35.2956 51.1181 38.6456 49.8314 39.6516 46.3637C40.3744 44.453 35.8899 41.986 36.9789 38.6359C37.6418 36.3423 39.9996 35.1206 40.1574 33.3046C40.3226 31.4027 40.6113 29.9066 40.8123 29.1108Z" stroke="#E85C30" stroke-width="0.8"></path></svg>