<svg xmlns="http://www.w3.org/2000/svg" width="91" height="22" viewBox="0 0 91 22" fill="none"><path fill-rule="evenodd" clip-rule="evenodd" d="M84.8815 14.0466L82.3125 16.7421L86.0231 20.8949L91.0004 20.8949L84.8815 14.0466Z" fill="#121212"></path><path fill-rule="evenodd" clip-rule="evenodd" d="M73.0789 1H68.1016L76.9897 10.9474L68.1016 20.8948H73.0789L79.4784 13.7327L79.4884 13.7439L81.9705 10.9513L81.967 10.9474L83.3005 9.45502L84.1539 8.49488L84.1563 8.49726L90.8551 1H85.8778L79.4784 8.16215L73.0789 1Z" fill="#121212"></path><path d="M0.9 20.7101V20.8101H1H12.3216C14.3455 20.8101 15.9361 20.2989 17.0221 19.3544C18.11 18.4083 18.679 17.0381 18.679 15.3478C18.679 14.05 18.2637 12.9361 17.4198 12.0993C16.5921 11.2786 15.3613 10.7336 13.7313 10.5343V10.5088C15.187 10.323 16.2454 9.80624 16.943 9.04206C17.6548 8.26228 17.9805 7.23615 17.9805 6.07246C17.9805 4.50954 17.4092 3.2834 16.3564 2.45056C15.3069 1.62033 13.7905 1.18985 11.9141 1.18985H1H0.9V1.28985V20.7101ZM23.758 20.8101H23.858V20.7101V1.28985V1.18985H23.758H20.6148H20.5148V1.28985V20.7101V20.8101H20.6148H23.758ZM29.812 20.8101H29.912V20.7101V9.31884H29.912L29.9119 9.31538L29.7991 6.05652H29.8769L32.2918 9.43496L32.2917 9.43501L32.2941 9.43809L41.0836 20.7714L41.1137 20.8101H41.1627H44.5388H44.6388V20.7101V1.28985V1.18985H44.5388H41.3955H41.2955V1.28985V12.7681H41.2954L41.2956 12.7723L41.4368 16.1754H41.3603L38.8581 12.5949L38.8582 12.5948L38.8554 12.5912L30.1241 1.22892L30.0941 1.18985H30.0448H26.6687H26.5687V1.28985V20.7101V20.8101H26.6687H29.812ZM11.4776 9.33478H4.21417V4.20145H11.5649C12.6466 4.20145 13.419 4.41028 13.9203 4.82691C14.4176 5.24021 14.6664 5.8737 14.6664 6.76812C14.6664 7.66 14.3973 8.29375 13.8782 8.70807C13.3544 9.12603 12.5591 9.33478 11.4776 9.33478ZM11.9723 17.7985H4.21417V12.1145H11.9723C13.1125 12.1145 13.9508 12.3307 14.5031 12.7804C15.0511 13.2267 15.3358 13.918 15.3358 14.913C15.3358 15.9536 15.0572 16.6664 14.5129 17.1226C13.9648 17.5822 13.1275 17.7985 11.9723 17.7985ZM46.7633 11C46.7633 14.0519 47.7828 16.5789 49.5799 18.3431C51.3769 20.1071 53.9429 21.1 57.0207 21.1C60.1273 21.1 62.7007 20.1072 64.4978 18.3431C66.2951 16.5788 67.3072 14.0517 67.3072 11C67.3072 7.94834 66.2951 5.42119 64.4978 3.6569C62.7007 1.89278 60.1273 0.9 57.0207 0.9C53.9429 0.9 51.3769 1.89292 49.5799 3.6569C47.7828 5.42107 46.7633 7.94814 46.7633 11ZM63.7893 11C63.7893 13.4068 63.232 15.1223 62.1196 16.2373C61.0071 17.3523 59.3209 17.8855 57.0207 17.8855C54.7204 17.8855 53.0417 17.3523 51.9366 16.2376C50.8313 15.1227 50.2812 13.4071 50.2812 11C50.2812 8.59287 50.8313 6.86993 51.9368 5.74771C53.042 4.62582 54.7207 4.08551 57.0207 4.08551C59.3206 4.08551 61.0068 4.62582 62.1193 5.74794C63.232 6.87025 63.7893 8.59318 63.7893 11Z" fill="#121212" stroke="#121212" stroke-width="0.2"></path></svg>