<svg xmlns="http://www.w3.org/2000/svg" width="58" height="57" viewBox="0 0 58 57"><path d="M40.853 8.09581C42.9638 10.2066 44.7397 13.1764 45.8723 15.9441C47.0049 18.7118 47.5785 21.6821 47.5604 24.6853C47.5424 27.6885 46.933 30.6659 45.767 33.4475C44.601 36.229 42.9013 38.7602 40.7649 40.8966C38.6285 43.033 36.0973 44.7327 33.3158 45.8987C30.5342 47.0647 27.5568 47.6741 24.5536 47.6922C21.5503 47.7102 18.4268 46.817 15.6591 45.6844C12.8914 44.5518 10.2522 42.5907 8.14137 40.4799L23.7548 24.6851L40.853 8.09581Z"></path><path fill-rule="evenodd" clip-rule="evenodd" d="M24.2443 8.09585L8.05312 8.09531L8.1428 24.2877L24.2443 8.09585Z"></path></svg>