<svg xmlns="http://www.w3.org/2000/svg" width="51" height="48" viewBox="0 0 51 48" fill="none"><path fill-rule="evenodd" clip-rule="evenodd" d="M16.9795 0.297775C16.7172 0.514789 16.294 0.844947 15.674 1.27428L13.5504 2.74487L14.2227 3.67407C14.2715 3.74164 14.344 3.84209 14.4377 3.97247C14.6254 4.2335 14.8983 4.61436 15.2376 5.09133C15.9164 6.04556 16.8597 7.38285 17.9164 8.91371C20.0398 11.99 22.5842 15.7941 24.3692 18.8376C26.0551 21.7121 28.0259 25.5486 29.5908 28.7023C30.3696 30.2717 31.0411 31.6583 31.5178 32.6522C31.756 33.149 31.9454 33.5472 32.0749 33.8207C32.1397 33.9574 32.1894 34.0629 32.2229 34.1338L32.6908 35.1289L35.0178 34.0879C35.7336 33.7677 36.0916 33.6073 36.2709 33.5269L36.4289 33.456L36.4515 33.4457L36.4602 33.4418L36.4728 33.4358L36.473 33.4357C36.4757 33.4345 36.4854 33.4298 36.4972 33.4237C36.5017 33.4214 36.5213 33.4114 36.5448 33.3977C36.5521 33.3934 36.5895 33.3717 36.6338 33.3391C36.6742 33.3077 36.7477 33.2411 36.7809 33.2063C37.0293 32.6832 36.9462 32.1102 36.0405 32.5341L36.9462 32.1102L36.8923 31.9955C36.8574 31.9215 36.8062 31.8129 36.7398 31.6728C36.6072 31.3928 36.4143 30.9871 36.1722 30.4823C35.6881 29.4729 35.0065 28.0654 34.2155 26.4714C32.6409 23.2983 30.6058 19.3307 28.8261 16.2965C26.942 13.0839 24.3091 9.15277 22.1727 6.05772C21.0995 4.50292 20.1421 3.14557 19.4528 2.17656C19.2098 1.83502 19 1.54153 18.83 1.30443L18.8486 1.27766L18.7543 1.19881L18.6378 1.03667C18.5417 0.902991 18.467 0.799434 18.4161 0.728976L18.2959 0.81578L17.3226 0.00239487L17.3203 -7.57094e-07L17.3136 0.00639649C17.3032 0.0162384 17.2845 0.0338127 17.2569 0.0588944C17.2017 0.109061 17.1107 0.189269 16.9795 0.297775ZM14.9591 2.98595L14.959 2.98581L16.2433 2.09641C16.4091 1.98161 16.5618 1.8733 16.7021 1.77172C17.008 1.55012 17.2546 1.36055 17.4483 1.20545C17.8538 0.88082 18.0273 0.707221 18.0273 0.707221L18.0268 0.707885C18.0097 0.724921 17.5054 1.22271 16.2433 2.09662L14.9591 2.98595ZM17.6055 1.31467C17.656 1.38456 17.7303 1.48748 17.8259 1.62047C17.8993 1.72254 17.9853 1.84232 18.0828 1.97848C18.2395 2.1973 18.4261 2.4584 18.6379 2.75622C19.3252 3.72231 20.2798 5.07572 21.3497 6.6258C23.4836 9.71715 26.099 13.6233 27.9636 16.8024C29.7247 19.8051 31.747 23.7467 33.3197 26.9159C34.1083 28.505 34.7879 29.9084 35.2705 30.9147C35.399 31.1826 35.5136 31.4226 35.6126 31.6303C35.6995 31.8128 35.7743 31.9705 35.8361 32.1009C35.9021 32.2403 35.9531 32.3483 35.9876 32.4217L36.0405 32.5341L36.0404 32.5341L35.9876 32.4219C35.9531 32.3485 35.9021 32.2405 35.8361 32.1011C35.704 31.8223 35.5118 31.4181 35.2705 30.9149C34.7879 29.9086 34.1083 28.5052 33.3197 26.9161C31.747 23.7469 29.7246 19.8053 27.9636 16.8026C26.099 13.6235 23.4836 9.71737 21.3497 6.62601C20.2797 5.07593 19.3252 3.72253 18.6379 2.75643C18.2942 2.27329 18.0172 1.88677 17.8259 1.62068C17.7302 1.48763 17.656 1.38467 17.6055 1.31478L17.6055 1.31467ZM45.1022 29.685L50.1822 28.8595L47.6396 13.9253L42.5596 14.7508L45.1022 29.685ZM23.8866 47.2332L24.0268 42.1591L0.140282 41.5287L-2.75522e-08 46.6028L23.8866 47.2332ZM10.3151 27.7991C10.3242 27.7881 10.3341 27.7755 10.3449 27.7611C10.3503 27.7538 10.3559 27.746 10.3618 27.7378L10.3708 27.725L10.3754 27.7183L10.3777 27.7148C10.3778 27.7148 10.3778 27.7147 10.3778 27.7145C10.3778 27.7146 10.3777 27.7146 10.3777 27.7146L10.3754 27.718L10.3708 27.7248L10.3618 27.7376C10.356 27.7458 10.3503 27.7536 10.3449 27.7608C10.3341 27.7754 10.3241 27.788 10.315 27.7991L10.3151 27.7991ZM7.755 26.0131C7.75495 26.0129 7.755 26.0128 7.75505 26.0128L7.75752 26.0091L7.76267 26.0016L7.77379 25.9858L7.78187 25.9745L7.79939 25.9506C7.81797 25.9256 7.83967 25.8978 7.86467 25.8675C7.91459 25.8071 7.97816 25.7365 8.05671 25.6607C8.16652 25.5547 8.30653 25.4377 8.47975 25.3242L8.5031 25.309C8.57132 25.2652 8.64453 25.222 8.72292 25.1803C9.32662 24.8592 10.1353 24.68 11.1353 24.8364C13.0279 25.1323 15.5234 26.6111 18.9807 30.3772C22.2937 33.9859 24.5584 35.389 25.8632 35.9222C25.9423 35.9545 26.0176 35.9835 26.0893 36.0096C26.2668 36.0743 26.422 36.1209 26.5554 36.1546C26.7732 36.2094 26.9331 36.2296 27.0374 36.2362L27.0424 36.2366L27.0523 36.2371L27.0704 36.238L27.0825 36.2385L27.1032 36.239C27.1231 36.2394 27.14 36.2392 27.1538 36.2388C27.1914 36.2377 27.2066 36.2348 27.2007 36.2358C27.1999 36.2359 27.1989 36.2361 27.1975 36.2363C27.1851 36.2377 27.1472 36.2409 27.0825 36.2387C26.9071 36.2327 26.5076 36.1857 25.8632 35.9224C24.5584 35.3892 22.2937 33.9862 18.9807 30.3774C15.5234 26.6113 13.0279 25.1326 11.1353 24.8366C10.1353 24.6802 9.32662 24.8594 8.72291 25.1805C8.43302 25.3347 8.21392 25.5092 8.05671 25.6609C7.97815 25.7367 7.91458 25.8073 7.86466 25.8677C7.83966 25.898 7.81796 25.9259 7.79938 25.9508C7.79009 25.9633 7.78156 25.975 7.77378 25.986L7.76267 26.0019L7.75752 26.0093L7.75505 26.013C7.75503 26.013 7.75502 26.013 7.755 26.0131ZM27.0524 36.2791C27.0519 36.2838 27.078 36.3575 27.6007 37.7206C28.117 39.067 28.1488 39.1554 28.1489 39.1619C28.1492 39.1599 28.1446 39.1455 28.0991 39.0247L28.0868 38.9923L28.0277 38.8365L27.9998 38.7633L27.9502 38.6331L27.8758 38.4386L27.7947 38.2267L27.7997 38.225L27.805 38.2231L27.8067 38.2225C27.8103 38.2212 27.8058 38.2227 27.7947 38.2267L27.6007 37.7204L27.4069 37.2145C27.4641 37.1942 27.6931 37.0986 27.862 36.8659C28.0479 36.6096 28.0529 36.3512 28.0524 36.2722C28.0517 36.1763 28.037 36.1027 28.0322 36.0793C28.0257 36.0474 28.0189 36.0228 28.0156 36.0111C28.0055 35.975 27.9955 35.9487 28.0011 35.9642C28.0058 35.9774 28.0195 36.0145 28.0541 36.1058C28.1214 36.2837 28.2582 36.6419 28.5344 37.3623C28.8104 38.0822 28.9488 38.4445 29.0179 38.6272C29.0516 38.7163 29.0715 38.7696 29.0831 38.8021L29.0836 38.8034C29.0871 38.8131 29.1003 38.8498 29.1116 38.8902C29.1153 38.9036 29.1224 38.9298 29.1291 38.9632C29.1341 38.988 29.1489 39.0636 29.1489 39.1615C29.149 39.2443 29.1409 39.5026 28.9527 39.757C28.8539 39.8904 28.7379 39.9782 28.6382 40.0342C28.5923 40.0599 28.5532 40.0771 28.5288 40.0871C28.5164 40.0922 28.5063 40.0961 28.5002 40.0984L28.493 40.101L28.4906 40.1019L28.4879 40.1029L28.4798 40.1058L28.4627 40.1119L28.4382 40.1204C28.4179 40.1272 28.3966 40.1342 28.3743 40.1412C28.3297 40.1553 28.2816 40.1692 28.2299 40.1828C28.1265 40.2101 28.009 40.2358 27.8777 40.2571C27.6142 40.2999 27.3007 40.3244 26.9381 40.312C26.2093 40.2871 25.3203 40.1148 24.2702 39.6857C22.1957 38.8381 19.4478 36.9716 15.9002 33.1073C12.5927 29.5044 10.913 28.9289 10.4832 28.8617C10.4711 28.8598 10.4607 28.8584 10.4521 28.8574C10.4422 28.8598 10.4321 28.862 10.4217 28.8641C10.393 28.8698 10.3193 28.8838 10.2238 28.8837C10.1756 28.8837 10.0904 28.8804 9.98765 28.8553C9.89109 28.8318 9.70953 28.7725 9.53904 28.6121C9.41178 28.4923 9.32148 28.3449 9.27113 28.1862C9.08844 28.0681 8.846 27.9116 8.52431 27.7041C7.86767 27.2805 7.53786 27.0671 7.3721 26.9592C7.29112 26.9065 7.24358 26.8753 7.21546 26.8563L7.21418 26.8554C7.20545 26.8496 7.1753 26.8293 7.14457 26.8055C7.13439 26.7976 7.11463 26.782 7.09109 26.761C7.07385 26.7457 7.02024 26.6976 6.96415 26.6251C6.92187 26.5704 6.76487 26.3618 6.75542 26.0425C6.75027 25.8688 6.79078 25.7196 6.84187 25.6052C6.86517 25.553 6.8885 25.5128 6.90353 25.4884C6.91113 25.4761 6.91755 25.4663 6.92148 25.4603L6.92611 25.4534L6.92768 25.4511L6.9289 25.4493L6.93367 25.4423L6.93882 25.4348L6.94368 25.4278L6.95807 25.4073C6.97028 25.3901 6.98342 25.372 6.9975 25.3531C7.02563 25.3154 7.05761 25.2743 7.09364 25.2307C7.1656 25.1436 7.25459 25.045 7.3623 24.9411C7.57793 24.733 7.87137 24.5006 8.25328 24.2975C9.05538 23.8708 10.0841 23.6598 11.2898 23.8484C13.5302 24.1987 16.2217 25.8931 19.7174 29.7009C22.9727 33.2469 25.1207 34.5385 26.2415 34.9965C26.7889 35.2202 27.0723 35.2375 27.1166 35.2391C27.1158 35.239 27.115 35.2393 27.1142 35.2395C27.1137 35.2397 27.1133 35.2398 27.1129 35.2399L27.115 35.2397C27.1153 35.2397 27.1156 35.2395 27.1159 35.2394C27.1161 35.2392 27.1164 35.2391 27.1166 35.2391C27.1723 35.2412 27.4608 35.2724 27.7122 35.3755C28.1717 36.3256 27.4982 37.1339 27.4096 37.2097L27.4087 37.2105L27.4076 37.2114L27.4083 37.2134L27.4095 37.2131L27.4069 37.2145L27.4061 37.2126L27.3681 37.1133L27.3251 37.0009L27.3103 36.9622L27.2379 36.7727L27.1991 36.6711L27.1703 36.5955L27.1128 36.4438L27.1024 36.4162L27.0786 36.3528C27.0559 36.2921 27.0525 36.2813 27.0524 36.2791ZM8.59349 26.5588C8.58468 26.5719 8.58034 26.5775 8.58243 26.5744L8.58409 26.572L8.59001 26.5635L8.59349 26.5588ZM10.561 27.8636C10.3544 27.8406 10.256 27.8704 10.2309 27.8807C10.2308 27.8807 10.2308 27.8807 10.2308 27.8807C10.2308 27.8807 10.2308 27.8807 10.2309 27.8807C10.2311 27.8805 10.2314 27.8803 10.2317 27.8801C10.2314 27.8803 10.2311 27.8804 10.2308 27.8805C10.236 27.8774 10.2493 27.8684 10.2693 27.8491L10.2284 27.8815L10.2287 27.8816C10.2293 27.8813 10.23 27.881 10.2308 27.8807L10.2292 27.8817L10.2317 27.8821L10.7312 28.7456C10.7365 28.7425 10.7431 28.7385 10.7508 28.7338L10.2317 27.8821L11.2119 28.0343C11.2116 28.0342 11.2113 28.0341 11.211 28.034L10.561 27.8636ZM10.2317 27.8821L10.2309 27.8807L10.2317 27.8821L10.2317 27.8821ZM49.0273 28.0341L46.8203 15.0715L43.7145 15.5763L43.7145 15.5765L46.8203 15.0717L49.0273 28.0341L49.0273 28.0341ZM22.9995 43.1323L1.1123 42.5547L1.11229 42.5549L22.9995 43.1325L22.9995 43.1323Z" fill="#FE5B2C"></path></svg>