<svg xmlns="http://www.w3.org/2000/svg" width="54" height="40" viewBox="0 0 54 40" fill="none"><path d="M13.9869 0.597731C13.9801 0.599135 13.9733 0.600555 13.9664 0.601993C13.5836 0.681708 13.0332 0.812917 12.3711 1.01767C11.0452 1.42767 9.28075 2.12976 7.51965 3.29678C4.01617 5.61841 0.500002 9.79191 0.500003 17.28L0.500007 39.5L22.0352 39.5L22.0352 22.3868L16.9151 22.3868C12.4739 22.3868 8.23244 19.4876 7.86928 14.8938M13.9869 0.597731L7.86928 14.8938M13.9869 0.597731L13.9869 4.49274C13.8807 4.51764 13.758 4.54935 13.6216 4.58944C13.147 4.72892 12.5025 4.9712 11.8149 5.38424C10.434 6.21383 8.89496 7.72485 8.21192 10.4196M13.9869 0.597731L8.21192 10.4196M7.86928 14.8938C7.74474 13.3191 7.78592 11.7039 8.21192 10.4196M7.86928 14.8938C7.86928 14.8938 7.86928 14.8938 7.86928 14.8938L8.21192 10.4196M44.7645 0.601987C44.7714 0.60055 44.7782 0.59913 44.785 0.597726L44.785 4.49273C44.6789 4.51763 44.5561 4.54934 44.4197 4.58943C43.9451 4.72892 43.3006 4.97119 42.6131 5.38424C41.2321 6.21382 39.6931 7.72484 39.01 10.4196C38.584 11.7039 38.5429 13.3191 38.6674 14.8938C39.0306 19.4876 43.272 22.3868 47.7132 22.3868L52.8333 22.3868L52.8333 39.5L31.2981 39.5L31.2981 17.28C31.2981 9.79191 34.8143 5.61841 38.3178 3.29677C40.0789 2.12975 41.8433 1.42767 43.1692 1.01767C43.8313 0.812912 44.3817 0.681702 44.7645 0.601987Z" stroke="#566E7C"></path></svg>