<svg xmlns="http://www.w3.org/2000/svg" width="75" height="75" viewBox="0 0 75 75" fill="none"><path d="M38.5 0.503471C43.1221 0.567657 47.6919 1.52133 51.9657 3.31554C56.3936 5.17442 60.4174 7.89921 63.807 11.3347C67.1967 14.7701 69.8859 18.849 71.7207 23.3385C73.5555 27.8281 74.5 32.6402 74.5 37.5C74.5 42.3598 73.5555 47.1719 71.7207 51.6615C69.8859 56.151 67.1967 60.2299 63.807 63.6653C60.4174 67.1008 56.3936 69.8256 51.9657 71.6845C47.6919 73.4787 43.1221 74.4323 38.5 74.4965L38.5 37.5L38.5 0.503471Z" stroke="#121212"></path><path d="M58.4952 31.5C58.3591 38.6041 55.3269 45.395 50.0154 50.4363C44.5786 55.5967 37.1995 58.5 29.5 58.5C21.8006 58.5 14.4214 55.5967 8.98457 50.4363C3.67314 45.395 0.640886 38.6041 0.504789 31.5L29.5 31.5H58.4952Z" stroke="#121212"></path><rect x="19.7148" y="16.5715" width="8.64286" height="8.64286" stroke="#121212"></rect></svg>