<svg xmlns="http://www.w3.org/2000/svg" width="38" height="40" viewBox="0 0 38 40"><path fill-rule="evenodd" clip-rule="evenodd" d="M36.9868 7.24874C36.6603 4.69143 35.827 2.22819 34.5344 0L25.5938 5.13753C26.2171 6.21202 26.6189 7.39981 26.7764 8.633C26.9338 9.86618 26.8437 11.1206 26.5113 12.3248C26.1788 13.5288 25.6105 14.6591 24.8388 15.6508C24.0671 16.6425 23.1072 17.4762 22.0137 18.1046C20.9202 18.733 19.7147 19.1435 18.4659 19.3129C17.2172 19.482 15.9497 19.4068 14.7357 19.0913C13.5218 18.7758 12.3852 18.2262 11.3909 17.4739C10.3965 16.7217 9.56396 15.7814 8.94064 14.7069L0 19.8444C1.2926 22.0728 3.01918 24.0226 5.08115 25.5827C7.14312 27.1427 9.5001 28.2823 12.0175 28.9366C14.5349 29.5909 17.1635 29.747 19.7531 29.396C22.3427 29.0449 24.8427 28.1934 27.1102 26.8904C29.3778 25.5875 31.3686 23.8583 32.9689 21.8017C34.5691 19.7452 35.7476 17.4015 36.437 14.9045C37.1264 12.4075 37.3132 9.80606 36.9868 7.24874Z"></path><ellipse cx="29.9376" cy="35.3928" rx="4.60717" ry="4.62898" transform="rotate(-90 29.9376 35.3928)"></ellipse><path d="M34.6513 27.1481L34.6513 30.4678L31.7627 28.8079L34.6513 27.1481Z"></path></svg>