<svg xmlns="http://www.w3.org/2000/svg" width="16" height="15" viewBox="0 0 16 15"><path id="Union" fill-rule="evenodd" clip-rule="evenodd" d="M9.57664 3.85934C7.89169 3.74776 6.28272 3.06599 5.1279 2.17083L6.05054 0.988524C6.99229 1.71853 8.32534 2.28172 9.69465 2.3724C11.0414 2.46159 12.3922 2.0954 13.4813 1.01475C13.486 1.01001 13.4907 1.00527 13.4954 1.00054L14.5422 2.04728L14.5422 2.04733L14.5422 2.04738L14.5341 2.0555L14.5258 2.06376C13.4813 3.11973 13.1842 4.52933 13.3972 6.02511C13.6129 7.53949 14.3473 9.06457 15.244 10.1798L14.0779 11.1229C13.0394 9.8314 12.1798 8.06556 11.9219 6.25429C11.8504 5.75249 11.8248 5.24145 11.8563 4.73325L1.81431 14.7753L0.767571 13.7285L10.6455 3.8506C10.2873 3.881 9.92965 3.88272 9.57664 3.85934Z"></path></svg>