<svg xmlns="http://www.w3.org/2000/svg" width="60" height="60" viewBox="0 0 60 60"><path fill-rule="evenodd" clip-rule="evenodd" d="M53.8771 40.1154C55.8183 40.9195 57.8988 41.3333 60 41.3333L60 25.3333L44 25.3333C44 27.4345 44.4139 29.5151 45.2179 31.4563C46.022 33.3975 47.2006 35.1613 48.6863 36.647C50.172 38.1328 51.9359 39.3113 53.8771 40.1154ZM29.8804 60C21.9557 60 14.3555 56.8394 8.75175 51.2132C3.14805 45.5871 2.12291e-05 37.9564 2.15768e-05 30C2.19246e-05 22.0436 3.14805 14.4129 8.75175 8.78677C14.3555 3.16063 21.9557 -1.66297e-06 29.8804 -1.31657e-06L29.8804 17.6058C26.6063 17.6058 23.4665 18.9118 21.1514 21.2361C18.8364 23.5604 17.5356 26.7128 17.5356 30C17.5356 33.2872 18.8364 36.4396 21.1514 38.7639C23.4665 41.0882 26.6063 42.3942 29.8804 42.3942L29.8804 60Z"></path></svg>