<svg xmlns="http://www.w3.org/2000/svg" width="24" height="24" viewBox="0 0 24 24" fill="none"><rect opacity="0.1" width="24" height="24" rx="12" fill="#121212"></rect><path d="M15.4305 9.00051C15.1801 8.75462 14.8428 8.61733 14.4918 8.6184L10.4395 8.61368C10.2632 8.6142 10.0944 8.68445 9.96973 8.80908C9.8451 8.93371 9.77485 9.10259 9.77433 9.27884C9.77397 9.36691 9.79105 9.45418 9.82458 9.53562C9.85812 9.61705 9.90745 9.69104 9.96973 9.75332C10.032 9.8156 10.106 9.86492 10.1874 9.89846C10.2689 9.932 10.3561 9.94908 10.4442 9.94872L13.5436 9.944L8.82612 14.6614C8.70101 14.7866 8.63072 14.9562 8.63072 15.1332C8.63072 15.3101 8.70101 15.4798 8.82612 15.6049C8.95124 15.73 9.12093 15.8003 9.29787 15.8003C9.47481 15.8003 9.6445 15.73 9.76961 15.6049L14.4871 10.8875L14.4871 13.9916C14.4864 14.1686 14.5562 14.3386 14.6809 14.4643C14.8056 14.5899 14.9752 14.6608 15.1522 14.6614C15.3293 14.6621 15.4993 14.5923 15.6249 14.4676C15.7505 14.3429 15.8215 14.1733 15.8221 13.9963L15.8174 9.944C15.8184 9.59069 15.6793 9.25139 15.4305 9.00051Z" fill="#555555"></path></svg>