<svg xmlns="http://www.w3.org/2000/svg" width="20" height="20" viewBox="0 0 20 20" fill="none"><path fill-rule="evenodd" clip-rule="evenodd" d="M19.0858 0.0739894C19.2941 -0.0399226 19.5458 -0.0207923 19.7375 0.120945C19.9291 0.263553 20.0275 0.50529 19.9933 0.748766L17.7016 16.8356C17.6741 17.026 17.5666 17.1956 17.4083 17.2964C17.3091 17.359 17.1966 17.3912 17.0833 17.3912C17.015 17.3912 16.9466 17.379 16.8816 17.3564L8.14584 14.2408L16.7358 3.44178L5.63502 13.346L0.422536 11.4869C0.186703 11.4026 0.0208703 11.18 0.00170373 10.9191C-0.0166295 10.6591 0.114203 10.4122 0.335869 10.2913L19.0858 0.0739894ZM7.29179 19.3478V15.3148L10.6809 16.5235L8.42012 19.7339C8.30012 19.9043 8.11179 20 7.91679 20C7.85179 20 7.78595 19.9896 7.72179 19.9678C7.46512 19.8791 7.29179 19.6296 7.29179 19.3478Z" fill="#FEDA1F"></path></svg>