<svg xmlns="http://www.w3.org/2000/svg" width="75" height="75" viewBox="0 0 75 75" fill="none"><line y1="37.5" x2="75" y2="37.5" stroke="#121212"></line><line x1="37.5" y1="2.18557e-08" x2="37.5" y2="75" stroke="#121212"></line><line x1="47.5" y1="13" x2="47.5" y2="28" stroke="#121212"></line><line x1="62" y1="27.5" x2="47" y2="27.5" stroke="#121212"></line><line y1="-0.5" x2="15" y2="-0.5" transform="matrix(-4.37114e-08 -1 -1 4.37114e-08 47 62)" stroke="#121212"></line><line y1="-0.5" x2="15" y2="-0.5" transform="matrix(-1 8.74228e-08 8.74228e-08 1 62 48)" stroke="#121212"></line><line y1="-0.5" x2="15" y2="-0.5" transform="matrix(4.37114e-08 1 1 -4.37114e-08 28 13)" stroke="#121212"></line><line y1="-0.5" x2="15" y2="-0.5" transform="matrix(1 -8.74228e-08 -8.74228e-08 -1 13 27)" stroke="#121212"></line><line x1="27.5" y1="62" x2="27.5" y2="47" stroke="#121212"></line><line x1="13" y1="47.5" x2="28" y2="47.5" stroke="#121212"></line></svg>