<svg xmlns="http://www.w3.org/2000/svg" width="42" height="16" viewBox="0 0 42 16" fill="none"><path d="M1.316 0.0599995H2.506L6.188 5.016L9.898 0.0599995H11.074V10H9.786V2.272L6.202 7.088L2.618 2.272V10H1.316V0.0599995ZM13.7164 10V0.0599995H19.5124V1.292H15.0184V4.302H18.6724V5.534H15.0184V8.768H19.5124V10H13.7164ZM29.9794 10H28.8594L22.8114 2.258V10H21.5094V0.0599995H22.6434L28.6914 7.802V0.0599995H29.9794V10ZM39.2046 9.076C38.4859 9.804 37.5479 10.168 36.3906 10.168C35.2333 10.168 34.2953 9.804 33.5766 9.076C32.8579 8.33867 32.4986 7.35867 32.4986 6.136V0.0599995H33.8006V6.164C33.8006 7.05067 34.0339 7.73667 34.5006 8.222C34.9673 8.698 35.5973 8.936 36.3906 8.936C37.1839 8.936 37.8139 8.698 38.2806 8.222C38.7473 7.73667 38.9806 7.05067 38.9806 6.164V0.0599995H40.2826V6.136C40.2826 7.35867 39.9233 8.33867 39.2046 9.076Z" fill="#1C1D20"></path><rect y="15" width="42" height="1" fill="#1C1D20"></rect></svg>