<svg xmlns="http://www.w3.org/2000/svg" xmlns:xlink="http://www.w3.org/1999/xlink" width="95" zoomAndPan="magnify" viewBox="0 0 71.25 72" height="96" preserveAspectRatio="xMidYMid meet"><defs><clipPath id="30e1b46bc1"><path d="M 0 0.746094 L 70.507812 0.746094 L 70.507812 71.253906 L 0 71.253906 Z M 0 0.746094 "></path></clipPath><clipPath id="ceab66611a"><path d="M 35.253906 0.746094 C 15.785156 0.746094 0 16.53125 0 36 C 0 55.46875 15.785156 71.253906 35.253906 71.253906 C 54.722656 71.253906 70.507812 55.46875 70.507812 36 C 70.507812 16.53125 54.722656 0.746094 35.253906 0.746094 Z M 35.253906 0.746094 "></path></clipPath><clipPath id="beb5d3142f"><path d="M 8.976562 7.425781 L 63.15625 7.425781 L 63.15625 67.542969 L 8.976562 67.542969 Z M 8.976562 7.425781 "></path></clipPath></defs><g id="d38e550db9"><g clip-rule="nonzero" clip-path="url(#30e1b46bc1)"><g clip-rule="nonzero" clip-path="url(#ceab66611a)"><path style=" stroke:none;fill-rule:nonzero;fill:#7513ff;fill-opacity:1;" d="M 0 0.746094 L 70.507812 0.746094 L 70.507812 71.253906 L 0 71.253906 Z M 0 0.746094 "></path></g></g><g clip-rule="nonzero" clip-path="url(#beb5d3142f)"><path style=" stroke:none;fill-rule:nonzero;fill:#ffffff;fill-opacity:1;" d="M 62.667969 30.183594 L 60.921875 29.617188 C 60.6875 29.539062 60.527344 29.367188 60.464844 29.132812 C 60.199219 28.132812 59.804688 27.191406 59.296875 26.316406 C 59.171875 26.105469 59.167969 25.871094 59.277344 25.652344 L 60.109375 24.015625 C 60.25 23.742188 60.199219 23.421875 59.984375 23.207031 L 58.320312 21.542969 C 58.105469 21.328125 57.789062 21.277344 57.515625 21.417969 L 55.875 22.25 C 55.660156 22.363281 55.421875 22.355469 55.210938 22.234375 C 54.339844 21.722656 53.394531 21.328125 52.398438 21.066406 C 52.164062 21.003906 51.988281 20.839844 51.914062 20.609375 L 51.34375 18.863281 C 51.25 18.570312 50.992188 18.382812 50.683594 18.382812 L 48.332031 18.382812 C 48.027344 18.382812 47.765625 18.570312 47.671875 18.863281 L 47.101562 20.609375 C 47.03125 20.839844 46.855469 21.003906 46.617188 21.066406 C 45.621094 21.328125 44.675781 21.722656 43.804688 22.234375 C 43.59375 22.355469 43.355469 22.363281 43.140625 22.25 L 41.5 21.417969 C 41.230469 21.277344 40.914062 21.328125 40.695312 21.542969 L 39.035156 23.207031 C 38.816406 23.421875 38.765625 23.742188 38.90625 24.015625 L 39.738281 25.652344 C 39.851562 25.871094 39.84375 26.105469 39.71875 26.316406 C 39.210938 27.191406 38.816406 28.132812 38.554688 29.132812 C 38.488281 29.367188 38.328125 29.539062 38.097656 29.617188 L 36.347656 30.183594 C 36.058594 30.277344 35.867188 30.539062 35.867188 30.84375 L 35.867188 33.195312 C 35.867188 33.5 36.058594 33.761719 36.347656 33.855469 L 38.101562 34.421875 C 38.328125 34.5 38.492188 34.671875 38.554688 34.90625 C 38.816406 35.90625 39.210938 36.851562 39.71875 37.722656 C 39.84375 37.933594 39.851562 38.167969 39.738281 38.386719 L 38.90625 40.023438 C 38.765625 40.296875 38.816406 40.617188 39.035156 40.832031 L 40.695312 42.496094 C 40.914062 42.710938 41.230469 42.761719 41.5 42.625 L 43.140625 41.789062 C 43.355469 41.675781 43.59375 41.683594 43.804688 41.804688 C 44.675781 42.316406 45.621094 42.710938 46.617188 42.972656 C 46.855469 43.035156 47.03125 43.199219 47.101562 43.429688 L 47.671875 45.179688 C 47.765625 45.46875 48.027344 45.65625 48.332031 45.65625 L 50.683594 45.65625 C 50.992188 45.65625 51.25 45.46875 51.34375 45.179688 L 51.914062 43.429688 C 51.984375 43.199219 52.164062 43.035156 52.398438 42.972656 C 53.394531 42.710938 54.339844 42.316406 55.210938 41.804688 C 55.421875 41.683594 55.660156 41.675781 55.875 41.789062 L 57.515625 42.625 C 57.785156 42.761719 58.105469 42.710938 58.320312 42.496094 L 59.984375 40.832031 C 60.199219 40.617188 60.25 40.296875 60.109375 40.023438 L 59.277344 38.386719 C 59.167969 38.167969 59.171875 37.933594 59.296875 37.722656 C 59.804688 36.851562 60.199219 35.90625 60.464844 34.90625 C 60.523438 34.671875 60.6875 34.5 60.921875 34.421875 L 62.667969 33.855469 C 62.957031 33.761719 63.148438 33.5 63.148438 33.195312 L 63.148438 30.84375 C 63.148438 30.539062 62.957031 30.277344 62.667969 30.183594 Z M 54.285156 36.796875 C 53.0625 38.015625 51.375 38.769531 49.511719 38.769531 C 47.644531 38.769531 45.957031 38.015625 44.734375 36.796875 C 43.511719 35.574219 42.757812 33.886719 42.757812 32.019531 C 42.757812 30.152344 43.511719 28.464844 44.734375 27.242188 C 45.957031 26.023438 47.644531 25.269531 49.511719 25.269531 C 51.375 25.269531 53.0625 26.023438 54.285156 27.242188 C 55.507812 28.464844 56.261719 30.152344 56.261719 32.019531 C 56.261719 33.886719 55.507812 35.574219 54.285156 36.796875 Z M 52.941406 28.589844 C 53.820312 29.46875 54.363281 30.679688 54.363281 32.019531 C 54.363281 33.359375 53.820312 34.574219 52.941406 35.449219 C 52.0625 36.328125 50.851562 36.871094 49.511719 36.871094 C 48.167969 36.871094 46.957031 36.328125 46.078125 35.449219 C 45.199219 34.574219 44.660156 33.359375 44.660156 32.019531 C 44.660156 30.679688 45.199219 29.46875 46.078125 28.589844 C 46.957031 27.710938 48.167969 27.167969 49.511719 27.167969 C 50.851562 27.167969 52.0625 27.710938 52.941406 28.589844 Z M 19.328125 30.488281 L 26.195312 30.488281 L 26.195312 31.730469 C 26.195312 33.332031 24.882812 34.644531 23.28125 34.644531 L 22.238281 34.644531 C 20.636719 34.644531 19.324219 33.332031 19.324219 31.730469 L 19.324219 30.488281 Z M 15.21875 21.210938 C 15.21875 17.046875 18.59375 13.667969 22.761719 13.667969 C 26.925781 13.667969 30.304688 17.046875 30.304688 21.210938 C 30.304688 24.390625 28.832031 25.53125 27.34375 27.277344 C 26.992188 27.6875 26.722656 28.125 26.535156 28.589844 L 23.714844 28.589844 L 23.714844 22.59375 L 25.445312 20.855469 C 25.816406 20.488281 25.816406 19.886719 25.445312 19.515625 C 25.078125 19.144531 24.476562 19.144531 24.105469 19.515625 L 22.761719 20.855469 L 21.421875 19.515625 C 21.050781 19.144531 20.449219 19.144531 20.078125 19.515625 C 19.707031 19.886719 19.707031 20.488281 20.078125 20.855469 L 21.8125 22.59375 L 21.8125 28.589844 L 18.992188 28.589844 C 18.800781 28.125 18.535156 27.6875 18.183594 27.277344 C 16.6875 25.53125 15.21875 24.390625 15.21875 21.210938 Z M 48.335938 47.558594 C 47.203125 47.558594 46.21875 46.839844 45.867188 45.765625 L 45.496094 44.625 C 44.789062 44.394531 44.097656 44.109375 43.4375 43.769531 L 42.367188 44.3125 C 41.359375 44.824219 40.152344 44.632812 39.355469 43.835938 L 37.691406 42.175781 C 36.894531 41.375 36.703125 40.167969 37.214844 39.160156 L 37.761719 38.089844 C 37.417969 37.429688 37.132812 36.742188 36.90625 36.03125 L 35.765625 35.664062 C 34.695312 35.3125 33.972656 34.324219 33.972656 33.195312 L 33.972656 30.84375 C 33.972656 29.714844 34.691406 28.726562 35.765625 28.375 L 36.90625 28.007812 C 37.132812 27.296875 37.417969 26.609375 37.761719 25.949219 L 37.671875 25.773438 C 35.355469 25.542969 32.964844 25.714844 30.679688 26.265625 C 30.632812 26.332031 30.585938 26.394531 30.535156 26.460938 C 29.996094 27.1875 29.371094 27.828125 28.785156 28.515625 C 28.3125 29.070312 28.09375 29.65625 28.09375 30.386719 L 28.09375 31.734375 C 28.09375 34.382812 25.929688 36.546875 23.277344 36.546875 L 22.238281 36.546875 C 20.933594 36.546875 19.746094 36.023438 18.878906 35.171875 C 18.226562 36.566406 17.800781 38.097656 17.652344 39.757812 C 17.398438 42.574219 18.449219 43.992188 14.371094 49.230469 C 12.367188 52.472656 15.386719 52.492188 16.804688 52.539062 C 15.347656 53.792969 16.703125 54.898438 17.523438 55.136719 C 15.90625 55.796875 16.375 57.28125 17.820312 57.773438 C 15.445312 63.355469 19.648438 63.554688 25.570312 62.351562 L 26.46875 66.058594 C 26.648438 66.792969 27.28125 67.292969 28.035156 67.292969 L 44.828125 67.292969 C 45.382812 67.292969 45.859375 67.039062 46.167969 66.578125 C 46.476562 66.117188 46.53125 65.574219 46.320312 65.0625 C 42.257812 55.242188 47.042969 52.765625 49.96875 47.558594 Z M 29.492188 42.335938 L 28.1875 42.335938 L 28.1875 43.640625 C 28.1875 44.167969 27.761719 44.59375 27.238281 44.59375 C 26.710938 44.59375 26.285156 44.167969 26.285156 43.640625 L 26.285156 42.335938 L 24.984375 42.335938 C 24.457031 42.335938 24.03125 41.914062 24.03125 41.386719 C 24.03125 40.863281 24.457031 40.4375 24.984375 40.4375 L 26.285156 40.4375 L 26.285156 39.132812 C 26.285156 38.609375 26.710938 38.183594 27.238281 38.183594 C 27.761719 38.183594 28.1875 38.609375 28.1875 39.132812 L 28.1875 40.4375 L 29.492188 40.4375 C 30.015625 40.4375 30.441406 40.863281 30.441406 41.386719 C 30.441406 41.914062 30.015625 42.335938 29.492188 42.335938 Z M 13.023438 21.210938 C 13.023438 21.734375 12.597656 22.160156 12.070312 22.160156 L 9.925781 22.160156 C 9.398438 22.160156 8.976562 21.734375 8.976562 21.210938 C 8.976562 20.683594 9.398438 20.257812 9.925781 20.257812 L 12.070312 20.257812 C 12.597656 20.257812 13.023438 20.683594 13.023438 21.210938 Z M 29.644531 14.324219 C 29.273438 13.953125 29.273438 13.351562 29.644531 12.980469 L 31.164062 11.464844 C 31.53125 11.09375 32.136719 11.09375 32.507812 11.464844 C 32.878906 11.832031 32.878906 12.433594 32.507812 12.804688 L 30.992188 14.324219 C 30.621094 14.695312 30.015625 14.695312 29.644531 14.324219 Z M 21.808594 10.523438 L 21.808594 8.375 C 21.808594 7.851562 22.238281 7.425781 22.761719 7.425781 C 23.285156 7.425781 23.714844 7.851562 23.714844 8.375 L 23.714844 10.523438 C 23.714844 11.050781 23.285156 11.472656 22.761719 11.472656 C 22.238281 11.472656 21.808594 11.050781 21.808594 10.523438 Z M 13.011719 12.804688 C 12.640625 12.433594 12.640625 11.832031 13.011719 11.464844 C 13.382812 11.09375 13.988281 11.09375 14.359375 11.464844 L 15.875 12.980469 C 16.246094 13.351562 16.246094 13.953125 15.875 14.324219 C 15.507812 14.695312 14.902344 14.695312 14.53125 14.324219 Z M 33.449219 20.257812 L 35.59375 20.257812 C 36.121094 20.257812 36.546875 20.683594 36.546875 21.210938 C 36.546875 21.734375 36.121094 22.160156 35.59375 22.160156 L 33.449219 22.160156 C 32.921875 22.160156 32.496094 21.734375 32.496094 21.210938 C 32.5 20.683594 32.921875 20.257812 33.449219 20.257812 Z M 39.699219 13.019531 C 39.699219 12.492188 40.121094 12.070312 40.648438 12.070312 L 41.953125 12.070312 L 41.953125 10.765625 C 41.953125 10.238281 42.375 9.816406 42.902344 9.816406 C 43.429688 9.816406 43.851562 10.238281 43.851562 10.765625 L 43.851562 12.070312 L 45.160156 12.070312 C 45.683594 12.070312 46.105469 12.496094 46.105469 13.023438 C 46.105469 13.546875 45.683594 13.96875 45.160156 13.96875 L 43.851562 13.96875 L 43.851562 15.277344 C 43.851562 15.800781 43.429688 16.226562 42.902344 16.226562 C 42.375 16.226562 41.953125 15.800781 41.953125 15.277344 L 41.953125 13.96875 L 40.648438 13.96875 C 40.121094 13.96875 39.699219 13.542969 39.699219 13.019531 Z M 28.1875 40.4375 L 28.1875 42.335938 L 26.289062 42.335938 L 26.289062 40.4375 Z M 28.1875 40.4375 "></path></g></g></svg>