<svg xmlns="http://www.w3.org/2000/svg" xmlns:xlink="http://www.w3.org/1999/xlink" width="145" zoomAndPan="magnify" viewBox="0 0 108.75 30.000001" height="40" preserveAspectRatio="xMidYMid meet"><defs><clipPath id="ea3f94fafa"><path d="M 104 15 L 106.875 15 L 106.875 18 L 104 18 Z M 104 15 "></path></clipPath></defs><g id="4733515fdc"><g style="fill:#000000;fill-opacity:1;"><g transform="translate(2.792302, 17.475541)"><path style="stroke:none" d="M 0.859375 2.546875 L 0.859375 -5.796875 L 2.296875 -5.796875 L 2.296875 -5.21875 C 2.492188 -5.46875 2.734375 -5.644531 3.015625 -5.75 C 3.304688 -5.863281 3.609375 -5.921875 3.921875 -5.921875 C 4.328125 -5.921875 4.6875 -5.835938 5 -5.671875 C 5.3125 -5.515625 5.570312 -5.296875 5.78125 -5.015625 C 5.988281 -4.734375 6.144531 -4.410156 6.25 -4.046875 C 6.363281 -3.679688 6.421875 -3.300781 6.421875 -2.90625 C 6.421875 -2.5 6.363281 -2.113281 6.25 -1.75 C 6.144531 -1.394531 5.988281 -1.078125 5.78125 -0.796875 C 5.570312 -0.515625 5.3125 -0.289062 5 -0.125 C 4.695312 0.03125 4.34375 0.109375 3.9375 0.109375 C 3.632812 0.109375 3.332031 0.0546875 3.03125 -0.046875 C 2.738281 -0.148438 2.492188 -0.328125 2.296875 -0.578125 L 2.296875 2.546875 Z M 3.578125 -1.1875 C 3.898438 -1.1875 4.164062 -1.257812 4.375 -1.40625 C 4.582031 -1.5625 4.734375 -1.765625 4.828125 -2.015625 C 4.929688 -2.273438 4.984375 -2.570312 4.984375 -2.90625 C 4.984375 -3.226562 4.929688 -3.519531 4.828125 -3.78125 C 4.734375 -4.050781 4.582031 -4.257812 4.375 -4.40625 C 4.164062 -4.5625 3.898438 -4.640625 3.578125 -4.640625 C 3.253906 -4.640625 2.988281 -4.5625 2.78125 -4.40625 C 2.570312 -4.257812 2.414062 -4.050781 2.3125 -3.78125 C 2.207031 -3.519531 2.15625 -3.226562 2.15625 -2.90625 C 2.15625 -2.570312 2.207031 -2.273438 2.3125 -2.015625 C 2.414062 -1.765625 2.570312 -1.5625 2.78125 -1.40625 C 2.988281 -1.257812 3.253906 -1.1875 3.578125 -1.1875 Z M 3.578125 -1.1875 "></path></g><g transform="translate(9.579645, 17.475541)"><path style="stroke:none" d="M 0.84375 0 L 0.84375 -5.796875 L 2.21875 -5.796875 L 2.21875 -4.8125 C 2.300781 -5.050781 2.421875 -5.25 2.578125 -5.40625 C 2.742188 -5.570312 2.929688 -5.695312 3.140625 -5.78125 C 3.347656 -5.875 3.5625 -5.921875 3.78125 -5.921875 C 3.96875 -5.921875 4.15625 -5.882812 4.34375 -5.8125 C 4.53125 -5.75 4.691406 -5.644531 4.828125 -5.5 L 4.1875 -4.34375 C 3.988281 -4.46875 3.78125 -4.53125 3.5625 -4.53125 C 3.394531 -4.53125 3.226562 -4.488281 3.0625 -4.40625 C 2.90625 -4.332031 2.757812 -4.210938 2.625 -4.046875 C 2.5 -3.878906 2.394531 -3.660156 2.3125 -3.390625 C 2.238281 -3.128906 2.203125 -2.816406 2.203125 -2.453125 L 2.203125 0 Z M 0.84375 0 "></path></g><g transform="translate(14.303544, 17.475541)"><path style="stroke:none" d="M 3.265625 0.109375 C 2.816406 0.109375 2.410156 0.03125 2.046875 -0.125 C 1.679688 -0.28125 1.367188 -0.5 1.109375 -0.78125 C 0.847656 -1.0625 0.644531 -1.382812 0.5 -1.75 C 0.363281 -2.113281 0.296875 -2.5 0.296875 -2.90625 C 0.296875 -3.320312 0.363281 -3.707031 0.5 -4.0625 C 0.644531 -4.425781 0.847656 -4.742188 1.109375 -5.015625 C 1.367188 -5.296875 1.679688 -5.515625 2.046875 -5.671875 C 2.410156 -5.835938 2.816406 -5.921875 3.265625 -5.921875 C 3.710938 -5.921875 4.117188 -5.835938 4.484375 -5.671875 C 4.847656 -5.515625 5.160156 -5.296875 5.421875 -5.015625 C 5.679688 -4.742188 5.878906 -4.425781 6.015625 -4.0625 C 6.160156 -3.707031 6.234375 -3.320312 6.234375 -2.90625 C 6.234375 -2.5 6.160156 -2.113281 6.015625 -1.75 C 5.878906 -1.382812 5.679688 -1.0625 5.421875 -0.78125 C 5.160156 -0.5 4.847656 -0.28125 4.484375 -0.125 C 4.117188 0.03125 3.710938 0.109375 3.265625 0.109375 Z M 3.265625 -1.109375 C 3.535156 -1.109375 3.765625 -1.15625 3.953125 -1.25 C 4.140625 -1.34375 4.289062 -1.472656 4.40625 -1.640625 C 4.53125 -1.816406 4.617188 -2.015625 4.671875 -2.234375 C 4.734375 -2.453125 4.765625 -2.675781 4.765625 -2.90625 C 4.765625 -3.144531 4.734375 -3.367188 4.671875 -3.578125 C 4.617188 -3.796875 4.53125 -3.988281 4.40625 -4.15625 C 4.289062 -4.320312 4.140625 -4.453125 3.953125 -4.546875 C 3.765625 -4.640625 3.535156 -4.6875 3.265625 -4.6875 C 2.910156 -4.6875 2.617188 -4.601562 2.390625 -4.4375 C 2.171875 -4.28125 2.007812 -4.066406 1.90625 -3.796875 C 1.8125 -3.523438 1.765625 -3.226562 1.765625 -2.90625 C 1.765625 -2.675781 1.789062 -2.453125 1.84375 -2.234375 C 1.90625 -2.015625 1.992188 -1.816406 2.109375 -1.640625 C 2.234375 -1.472656 2.390625 -1.34375 2.578125 -1.25 C 2.765625 -1.15625 2.992188 -1.109375 3.265625 -1.109375 Z M 3.265625 -1.109375 "></path></g><g transform="translate(20.841651, 17.475541)"><path style="stroke:none" d="M 0.828125 -6.890625 L 0.828125 -8.1875 L 2.328125 -8.1875 L 2.328125 -6.890625 Z M 0.609375 2.546875 C 0.429688 2.546875 0.25 2.523438 0.0625 2.484375 C -0.125 2.441406 -0.28125 2.398438 -0.40625 2.359375 L -0.046875 1.125 C 0.0546875 1.164062 0.148438 1.195312 0.234375 1.21875 C 0.316406 1.25 0.394531 1.265625 0.46875 1.265625 C 0.738281 1.265625 0.875 1.082031 0.875 0.71875 L 0.875 -5.796875 L 2.296875 -5.796875 L 2.296875 0.609375 C 2.296875 0.953125 2.234375 1.269531 2.109375 1.5625 C 1.992188 1.863281 1.8125 2.101562 1.5625 2.28125 C 1.3125 2.457031 0.992188 2.546875 0.609375 2.546875 Z M 0.609375 2.546875 "></path></g><g transform="translate(23.977392, 17.475541)"><path style="stroke:none" d="M 3.25 0.109375 C 2.75 0.109375 2.316406 0.03125 1.953125 -0.125 C 1.585938 -0.289062 1.28125 -0.515625 1.03125 -0.796875 C 0.789062 -1.078125 0.609375 -1.394531 0.484375 -1.75 C 0.367188 -2.113281 0.3125 -2.488281 0.3125 -2.875 C 0.3125 -3.25 0.367188 -3.613281 0.484375 -3.96875 C 0.597656 -4.332031 0.769531 -4.660156 1 -4.953125 C 1.226562 -5.242188 1.519531 -5.476562 1.875 -5.65625 C 2.238281 -5.832031 2.664062 -5.921875 3.15625 -5.921875 C 3.5625 -5.921875 3.914062 -5.859375 4.21875 -5.734375 C 4.519531 -5.617188 4.773438 -5.457031 4.984375 -5.25 C 5.191406 -5.050781 5.359375 -4.828125 5.484375 -4.578125 C 5.609375 -4.328125 5.695312 -4.0625 5.75 -3.78125 C 5.8125 -3.507812 5.84375 -3.242188 5.84375 -2.984375 C 5.84375 -2.867188 5.835938 -2.757812 5.828125 -2.65625 C 5.816406 -2.550781 5.804688 -2.476562 5.796875 -2.4375 L 1.8125 -2.4375 C 1.851562 -2.1875 1.925781 -1.960938 2.03125 -1.765625 C 2.144531 -1.578125 2.300781 -1.429688 2.5 -1.328125 C 2.707031 -1.222656 2.960938 -1.171875 3.265625 -1.171875 C 3.523438 -1.171875 3.769531 -1.210938 4 -1.296875 C 4.238281 -1.390625 4.457031 -1.550781 4.65625 -1.78125 L 5.625 -0.921875 C 5.3125 -0.578125 4.957031 -0.316406 4.5625 -0.140625 C 4.175781 0.0234375 3.738281 0.109375 3.25 0.109375 Z M 1.8125 -3.453125 L 4.453125 -3.453125 C 4.410156 -3.867188 4.273438 -4.179688 4.046875 -4.390625 C 3.816406 -4.609375 3.519531 -4.71875 3.15625 -4.71875 C 2.875 -4.71875 2.640625 -4.660156 2.453125 -4.546875 C 2.273438 -4.441406 2.132812 -4.296875 2.03125 -4.109375 C 1.9375 -3.921875 1.863281 -3.703125 1.8125 -3.453125 Z M 1.8125 -3.453125 "></path></g><g transform="translate(30.161931, 17.475541)"><path style="stroke:none" d="M 3.140625 0.109375 C 2.660156 0.109375 2.242188 0.03125 1.890625 -0.125 C 1.546875 -0.289062 1.253906 -0.515625 1.015625 -0.796875 C 0.785156 -1.085938 0.613281 -1.410156 0.5 -1.765625 C 0.382812 -2.128906 0.328125 -2.503906 0.328125 -2.890625 C 0.328125 -3.265625 0.382812 -3.632812 0.5 -4 C 0.613281 -4.363281 0.785156 -4.6875 1.015625 -4.96875 C 1.242188 -5.257812 1.535156 -5.488281 1.890625 -5.65625 C 2.242188 -5.832031 2.65625 -5.921875 3.125 -5.921875 C 3.695312 -5.921875 4.203125 -5.773438 4.640625 -5.484375 C 5.078125 -5.203125 5.40625 -4.773438 5.625 -4.203125 L 4.28125 -3.6875 C 4.207031 -3.957031 4.066406 -4.179688 3.859375 -4.359375 C 3.660156 -4.546875 3.414062 -4.640625 3.125 -4.640625 C 2.882812 -4.640625 2.675781 -4.585938 2.5 -4.484375 C 2.332031 -4.390625 2.191406 -4.253906 2.078125 -4.078125 C 1.972656 -3.910156 1.894531 -3.722656 1.84375 -3.515625 C 1.789062 -3.316406 1.765625 -3.109375 1.765625 -2.890625 C 1.765625 -2.671875 1.789062 -2.457031 1.84375 -2.25 C 1.894531 -2.039062 1.972656 -1.851562 2.078125 -1.6875 C 2.179688 -1.53125 2.316406 -1.40625 2.484375 -1.3125 C 2.660156 -1.21875 2.875 -1.171875 3.125 -1.171875 C 3.40625 -1.171875 3.648438 -1.253906 3.859375 -1.421875 C 4.066406 -1.597656 4.207031 -1.820312 4.28125 -2.09375 L 5.578125 -1.59375 C 5.441406 -1.238281 5.253906 -0.929688 5.015625 -0.671875 C 4.785156 -0.421875 4.507812 -0.226562 4.1875 -0.09375 C 3.875 0.0390625 3.523438 0.109375 3.140625 0.109375 Z M 3.140625 0.109375 "></path></g><g transform="translate(35.98131, 17.475541)"><path style="stroke:none" d="M 2.90625 0.109375 C 2.519531 0.109375 2.191406 0.0390625 1.921875 -0.09375 C 1.648438 -0.226562 1.441406 -0.425781 1.296875 -0.6875 C 1.148438 -0.945312 1.078125 -1.25 1.078125 -1.59375 L 1.078125 -4.609375 L 0.140625 -4.609375 L 0.140625 -5.796875 L 1.109375 -5.796875 L 1.109375 -7.234375 L 2.484375 -8.234375 L 2.484375 -5.796875 L 3.9375 -5.796875 L 3.9375 -4.609375 L 2.484375 -4.609375 L 2.484375 -1.84375 C 2.484375 -1.570312 2.546875 -1.382812 2.671875 -1.28125 C 2.796875 -1.175781 2.953125 -1.125 3.140625 -1.125 C 3.285156 -1.125 3.429688 -1.144531 3.578125 -1.1875 C 3.722656 -1.238281 3.84375 -1.289062 3.9375 -1.34375 L 3.9375 -0.0625 C 3.832031 -0.0195312 3.679688 0.015625 3.484375 0.046875 C 3.296875 0.0859375 3.101562 0.109375 2.90625 0.109375 Z M 2.90625 0.109375 "></path></g><g transform="translate(40.351641, 17.475541)"><path style="stroke:none" d=""></path></g><g transform="translate(43.203369, 17.475541)"><path style="stroke:none" d="M 2.59375 0.109375 C 2.1875 0.109375 1.816406 0.0351562 1.484375 -0.109375 C 1.148438 -0.253906 0.867188 -0.445312 0.640625 -0.6875 C 0.410156 -0.9375 0.25 -1.207031 0.15625 -1.5 L 1.28125 -2 C 1.332031 -1.863281 1.40625 -1.722656 1.5 -1.578125 C 1.59375 -1.429688 1.722656 -1.304688 1.890625 -1.203125 C 2.054688 -1.109375 2.265625 -1.0625 2.515625 -1.0625 C 2.734375 -1.0625 2.910156 -1.09375 3.046875 -1.15625 C 3.191406 -1.226562 3.296875 -1.316406 3.359375 -1.421875 C 3.421875 -1.535156 3.453125 -1.644531 3.453125 -1.75 C 3.453125 -1.882812 3.398438 -1.992188 3.296875 -2.078125 C 3.191406 -2.160156 3.050781 -2.226562 2.875 -2.28125 C 2.707031 -2.332031 2.519531 -2.382812 2.3125 -2.4375 C 2.101562 -2.488281 1.894531 -2.550781 1.6875 -2.625 C 1.476562 -2.695312 1.285156 -2.789062 1.109375 -2.90625 C 0.941406 -3.03125 0.804688 -3.1875 0.703125 -3.375 C 0.597656 -3.570312 0.546875 -3.816406 0.546875 -4.109375 C 0.546875 -4.410156 0.601562 -4.675781 0.71875 -4.90625 C 0.84375 -5.132812 1.003906 -5.320312 1.203125 -5.46875 C 1.398438 -5.613281 1.628906 -5.722656 1.890625 -5.796875 C 2.148438 -5.878906 2.421875 -5.921875 2.703125 -5.921875 C 3.191406 -5.921875 3.625 -5.804688 4 -5.578125 C 4.375 -5.347656 4.671875 -5.039062 4.890625 -4.65625 L 3.796875 -4.0625 C 3.734375 -4.175781 3.648438 -4.289062 3.546875 -4.40625 C 3.453125 -4.519531 3.332031 -4.613281 3.1875 -4.6875 C 3.039062 -4.757812 2.863281 -4.796875 2.65625 -4.796875 C 2.414062 -4.796875 2.226562 -4.742188 2.09375 -4.640625 C 1.96875 -4.546875 1.90625 -4.429688 1.90625 -4.296875 C 1.90625 -4.171875 1.957031 -4.066406 2.0625 -3.984375 C 2.164062 -3.910156 2.304688 -3.847656 2.484375 -3.796875 C 2.660156 -3.742188 2.851562 -3.6875 3.0625 -3.625 C 3.269531 -3.5625 3.476562 -3.488281 3.6875 -3.40625 C 3.894531 -3.320312 4.085938 -3.210938 4.265625 -3.078125 C 4.441406 -2.953125 4.582031 -2.785156 4.6875 -2.578125 C 4.789062 -2.367188 4.84375 -2.113281 4.84375 -1.8125 C 4.84375 -1.476562 4.773438 -1.1875 4.640625 -0.9375 C 4.515625 -0.695312 4.34375 -0.5 4.125 -0.34375 C 3.90625 -0.1875 3.660156 -0.0703125 3.390625 0 C 3.128906 0.0703125 2.863281 0.109375 2.59375 0.109375 Z M 2.59375 0.109375 "></path></g><g transform="translate(48.472109, 17.475541)"><path style="stroke:none" d="M 2.421875 0.109375 C 2.023438 0.109375 1.664062 0.0351562 1.34375 -0.109375 C 1.03125 -0.253906 0.78125 -0.46875 0.59375 -0.75 C 0.40625 -1.03125 0.3125 -1.375 0.3125 -1.78125 C 0.3125 -2.09375 0.367188 -2.351562 0.484375 -2.5625 C 0.609375 -2.78125 0.773438 -2.953125 0.984375 -3.078125 C 1.191406 -3.210938 1.4375 -3.304688 1.71875 -3.359375 C 2 -3.421875 2.300781 -3.453125 2.625 -3.453125 L 4.140625 -3.453125 C 4.140625 -3.816406 4.039062 -4.109375 3.84375 -4.328125 C 3.644531 -4.554688 3.359375 -4.671875 2.984375 -4.671875 C 2.765625 -4.671875 2.566406 -4.632812 2.390625 -4.5625 C 2.222656 -4.488281 2.070312 -4.390625 1.9375 -4.265625 C 1.8125 -4.140625 1.707031 -4.003906 1.625 -3.859375 L 0.546875 -4.640625 C 0.734375 -4.898438 0.941406 -5.125 1.171875 -5.3125 C 1.398438 -5.5 1.660156 -5.644531 1.953125 -5.75 C 2.253906 -5.863281 2.597656 -5.921875 2.984375 -5.921875 C 3.503906 -5.921875 3.953125 -5.816406 4.328125 -5.609375 C 4.703125 -5.410156 4.988281 -5.128906 5.1875 -4.765625 C 5.382812 -4.398438 5.484375 -3.984375 5.484375 -3.515625 L 5.484375 0 L 4.3125 0 L 4.234375 -0.828125 C 3.984375 -0.460938 3.703125 -0.210938 3.390625 -0.078125 C 3.085938 0.046875 2.765625 0.109375 2.421875 0.109375 Z M 2.625 -1.078125 C 2.820312 -1.078125 3.007812 -1.113281 3.1875 -1.1875 C 3.375 -1.257812 3.535156 -1.359375 3.671875 -1.484375 C 3.804688 -1.609375 3.914062 -1.75 4 -1.90625 C 4.082031 -2.070312 4.128906 -2.25 4.140625 -2.4375 L 2.703125 -2.4375 C 2.390625 -2.4375 2.15625 -2.363281 2 -2.21875 C 1.84375 -2.070312 1.765625 -1.910156 1.765625 -1.734375 C 1.765625 -1.546875 1.835938 -1.390625 1.984375 -1.265625 C 2.140625 -1.140625 2.351562 -1.078125 2.625 -1.078125 Z M 2.625 -1.078125 "></path></g><g transform="translate(54.621871, 17.475541)"><path style="stroke:none" d="M 0.84375 0 L 0.84375 -5.796875 L 2.265625 -5.796875 L 2.265625 -5.1875 C 2.460938 -5.445312 2.6875 -5.632812 2.9375 -5.75 C 3.195312 -5.863281 3.460938 -5.921875 3.734375 -5.921875 C 4.085938 -5.921875 4.398438 -5.832031 4.671875 -5.65625 C 4.941406 -5.488281 5.175781 -5.234375 5.375 -4.890625 C 5.601562 -5.242188 5.882812 -5.503906 6.21875 -5.671875 C 6.550781 -5.835938 6.90625 -5.921875 7.28125 -5.921875 C 7.65625 -5.921875 7.976562 -5.847656 8.25 -5.703125 C 8.519531 -5.566406 8.738281 -5.382812 8.90625 -5.15625 C 9.082031 -4.925781 9.210938 -4.664062 9.296875 -4.375 C 9.378906 -4.082031 9.421875 -3.785156 9.421875 -3.484375 L 9.421875 0 L 7.984375 0 L 7.984375 -3.296875 C 7.984375 -3.535156 7.957031 -3.753906 7.90625 -3.953125 C 7.851562 -4.148438 7.757812 -4.304688 7.625 -4.421875 C 7.488281 -4.535156 7.300781 -4.59375 7.0625 -4.59375 C 6.800781 -4.59375 6.578125 -4.523438 6.390625 -4.390625 C 6.210938 -4.265625 6.078125 -4.097656 5.984375 -3.890625 C 5.890625 -3.679688 5.84375 -3.445312 5.84375 -3.1875 L 5.84375 0 L 4.40625 0 L 4.40625 -3.328125 C 4.40625 -3.554688 4.378906 -3.765625 4.328125 -3.953125 C 4.273438 -4.148438 4.179688 -4.304688 4.046875 -4.421875 C 3.921875 -4.535156 3.734375 -4.59375 3.484375 -4.59375 C 3.234375 -4.59375 3.015625 -4.523438 2.828125 -4.390625 C 2.648438 -4.265625 2.507812 -4.097656 2.40625 -3.890625 C 2.3125 -3.679688 2.265625 -3.445312 2.265625 -3.1875 L 2.265625 0 Z M 0.84375 0 "></path></g><g transform="translate(64.724638, 17.475541)"><path style="stroke:none" d="M 3.265625 0.109375 C 2.816406 0.109375 2.410156 0.03125 2.046875 -0.125 C 1.679688 -0.28125 1.367188 -0.5 1.109375 -0.78125 C 0.847656 -1.0625 0.644531 -1.382812 0.5 -1.75 C 0.363281 -2.113281 0.296875 -2.5 0.296875 -2.90625 C 0.296875 -3.320312 0.363281 -3.707031 0.5 -4.0625 C 0.644531 -4.425781 0.847656 -4.742188 1.109375 -5.015625 C 1.367188 -5.296875 1.679688 -5.515625 2.046875 -5.671875 C 2.410156 -5.835938 2.816406 -5.921875 3.265625 -5.921875 C 3.710938 -5.921875 4.117188 -5.835938 4.484375 -5.671875 C 4.847656 -5.515625 5.160156 -5.296875 5.421875 -5.015625 C 5.679688 -4.742188 5.878906 -4.425781 6.015625 -4.0625 C 6.160156 -3.707031 6.234375 -3.320312 6.234375 -2.90625 C 6.234375 -2.5 6.160156 -2.113281 6.015625 -1.75 C 5.878906 -1.382812 5.679688 -1.0625 5.421875 -0.78125 C 5.160156 -0.5 4.847656 -0.28125 4.484375 -0.125 C 4.117188 0.03125 3.710938 0.109375 3.265625 0.109375 Z M 3.265625 -1.109375 C 3.535156 -1.109375 3.765625 -1.15625 3.953125 -1.25 C 4.140625 -1.34375 4.289062 -1.472656 4.40625 -1.640625 C 4.53125 -1.816406 4.617188 -2.015625 4.671875 -2.234375 C 4.734375 -2.453125 4.765625 -2.675781 4.765625 -2.90625 C 4.765625 -3.144531 4.734375 -3.367188 4.671875 -3.578125 C 4.617188 -3.796875 4.53125 -3.988281 4.40625 -4.15625 C 4.289062 -4.320312 4.140625 -4.453125 3.953125 -4.546875 C 3.765625 -4.640625 3.535156 -4.6875 3.265625 -4.6875 C 2.910156 -4.6875 2.617188 -4.601562 2.390625 -4.4375 C 2.171875 -4.28125 2.007812 -4.066406 1.90625 -3.796875 C 1.8125 -3.523438 1.765625 -3.226562 1.765625 -2.90625 C 1.765625 -2.675781 1.789062 -2.453125 1.84375 -2.234375 C 1.90625 -2.015625 1.992188 -1.816406 2.109375 -1.640625 C 2.234375 -1.472656 2.390625 -1.34375 2.578125 -1.25 C 2.765625 -1.15625 2.992188 -1.109375 3.265625 -1.109375 Z M 3.265625 -1.109375 "></path></g><g transform="translate(71.262745, 17.475541)"><path style="stroke:none" d="M 2.59375 0.109375 C 2.1875 0.109375 1.816406 0.0351562 1.484375 -0.109375 C 1.148438 -0.253906 0.867188 -0.445312 0.640625 -0.6875 C 0.410156 -0.9375 0.25 -1.207031 0.15625 -1.5 L 1.28125 -2 C 1.332031 -1.863281 1.40625 -1.722656 1.5 -1.578125 C 1.59375 -1.429688 1.722656 -1.304688 1.890625 -1.203125 C 2.054688 -1.109375 2.265625 -1.0625 2.515625 -1.0625 C 2.734375 -1.0625 2.910156 -1.09375 3.046875 -1.15625 C 3.191406 -1.226562 3.296875 -1.316406 3.359375 -1.421875 C 3.421875 -1.535156 3.453125 -1.644531 3.453125 -1.75 C 3.453125 -1.882812 3.398438 -1.992188 3.296875 -2.078125 C 3.191406 -2.160156 3.050781 -2.226562 2.875 -2.28125 C 2.707031 -2.332031 2.519531 -2.382812 2.3125 -2.4375 C 2.101562 -2.488281 1.894531 -2.550781 1.6875 -2.625 C 1.476562 -2.695312 1.285156 -2.789062 1.109375 -2.90625 C 0.941406 -3.03125 0.804688 -3.1875 0.703125 -3.375 C 0.597656 -3.570312 0.546875 -3.816406 0.546875 -4.109375 C 0.546875 -4.410156 0.601562 -4.675781 0.71875 -4.90625 C 0.84375 -5.132812 1.003906 -5.320312 1.203125 -5.46875 C 1.398438 -5.613281 1.628906 -5.722656 1.890625 -5.796875 C 2.148438 -5.878906 2.421875 -5.921875 2.703125 -5.921875 C 3.191406 -5.921875 3.625 -5.804688 4 -5.578125 C 4.375 -5.347656 4.671875 -5.039062 4.890625 -4.65625 L 3.796875 -4.0625 C 3.734375 -4.175781 3.648438 -4.289062 3.546875 -4.40625 C 3.453125 -4.519531 3.332031 -4.613281 3.1875 -4.6875 C 3.039062 -4.757812 2.863281 -4.796875 2.65625 -4.796875 C 2.414062 -4.796875 2.226562 -4.742188 2.09375 -4.640625 C 1.96875 -4.546875 1.90625 -4.429688 1.90625 -4.296875 C 1.90625 -4.171875 1.957031 -4.066406 2.0625 -3.984375 C 2.164062 -3.910156 2.304688 -3.847656 2.484375 -3.796875 C 2.660156 -3.742188 2.851562 -3.6875 3.0625 -3.625 C 3.269531 -3.5625 3.476562 -3.488281 3.6875 -3.40625 C 3.894531 -3.320312 4.085938 -3.210938 4.265625 -3.078125 C 4.441406 -2.953125 4.582031 -2.785156 4.6875 -2.578125 C 4.789062 -2.367188 4.84375 -2.113281 4.84375 -1.8125 C 4.84375 -1.476562 4.773438 -1.1875 4.640625 -0.9375 C 4.515625 -0.695312 4.34375 -0.5 4.125 -0.34375 C 3.90625 -0.1875 3.660156 -0.0703125 3.390625 0 C 3.128906 0.0703125 2.863281 0.109375 2.59375 0.109375 Z M 2.59375 0.109375 "></path></g><g transform="translate(76.531486, 17.475541)"><path style="stroke:none" d="M 2.421875 0.109375 C 2.023438 0.109375 1.664062 0.0351562 1.34375 -0.109375 C 1.03125 -0.253906 0.78125 -0.46875 0.59375 -0.75 C 0.40625 -1.03125 0.3125 -1.375 0.3125 -1.78125 C 0.3125 -2.09375 0.367188 -2.351562 0.484375 -2.5625 C 0.609375 -2.78125 0.773438 -2.953125 0.984375 -3.078125 C 1.191406 -3.210938 1.4375 -3.304688 1.71875 -3.359375 C 2 -3.421875 2.300781 -3.453125 2.625 -3.453125 L 4.140625 -3.453125 C 4.140625 -3.816406 4.039062 -4.109375 3.84375 -4.328125 C 3.644531 -4.554688 3.359375 -4.671875 2.984375 -4.671875 C 2.765625 -4.671875 2.566406 -4.632812 2.390625 -4.5625 C 2.222656 -4.488281 2.070312 -4.390625 1.9375 -4.265625 C 1.8125 -4.140625 1.707031 -4.003906 1.625 -3.859375 L 0.546875 -4.640625 C 0.734375 -4.898438 0.941406 -5.125 1.171875 -5.3125 C 1.398438 -5.5 1.660156 -5.644531 1.953125 -5.75 C 2.253906 -5.863281 2.597656 -5.921875 2.984375 -5.921875 C 3.503906 -5.921875 3.953125 -5.816406 4.328125 -5.609375 C 4.703125 -5.410156 4.988281 -5.128906 5.1875 -4.765625 C 5.382812 -4.398438 5.484375 -3.984375 5.484375 -3.515625 L 5.484375 0 L 4.3125 0 L 4.234375 -0.828125 C 3.984375 -0.460938 3.703125 -0.210938 3.390625 -0.078125 C 3.085938 0.046875 2.765625 0.109375 2.421875 0.109375 Z M 2.625 -1.078125 C 2.820312 -1.078125 3.007812 -1.113281 3.1875 -1.1875 C 3.375 -1.257812 3.535156 -1.359375 3.671875 -1.484375 C 3.804688 -1.609375 3.914062 -1.75 4 -1.90625 C 4.082031 -2.070312 4.128906 -2.25 4.140625 -2.4375 L 2.703125 -2.4375 C 2.390625 -2.4375 2.15625 -2.363281 2 -2.21875 C 1.84375 -2.070312 1.765625 -1.910156 1.765625 -1.734375 C 1.765625 -1.546875 1.835938 -1.390625 1.984375 -1.265625 C 2.140625 -1.140625 2.351562 -1.078125 2.625 -1.078125 Z M 2.625 -1.078125 "></path></g><g transform="translate(82.681248, 17.475541)"><path style="stroke:none" d=""></path></g><g transform="translate(85.532976, 17.475541)"><path style="stroke:none" d="M 0.859375 2.546875 L 0.859375 -5.796875 L 2.296875 -5.796875 L 2.296875 -5.21875 C 2.492188 -5.46875 2.734375 -5.644531 3.015625 -5.75 C 3.304688 -5.863281 3.609375 -5.921875 3.921875 -5.921875 C 4.328125 -5.921875 4.6875 -5.835938 5 -5.671875 C 5.3125 -5.515625 5.570312 -5.296875 5.78125 -5.015625 C 5.988281 -4.734375 6.144531 -4.410156 6.25 -4.046875 C 6.363281 -3.679688 6.421875 -3.300781 6.421875 -2.90625 C 6.421875 -2.5 6.363281 -2.113281 6.25 -1.75 C 6.144531 -1.394531 5.988281 -1.078125 5.78125 -0.796875 C 5.570312 -0.515625 5.3125 -0.289062 5 -0.125 C 4.695312 0.03125 4.34375 0.109375 3.9375 0.109375 C 3.632812 0.109375 3.332031 0.0546875 3.03125 -0.046875 C 2.738281 -0.148438 2.492188 -0.328125 2.296875 -0.578125 L 2.296875 2.546875 Z M 3.578125 -1.1875 C 3.898438 -1.1875 4.164062 -1.257812 4.375 -1.40625 C 4.582031 -1.5625 4.734375 -1.765625 4.828125 -2.015625 C 4.929688 -2.273438 4.984375 -2.570312 4.984375 -2.90625 C 4.984375 -3.226562 4.929688 -3.519531 4.828125 -3.78125 C 4.734375 -4.050781 4.582031 -4.257812 4.375 -4.40625 C 4.164062 -4.5625 3.898438 -4.640625 3.578125 -4.640625 C 3.253906 -4.640625 2.988281 -4.5625 2.78125 -4.40625 C 2.570312 -4.257812 2.414062 -4.050781 2.3125 -3.78125 C 2.207031 -3.519531 2.15625 -3.226562 2.15625 -2.90625 C 2.15625 -2.570312 2.207031 -2.273438 2.3125 -2.015625 C 2.414062 -1.765625 2.570312 -1.5625 2.78125 -1.40625 C 2.988281 -1.257812 3.253906 -1.1875 3.578125 -1.1875 Z M 3.578125 -1.1875 "></path></g><g transform="translate(92.32032, 17.475541)"><path style="stroke:none" d="M 2.421875 0.109375 C 2.023438 0.109375 1.664062 0.0351562 1.34375 -0.109375 C 1.03125 -0.253906 0.78125 -0.46875 0.59375 -0.75 C 0.40625 -1.03125 0.3125 -1.375 0.3125 -1.78125 C 0.3125 -2.09375 0.367188 -2.351562 0.484375 -2.5625 C 0.609375 -2.78125 0.773438 -2.953125 0.984375 -3.078125 C 1.191406 -3.210938 1.4375 -3.304688 1.71875 -3.359375 C 2 -3.421875 2.300781 -3.453125 2.625 -3.453125 L 4.140625 -3.453125 C 4.140625 -3.816406 4.039062 -4.109375 3.84375 -4.328125 C 3.644531 -4.554688 3.359375 -4.671875 2.984375 -4.671875 C 2.765625 -4.671875 2.566406 -4.632812 2.390625 -4.5625 C 2.222656 -4.488281 2.070312 -4.390625 1.9375 -4.265625 C 1.8125 -4.140625 1.707031 -4.003906 1.625 -3.859375 L 0.546875 -4.640625 C 0.734375 -4.898438 0.941406 -5.125 1.171875 -5.3125 C 1.398438 -5.5 1.660156 -5.644531 1.953125 -5.75 C 2.253906 -5.863281 2.597656 -5.921875 2.984375 -5.921875 C 3.503906 -5.921875 3.953125 -5.816406 4.328125 -5.609375 C 4.703125 -5.410156 4.988281 -5.128906 5.1875 -4.765625 C 5.382812 -4.398438 5.484375 -3.984375 5.484375 -3.515625 L 5.484375 0 L 4.3125 0 L 4.234375 -0.828125 C 3.984375 -0.460938 3.703125 -0.210938 3.390625 -0.078125 C 3.085938 0.046875 2.765625 0.109375 2.421875 0.109375 Z M 2.625 -1.078125 C 2.820312 -1.078125 3.007812 -1.113281 3.1875 -1.1875 C 3.375 -1.257812 3.535156 -1.359375 3.671875 -1.484375 C 3.804688 -1.609375 3.914062 -1.75 4 -1.90625 C 4.082031 -2.070312 4.128906 -2.25 4.140625 -2.4375 L 2.703125 -2.4375 C 2.390625 -2.4375 2.15625 -2.363281 2 -2.21875 C 1.84375 -2.070312 1.765625 -1.910156 1.765625 -1.734375 C 1.765625 -1.546875 1.835938 -1.390625 1.984375 -1.265625 C 2.140625 -1.140625 2.351562 -1.078125 2.625 -1.078125 Z M 2.625 -1.078125 "></path></g><g transform="translate(98.470082, 17.475541)"><path style="stroke:none" d="M 2.3125 0 L -0.046875 -5.796875 L 1.5 -5.796875 L 2.90625 -1.828125 L 4.3125 -5.796875 L 5.84375 -5.796875 L 3.484375 0 Z M 2.3125 0 "></path></g></g><g clip-rule="nonzero" clip-path="url(#ea3f94fafa)"><g style="fill:#5d9dfc;fill-opacity:1;"><g transform="translate(103.760452, 17.716302)"><path style="stroke:none" d="M 1.640625 0.046875 C 1.429688 0.046875 1.25 0.00390625 1.09375 -0.078125 C 0.9375 -0.160156 0.816406 -0.273438 0.734375 -0.421875 C 0.648438 -0.566406 0.609375 -0.734375 0.609375 -0.921875 C 0.609375 -1.097656 0.648438 -1.257812 0.734375 -1.40625 C 0.816406 -1.5625 0.9375 -1.679688 1.09375 -1.765625 C 1.25 -1.847656 1.429688 -1.890625 1.640625 -1.890625 C 1.847656 -1.890625 2.03125 -1.847656 2.1875 -1.765625 C 2.34375 -1.679688 2.460938 -1.566406 2.546875 -1.421875 C 2.628906 -1.273438 2.671875 -1.109375 2.671875 -0.921875 C 2.671875 -0.640625 2.578125 -0.40625 2.390625 -0.21875 C 2.203125 -0.0390625 1.953125 0.046875 1.640625 0.046875 Z M 1.640625 0.046875 "></path></g></g></g></g></svg>