<svg xmlns="http://www.w3.org/2000/svg" xmlns:xlink="http://www.w3.org/1999/xlink" width="95" zoomAndPan="magnify" viewBox="0 0 71.25 72" height="96" preserveAspectRatio="xMidYMid meet"><defs><clipPath id="3046684e22"><path d="M 0 0.746094 L 70.507812 0.746094 L 70.507812 71.253906 L 0 71.253906 Z M 0 0.746094 "></path></clipPath></defs><g id="58f5d5aad0"><g clip-rule="nonzero" clip-path="url(#3046684e22)"><path style=" stroke:none;fill-rule:nonzero;fill:#7513ff;fill-opacity:1;" d="M 51.128906 32.796875 L 51.128906 37.707031 L 46.875 40.164062 L 44.417969 44.417969 L 39.507812 44.417969 L 35.253906 46.875 L 31 44.417969 L 26.089844 44.417969 L 23.632812 40.164062 L 19.378906 37.707031 L 19.378906 32.796875 L 16.921875 28.542969 L 19.378906 24.289062 L 19.378906 19.378906 L 23.632812 16.921875 L 26.089844 12.667969 L 31 12.667969 L 35.253906 10.214844 L 39.507812 12.667969 L 44.417969 12.667969 L 46.875 16.921875 L 51.128906 19.378906 L 51.128906 24.289062 L 53.585938 28.542969 Z M 46.191406 60.1875 C 46.164062 60.175781 46.136719 60.15625 46.113281 60.136719 L 43.484375 58.042969 C 43.027344 57.675781 42.347656 57.839844 42.105469 58.375 L 40.742188 61.390625 C 40.710938 61.464844 40.667969 61.53125 40.613281 61.585938 C 40.21875 61.964844 39.53125 61.789062 39.394531 61.226562 L 36.277344 48.308594 L 39.976562 46.171875 L 44.023438 46.171875 L 47.199219 59.34375 C 47.34375 59.941406 46.738281 60.433594 46.191406 60.1875 Z M 31.128906 61.226562 C 30.992188 61.789062 30.304688 61.964844 29.910156 61.585938 C 29.855469 61.53125 29.8125 61.464844 29.78125 61.390625 L 28.414062 58.375 C 28.171875 57.839844 27.496094 57.675781 27.039062 58.042969 L 24.40625 60.136719 C 24.382812 60.15625 24.359375 60.175781 24.332031 60.1875 C 23.785156 60.433594 23.179688 59.941406 23.324219 59.34375 L 26.5 46.171875 L 30.542969 46.171875 L 34.242188 48.308594 Z M 35.253906 0.746094 C 15.816406 0.746094 0 16.558594 0 36 C 0 55.441406 15.816406 71.253906 35.253906 71.253906 C 54.691406 71.253906 70.507812 55.441406 70.507812 36 C 70.507812 16.558594 54.691406 0.746094 35.253906 0.746094 "></path></g><path style=" stroke:none;fill-rule:nonzero;fill:#7513ff;fill-opacity:1;" d="M 35.253906 39.964844 C 28.957031 39.964844 23.832031 34.839844 23.832031 28.542969 C 23.832031 22.246094 28.957031 17.121094 35.253906 17.121094 C 41.550781 17.121094 46.675781 22.246094 46.675781 28.542969 C 46.675781 34.839844 41.550781 39.964844 35.253906 39.964844 Z M 35.253906 15.253906 C 27.925781 15.253906 21.96875 21.21875 21.96875 28.542969 C 21.96875 35.871094 27.925781 41.828125 35.253906 41.828125 C 42.582031 41.828125 48.539062 35.871094 48.539062 28.542969 C 48.539062 21.21875 42.582031 15.253906 35.253906 15.253906 "></path><path style=" stroke:none;fill-rule:nonzero;fill:#7513ff;fill-opacity:1;" d="M 41.101562 26.582031 L 37.574219 26.582031 C 37.292969 26.582031 37.046875 26.402344 36.960938 26.132812 L 35.867188 22.78125 C 35.675781 22.183594 34.832031 22.183594 34.640625 22.78125 L 33.546875 26.132812 C 33.460938 26.402344 33.214844 26.582031 32.933594 26.582031 L 29.40625 26.582031 C 28.78125 26.582031 28.519531 27.386719 29.027344 27.753906 L 31.878906 29.824219 C 32.105469 29.992188 32.199219 30.28125 32.113281 30.546875 L 31.023438 33.902344 C 30.832031 34.5 31.515625 34.996094 32.019531 34.625 L 34.875 32.554688 C 35.101562 32.386719 35.40625 32.386719 35.632812 32.554688 L 38.488281 34.625 C 38.992188 34.996094 39.675781 34.5 39.484375 33.902344 L 38.394531 30.546875 C 38.308594 30.28125 38.402344 29.992188 38.628906 29.824219 L 41.480469 27.753906 C 41.988281 27.386719 41.726562 26.582031 41.101562 26.582031 "></path></g></svg>