<svg xmlns="http://www.w3.org/2000/svg" xmlns:xlink="http://www.w3.org/1999/xlink" width="95" zoomAndPan="magnify" viewBox="0 0 71.25 72" height="96" preserveAspectRatio="xMidYMid meet"><defs><clipPath id="7f74b87965"><path d="M 0 0.746094 L 70.507812 0.746094 L 70.507812 71.253906 L 0 71.253906 Z M 0 0.746094 "></path></clipPath><clipPath id="2a47668b63"><path d="M 35.253906 0.746094 C 15.785156 0.746094 0 16.53125 0 36 C 0 55.46875 15.785156 71.253906 35.253906 71.253906 C 54.722656 71.253906 70.507812 55.46875 70.507812 36 C 70.507812 16.53125 54.722656 0.746094 35.253906 0.746094 Z M 35.253906 0.746094 "></path></clipPath><clipPath id="be2fdda998"><path d="M 10.917969 10.921875 L 59.902344 10.921875 L 59.902344 59.90625 L 10.917969 59.90625 Z M 10.917969 10.921875 "></path></clipPath></defs><g id="923dbfaad5"><g clip-rule="nonzero" clip-path="url(#7f74b87965)"><g clip-rule="nonzero" clip-path="url(#2a47668b63)"><path style=" stroke:none;fill-rule:nonzero;fill:#7513ff;fill-opacity:1;" d="M 0 0.746094 L 70.507812 0.746094 L 70.507812 71.253906 L 0 71.253906 Z M 0 0.746094 "></path></g></g><g clip-rule="nonzero" clip-path="url(#be2fdda998)"><path style=" stroke:none;fill-rule:evenodd;fill:#ffffff;fill-opacity:1;" d="M 59.578125 39.769531 L 59.578125 53.445312 C 59.578125 56.796875 56.855469 59.515625 53.496094 59.515625 L 17 59.515625 C 13.640625 59.515625 10.917969 56.796875 10.917969 53.445312 L 10.917969 39.769531 L 30.6875 42.472656 L 30.6875 43.832031 C 30.6875 46.355469 32.730469 48.394531 35.25 48.394531 C 37.769531 48.394531 39.8125 46.355469 39.8125 43.832031 L 39.8125 42.472656 Z M 59.578125 29.164062 L 59.578125 36.71875 L 39.8125 39.421875 L 39.8125 38.992188 C 39.8125 36.472656 37.769531 34.429688 35.25 34.429688 C 32.730469 34.429688 30.6875 36.472656 30.6875 38.992188 L 30.6875 39.421875 L 10.917969 36.71875 L 10.917969 29.164062 C 10.917969 25.8125 13.640625 23.09375 17 23.09375 L 20.042969 23.09375 L 20.042969 17.027344 C 20.042969 13.671875 22.765625 10.957031 26.125 10.957031 L 44.371094 10.957031 C 47.730469 10.957031 50.457031 13.671875 50.457031 17.027344 L 50.457031 23.09375 L 53.496094 23.09375 C 56.855469 23.09375 59.578125 25.8125 59.578125 29.164062 Z M 35.25 38.566406 C 35.996094 38.566406 36.601562 39.171875 36.601562 39.917969 L 36.601562 43.972656 C 36.601562 44.71875 35.996094 45.324219 35.25 45.324219 C 34.503906 45.324219 33.898438 44.71875 33.898438 43.972656 L 33.898438 39.917969 C 33.898438 39.171875 34.503906 38.566406 35.25 38.566406 Z M 24.035156 23.09375 L 46.464844 23.09375 L 46.464844 17.972656 C 46.464844 16.300781 45.101562 14.9375 43.421875 14.9375 L 27.074219 14.9375 C 25.398438 14.9375 24.035156 16.300781 24.035156 17.972656 Z M 24.035156 23.09375 "></path></g></g></svg>