<svg xmlns="http://www.w3.org/2000/svg" xmlns:xlink="http://www.w3.org/1999/xlink" width="95" zoomAndPan="magnify" viewBox="0 0 71.25 72" height="96" preserveAspectRatio="xMidYMid meet"><defs><clipPath id="d1d7918768"><path d="M 0 0.746094 L 70.507812 0.746094 L 70.507812 71.253906 L 0 71.253906 Z M 0 0.746094 "></path></clipPath><clipPath id="6718257d56"><path d="M 35.253906 0.746094 C 15.785156 0.746094 0 16.53125 0 36 C 0 55.46875 15.785156 71.253906 35.253906 71.253906 C 54.722656 71.253906 70.507812 55.46875 70.507812 36 C 70.507812 16.53125 54.722656 0.746094 35.253906 0.746094 Z M 35.253906 0.746094 "></path></clipPath><clipPath id="3b746262c9"><path d="M 8.105469 14 L 22 14 L 22 28 L 8.105469 28 Z M 8.105469 14 "></path></clipPath><clipPath id="085f6ac11f"><path d="M 49 14 L 62.285156 14 L 62.285156 28 L 49 28 Z M 49 14 "></path></clipPath><clipPath id="99e0ff9cfb"><path d="M 40 30 L 62 30 L 62 61.765625 L 40 61.765625 Z M 40 30 "></path></clipPath><clipPath id="5090d208d8"><path d="M 8.105469 30 L 31 30 L 31 61.765625 L 8.105469 61.765625 Z M 8.105469 30 "></path></clipPath><clipPath id="0fe9692d0e"><path d="M 23 38 L 48 38 L 48 61.765625 L 23 61.765625 Z M 23 38 "></path></clipPath><clipPath id="35b9563ac5"><path d="M 25 12.039062 L 40 12.039062 L 40 24 L 25 24 Z M 25 12.039062 "></path></clipPath></defs><g id="3912137639"><g clip-rule="nonzero" clip-path="url(#d1d7918768)"><g clip-rule="nonzero" clip-path="url(#6718257d56)"><path style=" stroke:none;fill-rule:nonzero;fill:#7513ff;fill-opacity:1;" d="M 0 0.746094 L 70.507812 0.746094 L 70.507812 71.253906 L 0 71.253906 Z M 0 0.746094 "></path></g></g><g clip-rule="nonzero" clip-path="url(#3b746262c9)"><path style=" stroke:none;fill-rule:nonzero;fill:#ffffff;fill-opacity:1;" d="M 8.117188 21.164062 C 8.117188 17.5 11.085938 14.53125 14.746094 14.53125 C 18.410156 14.53125 21.378906 17.5 21.378906 21.164062 C 21.378906 24.824219 18.410156 27.792969 14.746094 27.792969 C 11.085938 27.792969 8.117188 24.824219 8.117188 21.164062 "></path></g><g clip-rule="nonzero" clip-path="url(#085f6ac11f)"><path style=" stroke:none;fill-rule:nonzero;fill:#ffffff;fill-opacity:1;" d="M 62.273438 21.164062 C 62.273438 17.5 59.304688 14.53125 55.640625 14.53125 C 51.980469 14.53125 49.011719 17.5 49.011719 21.164062 C 49.011719 24.824219 51.980469 27.792969 55.640625 27.792969 C 59.304688 27.792969 62.273438 24.824219 62.273438 21.164062 "></path></g><g clip-rule="nonzero" clip-path="url(#99e0ff9cfb)"><path style=" stroke:none;fill-rule:nonzero;fill:#ffffff;fill-opacity:1;" d="M 61.496094 36.15625 L 61.496094 51.855469 C 61.496094 53.644531 60.085938 54.902344 58.292969 54.902344 L 49.824219 54.902344 C 49.402344 54.902344 49.058594 55.242188 49.058594 55.664062 L 49.058594 60.847656 C 49.058594 61.117188 48.847656 61.332031 48.578125 61.332031 L 40.539062 61.332031 C 40.273438 61.332031 40.054688 61.117188 40.054688 60.847656 L 40.054688 49.941406 C 40.054688 47.941406 41.675781 46.324219 43.671875 46.324219 L 49.917969 46.324219 L 49.917969 36.085938 C 49.917969 34.5 50.625 33.066406 51.664062 32.023438 C 52.796875 30.886719 54.417969 30.222656 56.175781 30.355469 C 59.1875 30.578125 61.496094 33.132812 61.496094 36.15625 "></path></g><g clip-rule="nonzero" clip-path="url(#5090d208d8)"><path style=" stroke:none;fill-rule:nonzero;fill:#ffffff;fill-opacity:1;" d="M 30.621094 50.117188 L 30.621094 60.847656 C 30.621094 61.117188 30.40625 61.332031 30.136719 61.332031 L 21.671875 61.332031 C 21.402344 61.332031 21.1875 61.117188 21.1875 60.847656 L 21.1875 55.664062 C 21.1875 55.242188 20.84375 54.902344 20.421875 54.902344 L 12.097656 54.902344 C 10.304688 54.902344 8.75 53.644531 8.75 51.855469 L 8.75 36.199219 C 8.75 33.167969 11.054688 30.601562 14.074219 30.355469 C 15.84375 30.214844 17.484375 30.875 18.632812 32.023438 C 19.667969 33.0625 20.328125 34.5 20.328125 36.085938 L 20.328125 46.324219 L 26.832031 46.324219 C 28.914062 46.324219 30.621094 48.03125 30.621094 50.117188 "></path></g><g clip-rule="nonzero" clip-path="url(#0fe9692d0e)"><path style=" stroke:none;fill-rule:nonzero;fill:#ffffff;fill-opacity:1;" d="M 47.339844 40.1875 L 47.339844 42.90625 C 47.339844 43.460938 46.894531 43.90625 46.34375 43.90625 L 37.910156 43.90625 L 37.910156 60.890625 C 37.910156 61.132812 37.710938 61.332031 37.46875 61.332031 L 33.203125 61.332031 C 32.960938 61.332031 32.761719 61.132812 32.761719 60.890625 L 32.761719 43.90625 L 24.601562 43.90625 C 23.894531 43.90625 23.3125 43.328125 23.3125 42.617188 L 23.3125 39.699219 C 23.3125 39.195312 23.726562 38.78125 24.234375 38.78125 L 45.933594 38.78125 C 46.707031 38.78125 47.339844 39.414062 47.339844 40.1875 "></path></g><path style=" stroke:none;fill-rule:nonzero;fill:#ffffff;fill-opacity:1;" d="M 44.898438 18.820312 L 44.898438 24.929688 C 44.898438 26.039062 44 26.9375 42.894531 26.9375 L 42.484375 26.9375 L 42.484375 28.394531 C 42.484375 28.597656 42.257812 28.714844 42.09375 28.601562 L 39.625 26.9375 L 32.847656 26.9375 C 31.742188 26.9375 30.84375 26.039062 30.84375 24.929688 L 30.84375 22.90625 C 30.84375 22.683594 31.027344 22.496094 31.253906 22.496094 L 37.863281 22.496094 C 39.4375 22.496094 40.710938 21.222656 40.710938 19.648438 L 40.710938 17.226562 C 40.710938 17 40.898438 16.816406 41.121094 16.816406 L 42.894531 16.816406 C 44 16.816406 44.898438 17.714844 44.898438 18.820312 "></path><g clip-rule="nonzero" clip-path="url(#35b9563ac5)"><path style=" stroke:none;fill-rule:nonzero;fill:#ffffff;fill-opacity:1;" d="M 36.511719 17.949219 C 35.886719 17.949219 35.382812 17.441406 35.382812 16.816406 C 35.382812 16.1875 35.886719 15.679688 36.511719 15.679688 C 37.140625 15.679688 37.648438 16.1875 37.648438 16.816406 C 37.648438 17.441406 37.140625 17.949219 36.511719 17.949219 Z M 32.785156 17.949219 C 32.160156 17.949219 31.648438 17.441406 31.648438 16.816406 C 31.648438 16.1875 32.160156 15.679688 32.785156 15.679688 C 33.414062 15.679688 33.921875 16.1875 33.921875 16.816406 C 33.921875 17.441406 33.414062 17.949219 32.785156 17.949219 Z M 29.164062 17.949219 C 28.535156 17.949219 28.027344 17.441406 28.027344 16.816406 C 28.027344 16.1875 28.535156 15.679688 29.164062 15.679688 C 29.789062 15.679688 30.292969 16.1875 30.292969 16.816406 C 30.292969 17.441406 29.789062 17.949219 29.164062 17.949219 Z M 37.863281 12.039062 L 27.707031 12.039062 C 26.628906 12.039062 25.761719 12.90625 25.761719 13.984375 L 25.761719 19.648438 C 25.761719 20.726562 26.628906 21.597656 27.707031 21.597656 L 28.292969 21.597656 L 28.292969 23.058594 C 28.292969 23.261719 28.523438 23.386719 28.691406 23.273438 L 31.164062 21.597656 L 37.863281 21.597656 C 38.941406 21.597656 39.8125 20.726562 39.8125 19.648438 L 39.8125 13.984375 C 39.8125 12.90625 38.941406 12.039062 37.863281 12.039062 "></path></g></g></svg>