<svg xmlns="http://www.w3.org/2000/svg" width="95" height="96"><path d="M0 0 C8.58923003 7.70723958 15.32732436 18.23184 16.13720703 29.99243164 C16.58073951 39.93334428 16.70751233 48.97848255 12 58 C11.55269531 58.87011719 11.10539062 59.74023438 10.64453125 60.63671875 C4.17126056 72.24695491 -5.56093083 79.88968445 -18.3125 83.9375 C-31.9767222 87.08322022 -45.12883319 85.04759459 -57.3125 78.25 C-68.82560598 70.78607392 -75.98076555 60.34131036 -79 47 C-79.4273716 43.54949174 -79.52552087 40.16221486 -79.5 36.6875 C-79.49427979 35.77323242 -79.48855957 34.85896484 -79.48266602 33.91699219 C-79.11826054 20.02295967 -73.28803322 9.81202229 -63.3125 0.3125 C-44.6818194 -15.2432139 -18.90777354 -14.96505668 0 0 Z M-32 3 C-32.556875 3.28875 -33.11375 3.5775 -33.6875 3.875 C-36.08179113 5.03979028 -37.39097132 5.12414704 -40 5.25 C-42.09612125 5.39154551 -42.09612125 5.39154551 -44 6 C-46.3015039 8.86875539 -46.3015039 8.86875539 -48 12 C-48.67160156 12.29390625 -49.34320313 12.5878125 -50.03515625 12.890625 C-52.21319766 13.83825401 -52.21319766 13.83825401 -52.79296875 16.20703125 C-52.98826172 17.49673828 -52.98826172 17.49673828 -53.1875 18.8125 C-53.32542969 19.66457031 -53.46335937 20.51664063 -53.60546875 21.39453125 C-53.80076172 22.68423828 -53.80076172 22.68423828 -54 24 C-54.22300781 24.87011719 -54.44601563 25.74023438 -54.67578125 26.63671875 C-55.30220786 29.26455089 -55.30220786 29.26455089 -53 32 C-52.9175 33.11375 -52.835 34.2275 -52.75 35.375 C-51.77395449 40.09255329 -49.76147078 41.15970574 -46 44 C-45.70867188 44.68320312 -45.41734375 45.36640625 -45.1171875 46.0703125 C-44.14958788 48.2256187 -44.14958788 48.2256187 -41.72265625 48.79296875 C-40.40587891 48.98826172 -40.40587891 48.98826172 -39.0625 49.1875 C-36.2186811 49.6356423 -33.74208927 50.08597024 -31 51 C-30.1646875 50.566875 -30.1646875 50.566875 -29.3125 50.125 C-26.91820887 48.96020972 -25.60902868 48.87585296 -23 48.75 C-20.90436357 48.60333679 -20.90436357 48.60333679 -19 48 C-16.67939769 45.18579367 -16.67939769 45.18579367 -15 42 C-14.29875 41.566875 -13.5975 41.13375 -12.875 40.6875 C-9.75213268 37.87691941 -9.68465308 34.00910254 -9 30 C-8.7525 29.05125 -8.505 28.1025 -8.25 27.125 C-7.73197594 24.69990757 -7.73197594 24.69990757 -10 22 C-10.0825 20.88625 -10.165 19.7725 -10.25 18.625 C-11.22604551 13.90744671 -13.23852922 12.84029426 -17 10 C-17.29132812 9.31679688 -17.58265625 8.63359375 -17.8828125 7.9296875 C-18.85041212 5.7743813 -18.85041212 5.7743813 -21.27734375 5.20703125 C-22.15519531 5.07683594 -23.03304687 4.94664063 -23.9375 4.8125 C-26.7813189 4.3643577 -29.25791073 3.91402976 -32 3 Z M-43 51 C-43.69784331 53.434964 -44.38353822 55.87227105 -45.0625 58.3125 C-45.26166016 59.00279297 -45.46082031 59.69308594 -45.66601562 60.40429688 C-46.86959201 64.69334396 -46.86959201 64.69334396 -46 69 C-44.02 68.01 -42.04 67.02 -40 66 C-39.67 67.65 -39.34 69.3 -39 71 C-36.71785061 70.15328196 -36.71785061 70.15328196 -36.1484375 67.453125 C-35.76558594 65.86757812 -35.76558594 65.86757812 -35.375 64.25 C-35.11460938 63.20328125 -34.85421875 62.1565625 -34.5859375 61.078125 C-34.05464356 58.28706084 -33.8847319 55.82930789 -34 53 C-37.16609462 51.12379578 -39.35832401 50.90337178 -43 51 Z M-29 53 C-28.48914188 59.43681228 -27.27057103 64.95942424 -25 71 C-22.81509993 68.32357511 -22.81509993 68.32357511 -23 66 C-19.535 67.485 -19.535 67.485 -16 69 C-17.0388092 62.8887076 -18.15730278 56.92295536 -20 51 C-23.67986596 50.795563 -25.78360346 51.25434889 -29 53 Z " fill="#7012F6" transform="translate(79,11)"></path><path d="M0 0 C5.28044615 2.50126396 8.49000597 6.20651104 11.25 11.3125 C13.02025094 17.65589921 12.41689568 22.49610141 9.27734375 28.171875 C6.60925518 31.99042377 3.45745513 34.51418162 -1 36 C-7.22187421 36.5079081 -12.74503901 36.75354356 -18 33 C-22.5487534 28.24448508 -24.73287129 24.71580855 -25.375 18.1875 C-25.21285218 12.81635352 -23.21302845 8.28077422 -19.46875 4.421875 C-13.31473219 -0.82714019 -7.87707168 -0.69080288 0 0 Z M-19.5 9.625 C-21.53959016 14.21407786 -21.78107489 18.05587644 -21 23 C-18.61400642 28.15374614 -15.23852194 31.02173961 -10 33 C-4.47848267 33.90352102 -1.17522877 32.50452007 3.265625 29.40625 C6.45758683 26.81817284 7.76487085 24.7738857 8.30859375 20.671875 C8.51832877 16.42632983 8.24147661 13.54332238 6.5 9.625 C2.78765279 5.72703543 -1.21730493 3.55653901 -6.5 2.5 C-11.78269507 3.55653901 -15.78765279 5.72703543 -19.5 9.625 Z " fill="#620FD7" transform="translate(54,20)"></path><path d="M0 0 C0.99 0 1.98 0 3 0 C3.33 1.98 3.66 3.96 4 6 C6.31 6 8.62 6 11 6 C9.84826645 8.46800047 8.95216435 10.04783565 7 12 C7.32041397 14.60280568 7.32041397 14.60280568 8 17 C4 17 4 17 1 16 C-1.6569191 16.87914688 -1.6569191 16.87914688 -4 18 C-5.04449911 14.86650268 -4.93423645 14.01031744 -4 11 C-4.66 10.54625 -5.32 10.0925 -6 9.625 C-6.66 9.08875 -7.32 8.5525 -8 8 C-8 7.34 -8 6.68 -8 6 C-5.69 6 -3.38 6 -1 6 C-0.67 4.02 -0.34 2.04 0 0 Z " fill="#6610E0" transform="translate(46,29)"></path></svg>