<svg xmlns="http://www.w3.org/2000/svg" width="95" height="96"><path d="M0 0 C7.35546331 6.49349495 14.10137052 18.57588434 14.92700195 28.44360352 C15.46779201 48.418363 15.46779201 48.418363 10.75 57.328125 C10.30269531 58.19695312 9.85539062 59.06578125 9.39453125 59.9609375 C3.28465067 70.93579002 -5.39029037 78.04632156 -17.234375 82.43359375 C-31.11155024 86.34343281 -44.94348091 85.06253233 -57.5625 78.078125 C-66.25642039 72.64867537 -71.56740949 66.42341608 -76.25 57.328125 C-76.66636719 56.54179688 -77.08273438 55.75546875 -77.51171875 54.9453125 C-82.04617897 44.79448576 -82.18695491 30.70939538 -78.625 20.203125 C-77.88775158 18.55272327 -77.09586683 16.92558248 -76.25 15.328125 C-75.57904297 14.02488281 -75.57904297 14.02488281 -74.89453125 12.6953125 C-68.78465067 1.72045998 -60.10970963 -5.39007156 -48.265625 -9.77734375 C-30.53030104 -14.7742009 -14.57098751 -10.82705322 0 0 Z " fill="#7415F9" transform="translate(80.25,11.671875)"></path><path d="M0 0 C3.4375 0.625 3.4375 0.625 5.62353516 2.7824707 C7.73441601 6.09027498 7.92886054 7.84198635 7.8984375 11.73046875 C7.89457031 12.87837891 7.89070313 14.02628906 7.88671875 15.20898438 C7.86222656 16.39814453 7.83773437 17.58730469 7.8125 18.8125 C7.81121094 20.01326172 7.80992188 21.21402344 7.80859375 22.45117188 C7.71841207 31.34408793 7.71841207 31.34408793 5.4375 33.625 C2.85685871 33.76997985 0.38806116 33.81177545 -2.1875 33.75 C-2.89390625 33.74097656 -3.6003125 33.73195312 -4.328125 33.72265625 C-6.07306098 33.69907603 -7.81782295 33.66320461 -9.5625 33.625 C-9.5625 36.595 -9.5625 39.565 -9.5625 42.625 C-13.5225 42.625 -17.4825 42.625 -21.5625 42.625 C-21.64336376 39.68695004 -21.7029283 36.75111925 -21.75 33.8125 C-21.77513672 32.97912109 -21.80027344 32.14574219 -21.82617188 31.28710938 C-21.83583984 30.48466797 -21.84550781 29.68222656 -21.85546875 28.85546875 C-21.8711792 28.11707764 -21.88688965 27.37868652 -21.90307617 26.61791992 C-21.46528712 24.05614785 -20.60240175 23.18778869 -18.5625 21.625 C-16.08203125 21.33203125 -16.08203125 21.33203125 -13.375 21.4375 C-12.02341797 21.47810547 -12.02341797 21.47810547 -10.64453125 21.51953125 C-9.61392578 21.57173828 -9.61392578 21.57173828 -8.5625 21.625 C-8.62050781 20.52800781 -8.67851563 19.43101563 -8.73828125 18.30078125 C-8.78519688 16.84639686 -8.83069511 15.39196626 -8.875 13.9375 C-8.9378418 12.8556543 -8.9378418 12.8556543 -9.00195312 11.75195312 C-9.09702655 7.58773714 -8.90467804 6.06901674 -6.265625 2.64453125 C-3.5625 0.625 -3.5625 0.625 0 0 Z " fill="#FBF8FF" transform="translate(75.5625,40.375)"></path><path d="M0 0 C2.203125 1.453125 2.203125 1.453125 4 4 C4.48641711 7.09865715 4.37702087 10.12333252 4.25 13.25 C4.23195313 14.09046875 4.21390625 14.9309375 4.1953125 15.796875 C4.14830798 17.86507395 4.07656724 19.93268441 4 22 C5.26457031 21.96519531 5.26457031 21.96519531 6.5546875 21.9296875 C8.19824219 21.90261719 8.19824219 21.90261719 9.875 21.875 C11.51082031 21.84019531 11.51082031 21.84019531 13.1796875 21.8046875 C16 22 16 22 18 24 C18.22705078 25.87939453 18.22705078 25.87939453 18.1953125 28.1328125 C18.18886719 28.93847656 18.18242188 29.74414062 18.17578125 30.57421875 C18.15902344 31.41597656 18.14226563 32.25773437 18.125 33.125 C18.11597656 33.97449219 18.10695313 34.82398438 18.09765625 35.69921875 C18.07405647 37.79959884 18.03818483 39.89983444 18 42 C14.04 42 10.08 42 6 42 C6 39.03 6 36.06 6 33 C4.94039062 33.02320313 3.88078125 33.04640625 2.7890625 33.0703125 C1.4010487 33.08906944 0.0130273 33.10726972 -1.375 33.125 C-2.07367188 33.14175781 -2.77234375 33.15851563 -3.4921875 33.17578125 C-5.32897486 33.19344267 -7.16601963 33.10303261 -9 33 C-12.77475888 29.22524112 -11.3697603 22.71799107 -11.375 17.625 C-11.39949219 16.37976563 -11.42398437 15.13453125 -11.44921875 13.8515625 C-11.45501953 12.0571875 -11.45501953 12.0571875 -11.4609375 10.2265625 C-11.46915527 9.12908691 -11.47737305 8.03161133 -11.48583984 6.90087891 C-10.38303028 0.31616368 -6.09504592 -0.87072085 0 0 Z " fill="#FDFCFF" transform="translate(23,41)"></path><path d="M0 0 C0.68429077 -0.00095673 1.36858154 -0.00191345 2.0736084 -0.00289917 C3.52286877 -0.0035808 4.97213218 -0.00172773 6.42138672 0.00244141 C8.64687928 0.00778998 10.87217001 0.0024959 13.09765625 -0.00390625 C14.50260461 -0.00324547 15.90755285 -0.0019643 17.3125 0 C18.59962891 0.00112793 19.88675781 0.00225586 21.21289062 0.00341797 C24.15625 0.1328125 24.15625 0.1328125 25.15625 1.1328125 C25.15625 3.1128125 25.15625 5.0928125 25.15625 7.1328125 C20.86625 7.1328125 16.57625 7.1328125 12.15625 7.1328125 C12.15625 15.0528125 12.15625 22.9728125 12.15625 31.1328125 C9.84625 31.1328125 7.53625 31.1328125 5.15625 31.1328125 C5.15625 23.2128125 5.15625 15.2928125 5.15625 7.1328125 C1.19625 7.1328125 -2.76375 7.1328125 -6.84375 7.1328125 C-7.84375 6.1328125 -7.84375 6.1328125 -7.96875 3.6328125 C-7.71760403 -1.39010688 -4.30490889 0.00377245 0 0 Z " fill="#F9F6FF" transform="translate(38.84375,51.8671875)"></path><path d="M0 0 C2.69990662 1.79993774 4.5418865 3.083773 6 6 C6.43023798 9.87214182 6.31669086 11.52496371 4.125 14.8125 C1.61855093 17.39266816 0.74538327 17.91717964 -2.8125 18.3125 C-6.7307645 17.92835642 -8.21293267 16.70743683 -11 14 C-12.42662219 11.14675563 -12.31033868 9.16545451 -12 6 C-8.54235344 0.81353016 -6.24330406 -0.61208863 0 0 Z " fill="#FAF6FF" transform="translate(78,19)"></path><path d="M0 0 C2.96045738 2.59040021 3.85478339 4.12870035 4.5 8 C3.88466097 11.69203416 2.58383614 13.34016868 0 16 C-3.17878694 17.58939347 -5.4956772 17.41576711 -9 17 C-12.22980084 14.113795 -13.77566051 12.22140391 -14.5625 7.9375 C-13.87020639 4.32218892 -12.54408967 2.61891584 -10 0 C-6.72154211 -1.63922894 -3.40869581 -0.97680018 0 0 Z " fill="#FAF6FF" transform="translate(25,20)"></path><path d="M0 0 C0.79792969 0.00386719 1.59585938 0.00773438 2.41796875 0.01171875 C3.21589844 0.00785156 4.01382813 0.00398437 4.8359375 0 C10.79136108 0.01011108 10.79136108 0.01011108 11.91796875 1.13671875 C12.04251735 2.77902239 12.09365399 4.42724151 12.10546875 6.07421875 C12.11964844 6.97011719 12.13382813 7.86601562 12.1484375 8.7890625 C11.91796875 11.13671875 11.91796875 11.13671875 9.91796875 13.13671875 C7.421875 13.515625 7.421875 13.515625 4.48046875 13.69921875 C1.33832974 13.90423181 -1.08097444 14.13636648 -4.08203125 15.13671875 C-4.08203125 14.47671875 -4.08203125 13.81671875 -4.08203125 13.13671875 C-5.07203125 12.80671875 -6.06203125 12.47671875 -7.08203125 12.13671875 C-7.10890404 10.32429823 -7.1283684 8.51176642 -7.14453125 6.69921875 C-7.15613281 5.68988281 -7.16773438 4.68054688 -7.1796875 3.640625 C-6.99082175 -1.20189273 -4.18581258 0.00710664 0 0 Z " fill="#EDE1FF" transform="translate(42.08203125,15.86328125)"></path><path d="M0 0 C4.875 0.875 4.875 0.875 6 2 C6.07205511 3.68608966 6.08386068 5.37500659 6.0625 7.0625 C6.05347656 7.98160156 6.04445313 8.90070312 6.03515625 9.84765625 C6.02355469 10.55792969 6.01195313 11.26820312 6 12 C5.360625 12.28875 4.72125 12.5775 4.0625 12.875 C1.84793921 13.82823451 1.84793921 13.82823451 1 16 C0.34 15.67 -0.32 15.34 -1 15 C-3.85207778 14.68744353 -6.70496854 14.48962518 -9.56640625 14.28125 C-12 14 -12 14 -13 13 C-13 11.35 -13 9.7 -13 8 C-7.555 7.505 -7.555 7.505 -2 7 C-1.34 4.69 -0.68 2.38 0 0 Z " fill="#F8F4FF" transform="translate(55,22)"></path></svg>