<svg xmlns="http://www.w3.org/2000/svg" xmlns:xlink="http://www.w3.org/1999/xlink" width="66" zoomAndPan="magnify" viewBox="0 0 49.5 49.499998" height="66" preserveAspectRatio="xMidYMid meet"><defs><clipPath id="ff64c3635f"><path d="M 0 0 L 49.003906 0 L 49.003906 49.003906 L 0 49.003906 Z M 0 0 "></path></clipPath><clipPath id="71a317356d"><path d="M 24.503906 0 C 10.96875 0 0 10.96875 0 24.503906 C 0 38.035156 10.96875 49.003906 24.503906 49.003906 C 38.035156 49.003906 49.003906 38.035156 49.003906 24.503906 C 49.003906 10.96875 38.035156 0 24.503906 0 Z M 24.503906 0 "></path></clipPath><clipPath id="47d06e010c"><path d="M 5.976562 7 L 42 7 L 42 43.101562 L 5.976562 43.101562 Z M 5.976562 7 "></path></clipPath></defs><g id="a0a08c92eb"><g clip-rule="nonzero" clip-path="url(#ff64c3635f)"><g clip-rule="nonzero" clip-path="url(#71a317356d)"><path style=" stroke:none;fill-rule:nonzero;fill:#ffb013;fill-opacity:1;" d="M 0 0 L 49.003906 0 L 49.003906 49.003906 L 0 49.003906 Z M 0 0 "></path></g></g><g clip-rule="nonzero" clip-path="url(#47d06e010c)"><path style=" stroke:none;fill-rule:nonzero;fill:#ffffff;fill-opacity:1;" d="M 39.710938 18.578125 C 39.199219 18.753906 38.925781 19.308594 39.101562 19.820312 C 41.109375 25.664062 39.648438 32.003906 35.28125 36.367188 C 29.035156 42.613281 18.875 42.613281 12.628906 36.367188 C 6.382812 30.125 6.382812 19.960938 12.628906 13.714844 C 16.996094 9.351562 23.335938 7.886719 29.175781 9.894531 C 29.6875 10.070312 30.246094 9.796875 30.421875 9.285156 C 30.597656 8.773438 30.324219 8.214844 29.8125 8.039062 C 26.675781 6.960938 23.300781 6.769531 20.054688 7.488281 C 16.714844 8.230469 13.671875 9.902344 11.242188 12.328125 C 7.847656 15.726562 5.976562 20.238281 5.976562 25.042969 C 5.976562 29.84375 7.847656 34.359375 11.242188 37.753906 C 14.636719 41.152344 19.152344 43.019531 23.957031 43.019531 C 28.757812 43.019531 33.273438 41.152344 36.667969 37.753906 C 39.097656 35.328125 40.769531 32.28125 41.507812 28.945312 C 42.226562 25.699219 42.035156 22.324219 40.957031 19.183594 C 40.78125 18.671875 40.222656 18.398438 39.710938 18.578125 Z M 39.710938 18.578125 "></path></g><path style=" stroke:none;fill-rule:nonzero;fill:#ffffff;fill-opacity:1;" d="M 29.558594 15.308594 C 29.785156 14.816406 29.570312 14.234375 29.082031 14.003906 C 26.84375 12.964844 24.367188 12.632812 21.921875 13.046875 C 19.421875 13.46875 17.152344 14.640625 15.351562 16.4375 C 10.609375 21.183594 10.609375 28.902344 15.351562 33.644531 C 17.726562 36.015625 20.839844 37.203125 23.957031 37.203125 C 27.070312 37.203125 30.1875 36.015625 32.558594 33.644531 C 34.355469 31.847656 35.53125 29.574219 35.953125 27.074219 C 36.363281 24.632812 36.03125 22.15625 34.992188 19.917969 C 34.765625 19.425781 34.183594 19.210938 33.691406 19.441406 C 33.199219 19.667969 32.988281 20.25 33.214844 20.742188 C 35.011719 24.613281 34.191406 29.242188 31.171875 32.257812 C 27.191406 36.238281 20.71875 36.238281 16.738281 32.257812 C 12.761719 28.28125 12.761719 21.804688 16.738281 17.824219 C 19.757812 14.808594 24.386719 13.988281 28.253906 15.785156 C 28.746094 16.011719 29.328125 15.796875 29.558594 15.308594 Z M 29.558594 15.308594 "></path><path style=" stroke:none;fill-rule:nonzero;fill:#ffffff;fill-opacity:1;" d="M 23.90625 20.648438 C 24.445312 20.644531 24.878906 20.199219 24.875 19.65625 C 24.867188 19.117188 24.425781 18.683594 23.882812 18.6875 C 22.210938 18.707031 20.644531 19.367188 19.460938 20.550781 C 16.984375 23.027344 16.984375 27.058594 19.460938 29.535156 C 20.703125 30.773438 22.328125 31.394531 23.957031 31.394531 C 25.582031 31.394531 27.210938 30.773438 28.449219 29.535156 C 29.628906 28.355469 30.289062 26.785156 30.308594 25.117188 C 30.316406 24.574219 29.882812 24.128906 29.339844 24.125 C 29.335938 24.125 29.332031 24.125 29.328125 24.125 C 28.792969 24.125 28.355469 24.554688 28.347656 25.09375 C 28.335938 26.246094 27.878906 27.332031 27.0625 28.148438 C 26.207031 29.003906 25.082031 29.433594 23.957031 29.433594 C 22.832031 29.433594 21.707031 29.003906 20.847656 28.148438 C 19.136719 26.433594 19.136719 23.648438 20.847656 21.933594 C 21.664062 21.117188 22.75 20.660156 23.90625 20.648438 Z M 23.90625 20.648438 "></path><path style=" stroke:none;fill-rule:nonzero;fill:#ffffff;fill-opacity:1;" d="M 42.902344 11.273438 C 42.789062 10.921875 42.484375 10.667969 42.117188 10.613281 L 38.867188 10.132812 L 38.386719 6.882812 C 38.332031 6.515625 38.074219 6.210938 37.722656 6.09375 C 37.371094 5.976562 36.984375 6.070312 36.722656 6.332031 L 31.609375 11.441406 C 31.390625 11.664062 31.289062 11.972656 31.332031 12.28125 L 31.851562 15.761719 L 23.261719 24.347656 C 22.878906 24.730469 22.878906 25.351562 23.261719 25.734375 C 23.453125 25.925781 23.703125 26.023438 23.957031 26.023438 C 24.207031 26.023438 24.457031 25.925781 24.648438 25.734375 L 33.238281 17.148438 L 36.71875 17.664062 C 36.765625 17.671875 36.8125 17.675781 36.863281 17.675781 C 37.121094 17.675781 37.371094 17.574219 37.554688 17.386719 L 42.667969 12.277344 C 42.929688 12.011719 43.019531 11.625 42.902344 11.273438 Z M 36.515625 15.652344 L 33.753906 15.242188 L 33.347656 12.480469 L 36.730469 9.09375 L 37.035156 11.136719 C 37.097656 11.566406 37.433594 11.902344 37.859375 11.964844 L 39.902344 12.265625 Z M 36.515625 15.652344 "></path></g></svg>