<svg xmlns="http://www.w3.org/2000/svg" width="66" height="66"><path d="M0 0 C7.27363642 5.18041951 13.38523045 11.95089541 15 21 C15.80514858 32.95843622 15.20180936 42.20675407 7.3125 51.8125 C0.84781999 58.63968543 -6.17674344 62.0363516 -15.53295898 62.29296875 C-26.87993194 62.39890385 -34.5696962 60.22382749 -43.01953125 52.22265625 C-50.84579928 43.43932981 -51.70102447 34.23967387 -51.17041016 22.93994141 C-50.41145414 14.30002093 -45.30627922 7.61912753 -39 2 C-27.90432514 -5.63397006 -11.777235 -7.28383001 0 0 Z " fill="#FAAE18" transform="translate(51,4)"></path><path d="M0 0 C0.69738281 0.00902344 1.39476563 0.01804687 2.11328125 0.02734375 C3.82566958 0.05080112 5.53788004 0.08666896 7.25 0.125 C7.745 1.61 7.745 1.61 8.25 3.125 C7.3321875 3.07859375 6.414375 3.0321875 5.46875 2.984375 C-4.85919023 2.55943879 -4.85919023 2.55943879 -13.75 7.125 C-19.69747078 13.50382581 -21.14026291 18.67430487 -21.1171875 27.29296875 C-20.62121059 31.11832258 -19.12510165 33.51826697 -16.84375 36.56640625 C-15.75 38.125 -15.75 38.125 -15.75 40.125 C-8.31704957 43.97912245 -2.15785984 45.12013317 6.25 44.125 C12.25071946 41.84170738 16.49054876 37.66275375 19.34375 31.92578125 C20.47190104 28.43921102 20.44335773 25.46963856 20.375 21.8125 C20.35695312 20.55824219 20.33890625 19.30398437 20.3203125 18.01171875 C20.29710937 17.05910156 20.27390625 16.10648438 20.25 15.125 C21.24 15.455 22.23 15.785 23.25 16.125 C24.078306 33.79552806 24.078306 33.79552806 17.70703125 40.828125 C12.12276409 46.09292608 6.37052066 48.23620699 -1.25 48.5625 C-7.65786673 48.34123388 -11.98849341 46.68647794 -16.69140625 42.32421875 C-22.66303606 35.90378169 -25.44763741 29.80750131 -25.15625 20.96875 C-24.17608163 14.10757141 -21.1620718 8.85116477 -15.6875 4.625 C-14.40258537 3.74973142 -13.08991453 2.91349841 -11.75 2.125 C-11.16863281 1.74601563 -10.58726563 1.36703125 -9.98828125 0.9765625 C-6.69805048 -0.27521814 -3.46499874 -0.0851512 0 0 Z " fill="#FFF6E5" transform="translate(32.75,9.875)"></path><path d="M0 0 C0 0.66 0 1.32 0 2 C-0.79664062 1.95359375 -1.59328125 1.9071875 -2.4140625 1.859375 C-11.02254334 1.55306278 -11.02254334 1.55306278 -18 6 C-20.971705 10.4575575 -20.75294249 14.77413182 -20 20 C-18.34766078 23.17568542 -16.24607029 25.37696485 -13 27 C-7.99385993 27.54923479 -4.07886216 27.52016569 0.5 25.3125 C3.85055356 22.21323795 4.88835511 19.65457731 5.1953125 15.10546875 C5.17210938 14.14253906 5.14890625 13.17960937 5.125 12.1875 C5.10695313 11.21167969 5.08890625 10.23585938 5.0703125 9.23046875 C5.04710938 8.49441406 5.02390625 7.75835937 5 7 C5.99 7.33 6.98 7.66 8 8 C9.67561557 13.02684672 9.57826653 17.28540388 7.4375 22.125 C5.09882698 26.29888171 2.49978669 29.20504832 -2 31 C-7.34236051 31.87745165 -11.55330029 31.71019804 -16.4375 29.3125 C-19.96326852 26.13070889 -23.63624129 22.79574552 -24.2734375 17.8984375 C-24.50016403 12.2651553 -23.95155191 8.32757048 -20.609375 3.69921875 C-15.00486533 -2.21816403 -7.38561204 -3.69280602 0 0 Z " fill="#FFF4E1" transform="translate(40,19)"></path><path d="M0 0 C0.99 0 1.98 0 3 0 C3 1.98 3 3.96 3 6 C4.65 6 6.3 6 8 6 C8 10.60106383 8 10.60106383 5.5 13.1875 C2.43051033 16.11321966 0.37932946 16.16991392 -3.84375 16.32421875 C-8.01884368 17.63271731 -10.38607722 21.5243771 -13.01953125 24.84765625 C-13.99986328 25.91306641 -13.99986328 25.91306641 -15 27 C-15.99 27 -16.98 27 -18 27 C-16.49074671 23.32637797 -14.31185709 21.31202467 -11.375 18.6875 C-7.58140107 15.21394322 -7.58140107 15.21394322 -6.8125 10.25 C-6.874375 9.1775 -6.93625 8.105 -7 7 C-5.21036726 4.9176187 -3.25885621 3.61346872 -1 2 C-0.67 1.34 -0.34 0.68 0 0 Z " fill="#FFF7E7" transform="translate(49,8)"></path><path d="M0 0 C0 0.99 0 1.98 0 3 C-1.65 3.66 -3.3 4.32 -5 5 C-5.16677282 8.41656024 -5.16677282 8.41656024 -5 12 C-4.34 12.66 -3.68 13.32 -3 14 C0.04638827 14.07575878 0.04638827 14.07575878 3 13 C4.45291273 10.53744315 4.45291273 10.53744315 5 8 C5.99 8 6.98 8 8 8 C7.66916395 10.97752446 7.12584648 12.81374721 5.4375 15.3125 C2.43936413 17.38813253 0.49870551 17.64638277 -3.09375 17.4453125 C-5 17 -5 17 -7.5 14.9375 C-9.39475662 11.22693494 -9.66154724 9.11629392 -9 5 C-5.96734962 1.04070645 -5.08477731 0 0 0 Z " fill="#FFF9ED" transform="translate(33,25)"></path><path d="M0 0 C0.69738281 0.00902344 1.39476563 0.01804687 2.11328125 0.02734375 C3.82566958 0.05080112 5.53788004 0.08666896 7.25 0.125 C7.58 1.115 7.91 2.105 8.25 3.125 C7.3321875 3.07859375 6.414375 3.0321875 5.46875 2.984375 C-1.96861487 2.76562897 -7.55922772 2.78523752 -13.75 7.125 C-14.9875 7.99125 -14.9875 7.99125 -16.25 8.875 C-16.9925 9.49375 -16.9925 9.49375 -17.75 10.125 C-16.0457821 6.14849156 -13.69624884 3.4347978 -10.1015625 1.015625 C-6.75755505 -0.25087616 -3.51957737 -0.08649245 0 0 Z " fill="#FFFAF0" transform="translate(32.75,9.875)"></path><path d="M0 0 C0 0.99 0 1.98 0 3 C0.99 3 1.98 3 3 3 C2.3125 4.9375 2.3125 4.9375 1 7 C-1.625 7.75 -1.625 7.75 -4 8 C-4.6875 5.6875 -4.6875 5.6875 -5 3 C-3.40083326 0.79162689 -2.76966516 0 0 0 Z " fill="#FFB72B" transform="translate(50,13)"></path><path d="M0 0 C0 0.99 0 1.98 0 3 C-1.2065625 3.309375 -1.2065625 3.309375 -2.4375 3.625 C-3.283125 4.07875 -4.12875 4.5325 -5 5 C-5.89830839 8.05272465 -5.89830839 8.05272465 -6 11 C-6.99 9.68 -7.98 8.36 -9 7 C-6.79922603 2.09058114 -5.62803596 0 0 0 Z " fill="#FFF1D6" transform="translate(33,25)"></path><path d="M0 0 C0.99 0.33 1.98 0.66 3 1 C3 3.64 3 6.28 3 9 C2.01 9.495 2.01 9.495 1 10 C0.67 6.7 0.34 3.4 0 0 Z " fill="#FFF6E5" transform="translate(45,26)"></path><path d="M0 0 C0 0.66 0 1.32 0 2 C-2.95664519 3.4783226 -5.74229737 3.06032783 -9 3 C-9.33 2.34 -9.66 1.68 -10 1 C-6.56484998 0.37542727 -3.50935186 0 0 0 Z " fill="#FFFCF8" transform="translate(39,55)"></path><path d="M0 0 C3.3 0 6.6 0 10 0 C10 0.33 10 0.66 10 1 C9.2575 1.144375 8.515 1.28875 7.75 1.4375 C5.47972261 1.90187492 3.24240521 2.41863569 1 3 C0.67 2.01 0.34 1.02 0 0 Z " fill="#FFF0D3" transform="translate(25,55)"></path></svg>