<svg xmlns="http://www.w3.org/2000/svg" width="95" height="96"><path d="M0 0 C7.35546331 6.49349495 14.10137052 18.57588434 14.92700195 28.44360352 C15.46779201 48.418363 15.46779201 48.418363 10.75 57.328125 C10.30269531 58.19695312 9.85539062 59.06578125 9.39453125 59.9609375 C3.28465067 70.93579002 -5.39029037 78.04632156 -17.234375 82.43359375 C-31.11155024 86.34343281 -44.94348091 85.06253233 -57.5625 78.078125 C-66.25642039 72.64867537 -71.56740949 66.42341608 -76.25 57.328125 C-76.66636719 56.54179688 -77.08273438 55.75546875 -77.51171875 54.9453125 C-82.04617897 44.79448576 -82.18695491 30.70939538 -78.625 20.203125 C-77.88775158 18.55272327 -77.09586683 16.92558248 -76.25 15.328125 C-75.57904297 14.02488281 -75.57904297 14.02488281 -74.89453125 12.6953125 C-68.78465067 1.72045998 -60.10970963 -5.39007156 -48.265625 -9.77734375 C-30.53030104 -14.7742009 -14.57098751 -10.82705322 0 0 Z " fill="#7315F8" transform="translate(80.25,11.671875)"></path><path d="M0 0 C2.06655425 0.02684788 4.1277023 0.00018455 6.1940918 -0.03173828 C7.50442383 -0.02529297 8.81475586 -0.01884766 10.16479492 -0.01220703 C11.95348999 -0.00374756 11.95348999 -0.00374756 13.77832031 0.00488281 C17.91241573 0.83389173 19.41683684 2.38721158 22.00463867 5.65185547 C22.49291992 8.76513672 22.49291992 8.76513672 22.31713867 11.96435547 C22.27202148 13.03298828 22.2269043 14.10162109 22.18041992 15.20263672 C22.0934082 16.415 22.0934082 16.415 22.00463867 17.65185547 C23.22151367 17.54873047 24.43838867 17.44560547 25.69213867 17.33935547 C28.94036907 17.3855115 30.0529035 17.67900443 33.00463867 19.33935547 C36.13108913 24.51753904 35.39336935 29.75178764 35.00463867 35.65185547 C29.00624541 37.30419065 23.19283195 38.1970094 17.00463867 38.77685547 C16.13452148 38.86322266 15.2644043 38.94958984 14.36791992 39.03857422 C12.24734368 39.24830154 10.12605788 39.45083389 8.00463867 39.65185547 C7.34463867 38.00185547 6.68463867 36.35185547 6.00463867 34.65185547 C2.60142933 33.975121 2.60142933 33.975121 -0.99536133 33.65185547 C-3.13390982 35.79040396 -3.42191196 36.7846086 -3.99536133 39.65185547 C-6.99546782 39.34035248 -9.99544498 39.02768006 -12.99536133 38.71435547 C-13.83454102 38.62734375 -14.6737207 38.54033203 -15.53833008 38.45068359 C-20.69942425 37.91056909 -25.84835935 37.31310225 -30.99536133 36.65185547 C-31.10362422 34.23398427 -31.18275922 31.82097991 -31.24536133 29.40185547 C-31.27887695 28.71994141 -31.31239258 28.03802734 -31.34692383 27.33544922 C-31.41322052 23.92116961 -31.2421056 21.99994114 -29.24536133 19.18310547 C-25.68097219 16.75734064 -23.21777596 17.37036116 -18.99536133 17.65185547 C-19.0649707 16.84361328 -19.13458008 16.03537109 -19.20629883 15.20263672 C-19.26043945 14.13400391 -19.31458008 13.06537109 -19.37036133 11.96435547 C-19.4399707 10.90861328 -19.50958008 9.85287109 -19.58129883 8.76513672 C-18.94500862 5.38431475 -18.06735942 3.64043683 -15.26000977 1.5871582 C-10.43298774 -0.40640814 -5.14793431 -0.07977488 0 0 Z " fill="#FBF8FF" transform="translate(45.995361328125,13.34814453125)"></path><path d="M0 0 C0.11660824 3.39554235 0.18738372 6.79056679 0.25 10.1875 C0.28351563 11.14720703 0.31703125 12.10691406 0.3515625 13.09570312 C0.45069252 20.25784723 0.45069252 20.25784723 -1.890625 24.11328125 C-5.11713892 26.9992187 -6.95034254 27.13584228 -11.1965332 27.19287109 C-12.82381096 27.21696548 -12.82381096 27.21696548 -14.48396301 27.24154663 C-19.44755485 27.28592603 -24.41101212 27.32705826 -29.37475586 27.35009766 C-31.99463783 27.36666582 -34.61447445 27.39396669 -37.23413086 27.43212891 C-41.00658682 27.48681941 -44.77798254 27.50876071 -48.55078125 27.5234375 C-50.30724724 27.55744156 -50.30724724 27.55744156 -52.09919739 27.59213257 C-60.16265876 27.57113194 -60.16265876 27.57113194 -64.24755859 24.78491211 C-66.125252 21.80095437 -66.59503868 20.39826087 -66.48828125 16.91796875 C-66.47216797 15.98662109 -66.45605469 15.05527344 -66.43945312 14.09570312 C-66.39755859 13.13599609 -66.35566406 12.17628906 -66.3125 11.1875 C-66.28994141 10.20845703 -66.26738281 9.22941406 -66.24414062 8.22070312 C-66.18539727 5.81222545 -66.10332129 3.40690922 -66 1 C-47.65957447 1.80851064 -47.65957447 1.80851064 -39 4 C-38.5359375 5.4540625 -38.5359375 5.4540625 -38.0625 6.9375 C-37.30476658 9.84065792 -37.30476658 9.84065792 -36 11 C-33.66055264 10.71269945 -31.3260857 10.38063221 -29 10 C-28.34 8.02 -27.68 6.04 -27 4 C-8.14893617 0 -8.14893617 0 0 0 Z " fill="#FDFBFF" transform="translate(81,53)"></path><path d="M0 0 C1.20269531 -0.00257812 2.40539062 -0.00515625 3.64453125 -0.0078125 C4.90652344 -0.00007813 6.16851562 0.00765625 7.46875 0.015625 C8.73074219 0.00789063 9.99273437 0.00015625 11.29296875 -0.0078125 C12.49566406 -0.00523438 13.69835937 -0.00265625 14.9375 0 C16.04544922 0.00225586 17.15339844 0.00451172 18.29492188 0.00683594 C20.96875 0.265625 20.96875 0.265625 22.96875 2.265625 C22.96875 5.235625 22.96875 8.205625 22.96875 11.265625 C12.73875 11.265625 2.50875 11.265625 -8.03125 11.265625 C-8.03125 0.01635217 -8.03125 0.01635217 0 0 Z " fill="#7A1CFF" transform="translate(40.03125,19.734375)"></path><path d="M0 0 C1.32 0.33 2.64 0.66 4 1 C4 3.31 4 5.62 4 8 C2.68 8 1.36 8 0 8 C0 5.36 0 2.72 0 0 Z " fill="#EDE0FF" transform="translate(46,52)"></path></svg>