<svg xmlns="http://www.w3.org/2000/svg" width="95" height="96"><path d="M0 0 C7.35546331 6.49349495 14.10137052 18.57588434 14.92700195 28.44360352 C15.46779201 48.418363 15.46779201 48.418363 10.75 57.328125 C10.30269531 58.19695312 9.85539062 59.06578125 9.39453125 59.9609375 C3.28465067 70.93579002 -5.39029037 78.04632156 -17.234375 82.43359375 C-31.11155024 86.34343281 -44.94348091 85.06253233 -57.5625 78.078125 C-66.25642039 72.64867537 -71.56740949 66.42341608 -76.25 57.328125 C-76.66636719 56.54179688 -77.08273438 55.75546875 -77.51171875 54.9453125 C-82.04617897 44.79448576 -82.18695491 30.70939538 -78.625 20.203125 C-77.88775158 18.55272327 -77.09586683 16.92558248 -76.25 15.328125 C-75.57904297 14.02488281 -75.57904297 14.02488281 -74.89453125 12.6953125 C-68.78465067 1.72045998 -60.10970963 -5.39007156 -48.265625 -9.77734375 C-30.53030104 -14.7742009 -14.57098751 -10.82705322 0 0 Z " fill="#7518F9" transform="translate(80.25,11.671875)"></path><path d="M0 0 C-1.75 3.875 -1.75 3.875 -4 5 C-4.46523063 6.89533342 -4.46523063 6.89533342 -4.625 9.0625 C-4.74875 10.361875 -4.8725 11.66125 -5 13 C-3.68 13.33 -2.36 13.66 -1 14 C-0.42766063 16.20759471 0.06218296 18.37309778 0.4375 20.625 C0.82100329 23.17107484 0.82100329 23.17107484 3 25 C3.969375 24.95875 4.93875 24.9175 5.9375 24.875 C7.4534375 24.936875 7.4534375 24.936875 9 25 C10.625 26.875 10.625 26.875 12 29 C14.03334985 30.13668926 14.03334985 30.13668926 16 31 C15.566875 31.6290625 15.13375 32.258125 14.6875 32.90625 C9.82469221 40.38056568 9.30692402 44.14846812 10.5625 52.9375 C10.706875 53.948125 10.85125 54.95875 11 56 C8.46690278 58.53309722 1.47005092 57.18555171 -1.9375 57.1875 C-3.06091797 57.19974609 -4.18433594 57.21199219 -5.34179688 57.22460938 C-6.41365234 57.22654297 -7.48550781 57.22847656 -8.58984375 57.23046875 C-10.07278931 57.23663208 -10.07278931 57.23663208 -11.58569336 57.24291992 C-14 57 -14 57 -16 55 C-16 53.35 -16 51.7 -16 50 C-19.63 50 -23.26 50 -27 50 C-27.66679456 46.6660272 -28.21187864 43.54344726 -28.5625 40.1875 C-28.68818359 39.00220703 -28.68818359 39.00220703 -28.81640625 37.79296875 C-28.87699219 37.20128906 -28.93757813 36.60960937 -29 36 C-29.99 36 -30.98 36 -32 36 C-31.62560391 32.78019366 -31.31641995 30.47462992 -29.5 27.75 C-27.5755378 24.2218193 -27.50499253 21.17666729 -27.30859375 17.20703125 C-27 15 -27 15 -25 13 C-24.67 13.33 -24.34 13.66 -24 14 C-19.38393667 14.42294645 -19.38393667 14.42294645 -15.125 12.9375 C-13.75692127 10.86007049 -13.75692127 10.86007049 -13.5 7.5 C-13 4 -13 4 -11.625 2.125 C-7.92661399 -0.43542109 -4.33273423 -0.0817497 0 0 Z " fill="#FCFAFF" transform="translate(51,34)"></path><path d="M0 0 C1.65 0 3.3 0 5 0 C5.33 1.32 5.66 2.64 6 4 C6.62648438 4.02578125 7.25296875 4.0515625 7.8984375 4.078125 C9.12433594 4.16320312 9.12433594 4.16320312 10.375 4.25 C11.18710938 4.29640625 11.99921875 4.3428125 12.8359375 4.390625 C15 5 15 5 16.25 6.84375 C17.18502974 9.53196049 17.61608842 12.18464843 18 15 C18.99 15.33 19.98 15.66 21 16 C21.25 18.25 21.25 18.25 21 21 C20.34 21.639375 19.68 22.27875 19 22.9375 C16.65627187 24.89576119 16.65627187 24.89576119 16.875 28.125 C16.91625 29.07375 16.9575 30.0225 17 31 C16.34 31.66 15.68 32.32 15 33 C14.05125 32.95875 13.1025 32.9175 12.125 32.875 C8.17525455 33.03298982 7.65505443 34.25929866 5 37 C2.5 37.5 2.5 37.5 0 37 C-0.639375 36.34 -1.27875 35.68 -1.9375 35 C-3.91259502 32.65853138 -3.91259502 32.65853138 -7.25 32.75 C-8.1575 32.8325 -9.065 32.915 -10 33 C-12.32590854 29.36576791 -12.16265833 26.22911669 -12 22 C-13.32 21.67 -14.64 21.34 -16 21 C-15.37017995 16.33933162 -15.37017995 16.33933162 -13.5 14.625 C-11.17894096 12.11051937 -11.36782927 9.31046345 -11 6 C-9.06696305 4.06696305 -5.65250469 4.15154354 -3.03125 3.6953125 C-2.3609375 3.46585938 -1.690625 3.23640625 -1 3 C-0.67 2.01 -0.34 1.02 0 0 Z " fill="#F9F4FF" transform="translate(64,24)"></path><path d="M0 0 C3.27989342 2.30194355 4.7875246 5.00136563 5.625 8.9375 C4.80382261 12.96126923 3.10028843 16.24237503 0 19 C-1.32 19 -2.64 19 -4 19 C-4.05422947 17.5629191 -4.09289723 16.12524538 -4.125 14.6875 C-4.14820313 13.88699219 -4.17140625 13.08648437 -4.1953125 12.26171875 C-4 10 -4 10 -2 7 C-2.8971875 7.2784375 -2.8971875 7.2784375 -3.8125 7.5625 C-6 8 -6 8 -9 7 C-8.01 8.485 -8.01 8.485 -7 10 C-6.8046875 12.26171875 -6.8046875 12.26171875 -6.875 14.6875 C-6.89304687 15.49574219 -6.91109375 16.30398437 -6.9296875 17.13671875 C-6.96449219 18.05904297 -6.96449219 18.05904297 -7 19 C-11 19 -11 19 -13.25 17.0625 C-15.59417584 12.96019227 -15.85501987 9.62716634 -15 5 C-11.01346692 -1.37845294 -6.98029061 -1.94966738 0 0 Z " fill="#F9F5FF" transform="translate(36,19)"></path><path d="M0 0 C3.75514634 2.0408404 4.77457968 3.28395898 6.0625 7.375 C5.98603205 11.81014124 4.80644332 13.63226802 2 17 C-1.13871188 18.56935594 -3.53855822 18.35201103 -7 18 C-9.91963173 16.01216563 -11.61102978 14.5685303 -12.48046875 11.0625 C-12.75815509 7.09984094 -12.23092162 5.33588599 -9.9375 2 C-6.23727467 -0.51930235 -4.3968344 -0.7066341 0 0 Z " fill="#F7F2FF" transform="translate(70,34)"></path><path d="M0 0 C3.75514634 2.0408404 4.77457968 3.28395898 6.0625 7.375 C5.98603205 11.81014124 4.80644332 13.63226802 2 17 C-1.13871188 18.56935594 -3.53855822 18.35201103 -7 18 C-9.91963173 16.01216563 -11.61102978 14.5685303 -12.48046875 11.0625 C-12.75815509 7.09984094 -12.23092162 5.33588599 -9.9375 2 C-6.23727467 -0.51930235 -4.3968344 -0.7066341 0 0 Z M-8.375 3.5625 C-10.34359806 6.01459258 -10.34359806 6.01459258 -9.9375 9.625 C-9.3249155 13.25516924 -9.3249155 13.25516924 -6 15 C-2.87973093 15.32502803 -0.85252465 15.51151479 1.875 13.875 C3.55468045 11.07553259 3.45742277 9.20195936 3 6 C1.01677007 3.2087875 -0.12986121 2.17402776 -3.5 1.5 C-6.10963005 1.85938071 -6.10963005 1.85938071 -8.375 3.5625 Z " fill="#8026FF" transform="translate(70,34)"></path><path d="M0 0 C-0.66 0.5775 -1.32 1.155 -2 1.75 C-4.44290923 3.99653977 -4.44290923 3.99653977 -4 8 C-3.01 8.33 -2.02 8.66 -1 9 C-0.855625 10.093125 -0.71125 11.18625 -0.5625 12.3125 C-0.11711896 15.93122987 -0.11711896 15.93122987 1 19 C1.9075 18.938125 2.815 18.87625 3.75 18.8125 C7.29238832 19.01686856 8.52653696 19.52653696 11 22 C11 22.66 11 23.32 11 24 C12.65 24 14.3 24 16 24 C15.34 24.99 14.68 25.98 14 27 C11.625 26.6875 11.625 26.6875 9 26 C8.34 25.01 7.68 24.02 7 23 C6.05125 23.020625 5.1025 23.04125 4.125 23.0625 C1 23 1 23 -1.375 21.5 C-3.73613198 17.86748926 -3.2854378 15.28156703 -3 11 C-4.32 10.67 -5.64 10.34 -7 10 C-7.34684009 4.71068868 -7.34684009 4.71068868 -7 2 C-4.39920807 -0.95952185 -3.80493073 -1.26831024 0 0 Z " fill="#7E22FF" transform="translate(53,37)"></path><path d="M0 0 C2.31 0 4.62 0 7 0 C6.34 3.96 5.68 7.92 5 12 C6.32 12.33 7.64 12.66 9 13 C8.34 15.31 7.68 17.62 7 20 C4.125 20.125 4.125 20.125 1 20 C-1 18 -1 18 -1.125 14.875 C-1.08375 13.92625 -1.0425 12.9775 -1 12 C-0.01 12 0.98 12 2 12 C1.85831863 10.56208484 1.71148957 9.1246763 1.5625 7.6875 C1.48128906 6.88699219 1.40007813 6.08648437 1.31640625 5.26171875 C1.04734307 2.83912821 1.04734307 2.83912821 0 0 Z " fill="#8027FF" transform="translate(27,26)"></path><path d="M0 0 C-0.33 0.99 -0.66 1.98 -1 3 C-2.1446875 2.9071875 -2.1446875 2.9071875 -3.3125 2.8125 C-5.95712656 2.8133527 -5.95712656 2.8133527 -7.875 4 C-9.74759551 7.32905868 -8.66374222 10.31924768 -8 14 C-9.32 13.67 -10.64 13.34 -12 13 C-12.60356653 5.87791495 -12.60356653 5.87791495 -9.9375 2 C-6.35342568 -0.44022082 -4.25018379 -0.41668469 0 0 Z " fill="#7C1FFF" transform="translate(70,34)"></path><path d="M0 0 C0.66 0 1.32 0 2 0 C2 0.99 2 1.98 2 3 C2.99 3 3.98 3 5 3 C5 3.99 5 4.98 5 6 C4.01 6 3.02 6 2 6 C2 6.99 2 7.98 2 9 C1.01 8.67 0.02 8.34 -1 8 C-1 7.34 -1 6.68 -1 6 C-1.99 5.67 -2.98 5.34 -4 5 C-3.67 4.34 -3.34 3.68 -3 3 C-2.34 3 -1.68 3 -1 3 C-0.67 2.01 -0.34 1.02 0 0 Z " fill="#A260FF" transform="translate(36,51)"></path><path d="M0 0 C2.97 0 5.94 0 9 0 C8.67 1.65 8.34 3.3 8 5 C5.125 5.125 5.125 5.125 2 5 C1.34 4.34 0.68 3.68 0 3 C0 2.01 0 1.02 0 0 Z " fill="#FBF8FF" transform="translate(26,41)"></path><path d="M0 0 C0.33 0 0.66 0 1 0 C1.35430394 3.18873549 1.25953249 4.61589191 -0.5625 7.3125 C-3.814649 9.56398777 -6.13193005 9.29754384 -10 9 C-9.34 8.01 -8.68 7.02 -8 6 C-7.175 5.855625 -6.35 5.71125 -5.5 5.5625 C-4.675 5.376875 -3.85 5.19125 -3 5 C-1.69934079 3.06616713 -1.69934079 3.06616713 -1 1 C-0.67 0.67 -0.34 0.34 0 0 Z " fill="#8C3BFF" transform="translate(37,40)"></path><path d="M0 0 C2.31 0 4.62 0 7 0 C6.34 1.32 5.68 2.64 5 4 C4.34 4 3.68 4 3 4 C3 6.64 3 9.28 3 12 C2.67 12 2.34 12 2 12 C1.93941406 11.38511719 1.87882812 10.77023438 1.81640625 10.13671875 C1.73261719 9.32847656 1.64882813 8.52023438 1.5625 7.6875 C1.48128906 6.88699219 1.40007813 6.08648437 1.31640625 5.26171875 C1.04734307 2.83912821 1.04734307 2.83912821 0 0 Z " fill="#8936FF" transform="translate(27,26)"></path><path d="M0 0 C0.66 0 1.32 0 2 0 C2 0.99 2 1.98 2 3 C2.99 3 3.98 3 5 3 C5 3.66 5 4.32 5 5 C4.01 5 3.02 5 2 5 C2 5.99 2 6.98 2 8 C1.34 8 0.68 8 0 8 C0 7.01 0 6.02 0 5 C-0.99 5 -1.98 5 -3 5 C-3 4.34 -3 3.68 -3 3 C-2.01 3 -1.02 3 0 3 C0 2.01 0 1.02 0 0 Z " fill="#FDFCFF" transform="translate(57,13)"></path><path d="M0 0 C1.27875 0.103125 2.5575 0.20625 3.875 0.3125 C4.95394531 0.39951172 4.95394531 0.39951172 6.0546875 0.48828125 C8 1 8 1 10 4 C6.6875 4.25 6.6875 4.25 3 4 C1.0625 2 1.0625 2 0 0 Z " fill="#8B39FF" transform="translate(60,48)"></path><path d="M0 0 C4.455 0.99 4.455 0.99 9 2 C8.01 3.485 8.01 3.485 7 5 C4.625 4.75 4.625 4.75 2 4 C1.34 2.68 0.68 1.36 0 0 Z " fill="#9144FF" transform="translate(60,59)"></path></svg>