<svg xmlns="http://www.w3.org/2000/svg" xmlns:xlink="http://www.w3.org/1999/xlink" width="66" zoomAndPan="magnify" viewBox="0 0 49.5 49.499998" height="66" preserveAspectRatio="xMidYMid meet"><defs><clipPath id="510b04afaa"><path d="M 0 0 L 49.003906 0 L 49.003906 49.003906 L 0 49.003906 Z M 0 0 "></path></clipPath><clipPath id="9912a307d7"><path d="M 24.503906 0 C 10.96875 0 0 10.96875 0 24.503906 C 0 38.035156 10.96875 49.003906 24.503906 49.003906 C 38.035156 49.003906 49.003906 38.035156 49.003906 24.503906 C 49.003906 10.96875 38.035156 0 24.503906 0 Z M 24.503906 0 "></path></clipPath><clipPath id="f468116be6"><path d="M 5 4.425781 L 44 4.425781 L 44 43 L 5 43 Z M 5 4.425781 "></path></clipPath></defs><g id="07cc686c18"><g clip-rule="nonzero" clip-path="url(#510b04afaa)"><g clip-rule="nonzero" clip-path="url(#9912a307d7)"><path style=" stroke:none;fill-rule:nonzero;fill:#ffb013;fill-opacity:1;" d="M 0 0 L 49.003906 0 L 49.003906 49.003906 L 0 49.003906 Z M 0 0 "></path></g></g><g clip-rule="nonzero" clip-path="url(#f468116be6)"><path style=" stroke:none;fill-rule:nonzero;fill:#ffffff;fill-opacity:1;" d="M 24.453125 4.433594 C 13.78125 4.433594 5.121094 13.089844 5.121094 23.765625 C 5.121094 24.429688 5.15625 25.089844 5.222656 25.738281 C 5.285156 26.390625 5.382812 27.027344 5.511719 27.660156 C 5.640625 28.289062 5.800781 28.90625 5.988281 29.511719 C 6.054688 29.730469 6.285156 29.855469 6.503906 29.785156 C 6.722656 29.71875 6.84375 29.488281 6.773438 29.269531 C 6.589844 28.691406 6.4375 28.097656 6.316406 27.496094 C 6.191406 26.890625 6.097656 26.277344 6.035156 25.65625 C 5.972656 25.035156 5.941406 24.402344 5.941406 23.765625 C 5.941406 13.535156 14.222656 5.253906 24.453125 5.253906 C 34.679688 5.253906 42.964844 13.535156 42.964844 23.765625 C 42.964844 24.402344 42.933594 25.035156 42.867188 25.65625 C 42.804688 26.277344 42.710938 26.890625 42.585938 27.496094 C 42.464844 28.097656 42.3125 28.691406 42.128906 29.269531 C 42.0625 29.488281 42.179688 29.71875 42.398438 29.785156 C 42.617188 29.855469 42.851562 29.730469 42.914062 29.511719 C 43.101562 28.90625 43.261719 28.289062 43.390625 27.660156 C 43.519531 27.027344 43.617188 26.390625 43.683594 25.738281 C 43.75 25.089844 43.78125 24.429688 43.78125 23.765625 C 43.78125 13.089844 35.125 4.433594 24.453125 4.433594 Z M 21.773438 9.304688 C 21.125 9.328125 20.550781 9.765625 20.371094 10.429688 C 20.15625 11.246094 20.628906 12.066406 21.441406 12.285156 L 24.355469 13.066406 L 25.839844 11.582031 C 26.074219 11.347656 26.34375 11.175781 26.632812 11.0625 C 26.617188 11.035156 26.605469 11.011719 26.59375 10.988281 C 26.496094 10.820312 26.367188 10.671875 26.210938 10.550781 C 26.054688 10.429688 25.875 10.335938 25.671875 10.28125 L 22.226562 9.359375 C 22.074219 9.316406 21.921875 9.300781 21.773438 9.304688 Z M 19.574219 10.261719 L 19.570312 10.261719 C 19.375 10.324219 19.199219 10.429688 19.046875 10.582031 C 18.472656 11.152344 18.515625 12.179688 19.226562 12.90625 L 23.902344 17.582031 C 24.625 18.308594 25.660156 18.355469 26.234375 17.777344 C 26.808594 17.203125 26.765625 16.167969 26.039062 15.441406 L 24.570312 13.972656 L 24.378906 13.917969 C 24.378906 13.917969 24.375 13.917969 24.375 13.917969 L 21.230469 13.074219 C 20.003906 12.746094 19.269531 11.488281 19.570312 10.261719 Z M 27.492188 11.710938 C 27.105469 11.710938 26.71875 11.859375 26.421875 12.160156 L 25.171875 13.414062 L 26.621094 14.863281 C 27.617188 15.859375 27.742188 17.425781 26.816406 18.359375 C 26.34375 18.828125 25.710938 19.027344 25.066406 18.980469 C 25.4375 19.835938 25.277344 20.867188 24.582031 21.5625 C 24.019531 22.125 23.234375 22.34375 22.503906 22.207031 C 22.640625 22.9375 22.425781 23.722656 21.863281 24.285156 C 20.953125 25.195312 19.472656 25.195312 18.566406 24.285156 L 18.34375 24.0625 C 18.308594 24.613281 18.085938 25.148438 17.667969 25.566406 C 16.761719 26.476562 15.277344 26.476562 14.371094 25.566406 L 13.714844 24.910156 C 12.800781 26.046875 12.527344 27.726562 13.078125 28.953125 C 13.171875 29.101562 13.160156 29.300781 13.042969 29.433594 C 13.03125 29.449219 13.019531 29.460938 13.007812 29.472656 L 10.394531 32.089844 L 13.511719 35.207031 L 16.609375 38.3125 L 18.828125 36.09375 C 18.75 35.722656 18.707031 35.335938 18.707031 34.933594 L 18.707031 28.144531 C 18.707031 27.917969 18.890625 27.734375 19.117188 27.734375 L 29.789062 27.734375 C 30.015625 27.734375 30.199219 27.917969 30.199219 28.144531 L 30.199219 28.800781 L 35.855469 23.328125 L 35.859375 23.324219 L 36.714844 22.464844 C 37.3125 21.867188 37.3125 20.921875 36.714844 20.324219 C 36.117188 19.726562 35.171875 19.726562 34.574219 20.324219 L 34.152344 20.746094 C 33.992188 20.90625 33.734375 20.90625 33.574219 20.746094 C 33.414062 20.585938 33.414062 20.328125 33.574219 20.167969 L 33.996094 19.746094 C 34.59375 19.148438 34.59375 18.203125 33.996094 17.601562 C 33.398438 17.003906 32.453125 17.003906 31.855469 17.601562 L 31.433594 18.023438 C 31.277344 18.195312 31.011719 18.199219 30.847656 18.035156 C 30.679688 17.871094 30.6875 17.605469 30.855469 17.449219 L 31.277344 17.023438 C 31.875 16.425781 31.875 15.480469 31.277344 14.882812 C 30.679688 14.285156 29.738281 14.285156 29.136719 14.882812 L 28.714844 15.304688 C 28.328125 15.683594 27.757812 15.113281 28.136719 14.726562 L 28.558594 14.300781 C 29.15625 13.703125 29.15625 12.757812 28.558594 12.160156 C 28.261719 11.859375 27.875 11.714844 27.488281 11.714844 Z M 16.914062 12.367188 C 16.527344 12.367188 16.140625 12.519531 15.84375 12.820312 C 15.246094 13.417969 15.246094 14.363281 15.84375 14.960938 L 21.863281 20.984375 C 22.460938 21.585938 23.402344 21.585938 24 20.984375 C 24.597656 20.386719 24.597656 19.441406 24 18.84375 L 23.324219 18.164062 L 23.320312 18.164062 L 22.714844 17.554688 L 17.984375 12.816406 C 17.683594 12.519531 17.300781 12.367188 16.914062 12.367188 Z M 14.195312 15.089844 C 13.808594 15.089844 13.421875 15.238281 13.125 15.539062 C 12.527344 16.136719 12.527344 17.082031 13.125 17.679688 L 19.144531 23.707031 C 19.742188 24.304688 20.683594 24.304688 21.28125 23.707031 C 21.882812 23.109375 21.882812 22.160156 21.28125 21.5625 L 15.265625 15.539062 C 14.964844 15.238281 14.582031 15.089844 14.195312 15.089844 Z M 12.914062 19.289062 C 12.527344 19.289062 12.144531 19.4375 11.84375 19.738281 C 11.246094 20.335938 11.246094 21.28125 11.84375 21.878906 L 14.949219 24.988281 C 15.546875 25.585938 16.492188 25.585938 17.089844 24.988281 C 17.6875 24.390625 17.6875 23.445312 17.089844 22.84375 L 13.984375 19.738281 C 13.683594 19.4375 13.296875 19.289062 12.914062 19.289062 Z M 35.203125 25.09375 L 30.199219 29.941406 L 30.199219 34.933594 C 30.199219 35.378906 30.144531 35.808594 30.046875 36.214844 L 32.289062 38.460938 L 35.394531 35.355469 L 38.507812 32.234375 L 35.9375 29.660156 C 35.828125 29.585938 35.765625 29.464844 35.761719 29.332031 C 35.757812 29.246094 35.785156 29.160156 35.832031 29.089844 C 36.40625 27.878906 36.105469 26.289062 35.203125 25.09375 Z M 19.523438 28.550781 L 19.523438 34.933594 C 19.523438 36.90625 20.765625 38.503906 22.050781 39.628906 C 23.199219 40.628906 24.214844 41.144531 24.453125 41.261719 C 24.6875 41.144531 25.703125 40.628906 26.851562 39.628906 C 28.136719 38.503906 29.378906 36.90625 29.378906 34.933594 L 29.378906 28.550781 Z M 27.371094 31.640625 C 27.742188 31.628906 27.9375 32.078125 27.667969 32.34375 L 23.667969 36.378906 C 23.507812 36.539062 23.246094 36.539062 23.085938 36.378906 L 21.234375 34.507812 C 21.066406 34.347656 21.0625 34.082031 21.226562 33.917969 C 21.390625 33.757812 21.65625 33.761719 21.816406 33.929688 L 23.378906 35.507812 L 27.085938 31.765625 C 27.160156 31.6875 27.261719 31.644531 27.371094 31.640625 Z M 8.84375 32.089844 C 8.601562 32.089844 8.359375 32.183594 8.167969 32.375 L 6.21875 34.328125 C 5.835938 34.707031 5.835938 35.300781 6.21875 35.683594 L 13.023438 42.496094 C 13.402344 42.875 13.996094 42.875 14.375 42.496094 L 16.328125 40.542969 C 16.707031 40.160156 16.707031 39.566406 16.328125 39.1875 L 16.324219 39.183594 L 12.925781 35.78125 L 9.523438 32.375 C 9.332031 32.183594 9.089844 32.089844 8.84375 32.089844 Z M 40.058594 32.234375 C 39.816406 32.234375 39.574219 32.332031 39.382812 32.519531 L 39.378906 32.527344 L 32.574219 39.332031 C 32.195312 39.714844 32.195312 40.308594 32.574219 40.6875 L 34.527344 42.640625 C 34.910156 43.023438 35.503906 43.023438 35.878906 42.640625 L 42.6875 35.828125 C 43.066406 35.449219 43.066406 34.855469 42.6875 34.472656 L 40.734375 32.519531 C 40.542969 32.332031 40.300781 32.234375 40.058594 32.234375 Z M 40.058594 32.234375 "></path></g></g></svg>