<svg xmlns="http://www.w3.org/2000/svg" width="66" height="66"><path d="M0 0 C7.27363642 5.18041951 13.38523045 11.95089541 15 21 C15.80514858 32.95843622 15.20180936 42.20675407 7.3125 51.8125 C0.84781999 58.63968543 -6.17674344 62.0363516 -15.53295898 62.29296875 C-26.87993194 62.39890385 -34.5696962 60.22382749 -43.01953125 52.22265625 C-50.84579928 43.43932981 -51.70102447 34.23967387 -51.17041016 22.93994141 C-50.41145414 14.30002093 -45.30627922 7.61912753 -39 2 C-27.90432514 -5.63397006 -11.777235 -7.28383001 0 0 Z " fill="#F9B121" transform="translate(51,4)"></path><path d="M0 0 C0.70125 0.5775 1.4025 1.155 2.125 1.75 C2.125 3.07 2.125 4.39 2.125 5.75 C3.445 5.75 4.765 5.75 6.125 5.75 C6.62 7.235 6.62 7.235 7.125 8.75 C7.785 8.75 8.445 8.75 9.125 8.75 C9.62 10.73 9.62 10.73 10.125 12.75 C11.115 12.75 12.105 12.75 13.125 12.75 C12.54880903 16.31764821 11.25530516 18.00159497 8.6875 20.5 C8.07003906 21.11359375 7.45257813 21.7271875 6.81640625 22.359375 C5.125 23.75 5.125 23.75 3.125 23.75 C3.18300781 24.47445312 3.24101563 25.19890625 3.30078125 25.9453125 C3.71516895 34.82504897 3.71516895 34.82504897 0.625 38.4375 C-0.2 39.200625 -1.025 39.96375 -1.875 40.75 C-4.65711944 40.37403791 -6.4629284 40.07681541 -8.6875 38.3125 C-9.875 36.75 -9.875 36.75 -9.875 34.75 C-11.525 35.41 -13.175 36.07 -14.875 36.75 C-14.875 37.08 -14.875 37.41 -14.875 37.75 C-15.19880126 39.08568021 -15.53157551 40.41923011 -15.875 41.75 C-17.578125 42.52734375 -17.578125 42.52734375 -19.875 42.75 C-22.234375 40.87890625 -22.234375 40.87890625 -24.625 38.3125 C-25.42421875 37.46816406 -26.2234375 36.62382813 -27.046875 35.75390625 C-27.65015625 35.09261719 -28.2534375 34.43132813 -28.875 33.75 C-28.02734375 31.796875 -28.02734375 31.796875 -26.875 29.75 C-26.070625 29.5025 -25.26625 29.255 -24.4375 29 C-21.3951079 27.51590629 -21.21998934 26.81459082 -20.0625 23.75 C-19.35076299 21.61085671 -18.875 20.00577719 -18.875 17.75 C-20.33333358 16.12485532 -20.33333358 16.12485532 -21.875 14.75 C-21.545 13.76 -21.215 12.77 -20.875 11.75 C-20.215 11.42 -19.555 11.09 -18.875 10.75 C-19.205 9.43 -19.535 8.11 -19.875 6.75 C-18.555 6.42 -17.235 6.09 -15.875 5.75 C-15.875 4.76 -15.875 3.77 -15.875 2.75 C-14.555 2.75 -13.235 2.75 -11.875 2.75 C-11.875 1.76 -11.875 0.77 -11.875 -0.25 C-7.48208732 -1.71430423 -4.28705615 -1.86393746 0 0 Z " fill="#FFFCF8" transform="translate(36.875,14.25)"></path><path d="M0 0 C2.375 1.5 2.375 1.5 4 3 C3.01 3.495 3.01 3.495 2 4 C2.33 6.64 2.66 9.28 3 12 C2.01 12.495 2.01 12.495 1 13 C0.566875 13.8971875 0.566875 13.8971875 0.125 14.8125 C-1.65284824 18.26942714 -3.2818435 20.43693373 -7.0859375 21.68359375 C-12.87118713 22.76952931 -12.87118713 22.76952931 -15.73046875 20.8203125 C-17.125 19.25 -17.125 19.25 -19 16 C-18.67 15.01 -18.34 14.02 -18 13 C-17.34 12.67 -16.68 12.34 -16 12 C-16.33 10.68 -16.66 9.36 -17 8 C-15.68 7.67 -14.36 7.34 -13 7 C-13 6.01 -13 5.02 -13 4 C-11.68 4 -10.36 4 -9 4 C-9 3.01 -9 2.02 -9 1 C-5.70952793 -0.09682402 -3.44927034 -0.28157309 0 0 Z " fill="#FFC554" transform="translate(34,13)"></path><path d="M0 0 C5.28 0 10.56 0 16 0 C15.59821429 12.05357143 15.59821429 12.05357143 12.4375 15.75 C11.2309375 16.86375 11.2309375 16.86375 10 18 C7.21788056 17.62403791 5.4120716 17.32681541 3.1875 15.5625 C2 14 2 14 2 12 C1.34 12 0.68 12 0 12 C0 8.04 0 4.08 0 0 Z " fill="#FFF2DA" transform="translate(25,37)"></path><path d="M0 0 C0.66 0.33 1.32 0.66 2 1 C3.15014372 4.45043117 4 7.35282355 4 11 C2.828125 12.640625 2.828125 12.640625 1.25 14.25 C0.48429687 15.06210937 0.48429687 15.06210937 -0.296875 15.890625 C-2 17 -2 17 -4.203125 16.671875 C-5.09257813 16.33929688 -5.09257813 16.33929688 -6 16 C-6.92017937 7.37757848 -6.92017937 7.37757848 -4.6640625 4 C-3 2.375 -3 2.375 0 0 Z " fill="#FFFBF5" transform="translate(47,34)"></path><path d="M0 0 C1.67542976 0.28604898 3.34385343 0.61781233 5 1 C5 1.66 5 2.32 5 3 C5.66 3 6.32 3 7 3 C7 3.66 7 4.32 7 5 C7.66 5 8.32 5 9 5 C10.42944945 7.35438733 11.08661261 8.48032433 10.625 11.25 C10.41875 11.8275 10.2125 12.405 10 13 C8.296875 13.77734375 8.296875 13.77734375 6 14 C3.640625 12.12890625 3.640625 12.12890625 1.25 9.5625 C0.45078125 8.71816406 -0.3484375 7.87382813 -1.171875 7.00390625 C-1.77515625 6.34261719 -2.3784375 5.68132813 -3 5 C-1.125 1.125 -1.125 1.125 0 0 Z " fill="#FFF6E4" transform="translate(11,43)"></path><path d="M0 0 C0.58523437 0.23074219 1.17046875 0.46148437 1.7734375 0.69921875 C1.7734375 4.69921875 1.7734375 4.69921875 -0.1953125 7.05859375 C-1.030625 7.8475 -1.8659375 8.63640625 -2.7265625 9.44921875 C-3.561875 10.2484375 -4.3971875 11.04765625 -5.2578125 11.87109375 C-5.9075 12.474375 -6.5571875 13.07765625 -7.2265625 13.69921875 C-8.5465625 12.70921875 -9.8665625 11.71921875 -11.2265625 10.69921875 C-9.8361126 7.59479844 -8.21084652 5.33357445 -5.8515625 2.88671875 C-5.26632813 2.26152344 -4.68109375 1.63632812 -4.078125 0.9921875 C-2.2265625 -0.30078125 -2.2265625 -0.30078125 0 0 Z " fill="#FFFEFC" transform="translate(55.2265625,44.30078125)"></path><path d="M0 0 C3.96 0 7.92 0 12 0 C11.67 1.32 11.34 2.64 11 4 C10.34 3.67 9.68 3.34 9 3 C8.7525 3.639375 8.505 4.27875 8.25 4.9375 C7 7 7 7 4.875 7.75 C3.946875 7.87375 3.946875 7.87375 3 8 C3 7.34 3 6.68 3 6 C2.34 6 1.68 6 1 6 C0.67 6.66 0.34 7.32 0 8 C0 5.36 0 2.72 0 0 Z " fill="#FFFDFB" transform="translate(27,39)"></path><path d="M0 0 C4.97968095 0.15089942 7.32187142 2.88119311 10.64453125 6.2109375 C12 8 12 8 12 11 C8.42185133 10.40364189 6.45577139 9.000066 3.75 6.625 C3.04359375 6.01914062 2.3371875 5.41328125 1.609375 4.7890625 C0 3 0 3 0 0 Z " fill="#FFFBF4" transform="translate(17,21)"></path><path d="M0 0 C4 0 4 0 5.921875 1.609375 C6.52515625 2.31578125 7.1284375 3.0221875 7.75 3.75 C8.67039062 4.79414063 8.67039062 4.79414063 9.609375 5.859375 C11 8 11 8 11 12 C7.86989542 10.60807296 5.67663308 8.97357774 3.25 6.5625 C2.63640625 5.96566406 2.0228125 5.36882813 1.390625 4.75390625 C0 3 0 3 0 0 Z " fill="#FFFCF7" transform="translate(21,17)"></path><path d="M0 0 C5.28 0 10.56 0 16 0 C15.67 0.66 15.34 1.32 15 2 C10.71 2 6.42 2 2 2 C2 5.3 2 8.6 2 12 C1.34 12 0.68 12 0 12 C0 8.04 0 4.08 0 0 Z " fill="#FFD179" transform="translate(25,37)"></path><path d="M0 0 C3.23087421 0.55704728 5.02361137 1.33187535 7 4 C7 5.32 7 6.64 7 8 C3.20411134 7.45773019 1.52788007 5.79872437 -1 3 C-0.67 2.01 -0.34 1.02 0 0 Z " fill="#FFF7E9" transform="translate(16,26)"></path><path d="M0 0 C1.65376718 0.73233973 3.29787304 1.48652714 4.9375 2.25 C5.85402344 2.66765625 6.77054688 3.0853125 7.71484375 3.515625 C10 5 10 5 10.81640625 7.171875 C10.87699219 7.77515625 10.93757813 8.3784375 11 9 C6.32197941 8.72482232 4.25361247 6.66806114 1.13671875 3.47265625 C0 2 0 2 0 0 Z " fill="#FFF7E9" transform="translate(25,15)"></path><path d="M0 0 C2.875 -0.125 2.875 -0.125 6 0 C6.66 0.66 7.32 1.32 8 2 C6 4 6 4 3.375 4.125 C2.59125 4.08375 1.8075 4.0425 1 4 C0.67 2.68 0.34 1.36 0 0 Z " fill="#FFF9EE" transform="translate(28,13)"></path></svg>