<svg xmlns="http://www.w3.org/2000/svg" xmlns:xlink="http://www.w3.org/1999/xlink" width="300" zoomAndPan="magnify" viewBox="0 0 108.75 30" height="83" preserveAspectRatio="xMidYMid meet"><defs><clipPath id="5d01ac648e"><path d="M 2 19 L 108.5 19 L 108.5 29.964844 L 2 29.964844 Z M 2 19 "></path></clipPath></defs><g id="fff8f234ad"><g clip-rule="nonzero" clip-path="url(#5d01ac648e)"><g style="fill:#000000;fill-opacity:1;"><g transform="translate(0.979551, 37.395976)"><path style="stroke:none" d="M 1.8125 5.421875 L 1.8125 -12.359375 L 4.890625 -12.359375 L 4.890625 -11.125 C 5.328125 -11.65625 5.847656 -12.035156 6.453125 -12.265625 C 7.066406 -12.492188 7.703125 -12.609375 8.359375 -12.609375 C 9.222656 -12.609375 9.988281 -12.4375 10.65625 -12.09375 C 11.320312 -11.757812 11.878906 -11.289062 12.328125 -10.6875 C 12.785156 -10.09375 13.128906 -9.40625 13.359375 -8.625 C 13.585938 -7.851562 13.703125 -7.039062 13.703125 -6.1875 C 13.703125 -5.320312 13.585938 -4.503906 13.359375 -3.734375 C 13.128906 -2.960938 12.785156 -2.28125 12.328125 -1.6875 C 11.878906 -1.09375 11.328125 -0.617188 10.671875 -0.265625 C 10.023438 0.078125 9.269531 0.25 8.40625 0.25 C 7.757812 0.25 7.117188 0.132812 6.484375 -0.09375 C 5.859375 -0.320312 5.328125 -0.703125 4.890625 -1.234375 L 4.890625 5.421875 Z M 7.625 -2.53125 C 8.3125 -2.53125 8.878906 -2.691406 9.328125 -3.015625 C 9.773438 -3.335938 10.101562 -3.769531 10.3125 -4.3125 C 10.53125 -4.863281 10.640625 -5.488281 10.640625 -6.1875 C 10.640625 -6.875 10.53125 -7.5 10.3125 -8.0625 C 10.101562 -8.632812 9.773438 -9.082031 9.328125 -9.40625 C 8.878906 -9.738281 8.3125 -9.90625 7.625 -9.90625 C 6.9375 -9.90625 6.367188 -9.738281 5.921875 -9.40625 C 5.472656 -9.082031 5.140625 -8.632812 4.921875 -8.0625 C 4.710938 -7.5 4.609375 -6.875 4.609375 -6.1875 C 4.609375 -5.488281 4.710938 -4.863281 4.921875 -4.3125 C 5.140625 -3.769531 5.472656 -3.335938 5.921875 -3.015625 C 6.367188 -2.691406 6.9375 -2.53125 7.625 -2.53125 Z M 7.625 -2.53125 "></path></g><g transform="translate(15.457142, 37.395976)"><path style="stroke:none" d="M 1.796875 0 L 1.796875 -12.359375 L 4.734375 -12.359375 L 4.734375 -10.28125 C 4.921875 -10.78125 5.179688 -11.203125 5.515625 -11.546875 C 5.859375 -11.898438 6.25 -12.164062 6.6875 -12.34375 C 7.132812 -12.519531 7.585938 -12.609375 8.046875 -12.609375 C 8.460938 -12.609375 8.867188 -12.535156 9.265625 -12.390625 C 9.671875 -12.253906 10.019531 -12.03125 10.3125 -11.71875 L 8.9375 -9.25 C 8.519531 -9.53125 8.070312 -9.671875 7.59375 -9.671875 C 7.238281 -9.671875 6.890625 -9.585938 6.546875 -9.421875 C 6.203125 -9.253906 5.890625 -8.988281 5.609375 -8.625 C 5.335938 -8.269531 5.117188 -7.804688 4.953125 -7.234375 C 4.796875 -6.671875 4.71875 -6 4.71875 -5.21875 L 4.71875 0 Z M 1.796875 0 "></path></g><g transform="translate(25.533347, 37.395976)"><path style="stroke:none" d="M 6.96875 0.25 C 6.007812 0.25 5.140625 0.078125 4.359375 -0.265625 C 3.585938 -0.609375 2.921875 -1.078125 2.359375 -1.671875 C 1.804688 -2.265625 1.378906 -2.945312 1.078125 -3.71875 C 0.773438 -4.5 0.625 -5.328125 0.625 -6.203125 C 0.625 -7.078125 0.773438 -7.898438 1.078125 -8.671875 C 1.378906 -9.441406 1.804688 -10.117188 2.359375 -10.703125 C 2.921875 -11.296875 3.585938 -11.757812 4.359375 -12.09375 C 5.140625 -12.4375 6.007812 -12.609375 6.96875 -12.609375 C 7.914062 -12.609375 8.773438 -12.4375 9.546875 -12.09375 C 10.328125 -11.757812 10.992188 -11.296875 11.546875 -10.703125 C 12.109375 -10.117188 12.539062 -9.441406 12.84375 -8.671875 C 13.144531 -7.898438 13.296875 -7.078125 13.296875 -6.203125 C 13.296875 -5.328125 13.144531 -4.5 12.84375 -3.71875 C 12.539062 -2.945312 12.109375 -2.265625 11.546875 -1.671875 C 10.992188 -1.078125 10.328125 -0.609375 9.546875 -0.265625 C 8.773438 0.078125 7.914062 0.25 6.96875 0.25 Z M 6.96875 -2.34375 C 7.53125 -2.34375 8.015625 -2.445312 8.421875 -2.65625 C 8.835938 -2.875 9.171875 -3.160156 9.421875 -3.515625 C 9.671875 -3.878906 9.851562 -4.289062 9.96875 -4.75 C 10.09375 -5.21875 10.15625 -5.703125 10.15625 -6.203125 C 10.15625 -6.710938 10.09375 -7.191406 9.96875 -7.640625 C 9.851562 -8.097656 9.671875 -8.503906 9.421875 -8.859375 C 9.171875 -9.222656 8.835938 -9.503906 8.421875 -9.703125 C 8.015625 -9.898438 7.53125 -10 6.96875 -10 C 6.207031 -10 5.59375 -9.820312 5.125 -9.46875 C 4.65625 -9.125 4.3125 -8.660156 4.09375 -8.078125 C 3.875 -7.503906 3.765625 -6.878906 3.765625 -6.203125 C 3.765625 -5.703125 3.820312 -5.21875 3.9375 -4.75 C 4.0625 -4.289062 4.25 -3.878906 4.5 -3.515625 C 4.757812 -3.160156 5.09375 -2.875 5.5 -2.65625 C 5.90625 -2.445312 6.394531 -2.34375 6.96875 -2.34375 Z M 6.96875 -2.34375 "></path></g><g transform="translate(39.47931, 37.395976)"><path style="stroke:none" d="M 1.765625 -14.6875 L 1.765625 -17.46875 L 4.953125 -17.46875 L 4.953125 -14.6875 Z M 1.28125 5.421875 C 0.90625 5.421875 0.515625 5.378906 0.109375 5.296875 C -0.285156 5.210938 -0.609375 5.117188 -0.859375 5.015625 L -0.09375 2.40625 C 0.113281 2.488281 0.3125 2.554688 0.5 2.609375 C 0.6875 2.660156 0.847656 2.6875 0.984375 2.6875 C 1.566406 2.6875 1.859375 2.296875 1.859375 1.515625 L 1.859375 -12.359375 L 4.890625 -12.359375 L 4.890625 1.28125 C 4.890625 2.03125 4.757812 2.71875 4.5 3.34375 C 4.25 3.976562 3.859375 4.484375 3.328125 4.859375 C 2.796875 5.234375 2.113281 5.421875 1.28125 5.421875 Z M 1.28125 5.421875 "></path></g><g transform="translate(46.167933, 37.395976)"><path style="stroke:none" d="M 6.9375 0.25 C 5.875 0.25 4.953125 0.078125 4.171875 -0.265625 C 3.390625 -0.617188 2.738281 -1.09375 2.21875 -1.6875 C 1.695312 -2.289062 1.3125 -2.972656 1.0625 -3.734375 C 0.8125 -4.503906 0.6875 -5.304688 0.6875 -6.140625 C 0.6875 -6.941406 0.800781 -7.722656 1.03125 -8.484375 C 1.269531 -9.253906 1.632812 -9.953125 2.125 -10.578125 C 2.625 -11.203125 3.253906 -11.695312 4.015625 -12.0625 C 4.785156 -12.425781 5.691406 -12.609375 6.734375 -12.609375 C 7.597656 -12.609375 8.347656 -12.484375 8.984375 -12.234375 C 9.628906 -11.984375 10.175781 -11.644531 10.625 -11.21875 C 11.070312 -10.789062 11.429688 -10.304688 11.703125 -9.765625 C 11.972656 -9.222656 12.164062 -8.660156 12.28125 -8.078125 C 12.40625 -7.492188 12.46875 -6.925781 12.46875 -6.375 C 12.46875 -6.125 12.457031 -5.882812 12.4375 -5.65625 C 12.414062 -5.4375 12.390625 -5.28125 12.359375 -5.1875 L 3.875 -5.1875 C 3.957031 -4.65625 4.117188 -4.1875 4.359375 -3.78125 C 4.597656 -3.375 4.929688 -3.054688 5.359375 -2.828125 C 5.785156 -2.597656 6.320312 -2.484375 6.96875 -2.484375 C 7.519531 -2.484375 8.039062 -2.582031 8.53125 -2.78125 C 9.03125 -2.976562 9.5 -3.316406 9.9375 -3.796875 L 12.015625 -1.984375 C 11.335938 -1.234375 10.582031 -0.671875 9.75 -0.296875 C 8.914062 0.0664062 7.976562 0.25 6.9375 0.25 Z M 3.875 -7.375 L 9.5 -7.375 C 9.394531 -8.25 9.097656 -8.914062 8.609375 -9.375 C 8.128906 -9.84375 7.5 -10.078125 6.71875 -10.078125 C 6.125 -10.078125 5.632812 -9.957031 5.25 -9.71875 C 4.863281 -9.488281 4.5625 -9.171875 4.34375 -8.765625 C 4.125 -8.359375 3.96875 -7.894531 3.875 -7.375 Z M 3.875 -7.375 "></path></g><g transform="translate(59.359726, 37.395976)"><path style="stroke:none" d="M 6.6875 0.25 C 5.6875 0.25 4.8125 0.0703125 4.0625 -0.28125 C 3.3125 -0.632812 2.6875 -1.113281 2.1875 -1.71875 C 1.695312 -2.332031 1.328125 -3.019531 1.078125 -3.78125 C 0.828125 -4.550781 0.703125 -5.34375 0.703125 -6.15625 C 0.703125 -6.96875 0.820312 -7.757812 1.0625 -8.53125 C 1.3125 -9.300781 1.679688 -9.992188 2.171875 -10.609375 C 2.660156 -11.222656 3.28125 -11.707031 4.03125 -12.0625 C 4.78125 -12.425781 5.660156 -12.609375 6.671875 -12.609375 C 7.898438 -12.609375 8.976562 -12.304688 9.90625 -11.703125 C 10.832031 -11.109375 11.535156 -10.195312 12.015625 -8.96875 L 9.140625 -7.859375 C 8.984375 -8.453125 8.6875 -8.9375 8.25 -9.3125 C 7.8125 -9.6875 7.285156 -9.875 6.671875 -9.875 C 6.148438 -9.875 5.703125 -9.769531 5.328125 -9.5625 C 4.960938 -9.351562 4.664062 -9.066406 4.4375 -8.703125 C 4.207031 -8.347656 4.035156 -7.945312 3.921875 -7.5 C 3.816406 -7.0625 3.765625 -6.613281 3.765625 -6.15625 C 3.765625 -5.6875 3.816406 -5.234375 3.921875 -4.796875 C 4.035156 -4.359375 4.207031 -3.960938 4.4375 -3.609375 C 4.664062 -3.265625 4.960938 -2.988281 5.328125 -2.78125 C 5.691406 -2.582031 6.140625 -2.484375 6.671875 -2.484375 C 7.273438 -2.484375 7.796875 -2.664062 8.234375 -3.03125 C 8.679688 -3.40625 8.984375 -3.878906 9.140625 -4.453125 L 11.890625 -3.40625 C 11.617188 -2.644531 11.226562 -1.988281 10.71875 -1.4375 C 10.21875 -0.894531 9.625 -0.476562 8.9375 -0.1875 C 8.257812 0.101562 7.507812 0.25 6.6875 0.25 Z M 6.6875 0.25 "></path></g><g transform="translate(71.772622, 37.395976)"><path style="stroke:none" d="M 6.1875 0.25 C 5.375 0.25 4.675781 0.101562 4.09375 -0.1875 C 3.519531 -0.488281 3.078125 -0.910156 2.765625 -1.453125 C 2.453125 -2.003906 2.296875 -2.65625 2.296875 -3.40625 L 2.296875 -9.828125 L 0.3125 -9.828125 L 0.3125 -12.359375 L 2.34375 -12.359375 L 2.34375 -15.421875 L 5.296875 -17.578125 L 5.296875 -12.359375 L 8.40625 -12.359375 L 8.40625 -9.828125 L 5.296875 -9.828125 L 5.296875 -3.9375 C 5.296875 -3.351562 5.425781 -2.953125 5.6875 -2.734375 C 5.957031 -2.515625 6.289062 -2.40625 6.6875 -2.40625 C 7 -2.40625 7.3125 -2.453125 7.625 -2.546875 C 7.9375 -2.648438 8.195312 -2.753906 8.40625 -2.859375 L 8.40625 -0.125 C 8.175781 -0.0390625 7.851562 0.0390625 7.4375 0.125 C 7.03125 0.207031 6.613281 0.25 6.1875 0.25 Z M 6.1875 0.25 "></path></g><g transform="translate(81.094657, 37.395976)"><path style="stroke:none" d=""></path></g><g transform="translate(87.177471, 37.395976)"><path style="stroke:none" d="M 5.515625 0.25 C 4.648438 0.25 3.863281 0.09375 3.15625 -0.21875 C 2.445312 -0.53125 1.847656 -0.945312 1.359375 -1.46875 C 0.878906 -2 0.535156 -2.582031 0.328125 -3.21875 L 2.734375 -4.28125 C 2.847656 -3.976562 3.003906 -3.671875 3.203125 -3.359375 C 3.398438 -3.046875 3.671875 -2.78125 4.015625 -2.5625 C 4.367188 -2.351562 4.820312 -2.25 5.375 -2.25 C 5.84375 -2.25 6.222656 -2.320312 6.515625 -2.46875 C 6.804688 -2.625 7.019531 -2.816406 7.15625 -3.046875 C 7.300781 -3.285156 7.375 -3.507812 7.375 -3.71875 C 7.375 -4.019531 7.257812 -4.257812 7.03125 -4.4375 C 6.8125 -4.613281 6.515625 -4.757812 6.140625 -4.875 C 5.773438 -4.988281 5.367188 -5.097656 4.921875 -5.203125 C 4.484375 -5.316406 4.039062 -5.453125 3.59375 -5.609375 C 3.15625 -5.765625 2.75 -5.96875 2.375 -6.21875 C 2.007812 -6.476562 1.710938 -6.8125 1.484375 -7.21875 C 1.265625 -7.625 1.15625 -8.140625 1.15625 -8.765625 C 1.15625 -9.421875 1.28125 -9.988281 1.53125 -10.46875 C 1.789062 -10.945312 2.132812 -11.34375 2.5625 -11.65625 C 2.988281 -11.976562 3.476562 -12.21875 4.03125 -12.375 C 4.582031 -12.53125 5.15625 -12.609375 5.75 -12.609375 C 6.8125 -12.609375 7.738281 -12.367188 8.53125 -11.890625 C 9.332031 -11.421875 9.96875 -10.769531 10.4375 -9.9375 L 8.09375 -8.65625 C 7.957031 -8.914062 7.785156 -9.160156 7.578125 -9.390625 C 7.367188 -9.628906 7.101562 -9.828125 6.78125 -9.984375 C 6.46875 -10.148438 6.09375 -10.234375 5.65625 -10.234375 C 5.15625 -10.234375 4.765625 -10.125 4.484375 -9.90625 C 4.203125 -9.695312 4.0625 -9.453125 4.0625 -9.171875 C 4.0625 -8.898438 4.171875 -8.679688 4.390625 -8.515625 C 4.617188 -8.359375 4.921875 -8.21875 5.296875 -8.09375 C 5.671875 -7.976562 6.082031 -7.859375 6.53125 -7.734375 C 6.976562 -7.609375 7.421875 -7.453125 7.859375 -7.265625 C 8.304688 -7.085938 8.71875 -6.859375 9.09375 -6.578125 C 9.46875 -6.296875 9.769531 -5.9375 10 -5.5 C 10.226562 -5.0625 10.34375 -4.519531 10.34375 -3.875 C 10.34375 -3.15625 10.203125 -2.535156 9.921875 -2.015625 C 9.640625 -1.503906 9.265625 -1.078125 8.796875 -0.734375 C 8.328125 -0.398438 7.804688 -0.15625 7.234375 0 C 6.671875 0.164062 6.097656 0.25 5.515625 0.25 Z M 5.515625 0.25 "></path></g><g transform="translate(98.41584, 37.395976)"><path style="stroke:none" d="M 5.171875 0.25 C 4.328125 0.25 3.566406 0.09375 2.890625 -0.21875 C 2.210938 -0.53125 1.675781 -0.988281 1.28125 -1.59375 C 0.882812 -2.207031 0.6875 -2.941406 0.6875 -3.796875 C 0.6875 -4.460938 0.8125 -5.023438 1.0625 -5.484375 C 1.3125 -5.941406 1.65625 -6.304688 2.09375 -6.578125 C 2.539062 -6.859375 3.0625 -7.0625 3.65625 -7.1875 C 4.257812 -7.3125 4.910156 -7.375 5.609375 -7.375 L 8.8125 -7.375 C 8.8125 -8.15625 8.601562 -8.785156 8.1875 -9.265625 C 7.78125 -9.742188 7.175781 -9.984375 6.375 -9.984375 C 5.90625 -9.984375 5.484375 -9.898438 5.109375 -9.734375 C 4.734375 -9.566406 4.410156 -9.347656 4.140625 -9.078125 C 3.878906 -8.816406 3.65625 -8.535156 3.46875 -8.234375 L 1.15625 -9.90625 C 1.550781 -10.445312 1.992188 -10.921875 2.484375 -11.328125 C 2.984375 -11.734375 3.550781 -12.046875 4.1875 -12.265625 C 4.820312 -12.492188 5.546875 -12.609375 6.359375 -12.609375 C 7.472656 -12.609375 8.425781 -12.390625 9.21875 -11.953125 C 10.019531 -11.523438 10.632812 -10.925781 11.0625 -10.15625 C 11.488281 -9.382812 11.703125 -8.5 11.703125 -7.5 L 11.703125 0 L 9.21875 0 L 9.015625 -1.765625 C 8.484375 -0.992188 7.890625 -0.460938 7.234375 -0.171875 C 6.585938 0.109375 5.898438 0.25 5.171875 0.25 Z M 5.609375 -2.296875 C 6.035156 -2.296875 6.4375 -2.375 6.8125 -2.53125 C 7.195312 -2.6875 7.535156 -2.898438 7.828125 -3.171875 C 8.128906 -3.441406 8.367188 -3.75 8.546875 -4.09375 C 8.722656 -4.4375 8.8125 -4.800781 8.8125 -5.1875 L 5.78125 -5.1875 C 5.09375 -5.1875 4.582031 -5.035156 4.25 -4.734375 C 3.925781 -4.429688 3.765625 -4.085938 3.765625 -3.703125 C 3.765625 -3.296875 3.921875 -2.957031 4.234375 -2.6875 C 4.554688 -2.425781 5.015625 -2.296875 5.609375 -2.296875 Z M 5.609375 -2.296875 "></path></g><g transform="translate(111.533453, 37.395976)"><path style="stroke:none" d="M 1.796875 0 L 1.796875 -12.359375 L 4.828125 -12.359375 L 4.828125 -11.0625 C 5.242188 -11.625 5.726562 -12.019531 6.28125 -12.25 C 6.832031 -12.488281 7.398438 -12.609375 7.984375 -12.609375 C 8.734375 -12.609375 9.394531 -12.425781 9.96875 -12.0625 C 10.550781 -11.707031 11.046875 -11.164062 11.453125 -10.4375 C 11.941406 -11.195312 12.546875 -11.75 13.265625 -12.09375 C 13.984375 -12.4375 14.742188 -12.609375 15.546875 -12.609375 C 16.335938 -12.609375 17.019531 -12.460938 17.59375 -12.171875 C 18.164062 -11.878906 18.640625 -11.484375 19.015625 -10.984375 C 19.390625 -10.492188 19.664062 -9.9375 19.84375 -9.3125 C 20.019531 -8.695312 20.109375 -8.066406 20.109375 -7.421875 L 20.109375 0 L 17.046875 0 L 17.046875 -7.03125 C 17.046875 -7.539062 16.988281 -8.003906 16.875 -8.421875 C 16.757812 -8.835938 16.554688 -9.171875 16.265625 -9.421875 C 15.972656 -9.679688 15.566406 -9.8125 15.046875 -9.8125 C 14.503906 -9.8125 14.039062 -9.671875 13.65625 -9.390625 C 13.269531 -9.117188 12.972656 -8.753906 12.765625 -8.296875 C 12.566406 -7.847656 12.46875 -7.347656 12.46875 -6.796875 L 12.46875 0 L 9.40625 0 L 9.40625 -7.09375 C 9.40625 -7.59375 9.347656 -8.046875 9.234375 -8.453125 C 9.117188 -8.859375 8.921875 -9.1875 8.640625 -9.4375 C 8.359375 -9.6875 7.957031 -9.8125 7.4375 -9.8125 C 6.894531 -9.8125 6.425781 -9.671875 6.03125 -9.390625 C 5.644531 -9.117188 5.347656 -8.753906 5.140625 -8.296875 C 4.929688 -7.847656 4.828125 -7.347656 4.828125 -6.796875 L 4.828125 0 Z M 1.796875 0 "></path></g><g transform="translate(133.082933, 37.395976)"><path style="stroke:none" d="M 6.96875 0.25 C 6.007812 0.25 5.140625 0.078125 4.359375 -0.265625 C 3.585938 -0.609375 2.921875 -1.078125 2.359375 -1.671875 C 1.804688 -2.265625 1.378906 -2.945312 1.078125 -3.71875 C 0.773438 -4.5 0.625 -5.328125 0.625 -6.203125 C 0.625 -7.078125 0.773438 -7.898438 1.078125 -8.671875 C 1.378906 -9.441406 1.804688 -10.117188 2.359375 -10.703125 C 2.921875 -11.296875 3.585938 -11.757812 4.359375 -12.09375 C 5.140625 -12.4375 6.007812 -12.609375 6.96875 -12.609375 C 7.914062 -12.609375 8.773438 -12.4375 9.546875 -12.09375 C 10.328125 -11.757812 10.992188 -11.296875 11.546875 -10.703125 C 12.109375 -10.117188 12.539062 -9.441406 12.84375 -8.671875 C 13.144531 -7.898438 13.296875 -7.078125 13.296875 -6.203125 C 13.296875 -5.328125 13.144531 -4.5 12.84375 -3.71875 C 12.539062 -2.945312 12.109375 -2.265625 11.546875 -1.671875 C 10.992188 -1.078125 10.328125 -0.609375 9.546875 -0.265625 C 8.773438 0.078125 7.914062 0.25 6.96875 0.25 Z M 6.96875 -2.34375 C 7.53125 -2.34375 8.015625 -2.445312 8.421875 -2.65625 C 8.835938 -2.875 9.171875 -3.160156 9.421875 -3.515625 C 9.671875 -3.878906 9.851562 -4.289062 9.96875 -4.75 C 10.09375 -5.21875 10.15625 -5.703125 10.15625 -6.203125 C 10.15625 -6.710938 10.09375 -7.191406 9.96875 -7.640625 C 9.851562 -8.097656 9.671875 -8.503906 9.421875 -8.859375 C 9.171875 -9.222656 8.835938 -9.503906 8.421875 -9.703125 C 8.015625 -9.898438 7.53125 -10 6.96875 -10 C 6.207031 -10 5.59375 -9.820312 5.125 -9.46875 C 4.65625 -9.125 4.3125 -8.660156 4.09375 -8.078125 C 3.875 -7.503906 3.765625 -6.878906 3.765625 -6.203125 C 3.765625 -5.703125 3.820312 -5.21875 3.9375 -4.75 C 4.0625 -4.289062 4.25 -3.878906 4.5 -3.515625 C 4.757812 -3.160156 5.09375 -2.875 5.5 -2.65625 C 5.90625 -2.445312 6.394531 -2.34375 6.96875 -2.34375 Z M 6.96875 -2.34375 "></path></g><g transform="translate(147.028896, 37.395976)"><path style="stroke:none" d="M 5.515625 0.25 C 4.648438 0.25 3.863281 0.09375 3.15625 -0.21875 C 2.445312 -0.53125 1.847656 -0.945312 1.359375 -1.46875 C 0.878906 -2 0.535156 -2.582031 0.328125 -3.21875 L 2.734375 -4.28125 C 2.847656 -3.976562 3.003906 -3.671875 3.203125 -3.359375 C 3.398438 -3.046875 3.671875 -2.78125 4.015625 -2.5625 C 4.367188 -2.351562 4.820312 -2.25 5.375 -2.25 C 5.84375 -2.25 6.222656 -2.320312 6.515625 -2.46875 C 6.804688 -2.625 7.019531 -2.816406 7.15625 -3.046875 C 7.300781 -3.285156 7.375 -3.507812 7.375 -3.71875 C 7.375 -4.019531 7.257812 -4.257812 7.03125 -4.4375 C 6.8125 -4.613281 6.515625 -4.757812 6.140625 -4.875 C 5.773438 -4.988281 5.367188 -5.097656 4.921875 -5.203125 C 4.484375 -5.316406 4.039062 -5.453125 3.59375 -5.609375 C 3.15625 -5.765625 2.75 -5.96875 2.375 -6.21875 C 2.007812 -6.476562 1.710938 -6.8125 1.484375 -7.21875 C 1.265625 -7.625 1.15625 -8.140625 1.15625 -8.765625 C 1.15625 -9.421875 1.28125 -9.988281 1.53125 -10.46875 C 1.789062 -10.945312 2.132812 -11.34375 2.5625 -11.65625 C 2.988281 -11.976562 3.476562 -12.21875 4.03125 -12.375 C 4.582031 -12.53125 5.15625 -12.609375 5.75 -12.609375 C 6.8125 -12.609375 7.738281 -12.367188 8.53125 -11.890625 C 9.332031 -11.421875 9.96875 -10.769531 10.4375 -9.9375 L 8.09375 -8.65625 C 7.957031 -8.914062 7.785156 -9.160156 7.578125 -9.390625 C 7.367188 -9.628906 7.101562 -9.828125 6.78125 -9.984375 C 6.46875 -10.148438 6.09375 -10.234375 5.65625 -10.234375 C 5.15625 -10.234375 4.765625 -10.125 4.484375 -9.90625 C 4.203125 -9.695312 4.0625 -9.453125 4.0625 -9.171875 C 4.0625 -8.898438 4.171875 -8.679688 4.390625 -8.515625 C 4.617188 -8.359375 4.921875 -8.21875 5.296875 -8.09375 C 5.671875 -7.976562 6.082031 -7.859375 6.53125 -7.734375 C 6.976562 -7.609375 7.421875 -7.453125 7.859375 -7.265625 C 8.304688 -7.085938 8.71875 -6.859375 9.09375 -6.578125 C 9.46875 -6.296875 9.769531 -5.9375 10 -5.5 C 10.226562 -5.0625 10.34375 -4.519531 10.34375 -3.875 C 10.34375 -3.15625 10.203125 -2.535156 9.921875 -2.015625 C 9.640625 -1.503906 9.265625 -1.078125 8.796875 -0.734375 C 8.328125 -0.398438 7.804688 -0.15625 7.234375 0 C 6.671875 0.164062 6.097656 0.25 5.515625 0.25 Z M 5.515625 0.25 "></path></g><g transform="translate(158.267265, 37.395976)"><path style="stroke:none" d="M 5.171875 0.25 C 4.328125 0.25 3.566406 0.09375 2.890625 -0.21875 C 2.210938 -0.53125 1.675781 -0.988281 1.28125 -1.59375 C 0.882812 -2.207031 0.6875 -2.941406 0.6875 -3.796875 C 0.6875 -4.460938 0.8125 -5.023438 1.0625 -5.484375 C 1.3125 -5.941406 1.65625 -6.304688 2.09375 -6.578125 C 2.539062 -6.859375 3.0625 -7.0625 3.65625 -7.1875 C 4.257812 -7.3125 4.910156 -7.375 5.609375 -7.375 L 8.8125 -7.375 C 8.8125 -8.15625 8.601562 -8.785156 8.1875 -9.265625 C 7.78125 -9.742188 7.175781 -9.984375 6.375 -9.984375 C 5.90625 -9.984375 5.484375 -9.898438 5.109375 -9.734375 C 4.734375 -9.566406 4.410156 -9.347656 4.140625 -9.078125 C 3.878906 -8.816406 3.65625 -8.535156 3.46875 -8.234375 L 1.15625 -9.90625 C 1.550781 -10.445312 1.992188 -10.921875 2.484375 -11.328125 C 2.984375 -11.734375 3.550781 -12.046875 4.1875 -12.265625 C 4.820312 -12.492188 5.546875 -12.609375 6.359375 -12.609375 C 7.472656 -12.609375 8.425781 -12.390625 9.21875 -11.953125 C 10.019531 -11.523438 10.632812 -10.925781 11.0625 -10.15625 C 11.488281 -9.382812 11.703125 -8.5 11.703125 -7.5 L 11.703125 0 L 9.21875 0 L 9.015625 -1.765625 C 8.484375 -0.992188 7.890625 -0.460938 7.234375 -0.171875 C 6.585938 0.109375 5.898438 0.25 5.171875 0.25 Z M 5.609375 -2.296875 C 6.035156 -2.296875 6.4375 -2.375 6.8125 -2.53125 C 7.195312 -2.6875 7.535156 -2.898438 7.828125 -3.171875 C 8.128906 -3.441406 8.367188 -3.75 8.546875 -4.09375 C 8.722656 -4.4375 8.8125 -4.800781 8.8125 -5.1875 L 5.78125 -5.1875 C 5.09375 -5.1875 4.582031 -5.035156 4.25 -4.734375 C 3.925781 -4.429688 3.765625 -4.085938 3.765625 -3.703125 C 3.765625 -3.296875 3.921875 -2.957031 4.234375 -2.6875 C 4.554688 -2.425781 5.015625 -2.296875 5.609375 -2.296875 Z M 5.609375 -2.296875 "></path></g><g transform="translate(171.384877, 37.395976)"><path style="stroke:none" d=""></path></g><g transform="translate(177.467691, 37.395976)"><path style="stroke:none" d="M 1.8125 5.421875 L 1.8125 -12.359375 L 4.890625 -12.359375 L 4.890625 -11.125 C 5.328125 -11.65625 5.847656 -12.035156 6.453125 -12.265625 C 7.066406 -12.492188 7.703125 -12.609375 8.359375 -12.609375 C 9.222656 -12.609375 9.988281 -12.4375 10.65625 -12.09375 C 11.320312 -11.757812 11.878906 -11.289062 12.328125 -10.6875 C 12.785156 -10.09375 13.128906 -9.40625 13.359375 -8.625 C 13.585938 -7.851562 13.703125 -7.039062 13.703125 -6.1875 C 13.703125 -5.320312 13.585938 -4.503906 13.359375 -3.734375 C 13.128906 -2.960938 12.785156 -2.28125 12.328125 -1.6875 C 11.878906 -1.09375 11.328125 -0.617188 10.671875 -0.265625 C 10.023438 0.078125 9.269531 0.25 8.40625 0.25 C 7.757812 0.25 7.117188 0.132812 6.484375 -0.09375 C 5.859375 -0.320312 5.328125 -0.703125 4.890625 -1.234375 L 4.890625 5.421875 Z M 7.625 -2.53125 C 8.3125 -2.53125 8.878906 -2.691406 9.328125 -3.015625 C 9.773438 -3.335938 10.101562 -3.769531 10.3125 -4.3125 C 10.53125 -4.863281 10.640625 -5.488281 10.640625 -6.1875 C 10.640625 -6.875 10.53125 -7.5 10.3125 -8.0625 C 10.101562 -8.632812 9.773438 -9.082031 9.328125 -9.40625 C 8.878906 -9.738281 8.3125 -9.90625 7.625 -9.90625 C 6.9375 -9.90625 6.367188 -9.738281 5.921875 -9.40625 C 5.472656 -9.082031 5.140625 -8.632812 4.921875 -8.0625 C 4.710938 -7.5 4.609375 -6.875 4.609375 -6.1875 C 4.609375 -5.488281 4.710938 -4.863281 4.921875 -4.3125 C 5.140625 -3.769531 5.472656 -3.335938 5.921875 -3.015625 C 6.367188 -2.691406 6.9375 -2.53125 7.625 -2.53125 Z M 7.625 -2.53125 "></path></g><g transform="translate(191.945282, 37.395976)"><path style="stroke:none" d="M 5.171875 0.25 C 4.328125 0.25 3.566406 0.09375 2.890625 -0.21875 C 2.210938 -0.53125 1.675781 -0.988281 1.28125 -1.59375 C 0.882812 -2.207031 0.6875 -2.941406 0.6875 -3.796875 C 0.6875 -4.460938 0.8125 -5.023438 1.0625 -5.484375 C 1.3125 -5.941406 1.65625 -6.304688 2.09375 -6.578125 C 2.539062 -6.859375 3.0625 -7.0625 3.65625 -7.1875 C 4.257812 -7.3125 4.910156 -7.375 5.609375 -7.375 L 8.8125 -7.375 C 8.8125 -8.15625 8.601562 -8.785156 8.1875 -9.265625 C 7.78125 -9.742188 7.175781 -9.984375 6.375 -9.984375 C 5.90625 -9.984375 5.484375 -9.898438 5.109375 -9.734375 C 4.734375 -9.566406 4.410156 -9.347656 4.140625 -9.078125 C 3.878906 -8.816406 3.65625 -8.535156 3.46875 -8.234375 L 1.15625 -9.90625 C 1.550781 -10.445312 1.992188 -10.921875 2.484375 -11.328125 C 2.984375 -11.734375 3.550781 -12.046875 4.1875 -12.265625 C 4.820312 -12.492188 5.546875 -12.609375 6.359375 -12.609375 C 7.472656 -12.609375 8.425781 -12.390625 9.21875 -11.953125 C 10.019531 -11.523438 10.632812 -10.925781 11.0625 -10.15625 C 11.488281 -9.382812 11.703125 -8.5 11.703125 -7.5 L 11.703125 0 L 9.21875 0 L 9.015625 -1.765625 C 8.484375 -0.992188 7.890625 -0.460938 7.234375 -0.171875 C 6.585938 0.109375 5.898438 0.25 5.171875 0.25 Z M 5.609375 -2.296875 C 6.035156 -2.296875 6.4375 -2.375 6.8125 -2.53125 C 7.195312 -2.6875 7.535156 -2.898438 7.828125 -3.171875 C 8.128906 -3.441406 8.367188 -3.75 8.546875 -4.09375 C 8.722656 -4.4375 8.8125 -4.800781 8.8125 -5.1875 L 5.78125 -5.1875 C 5.09375 -5.1875 4.582031 -5.035156 4.25 -4.734375 C 3.925781 -4.429688 3.765625 -4.085938 3.765625 -3.703125 C 3.765625 -3.296875 3.921875 -2.957031 4.234375 -2.6875 C 4.554688 -2.425781 5.015625 -2.296875 5.609375 -2.296875 Z M 5.609375 -2.296875 "></path></g><g transform="translate(205.062895, 37.395976)"><path style="stroke:none" d="M 4.9375 0 L -0.09375 -12.359375 L 3.1875 -12.359375 L 6.1875 -3.890625 L 9.1875 -12.359375 L 12.46875 -12.359375 L 7.421875 0 Z M 4.9375 0 "></path></g></g></g></g></svg>