<svg xmlns="http://www.w3.org/2000/svg" xmlns:xlink="http://www.w3.org/1999/xlink" width="400" zoomAndPan="magnify" viewBox="0 0 300 87.749997" height="117" preserveAspectRatio="xMidYMid meet"><defs><clipPath id="a654fefda0"><path d="M 0.425781 16 L 299 16 L 299 64 L 0.425781 64 Z M 0.425781 16 "></path></clipPath><clipPath id="6dc4eaffb9"><path d="M 0.664062 5 L 293 5 L 293 47.417969 L 0.664062 47.417969 Z M 0.664062 5 "></path></clipPath><clipPath id="77ff33b37e"><rect x="0" width="293" y="0" height="43"></rect></clipPath><clipPath id="e8e3b6b9fe"><path d="M 288 0.992188 L 298.617188 0.992188 L 298.617188 47 L 288 47 Z M 288 0.992188 "></path></clipPath><clipPath id="daa1dbf685"><rect x="0" width="11" y="0" height="47"></rect></clipPath><clipPath id="0712daddf9"><rect x="0" width="299" y="0" height="48"></rect></clipPath></defs><g id="cbcf77fb62"><g clip-rule="nonzero" clip-path="url(#a654fefda0)"><g transform="matrix(1,0,0,1,0.000000000000000111,16)"><g clip-path="url(#0712daddf9)"><g clip-rule="nonzero" clip-path="url(#6dc4eaffb9)"><g transform="matrix(1,0,0,1,0.000000000000000111,5)"><g id="859a885a29" clip-path="url(#77ff33b37e)"><g style="fill:#000000;fill-opacity:1;"><g transform="translate(3.172996, 31.008196)"><path style="stroke:none" d="M 2.421875 7.1875 L 2.421875 -16.40625 L 6.484375 -16.40625 L 6.484375 -14.765625 C 7.066406 -15.472656 7.765625 -15.976562 8.578125 -16.28125 C 9.390625 -16.59375 10.234375 -16.75 11.109375 -16.75 C 12.253906 -16.75 13.265625 -16.519531 14.140625 -16.0625 C 15.023438 -15.613281 15.769531 -14.992188 16.375 -14.203125 C 16.976562 -13.410156 17.429688 -12.5 17.734375 -11.46875 C 18.046875 -10.4375 18.203125 -9.351562 18.203125 -8.21875 C 18.203125 -7.070312 18.046875 -5.988281 17.734375 -4.96875 C 17.429688 -3.945312 16.976562 -3.035156 16.375 -2.234375 C 15.78125 -1.441406 15.046875 -0.816406 14.171875 -0.359375 C 13.304688 0.0976562 12.304688 0.328125 11.171875 0.328125 C 10.304688 0.328125 9.453125 0.175781 8.609375 -0.125 C 7.773438 -0.4375 7.066406 -0.941406 6.484375 -1.640625 L 6.484375 7.1875 Z M 10.125 -3.375 C 11.039062 -3.375 11.789062 -3.585938 12.375 -4.015625 C 12.96875 -4.441406 13.40625 -5.015625 13.6875 -5.734375 C 13.976562 -6.460938 14.125 -7.289062 14.125 -8.21875 C 14.125 -9.132812 13.976562 -9.96875 13.6875 -10.71875 C 13.40625 -11.46875 12.96875 -12.0625 12.375 -12.5 C 11.789062 -12.9375 11.039062 -13.15625 10.125 -13.15625 C 9.207031 -13.15625 8.453125 -12.9375 7.859375 -12.5 C 7.273438 -12.0625 6.835938 -11.46875 6.546875 -10.71875 C 6.265625 -9.96875 6.125 -9.132812 6.125 -8.21875 C 6.125 -7.289062 6.265625 -6.460938 6.546875 -5.734375 C 6.835938 -5.015625 7.273438 -4.441406 7.859375 -4.015625 C 8.453125 -3.585938 9.207031 -3.375 10.125 -3.375 Z M 10.125 -3.375 "></path></g><g transform="translate(22.41105, 31.008196)"><path style="stroke:none" d="M 2.375 0 L 2.375 -16.40625 L 6.296875 -16.40625 L 6.296875 -13.65625 C 6.535156 -14.320312 6.878906 -14.882812 7.328125 -15.34375 C 7.785156 -15.800781 8.304688 -16.148438 8.890625 -16.390625 C 9.484375 -16.628906 10.082031 -16.75 10.6875 -16.75 C 11.238281 -16.75 11.78125 -16.65625 12.3125 -16.46875 C 12.84375 -16.28125 13.304688 -15.984375 13.703125 -15.578125 L 11.875 -12.28125 C 11.3125 -12.65625 10.710938 -12.84375 10.078125 -12.84375 C 9.609375 -12.84375 9.144531 -12.726562 8.6875 -12.5 C 8.238281 -12.28125 7.832031 -11.929688 7.46875 -11.453125 C 7.101562 -10.984375 6.8125 -10.375 6.59375 -9.625 C 6.375 -8.875 6.265625 -7.976562 6.265625 -6.9375 L 6.265625 0 Z M 2.375 0 "></path></g><g transform="translate(35.800473, 31.008196)"><path style="stroke:none" d="M 9.25 0.328125 C 7.976562 0.328125 6.828125 0.101562 5.796875 -0.34375 C 4.765625 -0.800781 3.878906 -1.425781 3.140625 -2.21875 C 2.398438 -3.007812 1.832031 -3.921875 1.4375 -4.953125 C 1.039062 -5.984375 0.84375 -7.082031 0.84375 -8.25 C 0.84375 -9.40625 1.039062 -10.492188 1.4375 -11.515625 C 1.832031 -12.546875 2.398438 -13.453125 3.140625 -14.234375 C 3.878906 -15.015625 4.765625 -15.628906 5.796875 -16.078125 C 6.828125 -16.523438 7.976562 -16.75 9.25 -16.75 C 10.519531 -16.75 11.664062 -16.523438 12.6875 -16.078125 C 13.71875 -15.628906 14.601562 -15.015625 15.34375 -14.234375 C 16.082031 -13.453125 16.648438 -12.546875 17.046875 -11.515625 C 17.453125 -10.492188 17.65625 -9.40625 17.65625 -8.25 C 17.65625 -7.082031 17.453125 -5.984375 17.046875 -4.953125 C 16.648438 -3.921875 16.082031 -3.007812 15.34375 -2.21875 C 14.601562 -1.425781 13.71875 -0.800781 12.6875 -0.34375 C 11.664062 0.101562 10.519531 0.328125 9.25 0.328125 Z M 9.25 -3.125 C 10 -3.125 10.644531 -3.257812 11.1875 -3.53125 C 11.726562 -3.8125 12.164062 -4.191406 12.5 -4.671875 C 12.84375 -5.148438 13.09375 -5.695312 13.25 -6.3125 C 13.40625 -6.9375 13.484375 -7.582031 13.484375 -8.25 C 13.484375 -8.925781 13.40625 -9.566406 13.25 -10.171875 C 13.09375 -10.773438 12.84375 -11.3125 12.5 -11.78125 C 12.164062 -12.25 11.726562 -12.613281 11.1875 -12.875 C 10.644531 -13.144531 10 -13.28125 9.25 -13.28125 C 8.238281 -13.28125 7.421875 -13.046875 6.796875 -12.578125 C 6.171875 -12.117188 5.71875 -11.503906 5.4375 -10.734375 C 5.15625 -9.972656 5.015625 -9.144531 5.015625 -8.25 C 5.015625 -7.582031 5.09375 -6.9375 5.25 -6.3125 C 5.40625 -5.695312 5.648438 -5.148438 5.984375 -4.671875 C 6.328125 -4.191406 6.765625 -3.8125 7.296875 -3.53125 C 7.835938 -3.257812 8.488281 -3.125 9.25 -3.125 Z M 9.25 -3.125 "></path></g><g transform="translate(54.332092, 31.008196)"><path style="stroke:none" d="M 2.34375 -19.515625 L 2.34375 -23.203125 L 6.59375 -23.203125 L 6.59375 -19.515625 Z M 1.703125 7.1875 C 1.203125 7.1875 0.6875 7.128906 0.15625 7.015625 C -0.375 6.910156 -0.8125 6.796875 -1.15625 6.671875 L -0.125 3.203125 C 0.15625 3.316406 0.414062 3.40625 0.65625 3.46875 C 0.90625 3.53125 1.125 3.5625 1.3125 3.5625 C 2.082031 3.5625 2.46875 3.046875 2.46875 2.015625 L 2.46875 -16.40625 L 6.484375 -16.40625 L 6.484375 1.703125 C 6.484375 2.703125 6.3125 3.617188 5.96875 4.453125 C 5.632812 5.285156 5.117188 5.945312 4.421875 6.4375 C 3.722656 6.9375 2.816406 7.1875 1.703125 7.1875 Z M 1.703125 7.1875 "></path></g><g transform="translate(63.22004, 31.008196)"><path style="stroke:none" d="M 9.21875 0.328125 C 7.800781 0.328125 6.570312 0.0976562 5.53125 -0.359375 C 4.488281 -0.816406 3.625 -1.445312 2.9375 -2.25 C 2.25 -3.050781 1.738281 -3.957031 1.40625 -4.96875 C 1.070312 -5.976562 0.90625 -7.035156 0.90625 -8.140625 C 0.90625 -9.210938 1.0625 -10.257812 1.375 -11.28125 C 1.695312 -12.300781 2.1875 -13.222656 2.84375 -14.046875 C 3.5 -14.878906 4.332031 -15.535156 5.34375 -16.015625 C 6.351562 -16.503906 7.554688 -16.75 8.953125 -16.75 C 10.097656 -16.75 11.09375 -16.582031 11.9375 -16.25 C 12.789062 -15.914062 13.515625 -15.460938 14.109375 -14.890625 C 14.703125 -14.328125 15.175781 -13.6875 15.53125 -12.96875 C 15.894531 -12.25 16.15625 -11.503906 16.3125 -10.734375 C 16.476562 -9.960938 16.5625 -9.207031 16.5625 -8.46875 C 16.5625 -8.132812 16.546875 -7.816406 16.515625 -7.515625 C 16.484375 -7.222656 16.445312 -7.019531 16.40625 -6.90625 L 5.140625 -6.90625 C 5.265625 -6.1875 5.484375 -5.554688 5.796875 -5.015625 C 6.109375 -4.472656 6.546875 -4.050781 7.109375 -3.75 C 7.679688 -3.445312 8.394531 -3.296875 9.25 -3.296875 C 9.988281 -3.296875 10.6875 -3.425781 11.34375 -3.6875 C 12.007812 -3.957031 12.625 -4.410156 13.1875 -5.046875 L 15.953125 -2.625 C 15.054688 -1.632812 14.050781 -0.894531 12.9375 -0.40625 C 11.832031 0.0820312 10.59375 0.328125 9.21875 0.328125 Z M 5.140625 -9.796875 L 12.609375 -9.796875 C 12.484375 -10.960938 12.097656 -11.851562 11.453125 -12.46875 C 10.804688 -13.082031 9.960938 -13.390625 8.921875 -13.390625 C 8.128906 -13.390625 7.476562 -13.234375 6.96875 -12.921875 C 6.457031 -12.609375 6.054688 -12.179688 5.765625 -11.640625 C 5.484375 -11.097656 5.273438 -10.484375 5.140625 -9.796875 Z M 5.140625 -9.796875 "></path></g><g transform="translate(80.749506, 31.008196)"><path style="stroke:none" d="M 8.890625 0.328125 C 7.546875 0.328125 6.375 0.09375 5.375 -0.375 C 4.382812 -0.84375 3.5625 -1.476562 2.90625 -2.28125 C 2.25 -3.09375 1.753906 -4.003906 1.421875 -5.015625 C 1.097656 -6.035156 0.9375 -7.09375 0.9375 -8.1875 C 0.9375 -9.257812 1.097656 -10.304688 1.421875 -11.328125 C 1.742188 -12.347656 2.226562 -13.265625 2.875 -14.078125 C 3.53125 -14.898438 4.351562 -15.550781 5.34375 -16.03125 C 6.34375 -16.507812 7.515625 -16.75 8.859375 -16.75 C 10.484375 -16.75 11.914062 -16.347656 13.15625 -15.546875 C 14.394531 -14.753906 15.328125 -13.539062 15.953125 -11.90625 L 12.140625 -10.4375 C 11.929688 -11.21875 11.535156 -11.859375 10.953125 -12.359375 C 10.367188 -12.867188 9.671875 -13.125 8.859375 -13.125 C 8.160156 -13.125 7.566406 -12.984375 7.078125 -12.703125 C 6.597656 -12.421875 6.203125 -12.039062 5.890625 -11.5625 C 5.585938 -11.09375 5.363281 -10.5625 5.21875 -9.96875 C 5.082031 -9.382812 5.015625 -8.789062 5.015625 -8.1875 C 5.015625 -7.5625 5.082031 -6.957031 5.21875 -6.375 C 5.363281 -5.789062 5.585938 -5.265625 5.890625 -4.796875 C 6.191406 -4.335938 6.582031 -3.972656 7.0625 -3.703125 C 7.550781 -3.429688 8.148438 -3.296875 8.859375 -3.296875 C 9.660156 -3.296875 10.351562 -3.539062 10.9375 -4.03125 C 11.53125 -4.519531 11.929688 -5.144531 12.140625 -5.90625 L 15.78125 -4.53125 C 15.425781 -3.507812 14.910156 -2.632812 14.234375 -1.90625 C 13.566406 -1.1875 12.78125 -0.632812 11.875 -0.25 C 10.96875 0.132812 9.972656 0.328125 8.890625 0.328125 Z M 8.890625 0.328125 "></path></g><g transform="translate(97.243961, 31.008196)"><path style="stroke:none" d="M 8.21875 0.328125 C 7.144531 0.328125 6.21875 0.128906 5.4375 -0.265625 C 4.664062 -0.660156 4.078125 -1.21875 3.671875 -1.9375 C 3.265625 -2.664062 3.0625 -3.53125 3.0625 -4.53125 L 3.0625 -13.0625 L 0.40625 -13.0625 L 0.40625 -16.40625 L 3.125 -16.40625 L 3.125 -20.484375 L 7.03125 -23.34375 L 7.03125 -16.40625 L 11.171875 -16.40625 L 11.171875 -13.0625 L 7.03125 -13.0625 L 7.03125 -5.234375 C 7.03125 -4.453125 7.207031 -3.914062 7.5625 -3.625 C 7.914062 -3.34375 8.359375 -3.203125 8.890625 -3.203125 C 9.304688 -3.203125 9.722656 -3.265625 10.140625 -3.390625 C 10.554688 -3.523438 10.898438 -3.660156 11.171875 -3.796875 L 11.171875 -0.171875 C 10.859375 -0.0546875 10.425781 0.0507812 9.875 0.15625 C 9.332031 0.269531 8.78125 0.328125 8.21875 0.328125 Z M 8.21875 0.328125 "></path></g><g transform="translate(109.63123, 31.008196)"><path style="stroke:none" d=""></path></g><g transform="translate(117.714171, 31.008196)"><path style="stroke:none" d="M 7.328125 0.328125 C 6.171875 0.328125 5.125 0.117188 4.1875 -0.296875 C 3.25 -0.710938 2.457031 -1.265625 1.8125 -1.953125 C 1.175781 -2.648438 0.71875 -3.421875 0.4375 -4.265625 L 3.625 -5.6875 C 3.78125 -5.289062 3.988281 -4.882812 4.25 -4.46875 C 4.519531 -4.050781 4.882812 -3.695312 5.34375 -3.40625 C 5.8125 -3.125 6.40625 -2.984375 7.125 -2.984375 C 7.75 -2.984375 8.253906 -3.082031 8.640625 -3.28125 C 9.035156 -3.488281 9.328125 -3.742188 9.515625 -4.046875 C 9.703125 -4.359375 9.796875 -4.65625 9.796875 -4.9375 C 9.796875 -5.332031 9.644531 -5.644531 9.34375 -5.875 C 9.050781 -6.113281 8.65625 -6.3125 8.15625 -6.46875 C 7.664062 -6.625 7.128906 -6.769531 6.546875 -6.90625 C 5.960938 -7.050781 5.375 -7.226562 4.78125 -7.4375 C 4.195312 -7.644531 3.660156 -7.914062 3.171875 -8.25 C 2.679688 -8.59375 2.285156 -9.035156 1.984375 -9.578125 C 1.691406 -10.117188 1.546875 -10.804688 1.546875 -11.640625 C 1.546875 -12.503906 1.710938 -13.253906 2.046875 -13.890625 C 2.378906 -14.535156 2.828125 -15.066406 3.390625 -15.484375 C 3.960938 -15.910156 4.613281 -16.226562 5.34375 -16.4375 C 6.082031 -16.644531 6.847656 -16.75 7.640625 -16.75 C 9.046875 -16.75 10.273438 -16.429688 11.328125 -15.796875 C 12.390625 -15.160156 13.234375 -14.289062 13.859375 -13.1875 L 10.765625 -11.5 C 10.578125 -11.832031 10.34375 -12.15625 10.0625 -12.46875 C 9.78125 -12.789062 9.429688 -13.054688 9.015625 -13.265625 C 8.597656 -13.472656 8.09375 -13.578125 7.5 -13.578125 C 6.84375 -13.578125 6.328125 -13.4375 5.953125 -13.15625 C 5.578125 -12.882812 5.390625 -12.554688 5.390625 -12.171875 C 5.390625 -11.816406 5.539062 -11.53125 5.84375 -11.3125 C 6.144531 -11.09375 6.539062 -10.90625 7.03125 -10.75 C 7.53125 -10.59375 8.078125 -10.429688 8.671875 -10.265625 C 9.265625 -10.097656 9.851562 -9.894531 10.4375 -9.65625 C 11.03125 -9.414062 11.578125 -9.109375 12.078125 -8.734375 C 12.578125 -8.367188 12.976562 -7.894531 13.28125 -7.3125 C 13.582031 -6.726562 13.734375 -6.003906 13.734375 -5.140625 C 13.734375 -4.191406 13.546875 -3.375 13.171875 -2.6875 C 12.796875 -2 12.300781 -1.429688 11.6875 -0.984375 C 11.070312 -0.535156 10.382812 -0.207031 9.625 0 C 8.875 0.21875 8.109375 0.328125 7.328125 0.328125 Z M 7.328125 0.328125 "></path></g><g transform="translate(132.647895, 31.008196)"><path style="stroke:none" d="M 6.859375 0.328125 C 5.742188 0.328125 4.734375 0.117188 3.828125 -0.296875 C 2.929688 -0.710938 2.21875 -1.320312 1.6875 -2.125 C 1.164062 -2.925781 0.90625 -3.898438 0.90625 -5.046875 C 0.90625 -5.929688 1.070312 -6.675781 1.40625 -7.28125 C 1.738281 -7.894531 2.195312 -8.382812 2.78125 -8.75 C 3.375 -9.113281 4.066406 -9.378906 4.859375 -9.546875 C 5.660156 -9.710938 6.519531 -9.796875 7.4375 -9.796875 L 11.71875 -9.796875 C 11.71875 -10.828125 11.441406 -11.660156 10.890625 -12.296875 C 10.335938 -12.929688 9.53125 -13.25 8.46875 -13.25 C 7.851562 -13.25 7.296875 -13.140625 6.796875 -12.921875 C 6.296875 -12.703125 5.867188 -12.414062 5.515625 -12.0625 C 5.160156 -11.71875 4.859375 -11.34375 4.609375 -10.9375 L 1.546875 -13.15625 C 2.066406 -13.875 2.65625 -14.5 3.3125 -15.03125 C 3.96875 -15.570312 4.71875 -15.992188 5.5625 -16.296875 C 6.40625 -16.597656 7.363281 -16.75 8.4375 -16.75 C 9.925781 -16.75 11.195312 -16.460938 12.25 -15.890625 C 13.3125 -15.316406 14.125 -14.515625 14.6875 -13.484375 C 15.257812 -12.460938 15.546875 -11.285156 15.546875 -9.953125 L 15.546875 0 L 12.234375 0 L 11.96875 -2.34375 C 11.269531 -1.320312 10.488281 -0.617188 9.625 -0.234375 C 8.757812 0.140625 7.835938 0.328125 6.859375 0.328125 Z M 7.4375 -3.0625 C 8.007812 -3.0625 8.550781 -3.160156 9.0625 -3.359375 C 9.570312 -3.554688 10.019531 -3.835938 10.40625 -4.203125 C 10.789062 -4.566406 11.101562 -4.976562 11.34375 -5.4375 C 11.582031 -5.894531 11.707031 -6.382812 11.71875 -6.90625 L 7.671875 -6.90625 C 6.765625 -6.90625 6.09375 -6.703125 5.65625 -6.296875 C 5.226562 -5.890625 5.015625 -5.425781 5.015625 -4.90625 C 5.015625 -4.375 5.222656 -3.929688 5.640625 -3.578125 C 6.066406 -3.234375 6.664062 -3.0625 7.4375 -3.0625 Z M 7.4375 -3.0625 "></path></g><g transform="translate(150.078788, 31.008196)"><path style="stroke:none" d="M 2.375 0 L 2.375 -16.40625 L 6.421875 -16.40625 L 6.421875 -14.703125 C 6.972656 -15.441406 7.613281 -15.96875 8.34375 -16.28125 C 9.070312 -16.59375 9.820312 -16.75 10.59375 -16.75 C 11.59375 -16.75 12.476562 -16.507812 13.25 -16.03125 C 14.019531 -15.5625 14.671875 -14.835938 15.203125 -13.859375 C 15.859375 -14.867188 16.660156 -15.601562 17.609375 -16.0625 C 18.566406 -16.519531 19.578125 -16.75 20.640625 -16.75 C 21.691406 -16.75 22.597656 -16.554688 23.359375 -16.171875 C 24.117188 -15.785156 24.75 -15.265625 25.25 -14.609375 C 25.75 -13.953125 26.113281 -13.210938 26.34375 -12.390625 C 26.582031 -11.566406 26.703125 -10.722656 26.703125 -9.859375 L 26.703125 0 L 22.640625 0 L 22.640625 -9.34375 C 22.640625 -10.019531 22.5625 -10.632812 22.40625 -11.1875 C 22.25 -11.75 21.976562 -12.195312 21.59375 -12.53125 C 21.21875 -12.863281 20.679688 -13.03125 19.984375 -13.03125 C 19.265625 -13.03125 18.644531 -12.84375 18.125 -12.46875 C 17.613281 -12.101562 17.222656 -11.617188 16.953125 -11.015625 C 16.691406 -10.421875 16.5625 -9.753906 16.5625 -9.015625 L 16.5625 0 L 12.484375 0 L 12.484375 -9.40625 C 12.484375 -10.082031 12.410156 -10.691406 12.265625 -11.234375 C 12.117188 -11.773438 11.859375 -12.207031 11.484375 -12.53125 C 11.109375 -12.863281 10.578125 -13.03125 9.890625 -13.03125 C 9.160156 -13.03125 8.535156 -12.84375 8.015625 -12.46875 C 7.503906 -12.101562 7.109375 -11.617188 6.828125 -11.015625 C 6.554688 -10.421875 6.421875 -9.753906 6.421875 -9.015625 L 6.421875 0 Z M 2.375 0 "></path></g><g transform="translate(178.714082, 31.008196)"><path style="stroke:none" d="M 9.25 0.328125 C 7.976562 0.328125 6.828125 0.101562 5.796875 -0.34375 C 4.765625 -0.800781 3.878906 -1.425781 3.140625 -2.21875 C 2.398438 -3.007812 1.832031 -3.921875 1.4375 -4.953125 C 1.039062 -5.984375 0.84375 -7.082031 0.84375 -8.25 C 0.84375 -9.40625 1.039062 -10.492188 1.4375 -11.515625 C 1.832031 -12.546875 2.398438 -13.453125 3.140625 -14.234375 C 3.878906 -15.015625 4.765625 -15.628906 5.796875 -16.078125 C 6.828125 -16.523438 7.976562 -16.75 9.25 -16.75 C 10.519531 -16.75 11.664062 -16.523438 12.6875 -16.078125 C 13.71875 -15.628906 14.601562 -15.015625 15.34375 -14.234375 C 16.082031 -13.453125 16.648438 -12.546875 17.046875 -11.515625 C 17.453125 -10.492188 17.65625 -9.40625 17.65625 -8.25 C 17.65625 -7.082031 17.453125 -5.984375 17.046875 -4.953125 C 16.648438 -3.921875 16.082031 -3.007812 15.34375 -2.21875 C 14.601562 -1.425781 13.71875 -0.800781 12.6875 -0.34375 C 11.664062 0.101562 10.519531 0.328125 9.25 0.328125 Z M 9.25 -3.125 C 10 -3.125 10.644531 -3.257812 11.1875 -3.53125 C 11.726562 -3.8125 12.164062 -4.191406 12.5 -4.671875 C 12.84375 -5.148438 13.09375 -5.695312 13.25 -6.3125 C 13.40625 -6.9375 13.484375 -7.582031 13.484375 -8.25 C 13.484375 -8.925781 13.40625 -9.566406 13.25 -10.171875 C 13.09375 -10.773438 12.84375 -11.3125 12.5 -11.78125 C 12.164062 -12.25 11.726562 -12.613281 11.1875 -12.875 C 10.644531 -13.144531 10 -13.28125 9.25 -13.28125 C 8.238281 -13.28125 7.421875 -13.046875 6.796875 -12.578125 C 6.171875 -12.117188 5.71875 -11.503906 5.4375 -10.734375 C 5.15625 -9.972656 5.015625 -9.144531 5.015625 -8.25 C 5.015625 -7.582031 5.09375 -6.9375 5.25 -6.3125 C 5.40625 -5.695312 5.648438 -5.148438 5.984375 -4.671875 C 6.328125 -4.191406 6.765625 -3.8125 7.296875 -3.53125 C 7.835938 -3.257812 8.488281 -3.125 9.25 -3.125 Z M 9.25 -3.125 "></path></g><g transform="translate(197.2457, 31.008196)"><path style="stroke:none" d="M 7.328125 0.328125 C 6.171875 0.328125 5.125 0.117188 4.1875 -0.296875 C 3.25 -0.710938 2.457031 -1.265625 1.8125 -1.953125 C 1.175781 -2.648438 0.71875 -3.421875 0.4375 -4.265625 L 3.625 -5.6875 C 3.78125 -5.289062 3.988281 -4.882812 4.25 -4.46875 C 4.519531 -4.050781 4.882812 -3.695312 5.34375 -3.40625 C 5.8125 -3.125 6.40625 -2.984375 7.125 -2.984375 C 7.75 -2.984375 8.253906 -3.082031 8.640625 -3.28125 C 9.035156 -3.488281 9.328125 -3.742188 9.515625 -4.046875 C 9.703125 -4.359375 9.796875 -4.65625 9.796875 -4.9375 C 9.796875 -5.332031 9.644531 -5.644531 9.34375 -5.875 C 9.050781 -6.113281 8.65625 -6.3125 8.15625 -6.46875 C 7.664062 -6.625 7.128906 -6.769531 6.546875 -6.90625 C 5.960938 -7.050781 5.375 -7.226562 4.78125 -7.4375 C 4.195312 -7.644531 3.660156 -7.914062 3.171875 -8.25 C 2.679688 -8.59375 2.285156 -9.035156 1.984375 -9.578125 C 1.691406 -10.117188 1.546875 -10.804688 1.546875 -11.640625 C 1.546875 -12.503906 1.710938 -13.253906 2.046875 -13.890625 C 2.378906 -14.535156 2.828125 -15.066406 3.390625 -15.484375 C 3.960938 -15.910156 4.613281 -16.226562 5.34375 -16.4375 C 6.082031 -16.644531 6.847656 -16.75 7.640625 -16.75 C 9.046875 -16.75 10.273438 -16.429688 11.328125 -15.796875 C 12.390625 -15.160156 13.234375 -14.289062 13.859375 -13.1875 L 10.765625 -11.5 C 10.578125 -11.832031 10.34375 -12.15625 10.0625 -12.46875 C 9.78125 -12.789062 9.429688 -13.054688 9.015625 -13.265625 C 8.597656 -13.472656 8.09375 -13.578125 7.5 -13.578125 C 6.84375 -13.578125 6.328125 -13.4375 5.953125 -13.15625 C 5.578125 -12.882812 5.390625 -12.554688 5.390625 -12.171875 C 5.390625 -11.816406 5.539062 -11.53125 5.84375 -11.3125 C 6.144531 -11.09375 6.539062 -10.90625 7.03125 -10.75 C 7.53125 -10.59375 8.078125 -10.429688 8.671875 -10.265625 C 9.265625 -10.097656 9.851562 -9.894531 10.4375 -9.65625 C 11.03125 -9.414062 11.578125 -9.109375 12.078125 -8.734375 C 12.578125 -8.367188 12.976562 -7.894531 13.28125 -7.3125 C 13.582031 -6.726562 13.734375 -6.003906 13.734375 -5.140625 C 13.734375 -4.191406 13.546875 -3.375 13.171875 -2.6875 C 12.796875 -2 12.300781 -1.429688 11.6875 -0.984375 C 11.070312 -0.535156 10.382812 -0.207031 9.625 0 C 8.875 0.21875 8.109375 0.328125 7.328125 0.328125 Z M 7.328125 0.328125 "></path></g><g transform="translate(212.179425, 31.008196)"><path style="stroke:none" d="M 6.859375 0.328125 C 5.742188 0.328125 4.734375 0.117188 3.828125 -0.296875 C 2.929688 -0.710938 2.21875 -1.320312 1.6875 -2.125 C 1.164062 -2.925781 0.90625 -3.898438 0.90625 -5.046875 C 0.90625 -5.929688 1.070312 -6.675781 1.40625 -7.28125 C 1.738281 -7.894531 2.195312 -8.382812 2.78125 -8.75 C 3.375 -9.113281 4.066406 -9.378906 4.859375 -9.546875 C 5.660156 -9.710938 6.519531 -9.796875 7.4375 -9.796875 L 11.71875 -9.796875 C 11.71875 -10.828125 11.441406 -11.660156 10.890625 -12.296875 C 10.335938 -12.929688 9.53125 -13.25 8.46875 -13.25 C 7.851562 -13.25 7.296875 -13.140625 6.796875 -12.921875 C 6.296875 -12.703125 5.867188 -12.414062 5.515625 -12.0625 C 5.160156 -11.71875 4.859375 -11.34375 4.609375 -10.9375 L 1.546875 -13.15625 C 2.066406 -13.875 2.65625 -14.5 3.3125 -15.03125 C 3.96875 -15.570312 4.71875 -15.992188 5.5625 -16.296875 C 6.40625 -16.597656 7.363281 -16.75 8.4375 -16.75 C 9.925781 -16.75 11.195312 -16.460938 12.25 -15.890625 C 13.3125 -15.316406 14.125 -14.515625 14.6875 -13.484375 C 15.257812 -12.460938 15.546875 -11.285156 15.546875 -9.953125 L 15.546875 0 L 12.234375 0 L 11.96875 -2.34375 C 11.269531 -1.320312 10.488281 -0.617188 9.625 -0.234375 C 8.757812 0.140625 7.835938 0.328125 6.859375 0.328125 Z M 7.4375 -3.0625 C 8.007812 -3.0625 8.550781 -3.160156 9.0625 -3.359375 C 9.570312 -3.554688 10.019531 -3.835938 10.40625 -4.203125 C 10.789062 -4.566406 11.101562 -4.976562 11.34375 -5.4375 C 11.582031 -5.894531 11.707031 -6.382812 11.71875 -6.90625 L 7.671875 -6.90625 C 6.765625 -6.90625 6.09375 -6.703125 5.65625 -6.296875 C 5.226562 -5.890625 5.015625 -5.425781 5.015625 -4.90625 C 5.015625 -4.375 5.222656 -3.929688 5.640625 -3.578125 C 6.066406 -3.234375 6.664062 -3.0625 7.4375 -3.0625 Z M 7.4375 -3.0625 "></path></g><g transform="translate(229.610318, 31.008196)"><path style="stroke:none" d=""></path></g><g transform="translate(237.693258, 31.008196)"><path style="stroke:none" d="M 2.421875 7.1875 L 2.421875 -16.40625 L 6.484375 -16.40625 L 6.484375 -14.765625 C 7.066406 -15.472656 7.765625 -15.976562 8.578125 -16.28125 C 9.390625 -16.59375 10.234375 -16.75 11.109375 -16.75 C 12.253906 -16.75 13.265625 -16.519531 14.140625 -16.0625 C 15.023438 -15.613281 15.769531 -14.992188 16.375 -14.203125 C 16.976562 -13.410156 17.429688 -12.5 17.734375 -11.46875 C 18.046875 -10.4375 18.203125 -9.351562 18.203125 -8.21875 C 18.203125 -7.070312 18.046875 -5.988281 17.734375 -4.96875 C 17.429688 -3.945312 16.976562 -3.035156 16.375 -2.234375 C 15.78125 -1.441406 15.046875 -0.816406 14.171875 -0.359375 C 13.304688 0.0976562 12.304688 0.328125 11.171875 0.328125 C 10.304688 0.328125 9.453125 0.175781 8.609375 -0.125 C 7.773438 -0.4375 7.066406 -0.941406 6.484375 -1.640625 L 6.484375 7.1875 Z M 10.125 -3.375 C 11.039062 -3.375 11.789062 -3.585938 12.375 -4.015625 C 12.96875 -4.441406 13.40625 -5.015625 13.6875 -5.734375 C 13.976562 -6.460938 14.125 -7.289062 14.125 -8.21875 C 14.125 -9.132812 13.976562 -9.96875 13.6875 -10.71875 C 13.40625 -11.46875 12.96875 -12.0625 12.375 -12.5 C 11.789062 -12.9375 11.039062 -13.15625 10.125 -13.15625 C 9.207031 -13.15625 8.453125 -12.9375 7.859375 -12.5 C 7.273438 -12.0625 6.835938 -11.46875 6.546875 -10.71875 C 6.265625 -9.96875 6.125 -9.132812 6.125 -8.21875 C 6.125 -7.289062 6.265625 -6.460938 6.546875 -5.734375 C 6.835938 -5.015625 7.273438 -4.441406 7.859375 -4.015625 C 8.453125 -3.585938 9.207031 -3.375 10.125 -3.375 Z M 10.125 -3.375 "></path></g><g transform="translate(256.931313, 31.008196)"><path style="stroke:none" d="M 6.859375 0.328125 C 5.742188 0.328125 4.734375 0.117188 3.828125 -0.296875 C 2.929688 -0.710938 2.21875 -1.320312 1.6875 -2.125 C 1.164062 -2.925781 0.90625 -3.898438 0.90625 -5.046875 C 0.90625 -5.929688 1.070312 -6.675781 1.40625 -7.28125 C 1.738281 -7.894531 2.195312 -8.382812 2.78125 -8.75 C 3.375 -9.113281 4.066406 -9.378906 4.859375 -9.546875 C 5.660156 -9.710938 6.519531 -9.796875 7.4375 -9.796875 L 11.71875 -9.796875 C 11.71875 -10.828125 11.441406 -11.660156 10.890625 -12.296875 C 10.335938 -12.929688 9.53125 -13.25 8.46875 -13.25 C 7.851562 -13.25 7.296875 -13.140625 6.796875 -12.921875 C 6.296875 -12.703125 5.867188 -12.414062 5.515625 -12.0625 C 5.160156 -11.71875 4.859375 -11.34375 4.609375 -10.9375 L 1.546875 -13.15625 C 2.066406 -13.875 2.65625 -14.5 3.3125 -15.03125 C 3.96875 -15.570312 4.71875 -15.992188 5.5625 -16.296875 C 6.40625 -16.597656 7.363281 -16.75 8.4375 -16.75 C 9.925781 -16.75 11.195312 -16.460938 12.25 -15.890625 C 13.3125 -15.316406 14.125 -14.515625 14.6875 -13.484375 C 15.257812 -12.460938 15.546875 -11.285156 15.546875 -9.953125 L 15.546875 0 L 12.234375 0 L 11.96875 -2.34375 C 11.269531 -1.320312 10.488281 -0.617188 9.625 -0.234375 C 8.757812 0.140625 7.835938 0.328125 6.859375 0.328125 Z M 7.4375 -3.0625 C 8.007812 -3.0625 8.550781 -3.160156 9.0625 -3.359375 C 9.570312 -3.554688 10.019531 -3.835938 10.40625 -4.203125 C 10.789062 -4.566406 11.101562 -4.976562 11.34375 -5.4375 C 11.582031 -5.894531 11.707031 -6.382812 11.71875 -6.90625 L 7.671875 -6.90625 C 6.765625 -6.90625 6.09375 -6.703125 5.65625 -6.296875 C 5.226562 -5.890625 5.015625 -5.425781 5.015625 -4.90625 C 5.015625 -4.375 5.222656 -3.929688 5.640625 -3.578125 C 6.066406 -3.234375 6.664062 -3.0625 7.4375 -3.0625 Z M 7.4375 -3.0625 "></path></g><g transform="translate(274.362206, 31.008196)"><path style="stroke:none" d="M 6.546875 0 L -0.125 -16.40625 L 4.234375 -16.40625 L 8.21875 -5.171875 L 12.203125 -16.40625 L 16.5625 -16.40625 L 9.859375 0 Z M 6.546875 0 "></path></g></g></g></g></g><g clip-rule="nonzero" clip-path="url(#e8e3b6b9fe)"><g transform="matrix(1,0,0,1,288,0.000000000000010658)"><g id="d6a5364dbb" clip-path="url(#daa1dbf685)"><g style="fill:#5d9dfc;fill-opacity:1;"><g transform="translate(0.395625, 36.69063)"><path style="stroke:none" d="M 4.625 0.140625 C 4.050781 0.140625 3.539062 0.0234375 3.09375 -0.203125 C 2.65625 -0.441406 2.316406 -0.769531 2.078125 -1.1875 C 1.835938 -1.601562 1.71875 -2.070312 1.71875 -2.59375 C 1.71875 -3.125 1.835938 -3.59375 2.078125 -4 C 2.316406 -4.414062 2.65625 -4.742188 3.09375 -4.984375 C 3.539062 -5.234375 4.050781 -5.359375 4.625 -5.359375 C 5.21875 -5.359375 5.734375 -5.238281 6.171875 -5 C 6.617188 -4.769531 6.960938 -4.445312 7.203125 -4.03125 C 7.441406 -3.613281 7.5625 -3.140625 7.5625 -2.609375 C 7.5625 -1.804688 7.296875 -1.144531 6.765625 -0.625 C 6.234375 -0.113281 5.519531 0.140625 4.625 0.140625 Z M 4.625 0.140625 "></path></g></g></g></g></g></g></g></g></g></svg>