<svg xmlns="http://www.w3.org/2000/svg" xmlns:xlink="http://www.w3.org/1999/xlink" xmlns:svgjs="http://svgjs.dev/svgjs" viewBox="0 0 800 800"><g stroke-width="2" stroke="#ff1361" fill="none" stroke-linecap="round"><path d="M418.03 99.87C428.33 100.55 438.75 102.22 449.26 104.8 459.77 107.78 470.33 111.52 480.86 115.91 491.32 120.46 501.63 125.48 511.67 130.87 521.46 136.17 530.77 141.68 539.43 147.33 547.6 152.69 554.88 158.1 561.08 163.52 568.74 171.07 576.99 185.6 578.04 192.68 578.49 199.41 581.32 213.37 586.4 220.83 592.44 225.79 600.5 231.09 610.66 236.74 622.86 242.37 636.58 248.38 651.18 254.78 665.95 261.19 679.87 268 691.89 275.18 701.36 282.4 707.3 289.98 709.14 297.9 707.31 305.85 701.6 314.12 692.69 322.68 682.35 331.25 671.27 340.1 660.91 349.19 653.29 358.27 648.91 367.6 648.54 377.13 652.77 386.66 660.49 396.19 670.56 405.69 682.23 415.21 693.35 424.73 702.49 434.24 709.15 443.8 711.84 453.39 710.28 463.02 704.96 472.74 695.87 482.54 683.86 492.43 670.07 502.45 655.33 512.6 640.67 522.86 627.04 533.27 615.02 543.82 605.02 554.45 597.44 565.19 592.05 575.99 588.56 586.75 587.04 597.51 586.62 608.12 586.73 618.46 587.53 628.59 587.94 638.26 587.58 647.32 586.82 655.88 584.79 663.61 581.42 670.35 577.21 676.33 571.65 681.14 564.86 684.67 557.33 687.31 548.81 688.62 539.54 688.58 529.81 687.78 519.59 685.8 509.07 682.75 498.35 679.35 487.52 675.24 476.7 670.64 465.84 666.35 455.07 662.04 444.47 657.96 433.89 654.84 423.49 652.36 413.3 650.65 403.11 650.32 393.36 650.87 384 652.23 374.6 654.77 365.55 657.83 356.8 661.2 347.95 665.21 339.32 669.08 330.86 672.58 322.2 676.06 313.61 678.77 305.03 680.54 296.17 681.77 287.23 681.82 278.19 680.63 268.82 678.65 259.32 675.39 249.71 670.91 239.88 665.64 230.05 659.28 220.3 651.93 210.61 643.99 201.24 635.26 192.36 625.91 183.9 616.2 176.18 606.05 169.36 595.6 163.21 585.02 158.06 574.27 153.95 563.46 150.42 552.67 147.75 541.9 145.82 531.19 143.98 520.57 142.47 510.04 141.09 499.63 139.2 489.33 137.08 479.12 134.66 469.02 131.45 459.01 127.93 449.07 124.23 439.21 120.1 429.4 116.2 419.64 112.81 409.94 109.77 400.26 107.74 390.61 106.95 381.02 107.01 371.43 108.4 362.11 110.97 353.08 114.08 344.04 117.95 335.3 122.28 326.86 126.4 318.43 130.51 310.32 134.42 302.55 137.58 294.79 140.41 287.37 142.92 280.33 144.75 273.28 146.54 266.59 148.44 260.28 150.21 253.93 152.51 247.93 155.51 242.27 158.94 236.53 163.32 231.07 168.68 225.89 174.72 220.54 181.73 215.39 189.58 210.42 197.98 205.19 207.02 200.06 216.53 195.01 226.27 189.62 236.25 184.24 246.35 178.88 256.36 173.15 266.35 167.41 276.25 161.7 285.92 155.66 295.49 149.69 304.96 143.85 314.18 137.83 323.37 132.06 332.57 126.62 341.58 121.23 350.69 116.34 359.95 112.06 369.11 108.07 378.49 104.85 388.15 102.5 397.77 100.63 407.72 99.74 418.02 99.87" stroke-dasharray="1 10" transform="rotate(0, 400, 400)"></path><path d="M421.81 110.46C431.79 111.13 441.76 112.74 451.66 115.22 461.53 118.09 471.3 121.7 480.86 125.94 490.32 130.36 499.46 135.26 508.16 140.52 516.6 145.73 524.43 151.17 531.5 156.77 538.14 162.13 543.86 167.56 548.57 173.01 554.35 180.68 560.56 195.5 561.8 202.72 563.45 209.56 570.91 223.55 578.86 230.91 586.66 235.76 596.24 240.9 607.54 246.34 620.33 251.74 634.08 257.47 648.13 263.55 661.82 269.63 674.24 276.07 684.49 282.86 692.13 289.66 696.36 296.82 696.78 304.31 693.97 311.82 687.79 319.65 678.93 327.78 669.04 335.91 658.69 344.34 649.19 353.03 642.29 361.73 638.39 370.68 638.12 379.89 642.05 389.1 649.16 398.34 658.46 407.61 669.36 416.89 679.95 426.22 688.95 435.58 695.92 444.98 699.44 454.45 699.15 463.98 695.42 473.59 688.08 483.29 677.77 493.08 665.45 502.98 651.76 512.99 637.64 523.1 623.97 533.3 611.33 543.59 600.22 553.92 591.08 564.3 583.88 574.66 578.5 584.91 575.08 595.1 572.97 605.06 571.73 614.68 571.49 624.04 571.34 632.88 570.88 641.07 570.44 648.76 569.13 655.6 566.81 661.47 563.96 666.63 559.92 670.67 554.77 673.51 548.99 675.57 542.21 676.41 534.56 676.03 526.47 675.01 517.74 672.94 508.52 669.92 499.07 666.65 489.31 662.78 479.39 658.49 469.38 654.52 459.31 650.55 449.25 646.8 439.18 643.95 429.16 641.66 419.23 640.06 409.3 639.72 399.68 640.16 390.35 641.33 380.99 643.59 371.86 646.32 362.94 649.35 353.92 652.99 345.03 656.54 336.23 659.8 327.25 663.11 318.28 665.75 309.27 667.58 300.04 668.99 290.72 669.34 281.31 668.59 271.69 667.16 262 664.56 252.28 660.82 242.51 656.38 232.85 650.87 223.41 644.42 214.19 637.39 205.41 629.56 197.23 621.07 189.57 612.2 182.71 602.84 176.77 593.11 171.48 583.2 167.15 573.05 163.77 562.77 160.85 552.46 158.67 542.09 157.07 531.74 155.44 521.43 154.01 511.17 152.6 501 150.6 490.9 148.33 480.89 145.72 470.99 142.33 461.14 138.65 451.39 134.82 441.73 130.61 432.11 126.66 422.57 123.25 413.12 120.21 403.68 118.18 394.31 117.36 385.03 117.42 375.75 118.78 366.77 121.3 358.1 124.41 349.42 128.28 341.04 132.64 332.99 136.86 324.93 141.1 317.19 145.17 309.79 148.54 302.38 151.57 295.31 154.25 288.59 156.22 281.84 158.05 275.43 159.88 269.36 161.45 263.23 163.41 257.41 165.92 251.88 168.72 246.25 172.36 240.86 176.88 235.7 182.01 230.36 188.09 225.18 195.04 220.14 202.57 214.84 210.83 209.62 219.68 204.46 228.87 198.97 238.44 193.5 248.24 188.04 258.12 182.25 268.09 176.46 278.06 170.71 287.92 164.69 297.72 158.76 307.45 152.98 317.01 147.07 326.51 141.42 335.98 136.13 345.3 130.91 354.65 126.19 364.06 122.07 373.39 118.25 382.84 115.17 392.45 112.93 402.03 111.16 411.81 110.32 421.8 110.46" stroke-dasharray="3 3" transform="rotate(4.04, 400, 400)"></path><path d="M422.26 121.06C431.86 121.7 441.28 123.25 450.49 125.63 459.67 128.39 468.58 131.86 477.14 135.96 485.59 140.23 493.58 144.98 501.02 150.11 508.22 155.21 514.74 160.57 520.49 166.1 525.91 171.42 530.47 176.85 534.15 182.31 538.84 190.07 544.74 205.15 546.98 212.5 549.1 217.12 551.68 221.82 555.03 226.63 559.8 231.21 565.84 235.96 573.36 240.89 582.58 245.68 593.26 250.72 605.22 256.02 618.15 261.24 631.51 266.77 644.66 272.6 657.03 278.4 667.82 284.54 676.28 291 682.17 297.46 684.82 304.25 684 311.37 680.39 318.49 673.9 325.93 665.19 333.67 655.81 341.41 646.22 349.46 637.54 357.79 631.34 366.12 627.88 374.73 627.71 383.62 631.34 392.51 637.86 401.47 646.42 410.49 656.57 419.53 666.59 428.64 675.37 437.81 682.52 447.02 686.72 456.31 687.53 465.68 685.27 475.12 679.59 484.65 670.98 494.26 660.24 503.95 647.83 513.73 634.57 523.56 621.25 533.46 608.42 543.39 596.63 553.31 586.33 563.22 577.64 573.05 570.57 582.71 565.32 592.24 561.44 601.49 558.64 610.34 557.03 618.9 555.87 626.9 554.78 634.22 553.47 644.04 547.45 658.15 541.99 662.04 537.6 663.58 532.26 664.02 526.06 663.36 519.47 662.17 512.16 660.06 504.24 657.11 496.08 654.01 487.48 650.37 478.54 646.39 469.5 642.74 460.23 639.1 450.81 635.66 441.37 633.06 431.83 630.96 422.23 629.47 412.64 629.12 403.2 629.46 393.94 630.45 384.65 632.45 375.48 634.86 366.41 637.56 357.27 640.86 348.18 644.09 339.1 647.09 329.89 650.2 320.65 652.74 311.35 654.58 301.91 656.1 292.4 656.7 282.85 656.31 273.2 655.35 263.57 653.33 254.03 650.27 244.56 646.57 235.33 641.87 226.45 636.27 217.9 630.11 209.89 623.16 202.58 615.54 195.81 607.53 189.87 598.98 184.84 590.02 180.4 580.84 176.83 571.37 174.1 561.7 171.71 551.95 169.91 542.09 168.55 532.19 167.03 522.29 165.6 512.4 164.09 502.56 161.93 492.76 159.47 483.02 156.65 473.38 153.09 463.78 149.26 454.26 145.31 444.85 141.05 435.47 137.07 426.18 133.65 416.99 130.62 407.82 128.6 398.74 127.78 389.76 127.81 380.79 129.14 372.13 131.61 363.78 134.68 355.43 138.53 347.39 142.9 339.67 147.19 331.94 151.54 324.53 155.77 317.44 159.35 310.34 162.6 303.55 165.49 297.09 167.65 290.59 169.59 284.39 171.44 278.49 172.93 272.52 174.66 266.82 176.79 261.38 179.07 255.81 182.05 250.44 185.79 245.27 190.05 239.91 195.2 234.67 201.19 229.55 207.76 224.18 215.11 218.86 223.1 213.59 231.53 208.03 240.45 202.47 249.71 196.94 259.18 191.1 268.85 185.3 278.62 179.55 288.41 173.57 298.2 167.7 307.97 162.01 317.66 156.23 327.3 150.73 336.88 145.59 346.38 140.55 355.86 136.01 365.32 132.07 374.73 128.42 384.17 125.49 393.65 123.37 403.11 121.69 412.65 120.91 422.25 121.06" stroke-dasharray="5 5" transform="rotate(8.08, 400, 400)"></path><path d="M419.32 131.65C428.46 132.27 437.29 133.76 445.79 136.04 454.25 138.68 462.32 142.01 469.94 145.94 477.45 150.06 484.43 154.66 490.8 159.64 496.99 164.61 502.51 169.86 507.3 175.3 511.89 180.57 515.76 185.97 518.93 191.42 523.31 199.24 530.41 214.52 534.22 222 537.67 226.72 541.78 231.5 546.8 236.37 553.17 241.01 560.76 245.78 569.65 250.71 579.88 255.48 591.21 260.46 603.36 265.67 616 270.77 628.61 276.14 640.58 281.79 651.46 287.38 660.54 293.27 667.24 299.47 671.48 305.64 672.72 312.12 670.85 318.92 666.62 325.7 659.95 332.8 651.5 340.2 642.68 347.6 633.84 355.3 625.96 363.29 620.42 371.28 617.38 379.56 617.29 388.14 620.65 396.72 626.61 405.39 634.46 414.15 643.85 422.92 653.28 431.78 661.75 440.72 668.98 449.69 673.7 458.76 675.45 467.9 674.5 477.09 670.39 486.37 663.45 495.72 654.35 505.11 643.37 514.56 631.22 524.03 618.6 533.53 606 543.01 593.95 552.42 582.92 561.78 573.11 571 564.67 580 557.79 588.82 552.23 597.32 547.81 605.37 544.65 613.1 542.17 620.26 540.08 626.74 534.88 641.28 521.85 651.42 514.62 650.6 509.26 649.29 503.16 647.17 496.41 644.34 489.45 641.4 481.95 638.02 473.99 634.34 465.92 631.01 457.49 627.69 448.77 624.55 440.02 622.19 431.04 620.27 421.85 618.87 412.66 618.52 403.49 618.78 394.37 619.6 385.24 621.34 376.12 623.46 367.01 625.84 357.87 628.8 348.69 631.72 339.49 634.45 330.22 637.33 320.89 639.74 311.52 641.55 302.09 643.13 292.63 643.91 283.2 643.81 273.8 643.25 264.5 641.73 255.39 639.26 246.48 636.23 237.91 632.28 229.79 627.46 222.09 622.14 214.99 616.04 208.63 609.27 202.81 602.12 197.8 594.4 193.65 586.24 190 577.83 187.12 569.08 184.94 560.09 182.97 550.97 181.44 541.7 180.21 532.33 178.71 522.93 177.19 513.49 175.51 504.06 173.16 494.64 170.48 485.26 167.44 475.95 163.7 466.66 159.74 457.44 155.7 448.33 151.4 439.23 147.42 430.22 144.01 421.33 141.02 412.44 139.02 403.66 138.19 394.99 138.21 386.32 139.49 377.97 141.89 369.93 144.91 361.89 148.71 354.15 153.06 346.73 157.39 339.29 161.83 332.15 166.2 325.33 169.98 318.48 173.46 311.92 176.59 305.66 178.99 299.35 181.11 293.31 183.07 287.54 184.58 281.69 186.19 276.06 188.07 270.65 189.95 265.11 192.38 259.74 195.46 254.53 198.92 249.13 203.17 243.83 208.22 238.62 213.8 233.17 220.15 227.77 227.18 222.4 234.69 216.77 242.75 211.15 251.26 205.57 260.07 199.72 269.17 193.92 278.48 188.2 287.9 182.29 297.43 176.52 306.97 170.94 316.54 165.31 326.09 159.98 335.58 155.02 345.05 150.17 354.48 145.82 363.84 142.05 373.18 138.58 382.48 135.8 391.73 133.8 400.97 132.22 410.17 131.49 419.31 131.65" stroke-dasharray="10 3" transform="rotate(12.12, 400, 400)"></path><path d="M413.44 142.24C422.06 142.84 430.29 144.26 438.11 146.44 445.89 148.96 453.21 152.14 460.03 155.91 466.76 159.87 472.94 164.29 478.53 169.11 484.01 173.94 488.87 179.06 493.13 184.38 497.31 189.58 500.94 194.92 504.1 200.34 507.37 205.54 510.35 210.79 513.22 216.07 516.54 221.08 520.07 226.12 524.02 231.18 528.87 235.99 534.48 240.85 541.03 245.78 548.75 250.49 557.55 255.31 567.38 260.26 578.18 265.04 589.7 270 601.61 275.15 613.57 280.18 625.12 285.45 635.69 290.95 644.97 296.39 652.35 302.09 657.37 308.08 660.1 314.02 660.1 320.25 657.38 326.77 652.69 333.27 645.99 340.08 637.88 347.17 629.66 354.26 621.58 361.64 614.47 369.32 609.54 376.99 606.89 384.96 606.88 393.23 609.97 401.5 615.4 409.88 622.56 418.35 631.22 426.83 640.03 435.41 648.14 444.08 655.34 452.77 660.42 461.55 662.96 470.4 663.15 479.28 660.47 488.23 655.12 497.23 647.66 506.24 638.22 515.28 627.37 524.3 615.74 533.31 603.73 542.26 591.84 551.09 580.52 559.84 570.03 568.39 560.58 576.67 552.38 584.75 545.36 592.47 539.42 599.71 534.7 606.63 530.79 612.97 527.45 618.62 520.13 631 507.42 638.88 501.23 637.76 496.72 636.39 491.53 634.31 485.71 631.6 479.74 628.86 473.18 625.73 466.11 622.36 458.94 619.33 451.32 616.32 443.3 613.47 435.25 611.33 426.85 609.58 418.13 608.28 409.42 607.93 400.61 608.1 391.74 608.77 382.87 610.27 373.93 612.12 364.94 614.19 355.94 616.82 346.87 619.43 337.75 621.89 328.62 624.54 319.44 626.79 310.25 628.53 301.09 630.12 291.95 631.01 282.92 631.14 274.01 630.9 265.3 629.8 256.88 627.84 248.73 625.42 241.01 622.13 233.82 618.04 227.06 613.49 220.95 608.2 215.57 602.25 210.7 595.92 206.58 589.04 203.24 581.67 200.28 574.06 197.96 566.07 196.22 557.79 194.53 549.37 193.16 540.74 191.96 531.97 190.38 523.13 188.7 514.22 186.81 505.27 184.23 496.31 181.32 487.35 178.06 478.43 174.17 469.53 170.09 460.67 165.98 451.89 161.67 443.13 157.71 434.44 154.34 425.86 151.4 417.29 149.43 408.81 148.61 400.46 148.61 392.1 149.83 384.04 152.15 376.29 155.09 368.54 158.82 361.08 163.13 353.92 167.47 346.74 171.97 339.85 176.45 333.24 180.42 326.6 184.12 320.23 187.49 314.13 190.16 307.96 192.53 302.04 194.67 296.36 197.09 287.78 202.29 271.35 205.84 263.39 208.62 257.94 212.08 252.58 216.24 247.29 220.85 241.77 226.2 236.3 232.23 230.86 238.71 225.18 245.8 219.53 253.39 213.93 261.32 208.1 269.64 202.34 278.25 196.68 287.05 190.87 296.03 185.22 305.11 179.78 314.28 174.32 323.49 169.17 332.66 164.4 341.88 159.76 351.04 155.61 360.12 152.03 369.22 148.74 378.23 146.12 387.12 144.24 396.02 142.75 404.81 142.07 413.43 142.24" stroke-dasharray="1 5" transform="rotate(16.16, 400, 400)"></path><path d="M405.51 152.83C413.59 153.41 421.24 154.77 428.45 156.84 435.63 159.23 442.34 162.27 448.54 165.86 454.7 169.64 460.34 173.89 465.46 178.52 470.54 183.2 475.13 188.16 479.25 193.35 483.41 198.45 487.22 203.7 490.77 209.06 494.56 214.24 498.3 219.48 502.14 224.76 506.53 229.82 511.29 234.91 516.6 240.02 522.76 244.91 529.69 249.84 537.48 254.83 546.22 259.61 555.81 264.49 566.13 269.47 577.06 274.28 588.32 279.24 599.59 284.36 610.57 289.36 620.82 294.55 629.87 299.96 637.51 305.28 643.23 310.85 646.68 316.66 648.07 322.42 647.03 328.44 643.63 334.74 638.65 341 632.04 347.54 624.35 354.37 616.75 361.17 609.41 368.27 603.04 375.65 598.7 383.02 596.4 390.69 596.46 398.64 599.3 406.6 604.23 414.67 610.73 422.83 618.67 431 626.85 439.27 634.54 447.62 641.6 455.98 646.92 464.42 650.08 472.91 651.25 481.42 649.85 489.98 645.98 498.54 640.12 507.11 632.26 515.67 622.85 524.16 612.43 532.62 601.31 540.98 589.95 549.17 578.76 557.24 568.02 565.09 557.98 572.62 548.85 579.95 540.68 586.88 533.46 593.32 527.31 599.45 521.99 604.99 517.34 609.88 507.09 620.28 492.85 626.2 487.08 624.87 480.7 622.47 465.02 614.94 455.75 610.43 449.33 607.7 442.41 604.99 435.05 602.41 427.65 600.49 419.85 598.89 411.65 597.69 403.46 597.34 395.09 597.43 386.59 597.96 378.11 599.25 369.5 600.83 360.8 602.62 352.12 604.92 343.36 607.23 334.55 609.42 325.78 611.82 317 613.89 308.25 615.53 299.59 617.08 291.04 618.04 282.66 618.33 274.47 618.33 266.55 617.58 259 616.06 251.78 614.15 245.03 611.46 238.84 608.02 233.09 604.18 227.97 599.63 223.55 594.45 219.55 588.93 216.24 582.84 213.58 576.27 211.19 569.45 209.3 562.23 207.85 554.69 206.33 546.99 204.99 539.04 203.71 530.91 201.99 522.7 200.1 514.37 197.95 505.96 195.12 497.52 191.97 489.05 188.51 480.58 184.47 472.11 180.3 463.66 176.15 455.27 171.86 446.89 167.95 438.56 164.64 430.32 161.77 422.09 159.84 413.94 159.02 405.9 159 397.85 160.16 390.1 162.39 382.63 165.23 375.15 168.87 367.95 173.1 361.02 177.41 354.08 181.94 347.39 186.5 340.98 190.64 334.51 194.55 328.3 198.17 322.32 201.12 316.27 203.77 310.43 206.14 304.8 208.83 296.28 213.84 279.83 216.86 271.8 219.11 266.31 221.91 260.88 225.31 255.52 229.04 249.96 233.44 244.44 238.48 238.96 243.93 233.27 249.98 227.62 256.56 222.02 263.5 216.25 270.87 210.56 278.6 204.99 286.57 199.31 294.79 193.8 303.18 188.54 311.71 183.27 320.34 178.32 328.98 173.76 337.7 169.33 346.4 165.39 355.03 162.01 363.69 158.9 372.26 156.43 380.69 154.67 389.13 153.29 397.42 152.66 405.5 152.83" stroke-dasharray="5 10" transform="rotate(20.200000000000003, 400, 400)"></path><path d="M396.74 163.42C404.27 163.98 411.4 165.27 418.11 167.23 424.8 169.5 431.05 172.38 436.86 175.79 442.66 179.4 448.02 183.45 452.98 187.89 457.95 192.39 462.58 197.19 466.9 202.22 471.36 207.19 475.65 212.33 479.87 217.6 484.41 222.71 489.07 227.92 493.99 233.18 499.47 238.24 505.42 243.35 511.93 248.5 519.19 253.44 527.14 258.42 535.79 263.46 545.14 268.31 555.07 273.23 565.43 278.24 576.05 283.09 586.68 288.07 596.98 293.18 606.74 298.16 615.53 303.32 622.99 308.65 631.09 316.63 634.51 333.57 629.67 342.6 624.55 348.66 618.14 354.97 610.92 361.55 603.96 368.11 597.35 374.94 591.69 382.03 587.9 389.12 585.93 396.48 586.05 404.13 588.65 411.77 593.1 419.51 598.97 427.34 606.21 435.17 613.76 443.09 620.99 451.07 627.82 459.06 633.25 467.11 636.87 475.19 638.84 483.27 638.55 491.37 636.03 499.45 631.68 507.51 625.38 515.52 617.47 523.44 608.42 531.29 598.44 539.01 587.92 546.52 577.25 553.9 566.67 561.02 556.46 567.8 546.84 574.37 537.9 580.52 529.72 586.18 522.42 591.55 515.86 596.35 509.99 600.52 502.58 605.87 490.33 612.41 484.74 613.53 479.37 613.43 467.26 609.62 460.21 606.29 455.33 603.96 449.97 601.36 444.13 598.57 438.26 596.12 431.91 593.69 425.12 591.37 418.3 589.65 411.05 588.21 403.4 587.1 395.74 586.75 387.88 586.78 379.86 587.17 371.86 588.26 363.73 589.6 355.5 591.11 347.31 593.12 339.05 595.13 330.77 597.05 322.57 599.2 314.4 601.07 306.32 602.57 298.38 604.06 290.6 605.02 283.07 605.42 275.77 605.61 268.79 605.13 262.24 603.97 253.14 601.4 238.23 592.31 232.59 585.91 229.37 581.14 226.71 575.81 224.61 570.01 222.63 563.96 221.03 557.5 219.72 550.7 218.24 543.74 216.83 536.5 215.38 529.04 213.45 521.49 211.29 513.77 208.86 505.95 205.79 498.08 202.41 490.14 198.76 482.17 194.61 474.18 190.38 466.19 186.22 458.22 181.98 450.25 178.14 442.32 174.9 434.45 172.12 426.58 170.25 418.78 169.44 411.06 169.4 403.34 170.49 395.88 172.61 388.68 175.34 381.47 178.86 374.51 182.98 367.81 187.24 361.08 191.76 354.59 196.37 348.33 200.63 342.02 204.72 335.93 208.57 330.05 211.81 324.1 214.75 318.33 217.41 312.73 220.46 304.26 225.65 287.78 228.4 279.69 230.28 274.16 232.59 268.7 235.37 263.3 238.36 257.72 241.93 252.17 246.08 246.68 250.54 241.02 255.58 235.4 261.15 229.86 267.04 224.17 273.4 218.59 280.14 213.14 287.14 207.62 294.45 202.29 301.99 197.21 309.69 192.16 317.55 187.43 325.49 183.09 333.53 178.89 341.59 175.17 349.61 171.98 357.68 169.06 365.68 166.75 373.56 165.11 381.45 163.82 389.19 163.25 396.73 163.42" stroke-dasharray="9 7" transform="rotate(24.24, 400, 400)"></path><path d="M388.46 174.02C395.48 174.55 402.15 175.77 408.47 177.62 414.78 179.76 420.74 182.48 426.35 185.71 431.98 189.13 437.3 192.99 442.33 197.22 447.44 201.53 452.34 206.13 457.1 210.98 462.05 215.8 466.99 220.81 472 225.95 477.37 230.98 482.97 236.11 488.9 241.32 495.36 246.36 502.28 251.46 509.73 256.6 517.77 261.57 526.35 266.58 535.44 271.65 544.96 276.54 554.79 281.5 564.77 286.53 574.72 291.42 584.39 296.41 593.49 301.51 601.85 306.5 609.12 311.62 614.99 316.9 620.85 324.78 621.03 341.38 615.55 350.15 610.42 356.04 604.3 362.15 597.61 368.5 591.3 374.83 585.41 381.4 580.41 388.22 577.12 395.03 575.46 402.09 575.63 409.41 578 416.72 582 424.12 587.28 431.59 593.84 439.06 600.75 446.6 607.48 454.18 614.02 461.75 619.44 469.37 623.37 476.98 625.97 484.59 626.62 492.19 625.29 499.73 622.33 507.24 617.53 514.66 611.12 521.96 603.53 529.18 594.85 536.22 585.42 543.03 575.58 549.71 565.54 556.1 555.57 562.13 545.87 567.96 536.59 573.37 527.84 578.29 519.73 582.95 512.23 587.06 505.35 590.57 496.27 595.04 481.02 600.23 474.28 600.91 468.02 600.57 455.09 596.81 448.05 593.72 443.29 591.62 438.15 589.27 432.63 586.77 427.1 584.6 421.17 582.43 414.83 580.36 408.49 578.83 401.74 577.53 394.62 576.51 387.5 576.16 380.19 576.13 372.73 576.41 365.3 577.31 357.75 578.42 350.13 579.68 342.56 581.4 334.96 583.12 327.4 584.78 319.93 586.67 312.53 588.33 305.29 589.68 298.21 591.06 291.35 592 284.78 592.45 275.46 592.61 259.34 589.62 252.76 586.38 247.18 582.1 238.99 570.26 236.19 562.86 234.46 557.56 233 551.84 231.71 545.76 230.15 539.53 228.57 532.99 226.88 526.21 224.68 519.34 222.24 512.27 219.52 505.05 216.21 497.78 212.62 490.41 208.81 482.97 204.59 475.5 200.33 468 196.18 460.49 192.02 452.97 188.28 445.46 185.14 437.98 182.45 430.51 180.65 423.07 179.85 415.68 179.8 408.3 180.81 401.14 182.82 394.21 185.42 387.28 188.8 380.56 192.79 374.06 196.96 367.55 201.43 361.23 206.04 355.12 210.39 348.96 214.63 342.99 218.68 337.19 222.19 331.33 225.43 325.62 228.39 320.06 230.79 314.4 232.99 308.86 235.06 303.43 237.59 295.15 242.97 278.76 246.31 270.61 248.74 265.04 251.65 259.51 255.03 254.05 258.64 248.44 262.77 242.9 267.39 237.44 272.28 231.88 277.62 226.44 283.37 221.15 289.36 215.82 295.68 210.69 302.28 205.83 309.06 201.01 316.03 196.51 323.15 192.4 330.37 188.44 337.67 184.94 344.99 181.95 352.36 179.22 359.71 177.07 366.97 175.55 374.26 174.35 381.44 173.83 388.45 174.01" stroke-dasharray="4 9" transform="rotate(28.28, 400, 400)"></path><path d="M381.94 184.61C388.48 185.12 394.78 186.26 400.81 188.01 406.85 190.02 412.65 192.57 418.22 195.62 423.83 198.84 429.25 202.49 434.53 206.51 439.9 210.61 445.21 215.01 450.52 219.66 456.03 224.3 461.64 229.14 467.43 234.13 473.55 239.04 479.95 244.07 486.71 249.18 493.89 254.16 501.49 259.22 509.51 264.32 517.93 269.28 526.73 274.29 535.82 279.35 545.1 284.26 554.44 289.24 563.67 294.28 572.64 299.19 581.12 304.18 588.85 309.27 595.75 314.25 601.5 319.35 605.85 324.58 609.67 332.37 607.2 348.66 601.32 357.21 596.32 362.93 590.56 368.86 584.43 374.98 578.78 381.09 573.57 387.42 569.2 393.96 566.39 400.49 565 407.25 565.22 414.23 567.37 421.21 570.95 428.26 575.67 435.34 581.57 442.43 587.85 449.55 594.06 456.69 600.23 463.83 605.54 470.97 609.64 478.09 612.71 485.19 614.12 492.24 613.81 499.21 612.09 506.13 608.67 512.95 603.71 519.6 597.6 526.17 590.31 532.53 582.13 538.64 573.38 544.62 564.18 550.3 554.8 555.61 545.43 560.73 536.22 565.43 527.31 569.67 518.8 573.67 510.73 577.15 503.15 580.08 496.08 582.74 489.48 584.82 483.29 586.3 474.84 587.82 459.58 587.67 452.33 586.14 445.29 584.06 430.54 578.31 422.61 575.04 417.24 573.13 411.57 571.22 405.58 569.38 399.59 568.02 393.28 566.86 386.67 565.92 380.05 565.57 373.29 565.49 366.44 565.67 359.62 566.39 352.72 567.29 345.81 568.32 338.95 569.77 332.12 571.22 325.36 572.62 318.71 574.25 312.2 575.69 305.88 576.88 296.77 578.56 280.39 579.76 273.34 579.04 262.19 574.42 250.58 561.27 248.15 554.87 245.78 547.74 241 531.4 238.11 522.37 235.62 516.17 232.88 509.75 229.88 503.15 226.35 496.5 222.58 489.71 218.66 482.82 214.39 475.91 210.14 468.92 206.05 461.89 201.99 454.85 198.37 447.78 195.35 440.72 192.77 433.65 191.04 426.59 190.27 419.55 190.19 412.52 191.13 405.67 193.02 399.02 195.47 392.36 198.69 385.88 202.52 379.59 206.56 373.28 210.94 367.14 215.51 361.18 219.9 355.17 224.25 349.31 228.46 343.6 232.21 337.84 235.73 332.19 238.99 326.67 241.72 321.06 244.24 315.55 246.58 310.14 249.44 301.89 254.88 285.55 257.9 277.43 259.98 271.92 262.4 266.45 265.22 261.06 268.15 255.55 271.53 250.12 275.33 244.8 279.33 239.4 283.76 234.13 288.58 229.03 293.59 223.92 298.96 219.02 304.62 214.39 310.44 209.82 316.51 205.57 322.77 201.7 329.12 197.99 335.61 194.71 342.18 191.93 348.8 189.39 355.46 187.39 362.11 185.99 368.77 184.89 375.39 184.42 381.93 184.61" stroke-dasharray="2 9" transform="rotate(32.32, 400, 400)"></path><path d="M378.18 195.2C384.3 195.68 390.28 196.76 396.11 198.39 401.96 200.27 407.69 202.66 413.31 205.52 418.97 208.55 424.57 211.98 430.15 215.77 435.83 219.65 441.56 223.83 447.38 228.26 453.4 232.7 459.58 237.35 465.99 242.16 472.67 246.91 479.64 251.8 486.92 256.78 494.51 261.67 502.41 266.64 510.6 271.67 519.01 276.58 527.61 281.56 536.3 286.58 544.96 291.48 553.49 296.44 561.69 301.46 569.47 306.36 576.61 311.34 582.9 316.4 590.48 323.89 597.63 339.29 596.79 347.25 594.73 352.54 591.43 357.99 587.05 363.59 582.27 369.16 576.94 374.9 571.41 380.81 566.39 386.7 561.84 392.78 558.06 399.04 555.69 405.29 554.55 411.74 554.8 418.37 556.75 425 559.94 431.67 564.12 438.35 569.39 445.03 575.05 451.73 580.72 458.4 586.48 465.07 591.58 471.72 595.73 478.31 599.1 484.87 601.1 491.36 601.63 497.74 600.97 504.07 598.8 510.26 595.2 516.26 590.51 522.18 584.64 527.87 577.81 533.3 570.3 538.6 562.19 543.59 553.69 548.22 545 552.68 536.23 556.74 527.55 560.35 519.04 563.75 510.79 566.68 502.88 569.1 495.31 571.29 488.12 572.96 481.29 574.1 471.75 575.23 454.44 574.75 446.37 573.27 438.64 571.37 423.15 566.25 415.17 563.38 409.83 561.71 404.3 560.03 398.57 558.41 392.85 557.23 386.9 556.19 380.74 555.32 374.58 554.99 368.37 554.86 362.13 554.94 355.91 555.51 349.69 556.22 343.52 557.03 337.39 558.22 331.35 559.42 325.45 560.57 316.83 562.56 300.88 565.66 293.75 566.48 281.8 565.99 268.36 560.08 265.34 556.2 262.59 551.57 257.8 539.88 255.38 532.97 253.39 528.1 251.28 522.92 248.98 517.47 246.19 511.92 243.17 506.14 239.92 500.16 236.2 494.13 232.3 487.93 228.29 481.6 224.03 475.24 219.83 468.78 215.83 462.24 211.9 455.7 208.43 449.09 205.54 442.46 203.08 435.82 201.43 429.15 200.68 422.48 200.59 415.81 201.45 409.28 203.2 402.92 205.5 396.54 208.54 390.32 212.18 384.24 216.06 378.15 220.32 372.2 224.8 366.38 229.18 360.53 233.57 354.8 237.9 349.2 241.84 343.54 245.61 337.98 249.15 332.52 252.21 326.98 255.06 321.53 257.72 316.15 261.02 307.99 266.92 291.82 269.89 283.8 271.8 278.38 273.95 273.02 276.4 267.74 278.86 262.38 281.68 257.1 284.86 251.95 288.15 246.74 291.81 241.68 295.84 236.81 300 231.94 304.51 227.29 309.33 222.91 314.26 218.6 319.46 214.62 324.9 211 330.41 207.53 336.11 204.49 341.95 201.91 347.84 199.56 353.83 197.72 359.88 196.44 365.94 195.43 372.05 195.01 378.17 195.2" stroke-dasharray="3 1" transform="rotate(36.36, 400, 400)"></path><path d="M377.73 205.79C383.49 206.25 389.21 207.26 394.89 208.78 400.59 210.53 406.28 212.75 411.97 215.41 423.48 221.21 435.26 228.45 447.5 236.79 460.37 245.24 474.14 254.44 488.83 264.14 504.22 273.56 520.26 283.33 536.24 293.32 551.5 302.9 565.05 312.75 575.52 322.83 582.76 332.58 585.37 342.71 582.93 353.22 577.45 363.55 568.71 374.41 558.54 385.8 554.16 391.47 550.22 397.29 547 403.26 545.02 409.23 544.11 415.35 544.39 421.62 546.14 427.9 548.96 434.17 552.65 440.44 557.32 446.7 562.37 452.94 567.49 459.13 578.01 471.5 585.61 483.61 588.83 495.22 588.24 506.64 582.41 517.33 572.25 527 559.29 536.2 544.04 544.1 527.92 550.38 511.75 555.97 496.16 559.79 481.62 561.69 468.1 562.97 455.58 562.51 443.84 560.47 432.79 558.43 421.94 555.41 411.06 551.78 402.96 549.62 386.33 545.98 377.75 544.73 369.14 544.32 352.18 544.93 343.93 545.82 333.12 548.05 322.96 550.09 313.76 551.61 304.96 553.52 297.36 554.23 291.2 553.51 285.38 552.45 280.83 549.65 277.42 545.15 273.62 540.05 270.21 533.31 266.76 525.16 261.79 516.55 256.1 506.75 249.6 496.04 241.55 485.12 233.27 473.51 225.52 461.45 221.76 455.41 218.44 449.28 215.7 443.08 213.38 436.88 211.82 430.62 211.1 424.32 210.99 418.03 211.77 411.84 213.38 405.77 215.52 399.69 218.35 393.73 221.79 387.89 229.34 376.15 238.03 364.82 246.99 353.89 254.8 342.8 261.95 331.98 268.34 321.47 273.09 310.67 277.49 300.06 281.93 289.73 285.64 279.11 290.13 268.77 295.66 258.91 301.28 248.96 308.22 239.69 316.39 231.4 324.82 223.46 334.34 216.84 344.69 211.9 352.59 208.9 369.15 205.79 377.72 205.79" stroke-dasharray="6 11" transform="rotate(40.400000000000006, 400, 400)"></path><path d="M380.68 216.38C391.55 217.48 402.67 220.54 414.04 225.3 425.57 230.68 437.62 237.44 450.23 245.26 463.29 253.24 477.12 262 491.54 271.27 506.19 280.37 520.96 289.86 535.06 299.58 548.03 309 558.93 318.67 566.67 328.56 571.49 338.17 572.21 348.1 568.7 358.33 563.01 368.4 554.87 378.91 545.84 389.82 539.03 400.68 534.67 412.04 533.97 423.84 538.34 435.63 545.69 447.33 554.38 458.75 564.05 470.13 571.52 481.16 575.5 491.59 576.48 501.84 572.91 511.32 565.32 519.75 555.01 527.78 542.1 534.55 527.79 539.83 512.89 544.54 497.94 547.67 483.54 549.11 469.72 550.1 456.69 549.59 444.45 547.73 432.75 545.98 421.49 543.39 410.53 540.25 399.74 538.07 388.95 535.96 378.15 534.14 367.35 533.91 357.04 534.13 347.37 534.67 337.78 536.44 329.01 538.03 321.26 539.17 310.54 541.03 295.01 538.66 289.6 533.65 285.61 529.37 281.73 523.59 277.64 516.49 272.07 509.01 265.82 500.36 258.93 490.79 250.78 481.03 242.61 470.51 235.14 459.45 228.21 448.35 223.41 436.81 221.51 424.99 221.82 413.17 225.29 401.64 231.34 390.46 238.49 379.24 246.89 368.29 255.75 357.67 263.77 346.92 271.37 336.37 278.32 326.09 283.79 315.59 288.83 305.28 293.7 295.25 297.68 285.02 302.12 275.12 307.29 265.72 312.28 256.32 318.35 247.61 325.5 239.88 332.75 232.52 341.09 226.42 350.35 221.9 359.67 218.16 369.81 216.25 380.67 216.38" stroke-dasharray="6 2" transform="rotate(44.44, 400, 400)"></path><path d="M386.58 226.97C396.86 227.99 407.65 230.81 418.87 235.19 430.22 240.15 442.17 246.41 454.65 253.68 467.37 261.16 480.63 269.41 494.11 278.21 507.45 286.91 520.43 296.02 532.3 305.4 542.84 314.55 551.14 323.96 556.38 333.57 559.15 342.96 558.41 352.62 554.23 362.51 548.6 372.28 541.19 382.38 533.32 392.78 527.6 403.14 524.04 413.87 523.55 424.9 527.41 435.93 533.79 446.73 541.41 457.18 550.16 467.58 557.31 477.54 561.72 486.84 563.91 495.98 562.23 504.31 556.96 511.62 549.21 518.58 538.78 524.36 526.6 528.78 513.48 532.76 499.79 535.32 486.18 536.42 472.75 537.22 459.8 536.74 447.52 535.1 435.6 533.64 424.19 531.46 413.29 528.79 402.53 526.98 392.05 525.18 381.88 523.55 371.7 523.29 362.27 523.33 353.66 523.6 345.08 524.95 337.4 526.11 330.74 526.88 321.34 528.3 307.14 526.14 301.5 521.83 297.11 518.21 292.66 513.25 287.88 507.06 281.76 500.58 275.06 492.99 267.89 484.48 259.77 475.79 251.82 466.32 244.68 456.25 238.18 446.12 233.71 435.48 231.93 424.46 232.15 413.44 235.3 402.56 240.87 391.93 247.55 381.26 255.56 370.78 264.18 360.54 272.28 350.2 280.16 340.01 287.57 330.06 293.71 319.95 299.42 310.03 304.85 300.4 309.33 290.66 314.02 281.27 319.17 272.4 323.96 263.6 329.56 255.5 336.09 248.35 342.55 241.58 350.03 236.02 358.47 231.92 366.9 228.53 376.28 226.81 386.58 226.97" stroke-dasharray="9 10" transform="rotate(48.48, 400, 400)"></path><path d="M394.51 237.57C404.25 238.5 414.58 241.08 425.4 245.09 436.3 249.62 447.75 255.37 459.59 262.08 471.49 269.02 483.63 276.73 495.64 284.98 507.25 293.21 518.12 301.87 527.61 310.81 535.75 319.6 541.65 328.66 544.76 337.89 545.89 346.97 544.1 356.28 539.61 365.77 534.28 375.16 527.72 384.8 520.98 394.64 516.28 404.45 513.44 414.52 513.14 424.76 516.52 434.99 522 444.92 528.58 454.4 536.37 463.84 543.03 472.76 547.61 481 550.62 489.09 550.45 496.37 547.17 502.66 541.77 508.69 533.77 513.61 523.87 517.3 512.86 520.68 500.89 522.81 488.6 523.67 476.16 524.36 463.88 523.96 452.05 522.58 440.4 521.41 429.21 519.63 418.58 517.39 408.06 515.93 397.96 514.41 388.36 512.96 378.77 512.67 370.06 512.57 362.26 512.59 354.44 513.56 347.54 514.34 341.57 514.76 332.94 515.73 319 513.55 312.78 509.77 307.89 506.67 302.81 502.38 297.39 496.99 290.82 491.38 283.79 484.73 276.49 477.18 268.53 469.49 260.89 461.01 254.17 451.88 248.13 442.7 244 432.95 242.34 422.74 242.49 412.53 245.31 402.36 250.37 392.33 256.53 382.28 264.05 372.32 272.32 362.54 280.33 352.69 288.33 342.96 296.04 333.44 302.74 323.82 309.06 314.38 315.07 305.26 320.17 296.08 325.32 287.27 330.71 279 335.62 270.85 341.12 263.39 347.35 256.85 353.4 250.68 360.34 245.64 368.2 241.95 376 238.9 384.77 237.38 394.51 237.57" stroke-dasharray="8 8" transform="rotate(52.52, 400, 400)"></path><path d="M403.28 248.16C412.47 249.02 422.2 251.35 432.34 254.98 442.52 259.09 453.1 264.32 463.86 270.46 474.53 276.83 485.16 283.95 495.35 291.61 504.99 299.29 513.66 307.43 520.82 315.85 526.74 324.19 530.58 332.8 531.98 341.57 531.89 350.25 529.46 359.12 524.98 368.12 520.13 377.05 514.47 386.17 508.83 395.4 505.07 404.62 502.86 413.99 502.72 423.42 505.66 432.85 510.31 441.9 515.91 450.44 522.72 458.95 528.77 466.89 533.27 474.14 537.23 484.43 529.8 500.31 519.27 505.52 510.49 508.41 500.52 510.22 489.91 510.94 478.94 511.59 467.82 511.31 456.89 510.19 445.98 509.32 435.39 507.9 425.29 506.07 415.25 504.91 405.66 503.64 396.62 502.36 387.58 502.06 379.46 501.84 372.24 501.66 361.75 502.5 344.59 503.34 337.47 502.51 332.49 501.81 327.77 500.18 323.13 497.59 317.71 494.89 312.06 491.15 306.1 486.43 299.22 481.55 292.04 475.72 284.77 469.04 277.09 462.26 269.86 454.69 263.6 446.46 258.06 438.19 254.29 429.32 252.76 419.93 252.83 410.55 255.32 401.11 259.86 391.73 265.46 382.34 272.42 372.98 280.21 363.75 287.96 354.48 295.9 345.3 303.72 336.3 310.8 327.26 317.6 318.41 324.12 309.87 329.85 301.33 335.52 293.17 341.28 285.56 346.54 278.09 352.19 271.29 358.37 265.37 364.32 259.81 370.99 255.28 378.45 252.01 385.83 249.29 394.1 247.96 403.28 248.16" stroke-dasharray="7 6" transform="rotate(56.56, 400, 400)"></path><path d="M411.55 258.75C420.14 259.53 429.12 261.63 438.35 264.89 447.58 268.57 457 273.28 466.37 278.84 475.56 284.62 484.45 291.11 492.66 298.14 500.31 305.23 506.86 312.76 511.91 320.59 515.93 328.39 518.1 336.46 518.23 344.68 517.34 352.85 514.65 361.2 510.43 369.64 506.2 378.04 501.47 386.56 496.88 395.14 493.97 403.7 492.32 412.34 492.31 420.96 494.84 429.57 498.72 437.75 503.41 445.39 509.24 453 514.58 460.03 518.8 466.38 523.29 475.38 520.08 489.07 512.6 493.52 506 496.03 498.1 497.61 489.36 498.26 480.15 498.92 470.54 498.78 460.85 497.94 451.07 497.34 441.42 496.27 432.1 494.81 422.8 493.92 413.86 492.89 405.4 491.77 396.93 491.46 389.31 491.14 382.48 490.79 372.49 491.19 355.52 491.15 348.01 490.1 342.7 489.32 337.5 487.76 332.3 485.39 326.41 482.98 320.31 479.68 314 475.52 306.98 471.25 299.82 466.13 292.74 460.23 285.46 454.24 278.74 447.52 273 440.14 267.97 432.74 264.57 424.72 263.17 416.16 263.18 407.6 265.34 398.93 269.35 390.26 274.35 381.59 280.68 372.9 287.89 364.3 295.22 355.68 302.91 347.13 310.64 338.76 317.87 330.38 324.96 322.19 331.85 314.31 338.09 306.48 344.25 299.02 350.4 292.1 356.09 285.35 362.01 279.23 368.27 273.94 374.3 268.97 380.87 264.97 388.05 262.09 395.14 259.69 402.97 258.54 411.55 258.75" stroke-dasharray="5 6" transform="rotate(60.599999999999994, 400, 400)"></path><path d="M418.06 269.34C425.98 270.04 434.09 271.91 442.25 274.81 450.38 278.07 458.46 282.26 466.28 287.23 473.88 292.41 480.98 298.25 487.29 304.6 493.08 311.05 497.75 317.92 501.03 325.09 503.54 332.27 504.48 339.72 503.8 347.32 502.48 354.89 499.82 362.63 496.07 370.43 492.55 378.21 488.74 386.08 485.12 393.95 482.96 401.82 481.8 409.7 481.9 417.49 484.05 425.28 487.25 432.61 491.08 439.4 495.97 446.16 500.54 452.35 504.33 457.89 508.84 471.65 496.23 484.35 486.4 485.71 479.07 486.4 471.13 486.43 462.9 485.85 454.51 485.51 446.04 484.75 437.7 483.62 429.34 482.98 421.18 482.15 413.35 481.18 405.51 480.87 398.33 480.47 391.8 479.99 382.16 480.01 365 479.2 357.02 477.92 351.37 477.04 345.76 475.51 340.11 473.3 333.91 471.09 327.56 468.13 321.08 464.43 314.14 460.67 307.19 456.16 300.46 450.94 293.7 445.66 287.55 439.71 282.38 433.13 277.88 426.53 274.85 419.34 273.59 411.61 273.53 403.88 275.37 396 278.86 388.09 283.25 380.17 288.89 372.21 295.42 364.32 302.19 356.43 309.43 348.59 316.86 340.92 324.02 333.28 331.16 325.82 338.18 318.67 344.74 311.59 351.23 304.88 357.67 298.69 363.73 292.66 369.91 287.23 376.28 282.57 382.44 278.2 388.96 274.69 395.89 272.19 402.75 270.11 410.14 269.12 418.06 269.34" stroke-dasharray="11 10" transform="rotate(64.64, 400, 400)"></path><path d="M421.82 279.93C429.01 280.55 436.16 282.19 443.16 284.74 450.12 287.59 456.82 291.27 463.09 295.64 469.15 300.22 474.6 305.4 479.2 311.05 483.39 316.81 486.54 322.98 488.48 329.44 489.89 335.93 490.05 342.68 488.94 349.58 487.53 356.48 485.13 363.53 482 370.62 479.22 377.72 476.29 384.87 473.56 391.99 472.05 399.11 471.3 406.2 471.48 413.17 473.29 420.14 475.87 426.64 478.92 432.63 484.81 441.3 494.28 455.65 496.26 461.17 496.06 465.94 488.01 471.97 480.77 473.31 475.21 474.06 468.96 474.25 462.24 473.92 455.35 473.82 448.19 473.33 440.95 472.5 433.68 472.06 426.41 471.42 419.26 470.59 412.11 470.28 405.41 469.84 399.14 469.26 392.81 469.14 386.84 468.78 381.17 468.16 375.34 467.85 369.67 467.15 364.13 466.01 358.28 465.02 352.4 463.49 346.5 461.39 340.2 459.33 333.82 456.64 327.43 453.32 320.76 449.98 314.2 445.98 307.96 441.37 301.82 436.72 296.32 431.47 291.74 425.64 287.79 419.79 285.12 413.4 284.01 406.5 283.89 399.6 285.42 392.53 288.4 385.4 292.16 378.29 297.07 371.11 302.86 363.99 308.95 356.88 315.59 349.82 322.51 342.92 329.34 336.07 336.27 329.39 343.18 323.02 349.8 316.74 356.39 310.8 362.93 305.35 369.19 300.06 375.5 295.32 381.88 291.27 388.09 287.48 394.51 284.46 401.15 282.32 407.73 280.54 414.63 279.71 421.82 279.93" stroke-dasharray="4 5" transform="rotate(68.68, 400, 400)"></path><path d="M422.25 290.53C435.05 291.92 446.84 296.73 456.72 304.11 465.97 312.19 472.27 322.35 474.68 333.7 475.88 345.25 473.44 357.72 468.3 370.38 464.79 383.07 461.87 395.92 461.06 408.22 465.26 420.52 470.8 431.02 475.77 439.39 482.23 450.67 472.8 461.77 458.47 462.18 447.45 462.58 435.04 461.81 422.24 460 409.44 459.83 397.45 458.83 386.3 457.02 374.65 456.23 363.04 453.87 351.51 449.79 339.04 445.93 326.6 439.89 315.32 431.75 304.72 423.56 297.16 413.24 294.42 401.07 294.94 388.9 300.75 376.12 310.28 363.49 321.16 350.94 333.87 338.66 347 327.46 359.6 316.6 372.3 307.17 384.81 300.06 396.91 293.83 409.45 290.4 422.25 290.53" stroke-dasharray="4 5" transform="rotate(72.72, 400, 400)"></path><path d="M419.29 301.12C430.41 302.29 440.01 306.36 447.5 312.63 454.56 319.49 458.91 328.19 460.12 337.98 460.8 347.98 458.84 358.84 455.04 369.88 452.84 380.98 451.06 392.19 450.65 402.87 453.99 413.55 458.14 422.61 461.87 429.81 467.41 439.6 462.22 449.75 451.58 450.62 443.17 451.3 433.02 450.88 421.83 449.4 410.65 449.17 399.53 448.03 388.75 446.08 377.66 444.94 366.41 442.46 355.31 438.56 343.76 434.9 332.51 429.46 322.6 422.3 313.52 415.13 307.14 406.16 304.84 395.6 305.12 385.04 309.83 373.95 317.75 363.02 327 352.17 338.13 341.62 349.92 332.06 361.62 322.83 373.56 314.88 385.22 308.96 396.67 303.76 408.17 300.93 419.29 301.12" stroke-dasharray="9 2" transform="rotate(76.76, 400, 400)"></path><path d="M413.39 311.71C422.8 312.67 430.48 316.03 436.13 321.23 441.53 326.9 444.64 334.14 445.35 342.35 445.98 350.76 444.76 359.95 442.29 369.33 441.22 378.76 440.35 388.3 440.23 397.38 442.82 406.46 445.78 414.16 448.35 420.31 452.62 428.75 449.76 438.03 441.96 439.25 435.7 440.12 427.6 439.99 418.1 438.81 408.59 438.54 398.65 437.34 388.69 435.35 378.6 433.98 368.27 431.46 358.16 427.79 347.97 424.35 338.23 419.47 329.88 413.23 322.35 407 317.13 399.31 315.25 390.33 315.34 381.35 319.01 371.97 325.36 362.77 332.88 353.65 342.19 344.83 352.27 336.92 362.55 329.27 373.18 322.76 383.54 317.98 393.86 313.74 403.99 311.48 413.39 311.71" stroke-dasharray="6 0" transform="rotate(80.80000000000001, 400, 400)"></path><path d="M405.45 322.3C413.14 323.07 419.22 325.75 423.54 329.92 427.77 334.44 430.21 340.27 430.91 346.91 431.77 353.73 431.36 361.22 430.09 368.91 429.9 376.66 429.73 384.51 429.82 392.02 432.72 402.72 438.13 418.24 438.06 422.93 436.11 426.63 422.57 429.09 411.6 428.22 403.8 427.93 395.32 426.76 386.65 424.84 377.97 423.35 369.05 420.9 360.42 417.53 351.91 414.35 343.92 410.06 337.23 404.71 331.25 399.4 327.15 392.96 325.67 385.53 325.6 378.1 328.32 370.42 333.18 362.94 338.97 355.52 346.33 348.42 354.48 342.11 362.94 336 371.82 330.85 380.52 327.13 389.26 323.8 397.76 322.06 405.45 322.3" stroke-dasharray="4 2" transform="rotate(84.84, 400, 400)"></path><path d="M396.68 332.89C408.73 334.39 415.59 341.61 417.3 351.74 419.92 362.37 420.14 375.12 419.4 387.04 424.25 403.29 419.05 418.35 403.34 417.63 391.09 417.47 376.27 413.92 362.5 407.85 349.48 402.33 339.18 393.24 336.08 381.43 336.68 369.62 345.04 357.42 356.98 347.7 370.08 338.56 384.62 332.75 396.68 332.89" stroke-dasharray="5 6" transform="rotate(88.88, 400, 400)"></path><path d="M388.41 343.49C397.27 344.5 402.75 349.64 404.93 356.92 407.85 364.52 409.1 373.81 408.99 382.69 411.69 394.92 406.16 407.23 394.57 407.04 385.57 406.77 374.72 403.73 364.86 398.77 355.64 394.15 348.55 387.04 346.5 378.23 346.59 369.41 352.05 360.6 360.2 353.76 369.19 347.27 379.55 343.25 388.41 343.49" stroke-dasharray="8 3" transform="rotate(92.92, 400, 400)"></path><path d="M381.91 354.08C393.53 355.63 399.27 367.39 398.57 379.17 402.22 390.94 398.38 398.1 386.62 396.44 374.85 396.29 360.19 387.78 356.91 376.07 357.54 364.34 370.28 353.93 381.91 354.08" stroke-dasharray="4 8" transform="rotate(96.96, 400, 400)"></path></g></svg>