<svg xmlns="http://www.w3.org/2000/svg" xmlns:xlink="http://www.w3.org/1999/xlink" xmlns:svgjs="http://svgjs.dev/svgjs" viewBox="0 0 800 800"><g stroke-width="2" stroke="#ff1361" fill="none" stroke-linecap="round"><path d="M386.14 128.17C395.69 127.2 405.32 125.78 415.03 124.06 424.76 121.72 434.6 119.52 444.54 117.7 454.53 115.98 464.65 115.1 474.9 115.22 485.24 116.03 495.74 118.08 506.36 121.38 517.09 125.53 527.96 130.86 538.91 137.23 549.92 144.22 560.97 151.99 571.96 160.34 582.89 168.89 593.64 177.72 604.07 186.67 614.21 195.41 623.84 204.08 632.79 212.6 641.17 220.69 648.64 228.56 655.03 236.23 660.62 243.43 664.96 250.48 667.96 257.43 670.08 264 670.87 270.59 670.34 277.26 669.16 283.67 666.92 290.28 663.81 297.12 660.61 303.82 657 310.85 653.28 318.22 650.26 325.53 647.66 333.23 645.76 341.33 645.25 349.4 645.8 357.89 647.52 366.82 650.86 375.73 655.32 385.08 660.76 394.87 667.35 404.67 674.22 414.7 680.99 424.94 687.89 435.21 693.98 445.71 698.97 456.42 703.15 467.16 705.73 478.13 706.6 489.28 706.17 500.45 703.92 511.78 699.92 523.17 694.68 534.49 687.91 545.78 679.85 556.9 670.96 567.77 661.16 578.26 650.7 588.2 639.96 597.59 628.92 606.16 617.8 613.71 606.84 620.43 596.03 625.9 585.48 630 575.35 633.16 565.55 634.93 556.1 635.35 547.13 635.13 538.46 633.9 530.07 631.91 522.07 630.08 514.23 628.15 506.5 626.54 499.04 626.13 491.56 626.75 484 628.71 476.6 632.63 469.02 638.19 461.24 645.37 453.51 654.3 445.52 664.34 437.25 675.03 428.98 686.09 420.41 696.62 411.52 705.91 402.63 713.69 393.43 719.04 383.93 721.48 374.44 721.27 364.9 717.96 355.35 711.87 345.83 703.87 336.33 694.08 326.9 683.21 317.53 672.17 308.27 661.27 299.18 651.08 290.17 642.29 281.37 634.92 272.83 629.11 264.41 625.25 256.28 622.88 248.5 621.76 240.86 622.12 233.6 623.12 226.75 624.39 216.89 626.82 199.49 627.94 191.92 625.37 187.05 622.42 182.55 618.14 178.41 612.6 174.19 606.23 170.26 598.75 166.59 590.34 162.73 581.33 159.07 571.61 155.59 561.39 151.84 550.83 148.22 539.97 144.74 528.96 140.97 517.82 137.35 506.65 133.89 495.56 130.19 484.45 126.72 473.46 123.53 462.67 120.22 451.89 117.28 441.31 114.8 430.96 112.36 420.62 110.49 410.5 109.25 400.62 108.22 390.74 107.95 381.31 108.42 372.33 109.19 363.33 110.72 354.75 112.98 346.59 115.54 338.38 118.79 330.55 122.67 323.08 126.76 315.51 131.4 308.25 136.53 301.26 141.72 294.09 147.31 287.09 153.21 280.23 159.04 273.07 165.11 265.93 171.36 258.75 177.42 251.18 183.62 243.47 189.93 235.6 195.99 227.29 202.15 218.79 208.41 210.13 214.41 201.13 220.54 192.07 226.8 183.04 232.84 173.96 239.06 165.15 245.48 156.78 251.74 148.75 258.24 141.46 264.98 135.08 271.63 129.42 278.57 124.87 285.79 121.56 292.96 119.06 300.44 117.77 308.23 117.62 315.98 117.99 324.05 119.19 332.42 121.04 340.78 122.76 349.44 124.64 358.39 126.46 367.34 127.49 376.59 128.09 386.13 128.18" stroke-dasharray="10 4" transform="rotate(0, 400, 400)"></path><path d="M390.73 139.58C400.02 138.64 409.41 137.27 418.91 135.62 428.42 133.34 438.07 131.18 447.82 129.33 457.62 127.52 467.55 126.47 477.6 126.32 487.72 126.76 497.97 128.36 508.32 131.13 518.73 134.69 529.21 139.41 539.73 145.17 550.24 151.57 560.7 158.8 571.03 166.69 581.23 174.86 591.16 183.42 600.7 192.2 609.9 200.91 618.52 209.63 626.42 218.29 633.76 226.63 640.18 234.81 645.55 242.82 650.18 250.42 653.65 257.87 655.89 265.2 657.38 272.16 657.68 279.09 656.83 286.04 655.49 292.71 653.26 299.5 650.3 306.46 647.38 313.25 644.17 320.29 640.92 327.61 638.39 334.84 636.29 342.41 634.84 350.34 634.69 358.22 635.5 366.5 637.35 375.19 640.67 383.85 644.98 392.94 650.15 402.47 656.37 412 662.83 421.75 669.19 431.71 675.71 441.69 681.52 451.87 686.34 462.23 690.48 472.61 693.2 483.15 694.36 493.79 694.4 504.42 692.75 515.09 689.49 525.72 685.08 536.22 679.21 546.55 672.07 556.59 664.11 566.3 655.19 575.52 645.55 584.08 635.54 592.09 625.12 599.21 614.5 605.3 603.92 610.64 593.36 614.8 582.95 617.71 572.83 619.87 562.95 620.86 553.35 620.73 544.14 620.23 535.2 619 526.52 617.28 518.19 615.94 510.04 614.72 502.03 613.98 494.28 614.49 486.56 616.06 478.84 618.93 471.28 623.59 463.62 629.72 455.83 637.24 448.12 646.24 440.21 656.13 432.1 666.46 424.01 677 415.68 686.92 407.11 695.59 398.53 702.83 389.71 707.8 380.66 710.07 371.6 709.92 362.54 706.9 353.52 701.31 344.51 693.91 335.56 684.79 326.71 674.54 317.91 664.01 309.24 653.45 300.76 643.38 292.35 634.44 284.16 626.67 276.24 620.26 268.42 615.58 260.9 612.29 253.72 610.22 246.66 609.59 239.95 609.72 233.64 610.29 224.53 612.06 208.39 613.54 201.34 611.97 196.75 609.99 192.49 606.84 188.55 602.55 184.5 597.55 180.7 591.47 177.12 584.45 173.35 576.84 169.74 568.47 166.29 559.49 162.57 550.13 158.96 540.36 155.48 530.31 151.72 520.07 148.09 509.7 144.62 499.29 140.93 488.82 137.46 478.38 134.25 468.06 130.95 457.73 128 447.54 125.5 437.53 123.05 427.54 121.14 417.72 119.85 408.11 118.78 398.5 118.44 389.31 118.82 380.54 119.51 371.74 120.94 363.32 123.08 355.27 125.52 347.17 128.64 339.39 132.38 331.91 136.34 324.31 140.85 316.95 145.84 309.78 150.93 302.43 156.4 295.18 162.2 287.99 167.96 280.51 173.97 273.01 180.17 265.43 186.21 257.5 192.4 249.43 198.7 241.22 204.78 232.65 210.96 223.94 217.23 215.15 223.26 206.14 229.4 197.16 235.65 188.32 241.69 179.55 247.88 171.14 254.23 163.27 260.43 155.81 266.82 149.14 273.44 143.41 279.94 138.4 286.69 134.48 293.71 131.73 300.66 129.73 307.89 128.84 315.41 128.99 322.89 129.57 330.67 130.89 338.75 132.76 346.8 134.46 355.16 136.28 363.83 138.01 372.48 138.97 381.44 139.52 390.72 139.59" stroke-dasharray="8 9" transform="rotate(4.04, 400, 400)"></path><path d="M395.85 150.99C404.88 150.08 414.02 148.77 423.28 147.18 432.55 144.98 441.95 142.86 451.46 141.01 461.01 139.14 470.68 137.94 480.44 137.55 490.25 137.66 500.16 138.83 510.12 141.09 520.1 144.09 530.1 148.2 540.05 153.32 549.96 159.1 559.75 165.73 569.32 173.07 578.72 180.78 587.78 188.95 596.37 197.45 604.61 205.98 612.24 214.63 619.11 223.3 625.45 231.76 630.89 240.14 635.33 248.39 639.11 256.31 641.81 264.1 643.4 271.77 644.37 279.11 644.3 286.39 643.24 293.64 641.83 300.62 639.67 307.66 636.94 314.8 634.33 321.77 631.53 328.91 628.75 336.27 626.68 343.52 625.04 351.05 624.02 358.89 624.19 366.66 625.23 374.79 627.2 383.27 630.48 391.74 634.64 400.59 639.55 409.84 645.41 419.09 651.46 428.53 657.43 438.13 663.57 447.74 669.08 457.51 673.72 467.4 677.8 477.28 680.6 487.24 682.01 497.23 682.44 507.15 681.34 517.02 678.75 526.74 675.11 536.27 670.09 545.54 663.84 554.39 656.79 562.89 648.77 570.81 639.97 578.02 630.75 584.68 621.03 590.47 611.01 595.25 600.93 599.39 590.75 602.46 580.61 604.43 570.65 605.86 560.84 606.32 551.23 605.92 541.93 605.38 532.84 604.35 523.98 603.08 515.43 602.35 507.05 601.92 498.82 602.07 490.84 603.49 482.93 605.95 475.06 609.63 467.35 614.92 459.61 621.51 451.8 629.27 444.08 638.26 436.23 647.93 428.25 657.85 420.3 667.84 412.18 677.15 403.89 685.23 395.6 691.95 387.13 696.55 378.48 698.66 369.84 698.57 361.23 695.83 352.7 690.7 344.19 683.89 335.76 675.42 327.47 665.81 319.21 655.82 311.11 645.65 303.22 635.78 295.39 626.79 287.78 618.75 280.45 611.85 273.2 606.48 266.25 602.35 259.63 599.38 250 597.42 232.64 597.7 224.93 598.41 217.62 598.85 204.62 595.45 198.8 591.04 194.88 587.2 191.18 582.36 187.68 576.61 183.96 570.33 180.38 563.25 176.94 555.51 173.23 547.4 169.63 538.78 166.15 529.78 162.39 520.56 158.75 511.09 155.28 501.48 151.6 491.78 148.13 482.02 144.92 472.28 141.63 462.52 138.69 452.82 136.17 443.22 133.71 433.63 131.79 424.16 130.46 414.85 129.35 405.53 128.94 396.58 129.24 387.97 129.84 379.35 131.16 371.05 133.18 363.05 135.49 354.99 138.47 347.19 142.06 339.63 145.87 331.94 150.23 324.42 155.06 317.03 160.01 309.45 165.36 301.93 171.04 294.41 176.7 286.63 182.62 278.8 188.75 270.88 194.75 262.66 200.91 254.32 207.19 245.88 213.28 237.17 219.47 228.4 225.74 219.62 231.8 210.73 237.96 201.97 244.22 193.46 250.27 185.11 256.46 177.21 262.78 169.91 268.94 163.09 275.27 157.09 281.8 152.02 288.2 147.66 294.83 144.34 301.69 142.13 308.46 140.6 315.51 140.07 322.81 140.48 330.07 141.25 337.61 142.65 345.44 144.52 353.23 146.18 361.33 147.92 369.73 149.56 378.12 150.45 386.82 150.95 395.84 150.99" stroke-dasharray="6 5" transform="rotate(8.08, 400, 400)"></path><path d="M401.21 162.4C409.97 161.52 418.85 160.27 427.83 158.75 436.83 156.65 445.94 154.59 455.15 152.74 464.38 150.84 473.71 149.52 483.1 148.92 492.52 148.74 501.99 149.52 511.46 151.3 520.92 153.75 530.34 157.25 539.65 161.73 548.87 166.86 557.91 172.86 566.67 179.59 575.22 186.74 583.37 194.44 591.02 202.53 598.31 210.76 604.96 219.2 610.86 227.75 616.27 236.19 620.81 244.63 624.41 253 627.45 261.13 629.5 269.17 630.57 277.1 631.13 284.76 630.79 292.34 629.62 299.87 628.2 307.16 626.19 314.46 623.72 321.81 621.45 328.99 619.06 336.28 616.74 343.73 615.13 351.06 613.93 358.61 613.3 366.4 613.77 374.13 615 382.14 617.05 390.44 620.29 398.73 624.29 407.35 628.94 416.29 634.45 425.24 640.12 434.32 645.7 443.5 651.47 452.68 656.68 461.95 661.11 471.25 665.09 480.54 667.94 489.82 669.55 499.02 670.31 508.14 669.69 517.1 667.7 525.81 664.77 534.32 660.54 542.46 655.15 550.1 648.98 557.41 641.85 564.08 633.91 570.01 625.52 575.47 616.56 580.07 607.22 583.74 597.73 586.9 588.05 589.13 578.3 590.43 568.64 591.38 559.04 591.57 549.56 591.14 540.3 590.76 531.2 590.12 522.29 589.43 513.62 589.41 505.11 589.8 496.75 590.85 488.61 593.12 480.56 596.4 472.6 600.78 464.77 606.61 456.97 613.53 449.15 621.43 441.43 630.33 433.64 639.71 425.78 649.19 417.95 658.63 410.02 667.34 401.98 674.83 393.95 681.05 385.8 685.29 377.53 687.25 369.27 687.2 361.09 684.73 353.03 680.05 344.97 673.81 337.04 665.97 329.27 657 321.53 647.58 313.97 637.85 306.63 628.25 299.33 619.32 292.28 611.12 285.5 603.86 278.77 597.91 272.34 593.05 266.23 589.26 257.31 585.94 241.2 583.9 234.01 583.91 227.13 584.12 214.75 581.66 209.13 578.32 205.32 575.4 201.68 571.6 198.22 566.94 194.54 561.84 190.97 555.97 187.53 549.4 183.83 542.49 180.22 535.01 176.72 527.08 172.97 518.92 169.33 510.43 165.86 501.7 162.19 492.85 158.73 483.85 155.53 474.77 152.26 465.66 149.33 456.52 146.81 447.4 144.36 438.28 142.42 429.21 141.06 420.21 139.92 411.21 139.46 402.49 139.68 394.06 140.19 385.6 141.4 377.39 143.28 369.42 145.45 361.38 148.28 353.54 151.7 345.86 155.35 338.07 159.53 330.38 164.2 322.76 168.99 314.97 174.18 307.19 179.71 299.39 185.26 291.37 191.07 283.28 197.1 275.11 203.04 266.71 209.15 258.23 215.39 249.7 221.46 241 227.65 232.3 233.92 223.68 240 215.06 246.17 206.65 252.44 198.58 258.52 190.76 264.71 183.45 271.02 176.8 277.16 170.65 283.47 165.33 289.93 160.94 296.27 157.22 302.81 154.49 309.55 152.78 316.21 151.67 323.1 151.47 330.23 152.11 337.31 153.01 344.65 154.47 352.26 156.32 359.84 157.93 367.7 159.58 375.86 161.12 384 161.93 392.44 162.38 401.2 162.4" stroke-dasharray="9 9" transform="rotate(12.12, 400, 400)"></path><path d="M406.5 173.81C414.98 172.97 423.57 171.78 432.24 170.34 440.93 168.32 449.7 166.34 458.55 164.52 467.41 162.61 476.33 161.2 485.28 160.42 494.23 159.98 503.18 160.41 512.08 161.74 520.95 163.68 529.72 166.59 538.32 170.45 546.8 174.92 555.05 180.24 562.95 186.32 570.64 192.86 577.89 199.98 584.61 207.57 590.98 215.37 596.72 223.47 601.72 231.76 606.27 240.05 610.02 248.4 612.9 256.75 615.29 264.96 616.82 273.12 617.47 281.2 617.73 289.08 617.23 296.88 616.02 304.63 614.68 312.18 612.86 319.71 610.68 327.25 608.77 334.63 606.79 342.08 604.93 349.62 603.74 357.05 602.95 364.64 602.68 372.39 603.4 380.09 604.81 388 606.93 396.13 610.1 404.25 613.94 412.62 618.33 421.24 623.5 429.86 628.8 438.53 634 447.23 639.4 455.93 644.31 464.62 648.53 473.28 652.39 481.89 655.25 490.42 657.01 498.77 658.04 507.03 657.82 515.03 656.37 522.71 654.08 530.18 650.59 537.21 646 543.71 640.67 549.88 634.41 555.42 627.34 560.23 619.78 564.64 611.63 568.26 603.02 571.06 594.2 573.48 585.11 575.12 575.87 576.01 566.64 576.73 557.37 576.89 548.15 576.64 539.07 576.6 530.09 576.48 521.24 576.48 512.58 577.21 504.06 578.43 495.67 580.33 487.46 583.39 479.36 587.39 471.35 592.37 463.47 598.61 455.64 605.77 447.85 613.7 440.14 622.43 432.42 631.47 424.68 640.48 416.97 649.35 409.22 657.46 401.42 664.38 393.63 670.12 385.77 674.03 377.86 675.84 369.95 675.84 362.17 673.61 354.54 669.36 346.91 663.66 339.44 656.45 332.16 648.11 324.89 639.27 317.83 630.03 311 620.76 304.19 611.98 297.63 603.73 291.35 596.23 285.1 589.83 279.13 584.37 273.47 579.85 265.17 575.27 250.14 570.82 243.39 569.95 236.86 569.65 224.97 567.4 219.49 564.75 213.95 560.99 203.26 549.19 198.03 541.25 194.32 535.44 190.7 529.03 187.19 522.13 183.44 515.01 179.82 507.49 176.35 499.65 172.7 491.69 169.26 483.49 166.08 475.13 162.84 466.71 159.93 458.18 157.43 449.59 154.99 440.99 153.05 432.35 151.67 423.7 150.5 415.05 149.98 406.59 150.12 398.33 150.54 390.05 151.64 381.94 153.38 373.99 155.42 365.99 158.07 358.11 161.31 350.33 164.79 342.45 168.79 334.62 173.26 326.81 177.87 318.87 182.89 310.9 188.25 302.9 193.65 294.73 199.32 286.5 205.23 278.22 211.08 269.78 217.1 261.3 223.27 252.82 229.31 244.27 235.46 235.8 241.71 227.49 247.8 219.27 253.97 211.34 260.24 203.82 266.33 196.61 272.53 189.96 278.83 184 284.98 178.56 291.26 173.93 297.68 170.21 303.98 167.09 310.46 164.91 317.11 163.67 323.67 162.94 330.45 163.02 337.44 163.85 344.37 164.86 351.54 166.34 358.96 168.15 366.34 169.69 373.99 171.24 381.91 172.67 389.81 173.41 398 173.81 406.49 173.81" stroke-dasharray="10 3" transform="rotate(16.16, 400, 400)"></path><path d="M411.41 185.22C419.6 184.41 427.87 183.29 436.2 181.93 444.54 180.02 452.93 178.11 461.36 176.35 469.8 174.45 478.25 172.98 486.69 172.06 495.11 171.4 503.49 171.51 511.77 172.45 519.98 173.9 528.05 176.26 535.9 179.5 543.62 183.31 551.05 187.96 558.11 193.36 564.94 199.23 571.32 205.71 577.15 212.71 582.66 219.99 587.55 227.62 591.74 235.52 595.53 243.5 598.58 251.62 600.85 259.82 602.72 267.95 603.83 276.08 604.17 284.18 604.24 292.15 603.65 300.07 602.49 307.94 601.28 315.65 599.69 323.33 597.84 331 596.29 338.54 594.73 346.1 593.29 353.7 592.51 361.22 592.09 368.82 592.14 376.52 593.09 384.18 594.64 391.98 596.81 399.92 599.92 407.85 603.59 415.95 607.73 424.21 612.57 432.48 617.5 440.71 622.34 448.89 627.38 457.06 631.97 465.14 635.97 473.1 639.69 481.01 642.52 488.74 644.38 496.23 645.62 503.61 645.76 510.68 644.78 517.36 643.06 523.84 640.24 529.84 636.38 535.3 631.86 540.48 626.43 545.03 620.2 548.91 613.49 552.48 606.16 555.35 598.33 557.52 590.24 559.45 581.82 560.75 573.17 561.48 564.46 562.19 555.64 562.53 546.8 562.63 538.02 563.07 529.29 563.57 520.63 564.3 512.11 565.79 503.68 567.82 495.37 570.51 487.2 574.28 479.12 578.89 471.15 584.36 463.29 590.89 455.49 598.18 447.76 606.05 440.11 614.55 432.48 623.2 424.87 631.71 417.31 640 409.74 647.52 402.16 653.9 394.61 659.17 387.03 662.76 379.45 664.43 371.87 664.47 364.45 662.48 357.22 658.63 349.99 653.45 342.94 646.84 336.1 639.13 329.27 630.89 322.66 622.16 316.28 613.29 309.92 604.74 303.8 596.55 297.95 588.92 292.12 582.2 286.56 576.26 281.29 571.14 273.53 565.42 259.4 558.6 252.99 556.73 246.75 555.7 235.22 553.02 229.83 550.69 224.34 547.61 213.66 537.92 208.41 531.28 204.7 526.41 201.07 520.96 197.55 514.99 193.82 508.84 190.2 502.23 186.74 495.26 183.13 488.17 179.72 480.77 176.57 473.12 173.37 465.43 170.5 457.54 168.02 449.49 165.61 441.44 163.67 433.26 162.28 424.99 161.08 416.72 160.52 408.55 160.58 400.49 160.91 392.42 161.89 384.44 163.5 376.55 165.38 368.62 167.87 360.74 170.92 352.91 174.2 345 177.99 337.1 182.26 329.2 186.67 321.19 191.49 313.14 196.65 305.07 201.88 296.87 207.39 288.64 213.14 280.38 218.86 272.04 224.77 263.72 230.84 255.46 236.81 247.22 242.91 239.12 249.11 231.25 255.17 223.54 261.33 216.2 267.57 209.31 273.66 202.78 279.85 196.84 286.14 191.59 292.29 186.86 298.55 182.92 304.94 179.83 311.21 177.3 317.63 175.63 324.2 174.8 330.69 174.41 337.36 174.73 344.23 175.7 351.03 176.78 358.05 178.26 365.28 180.01 372.49 181.47 379.93 182.91 387.61 184.23 395.28 184.9 403.21 185.24 411.4 185.22" stroke-dasharray="1 2" transform="rotate(20.200000000000003, 400, 400)"></path><path d="M415.68 196.63C423.56 195.86 431.48 194.8 439.43 193.53 447.38 191.72 455.36 189.91 463.33 188.21 471.29 186.35 479.23 184.85 487.11 183.82 494.97 182.98 502.72 182.83 510.33 183.4 517.87 184.41 525.22 186.25 532.3 188.91 539.25 192.09 545.87 196.06 552.1 200.77 558.12 205.94 563.67 211.74 568.68 218.08 573.4 224.74 577.53 231.81 581.01 239.21 584.15 246.75 586.62 254.5 588.39 262.39 589.85 270.29 590.64 278.25 590.78 286.23 590.74 294.13 590.15 302.03 589.09 309.89 588.06 317.65 586.74 325.38 585.23 333.08 584.04 340.68 582.88 348.28 581.85 355.89 581.44 363.42 581.36 370.99 581.7 378.61 582.85 386.18 584.51 393.83 586.7 401.55 589.73 409.27 593.23 417.07 597.12 424.94 601.64 432.82 606.22 440.59 610.7 448.22 615.39 455.84 619.68 463.3 623.45 470.55 627 477.76 629.77 484.72 631.69 491.37 633.31 501.01 630.62 518.02 626.33 525.13 622.55 529.49 617.91 533.26 612.49 536.42 606.61 539.38 600.1 541.74 593.06 543.52 585.74 545.19 578.04 546.38 570.05 547.16 561.95 548.06 553.68 548.73 545.32 549.32 536.96 550.33 528.58 551.5 520.23 552.98 511.96 555.21 503.75 557.99 495.62 561.39 487.59 565.77 479.64 570.87 471.79 576.7 464.02 583.42 456.33 590.72 448.72 598.46 441.17 606.65 433.67 614.88 426.23 622.86 418.82 630.58 411.45 637.52 404.11 643.37 396.78 648.2 389.48 651.49 382.21 653.02 374.93 653.09 367.86 651.32 360.99 647.85 354.12 643.17 347.46 637.14 341.02 630.05 334.58 622.42 328.36 614.23 322.39 605.81 316.41 597.57 310.69 589.53 305.22 581.89 299.75 574.97 294.53 568.68 289.59 563.08 282.27 556.39 268.87 547.33 262.74 544.42 256.7 542.5 245.42 538.88 240.09 536.55 234.62 533.79 223.93 525.51 218.65 519.87 214.94 515.76 211.31 511.09 207.79 505.92 204.07 500.61 200.48 494.83 197.04 488.64 193.48 482.36 190.11 475.71 187 468.77 183.85 461.77 181.03 454.51 178.58 447.03 176.21 439.53 174.29 431.83 172.88 423.97 171.67 416.1 171.06 408.25 171.05 400.44 171.3 392.62 172.17 384.82 173.63 377.04 175.35 369.24 177.66 361.44 180.51 353.65 183.59 345.8 187.17 337.93 191.21 330.04 195.4 322.08 200 314.08 204.94 306.06 209.96 297.99 215.28 289.9 220.84 281.83 226.41 273.75 232.17 265.73 238.1 257.84 243.97 250.04 249.97 242.44 256.08 235.13 262.09 228.05 268.2 221.36 274.39 215.18 280.46 209.36 286.62 204.16 292.87 199.64 299 195.6 305.23 192.32 311.57 189.84 317.81 187.85 324.17 186.63 330.67 186.17 337.09 186.06 343.66 186.58 350.4 187.65 357.08 188.77 363.95 190.22 371.01 191.89 378.03 193.25 385.26 194.58 392.71 195.79 400.14 196.37 407.79 196.67 415.67 196.63" stroke-dasharray="8 3" transform="rotate(24.24, 400, 400)"></path><path d="M419.06 208.04C426.6 207.31 434.15 206.32 441.69 205.13 449.22 203.44 456.74 201.73 464.22 200.11 471.68 198.3 479.07 196.8 486.36 195.7 493.62 194.73 500.73 194.34 507.66 194.61 514.51 195.23 521.13 196.6 527.47 198.71 533.66 201.28 539.51 204.61 544.96 208.63 550.21 213.09 555 218.18 559.27 223.82 563.29 229.8 566.76 236.22 569.62 243.02 572.22 250.01 574.22 257.26 575.6 264.71 576.75 272.23 577.33 279.87 577.36 287.58 577.28 295.27 576.76 303 575.86 310.71 575.05 318.37 574.02 326.02 572.85 333.64 572.02 341.2 571.23 348.73 570.59 356.25 570.52 363.72 570.75 371.18 571.34 378.64 572.65 386.08 574.41 393.52 576.6 400.98 579.54 408.43 582.86 415.9 586.52 423.36 590.72 430.83 594.96 438.12 599.1 445.2 603.44 452.27 607.43 459.11 610.96 465.68 614.32 472.21 617.01 478.45 618.95 484.33 620.8 492.83 619.26 507.54 615.85 513.59 610.8 518.9 596.26 526.77 587.17 529.43 580.63 531.06 573.67 532.34 566.4 533.35 558.97 534.58 551.31 535.71 543.51 536.87 535.67 538.5 527.75 540.35 519.81 542.56 511.9 545.48 504 548.92 496.16 552.94 488.37 557.8 480.65 563.28 473 569.36 465.42 576.15 457.91 583.38 450.47 590.9 443.09 598.73 435.78 606.49 428.53 613.95 421.32 621.09 414.16 627.46 407.06 632.81 399.98 637.21 392.95 640.21 385.97 641.61 379 641.71 372.25 640.15 365.72 637.04 359.18 632.82 352.86 627.36 346.78 620.88 340.68 613.85 334.82 606.23 329.19 598.3 323.56 590.43 318.16 582.63 313.01 575.09 307.85 568.1 302.92 561.59 298.25 555.63 291.3 548.15 278.46 537.08 272.53 533.12 266.65 530.25 255.53 525.32 250.21 522.71 244.75 519.95 234.03 512.43 228.73 507.47 223.21 501.87 212.43 488.14 207.25 480.09 203.74 474.51 200.43 468.55 197.37 462.25 194.29 455.9 191.52 449.25 189.11 442.31 186.79 435.37 184.89 428.16 183.49 420.72 182.27 413.29 181.62 405.8 181.55 398.28 181.71 390.76 182.46 383.2 183.78 375.62 185.35 368.02 187.47 360.39 190.11 352.73 192.98 345.05 196.33 337.32 200.13 329.57 204.08 321.8 208.44 313.99 213.14 306.19 217.93 298.37 223.02 290.58 228.37 282.85 233.74 275.17 239.32 267.61 245.08 260.22 250.8 252.98 256.67 245.99 262.65 239.34 268.56 232.94 274.58 226.98 280.69 221.54 286.7 216.47 292.8 211.99 298.98 208.19 305.07 204.82 311.24 202.16 317.51 200.24 323.7 198.73 329.99 197.91 336.39 197.77 342.73 197.89 349.2 198.55 355.8 199.69 362.35 200.82 369.06 202.22 375.93 203.79 382.77 205.04 389.78 206.26 396.97 207.35 404.14 207.85 411.5 208.1 419.05 208.04" stroke-dasharray="8 6" transform="rotate(28.28, 400, 400)"></path><path d="M421.35 219.45C428.53 218.76 435.68 217.83 442.78 216.73 449.88 215.16 456.92 213.57 463.87 212.04 470.81 210.3 477.64 208.82 484.33 207.68 490.98 206.61 497.45 206.05 503.7 206.05 512.84 206.81 529.45 212.27 536.75 216.98 541.3 220.75 545.41 225.12 549.03 230.04 552.45 235.3 555.36 241.02 557.72 247.14 559.88 253.49 561.51 260.14 562.61 267.03 563.55 274.05 564 281.24 564 288.53 563.96 295.87 563.56 303.27 562.86 310.69 562.29 318.12 561.55 325.54 560.73 332.95 560.24 340.33 559.81 347.69 559.52 355.01 559.75 362.3 560.25 369.57 561.06 376.8 562.51 384.02 564.33 391.2 566.51 398.34 569.34 405.48 572.49 412.58 575.91 419.62 579.81 426.65 583.72 433.45 587.54 440 591.54 446.53 595.23 452.79 598.51 458.74 602.97 467.45 608.19 482.99 608.64 489.71 607.61 495.87 600.87 505.82 595.33 509.64 588.53 513.01 571.74 518.19 562.1 520.33 555.38 521.99 548.4 523.65 541.22 525.42 533.97 527.67 526.59 530.19 519.15 533.06 511.69 536.59 504.21 540.6 496.74 545.11 489.3 550.34 481.88 556.08 474.53 562.28 467.21 569.04 459.95 576.11 452.77 583.34 445.62 590.76 438.54 598.04 431.54 604.94 424.56 611.52 417.64 617.34 410.81 622.2 403.98 626.2 397.22 628.92 390.54 630.2 383.86 630.33 377.41 628.96 371.19 626.18 364.96 622.41 358.95 617.49 353.18 611.6 347.4 605.17 341.84 598.13 336.51 590.72 331.17 583.28 326.06 575.8 321.17 568.45 316.26 561.51 311.57 554.9 307.11 548.72 302.6 543.18 298.3 538.12 294.2 533.54 288.05 527.86 276.48 519.11 271.01 515.59 265.46 512.65 254.68 506.54 249.41 503 243.94 499.18 233.14 489.57 227.85 483.69 224.21 479.57 220.7 475.03 217.35 470.09 213.91 465.09 210.67 459.71 207.68 453.98 204.68 448.21 201.97 442.11 199.62 435.7 197.35 429.27 195.49 422.55 194.1 415.56 192.87 408.57 192.19 401.47 192.05 394.3 192.14 387.13 192.77 379.88 193.95 372.58 195.36 365.28 197.29 357.91 199.73 350.51 202.37 343.1 205.48 335.64 209.02 328.17 212.73 320.71 216.82 313.24 221.25 305.79 225.79 298.38 230.63 291.03 235.73 283.78 240.87 276.63 246.23 269.64 251.78 262.87 257.31 256.28 263 249.98 268.82 244.05 274.59 238.39 280.48 233.19 286.45 228.5 292.36 224.16 298.36 220.4 304.44 217.28 310.44 214.54 316.53 212.45 322.69 211.02 328.79 209.94 334.99 209.46 341.27 209.58 347.5 209.88 353.84 210.64 360.29 211.8 366.69 212.91 373.23 214.24 379.88 215.7 386.52 216.83 393.29 217.93 400.2 218.9 407.1 219.33 414.15 219.52 421.33 219.45" stroke-dasharray="0 8" transform="rotate(32.32, 400, 400)"></path><path d="M422.42 230.86C429.22 230.21 435.95 229.35 442.6 228.34 449.24 226.89 455.78 225.42 462.21 223.99 468.61 222.35 474.87 220.91 480.96 219.77 489.93 218.29 506.61 218.03 514.17 219.51 521.23 222.08 533.26 230.81 538.09 236.85 542.23 243.87 547.93 260.4 549.51 269.64 550.33 276.04 550.74 282.65 550.77 289.42 550.82 296.26 550.58 303.21 550.1 310.22 549.79 317.26 549.35 324.33 548.86 331.39 548.7 338.46 548.6 345.52 548.63 352.54 549.13 359.55 549.87 366.53 550.86 373.44 552.41 380.36 554.27 387.21 556.43 393.99 559.15 400.76 562.12 407.46 565.3 414.05 568.91 420.64 572.51 426.96 576 433 579.67 439.02 583.07 444.75 586.1 450.15 590.29 458.04 595.49 472 596.22 478 593.08 488.08 580.14 499.68 573.32 502.58 568.32 504.59 562.88 506.48 557.07 508.31 551.08 510.46 544.8 512.67 538.29 515.05 531.68 517.89 524.91 521.01 518.02 524.47 511.1 528.52 504.11 532.97 497.09 537.86 490.08 543.33 483.06 549.2 476.07 555.41 469.11 562.05 462.17 568.88 455.3 575.76 448.45 582.74 441.66 589.5 434.94 595.85 428.24 601.87 421.61 607.16 415.05 611.55 408.51 615.17 402.03 617.63 395.65 618.79 389.26 618.94 383.1 617.74 377.17 615.28 371.23 611.94 365.51 607.53 360.02 602.21 354.51 596.37 349.22 589.93 344.16 583.06 339.07 576.1 334.19 569.01 329.52 561.94 324.82 555.14 320.32 548.56 316.03 542.29 311.68 536.52 307.51 531.13 303.53 526.14 297.52 519.68 286.13 509.17 280.69 504.82 275.16 501.11 264.38 493.95 259.09 490.16 253.63 486.28 242.9 477.08 237.66 471.63 232.36 465.78 222.42 452.2 217.93 444.5 215.02 439.22 212.39 433.61 210.11 427.68 207.9 421.74 206.08 415.5 204.7 408.95 203.48 402.41 202.78 395.74 202.58 388.97 202.58 382.2 203.11 375.33 204.14 368.39 205.4 361.46 207.14 354.46 209.36 347.42 211.78 340.4 214.65 333.34 217.92 326.28 221.36 319.25 225.17 312.24 229.32 305.28 233.58 298.4 238.14 291.6 242.96 284.96 247.84 278.43 252.95 272.1 258.24 266.03 263.55 260.16 269.02 254.6 274.63 249.43 280.21 244.53 285.92 240.08 291.72 236.13 297.48 232.5 303.33 229.42 309.25 226.93 315.13 224.76 321.08 223.18 327.11 222.19 333.08 221.46 339.14 221.27 345.27 221.58 351.36 222.01 357.53 222.83 363.79 223.98 370.02 225.04 376.35 226.27 382.77 227.61 389.18 228.63 395.69 229.59 402.3 230.45 408.9 230.8 415.61 230.95 422.41 230.86" stroke-dasharray="0 5" transform="rotate(36.36, 400, 400)"></path><path d="M422.22 242.27C428.62 241.66 434.91 240.87 441.09 239.95 447.26 238.63 453.31 237.28 459.2 235.96 470.93 232.73 481.94 230.47 491.99 229.63 501.77 229.4 510.37 231.3 517.55 235.35 524.26 240.62 529.41 247.98 532.88 257.06 535.96 267.1 537.53 278.42 537.75 290.57 538.18 303.17 537.89 316.23 537.27 329.41 537.88 342.73 538.94 356.02 540.73 369.05 542.36 375.58 544.24 382.04 546.36 388.4 548.95 394.77 551.75 401.04 554.7 407.18 558.02 413.32 561.31 419.18 564.5 424.75 567.86 430.31 570.96 435.56 573.75 440.5 579.15 450.32 582.55 458.82 583.67 465.96 583.59 473.04 580.93 478.86 575.89 483.57 569.59 488.64 561.23 493.14 551.27 497.49 540.56 503.1 528.75 509.39 516.26 516.76 503.54 526.13 490.47 536.86 477.36 548.71 464.27 561.79 451.24 574.82 438.44 586.67 432.07 592.13 425.75 596.92 419.5 600.86 413.26 604.12 407.09 606.33 401 607.38 394.91 607.55 389.04 606.51 383.38 604.35 377.72 601.4 372.27 597.47 367.04 592.71 356.51 581.79 346.78 568.98 337.85 555.48 328.77 542.64 320.37 530.51 312.65 519.55 304.62 510.42 297.1 502.45 290.07 495.37 282.55 489.68 275.36 484.14 268.52 478.34 261.1 473.07 253.99 466.94 247.32 459.75 240.23 452.59 233.75 444.16 228.13 434.45 225.31 429.58 222.78 424.4 220.56 418.91 218.43 413.41 216.66 407.61 215.31 401.52 214.1 395.43 213.37 389.2 213.12 382.87 213.06 376.54 213.48 370.11 214.37 363.62 216.77 350.66 221 337.49 226.83 324.36 233.31 311.43 241.16 298.75 250.1 286.69 259.33 275.18 269.42 264.67 280.11 255.61 290.8 247.55 301.97 241.29 313.45 237.14 324.8 234.06 336.47 232.97 348.36 233.75 360.14 234.79 372.23 236.87 384.54 239.52 390.69 240.41 396.91 241.25 403.19 241.99 409.46 242.27 415.81 242.37 422.21 242.27" stroke-dasharray="7 0" transform="rotate(40.400000000000006, 400, 400)"></path><path d="M420.75 253.68C432.71 252.08 444.14 250.06 454.91 247.94 465.6 244.94 475.51 242.74 484.43 241.73 493.12 241.1 500.66 242.31 506.88 245.4 512.75 249.49 517.21 255.51 520.22 263.17 523.01 271.71 524.55 281.57 525 292.34 525.77 303.6 525.98 315.44 525.95 327.51 527.08 339.78 528.58 352.1 530.67 364.21 534.45 376.37 539 388.26 544.09 399.65 550.46 411.03 556.4 421.32 561.44 430.45 566.44 439.53 569.71 447.45 571 454.21 571.35 461.02 569.43 466.86 565.38 471.9 560.26 477.42 553.22 482.66 544.64 487.96 535.35 494.47 524.9 501.69 513.69 509.86 502.2 519.67 490.25 530.53 478.13 542.12 465.97 554.52 453.77 566.61 441.73 577.39 429.71 586.82 417.86 593.32 406.29 595.97 394.73 595.56 383.95 591.02 373.97 583.1 363.92 573.32 354.59 561.62 345.98 549.03 337.2 536.75 329.03 524.8 321.44 513.66 313.56 503.96 306.11 495.21 299.1 487.29 291.64 480.63 284.49 474.27 277.67 467.89 270.36 462.1 263.37 455.76 256.83 448.63 249.95 441.65 243.68 433.64 238.26 424.55 232.9 415.45 228.68 405.23 225.91 393.94 223.7 382.65 223.3 370.88 224.63 358.87 226.71 346.93 230.49 334.86 235.78 322.92 241.68 311.23 248.9 299.91 257.18 289.3 265.79 279.25 275.25 270.26 285.33 262.7 295.48 256.02 306.12 251.02 317.08 247.91 327.99 245.63 339.2 245.06 350.6 246.08 361.93 247.14 373.5 249.06 385.21 251.43 396.9 252.61 408.79 253.43 420.74 253.68" stroke-dasharray="7 0" transform="rotate(44.44, 400, 400)"></path><path d="M418.1 265.09C429.19 263.62 439.69 261.82 449.46 259.93 459.17 257.18 468.05 255.1 475.96 253.99 483.69 253.08 490.32 253.73 495.75 256.01 500.94 259.07 504.89 263.86 507.61 270.18 510.25 277.27 511.85 285.66 512.58 295 513.7 304.84 514.4 315.34 514.92 326.18 516.48 337.24 518.36 348.45 520.68 359.54 524.44 370.69 528.77 381.64 533.49 392.14 539.29 402.65 544.65 412.18 549.2 420.69 553.78 429.2 556.86 436.73 558.25 443.33 558.91 450.07 557.6 456.1 554.41 461.61 550.32 467.66 544.48 473.63 537.18 479.8 529.23 487.07 520.13 494.99 510.21 503.7 499.98 513.7 489.2 524.45 478.14 535.58 467 547.19 455.72 558.28 444.5 568 433.28 576.44 422.15 582.21 411.23 584.56 400.31 584.27 390.08 580.35 380.56 573.37 370.98 564.69 362.02 554.12 353.69 542.53 345.2 530.98 337.23 519.43 329.77 508.38 322.04 498.39 314.68 489.13 307.71 480.59 300.35 473.12 293.27 466.02 286.52 459.05 279.36 452.69 272.54 446.01 266.17 438.83 259.55 431.84 253.53 424.08 248.34 415.47 243.23 406.87 239.2 397.35 236.52 386.92 234.34 376.5 233.84 365.71 234.93 354.78 236.69 343.92 240.03 333.05 244.78 322.42 250.09 312.05 256.66 302.14 264.25 293.03 272.18 284.43 280.95 276.9 290.35 270.74 299.87 265.32 309.9 261.42 320.25 259.19 330.6 257.56 341.25 257.38 352.05 258.51 362.84 259.54 373.81 261.25 384.84 263.32 395.88 264.26 407.01 264.91 418.1 265.09" stroke-dasharray="7 10" transform="rotate(48.48, 400, 400)"></path><path d="M414.42 276.5C424.64 275.16 434.21 273.57 443.04 271.93 451.81 269.45 459.77 267.53 466.79 266.41 476.61 265.45 490.81 271.22 495.17 278.17 497.75 283.91 499.5 290.88 500.54 298.82 502.01 307.21 503.15 316.32 504.16 325.87 506.09 335.64 508.26 345.65 510.75 355.66 514.45 365.74 518.55 375.71 522.88 385.37 528.13 395.02 532.94 403.87 537.01 411.9 541.16 419.94 544.03 427.23 545.44 433.83 546.31 440.61 545.48 446.92 543 452.94 539.81 459.49 535.03 466.11 528.9 472.99 522.21 480.8 514.38 489.19 505.71 498.17 496.75 508.11 487.16 518.52 477.19 529.04 467.13 539.77 456.83 549.83 446.48 558.51 436.13 566 425.77 571.08 415.53 573.16 405.29 572.98 395.63 569.6 386.57 563.52 377.45 555.9 368.86 546.47 360.81 535.94 352.62 525.24 344.87 514.29 337.55 503.57 329.98 493.58 322.75 484.08 315.85 475.16 308.64 467.11 301.69 459.43 295.06 451.97 288.12 445.07 281.51 438.04 275.36 430.74 269.04 423.65 263.31 416.04 258.37 407.81 253.53 399.61 249.7 390.71 247.13 381.12 245 371.53 244.4 361.73 245.28 351.91 246.73 342.17 249.64 332.54 253.85 323.25 258.58 314.21 264.48 305.72 271.35 298.05 278.56 290.84 286.6 284.67 295.25 279.77 304.07 275.44 313.39 272.48 323.04 270.94 332.74 269.81 342.72 269.88 352.85 271.03 362.99 271.96 373.27 273.44 383.57 275.19 393.88 275.91 404.21 276.39 414.42 276.5" stroke-dasharray="11 8" transform="rotate(52.52, 400, 400)"></path><path d="M409.93 287.91C419.25 286.7 427.94 285.31 435.89 283.91 443.8 281.73 450.92 280 457.17 278.94 465.97 277.76 478.86 281.71 483.04 287.14 485.64 291.67 487.57 297.35 488.93 303.96 490.73 310.95 492.26 318.7 493.68 326.95 495.9 335.41 498.28 344.21 500.88 353.13 504.47 362.11 508.32 371.1 512.27 379.94 517 388.78 521.28 397.03 524.88 404.65 528.61 412.31 531.23 419.44 532.6 426.1 533.6 432.96 533.13 439.56 531.24 446.03 528.79 452.98 524.94 460.09 519.85 467.47 514.29 475.58 507.66 484.16 500.18 493.14 492.43 502.8 484.02 512.68 475.16 522.45 466.19 532.23 456.9 541.25 447.47 548.91 438.02 555.49 428.47 559.93 418.94 561.75 409.42 561.66 400.34 558.8 391.76 553.55 383.14 546.94 374.94 538.63 367.19 529.19 359.32 519.45 351.81 509.28 344.66 499.09 337.32 489.37 330.25 479.92 323.5 470.89 316.48 462.52 309.73 454.47 303.29 446.68 296.61 439.37 290.27 432.06 284.4 424.65 278.41 417.46 273 409.94 268.34 402.05 263.8 394.2 260.19 385.86 257.73 377.06 255.67 368.26 255 359.43 255.66 350.72 256.84 342.08 259.33 333.67 263.01 325.71 267.15 317.95 272.38 310.8 278.52 304.48 285 298.52 292.26 293.54 300.12 289.73 308.16 286.33 316.7 284.11 325.58 283.1 334.54 282.31 343.77 282.52 353.14 283.6 362.55 284.38 372.07 285.59 381.57 287.04 391.1 287.53 400.6 287.86 409.93 287.91" stroke-dasharray="3 7" transform="rotate(56.56, 400, 400)"></path><path d="M404.86 299.32C413.31 298.23 421.14 297.05 428.28 295.88 438.58 293.25 455.31 290.32 461.65 290.92 467.21 292.91 475.05 302.84 477.78 310.51 479.85 316.23 481.71 322.69 483.47 329.72 485.9 336.91 488.42 344.52 491.05 352.37 494.5 360.27 498.08 368.32 501.67 376.38 505.89 384.43 509.66 392.11 512.82 399.37 516.12 406.68 518.47 413.68 519.76 420.39 520.8 427.29 520.59 434.1 519.17 440.89 517.32 448.08 514.25 455.47 510.07 463.09 505.51 471.26 499.96 479.77 493.6 488.5 486.99 497.66 479.71 506.85 471.93 515.76 464.05 524.54 455.78 532.51 447.28 539.2 438.76 544.92 430.05 548.77 421.28 550.34 412.5 550.33 404.05 547.93 395.99 543.45 387.89 537.8 380.12 530.58 372.71 522.25 365.2 513.54 357.98 504.27 351.07 494.81 344 485.59 337.17 476.46 330.63 467.59 323.89 459.18 317.39 451.01 311.21 443.09 304.86 435.56 298.85 428.1 293.3 420.67 287.68 413.43 282.61 406.05 278.26 398.48 274.04 390.97 270.67 383.17 268.34 375.13 266.36 367.09 265.63 359.18 266.1 351.54 267.01 343.94 269.1 336.69 272.27 329.96 275.84 323.38 280.42 317.44 285.83 312.31 291.55 307.45 298.01 303.49 305.04 300.56 312.27 297.89 319.98 296.23 328.02 295.59 336.16 295.01 344.57 295.25 353.12 296.19 361.72 296.77 370.41 297.71 379.08 298.85 387.77 299.14 396.41 299.32 404.86 299.32" stroke-dasharray="9 5" transform="rotate(60.599999999999994, 400, 400)"></path><path d="M399.52 310.73C407.1 309.77 414.12 308.77 420.51 307.83 429.75 305.63 444.88 303.04 450.75 303.38 456.04 304.71 464.02 312.33 467.1 318.49 469.4 323.08 471.52 328.4 473.51 334.3 476.08 340.32 478.67 346.83 481.28 353.67 484.54 360.55 487.84 367.7 491.07 375.01 494.81 382.31 498.1 389.44 500.84 396.35 503.72 403.29 505.78 410.11 506.95 416.79 507.96 423.64 507.93 430.52 506.86 437.43 505.49 444.66 503.06 452.08 499.66 459.68 495.97 467.66 491.38 475.84 486.02 484.09 480.46 492.58 474.24 500.95 467.5 508.92 460.66 516.67 453.4 523.62 445.83 529.38 438.24 534.29 430.4 537.58 422.4 538.93 414.4 538.99 406.62 537.01 399.11 533.24 391.58 528.48 384.29 522.3 377.28 515.08 370.19 507.43 363.33 499.16 356.73 490.58 350 482.06 343.49 473.48 337.24 465.02 330.84 456.86 324.68 448.84 318.83 441.03 312.86 433.5 307.23 426.07 302.05 418.76 296.85 411.6 292.16 404.42 288.14 397.22 284.24 390.07 281.13 382.82 278.94 375.5 277.06 368.19 276.3 361.15 276.59 354.49 277.26 347.86 278.98 341.67 281.65 336.02 284.68 330.49 288.61 325.61 293.3 321.48 298.26 317.52 303.92 314.38 310.11 312.12 316.49 310.01 323.33 308.74 330.5 308.3 337.77 307.82 345.31 308 352.98 308.74 360.71 309.11 368.54 309.78 376.34 310.62 384.16 310.73 391.93 310.78 399.52 310.73" stroke-dasharray="9 4" transform="rotate(64.64, 400, 400)"></path><path d="M394.2 322.14C404.06 320.89 421.15 317.98 428.3 316.88 440.16 316.45 453.56 322.89 456.91 327.8 460.51 333.62 467.72 348.45 471.54 357.11 474.59 363.05 477.59 369.35 480.46 375.94 483.74 382.53 486.58 389.1 488.91 395.6 491.39 402.15 493.16 408.69 494.18 415.22 495.12 421.88 495.18 428.63 494.37 435.46 493.36 442.5 491.45 449.71 488.7 457.01 485.74 464.56 481.98 472.2 477.51 479.78 472.89 487.45 467.64 494.9 461.88 501.89 456.03 508.61 449.73 514.56 443.09 519.43 436.42 523.6 429.45 526.38 422.25 527.52 415.05 527.63 407.97 526.03 401.08 522.91 394.17 518.97 387.42 513.78 380.87 507.63 374.28 501.06 367.85 493.85 361.63 486.25 355.33 478.6 349.22 470.77 343.33 462.94 337.36 455.27 331.61 447.65 326.16 440.19 320.64 432.91 315.45 425.73 310.68 418.7 305.92 411.79 301.64 404.93 297.97 398.17 294.42 391.45 291.57 384.75 289.55 378.14 287.39 368.42 288.27 351.14 291.18 343.8 295.34 337.15 307.64 327.31 315.42 324.28 320.94 322.55 326.9 321.51 333.17 321.15 339.55 320.68 346.18 320.73 352.95 321.24 359.78 321.39 366.71 321.78 373.63 322.35 380.57 322.29 387.46 322.22 394.2 322.14" stroke-dasharray="4 3" transform="rotate(68.68, 400, 400)"></path><path d="M389.22 333.55C401.06 331.51 411.23 330.03 419.52 329.51 427.86 328 434.56 328.64 439.68 331.65 445.4 334.83 450.24 340.67 454.35 348.77 459.86 357.07 465.18 367.33 469.85 379.11 475.78 390.87 479.79 403.11 481.5 415.45 483.07 428.14 481.62 441.43 477.31 454.84 472.43 468.75 464.84 482.47 455.16 494.62 445.23 505.69 433.59 513.44 420.83 516.11 408.07 515.6 395.47 509.67 383.49 499.88 371.4 488.56 359.73 475.1 348.95 461.07 337.96 447.22 327.81 433.36 319.19 420.15 310.67 407.25 304.03 394.64 300.16 382.81 297.11 370.97 297.5 360.92 300.85 353.02 305.14 345.23 312.14 339.75 321.06 336.81 330.55 333.79 341.56 332.83 353.24 333.63 365.12 333.11 377.38 333.16 389.22 333.55" stroke-dasharray="3 9" transform="rotate(72.72, 400, 400)"></path><path d="M384.85 344.96C395.09 343.27 404.05 342.24 411.53 342.08 419.09 341.01 425.41 341.67 430.49 344.24 436.07 346.75 440.94 351.49 445.1 358.25 450.31 365.09 455.17 373.82 459.25 384.2 464.27 394.58 467.56 405.7 468.9 417.09 470.24 428.69 469.11 440.83 465.6 452.9 461.74 465.12 455.56 476.92 447.48 487.08 439.22 496.25 429.32 502.56 418.23 504.7 407.13 504.43 395.96 499.74 385.2 491.79 374.39 482.53 363.87 471.21 354.14 459.12 344.31 446.95 335.25 434.53 327.6 422.63 320.08 410.89 314.22 399.52 310.76 389.06 307.95 378.61 308.06 369.96 310.7 363.32 314.05 356.68 319.73 352.06 327.11 349.52 334.94 346.73 344.16 345.6 354.05 345.88 364.11 345.02 374.6 344.75 384.85 344.96" stroke-dasharray="1 10" transform="rotate(76.76, 400, 400)"></path><path d="M381.34 356.37C390.04 355.01 397.83 354.36 404.51 354.53 414.2 354.31 429.68 361.1 436.07 368.73 440.84 374.39 445.16 381.78 448.64 390.77 452.8 399.75 455.44 409.55 456.43 419.66 457.49 429.88 456.56 440.51 453.7 450.9 450.65 461.24 445.66 471.02 439.03 479.24 432.27 486.61 424.02 491.62 414.59 493.29 405.15 493.21 395.5 489.61 386.1 483.35 376.69 476.04 367.49 466.87 358.95 456.83 350.4 446.58 342.54 435.94 335.91 425.61 329.45 415.34 324.4 405.4 321.37 396.33 318.83 387.27 318.73 379.87 320.71 374.23 323.23 368.53 327.7 364.51 333.63 362.16 339.91 359.5 347.41 358.15 355.57 357.95 363.86 356.83 372.63 356.31 381.34 356.37" stroke-dasharray="6 7" transform="rotate(80.80000000000001, 400, 400)"></path><path d="M378.89 367.78C386.1 366.72 392.71 366.4 398.55 366.83 407.09 367.12 421.32 373.32 427.21 379.74 431.43 384.44 435.15 390.61 438.04 398.18 441.39 405.76 443.42 414.06 444.1 422.63 444.87 431.23 444.06 440.07 441.74 448.58 439.32 456.94 435.35 464.69 430.01 471.07 424.6 476.79 417.89 480.63 410.12 481.88 402.34 481.93 394.27 479.28 386.36 474.54 378.45 469.02 370.68 461.91 363.47 453.95 356.29 445.75 349.7 437.06 344.16 428.5 338.77 419.93 334.55 411.58 331.97 403.94 329.63 393.18 334.4 378.56 340.69 374.51 345.53 371.95 351.43 370.4 357.95 369.81 364.57 368.53 371.68 367.83 378.89 367.78" stroke-dasharray="5 3" transform="rotate(84.84, 400, 400)"></path><path d="M377.64 379.19C389.14 376.99 399.4 378 407.26 382.16 415.86 385.56 423.16 393.51 427.43 405.77 432.85 418.02 433.56 432.5 429.83 445.69 426 458.28 417.36 467.96 405.07 470.47 392.77 469.99 379.39 461.94 367.78 450.27 356.35 437.77 346.97 423.54 342.58 411.19 339.12 398.83 341.67 390.48 348.33 386.34 355.59 381.25 366.14 378.77 377.64 379.19" stroke-dasharray="2 2" transform="rotate(88.88, 400, 400)"></path><path d="M377.67 390.6C386.29 389.16 394.41 390.44 400.89 394.08 407.77 397.2 413.58 403.53 416.82 412.82 420.7 422.1 421.01 432.7 418.1 442.02 415.2 450.87 408.84 457.47 399.73 459.06 390.62 458.98 380.65 453.66 371.98 445.62 363.48 437 356.5 426.74 353.19 417.39 350.41 408.04 351.98 401.28 356.59 397.44 361.51 393 369.04 390.53 377.67 390.6" stroke-dasharray="6 5" transform="rotate(92.92, 400, 400)"></path><path d="M378.96 402.01C390.5 399.73 402.15 406.18 406.22 418.68 411.38 431.17 406.4 445.21 394.41 447.65 382.41 447.18 368.44 434.54 363.79 421.99 360.13 409.43 367.42 401.58 378.96 402.01" stroke-dasharray="6 6" transform="rotate(96.96, 400, 400)"></path></g></svg>