<svg xmlns="http://www.w3.org/2000/svg" xmlns:xlink="http://www.w3.org/1999/xlink" xmlns:svgjs="http://svgjs.dev/svgjs" viewBox="0 0 800 800"><g stroke-width="2" stroke="#ff1361" fill="none" stroke-linecap="round"><path d="M389.4 110.13C399.02 107.97 408.77 106.47 418.63 105.66 428.52 105.09 438.56 105.27 448.73 106.2 458.95 107.43 469.35 109.43 479.89 112.16 490.51 115.21 501.31 118.98 512.23 123.41 523.23 128.11 534.33 133.43 545.48 139.3 556.61 145.37 567.69 151.93 578.6 158.91 589.32 166 599.69 173.45 609.56 181.21 618.97 189 627.64 197.04 635.38 205.3 642.39 213.51 648.26 221.91 652.86 230.46 656.55 238.93 658.89 247.55 659.85 256.28 660.03 264.92 659 273.69 656.91 282.57 654.53 291.36 651.55 300.29 648.23 309.34 645.45 318.33 642.95 327.46 641.05 336.73 640.5 345.96 641.04 355.36 642.84 364.91 646.39 374.44 651.26 384.15 657.34 394.04 664.78 403.91 672.93 413.97 681.36 424.21 690.04 434.44 697.89 444.6 704.51 454.66 710.11 464.72 713.81 474.67 715.43 484.46 715.39 494.24 713.15 503.83 708.82 513.2 702.98 522.52 695.41 531.56 686.44 540.28 676.62 548.9 665.98 557.14 654.85 564.94 643.69 572.58 632.55 579.72 621.67 586.31 611.36 592.69 601.58 598.48 592.41 603.62 584.05 608.52 576.31 612.77 569.15 616.34 562.74 619.7 556.75 622.41 551.06 624.5 543.36 627.21 528.39 630.3 520.54 631.12 515.3 631.91 509.64 632.64 503.52 633.39 497.39 634.72 490.75 636.26 483.59 638.06 476.39 640.62 468.67 643.54 460.45 646.85 452.19 650.94 443.46 655.38 434.28 660.11 425.08 665.45 415.46 670.91 405.46 676.32 395.46 681.99 385.34 687.19 375.14 691.79 364.96 696.19 354.73 699.71 344.49 702.25 334.29 704.27 324.11 705.14 313.99 704.86 303.93 703.88 293.97 701.71 284.15 698.39 274.44 694.4 264.92 689.34 255.64 683.32 246.53 676.76 237.72 669.39 229.28 661.33 221.05 652.93 213.24 644 205.91 634.66 198.83 625.18 192.25 615.43 186.23 605.49 180.45 595.58 175.22 585.56 170.55 575.53 166.05 565.6 162.06 555.68 158.55 545.8 155.1 536.07 152.04 526.39 149.35 516.76 146.55 507.27 144 497.81 141.68 488.39 139.1 479.07 136.66 469.75 134.36 460.42 131.71 451.17 129.18 441.87 126.79 432.55 124.08 423.25 121.56 413.89 119.28 404.48 116.84 395.08 114.76 385.62 113.12 376.1 111.54 366.58 110.58 357.23 110.29 348.08 110.24 338.93 110.94 329.98 112.41 321.26 114.21 312.55 116.79 304.09 120.1 295.9 123.74 287.73 128.06 279.86 132.99 272.3 138.13 264.78 143.78 257.58 149.86 250.75 155.98 243.95 162.42 237.51 169.11 231.44 175.68 225.4 182.41 219.72 189.26 214.42 195.87 209.1 202.56 204.13 209.31 199.51 215.79 194.81 222.34 190.42 228.96 186.32 235.33 182.09 241.82 178.09 248.45 174.33 254.87 170.35 261.49 166.55 268.32 162.91 275.02 159.01 281.97 155.23 289.19 151.58 296.34 147.64 303.78 143.82 311.53 140.14 319.23 136.18 327.25 132.39 335.6 128.81 343.91 125.04 352.56 121.55 361.53 118.39 370.48 115.18 379.77 112.4 389.39 110.13" stroke-dasharray="10 8" transform="rotate(0, 400, 400)"></path><path d="M394.76 121.02C404.14 118.87 413.66 117.37 423.3 116.53 432.97 115.9 442.79 115.99 452.75 116.79 462.75 117.88 472.91 119.7 483.19 122.22 493.52 125.04 503.98 128.55 514.51 132.7 525.07 137.12 535.65 142.14 546.19 147.69 556.65 153.45 566.97 159.69 577.01 166.36 586.81 173.15 596.16 180.31 604.94 187.79 613.23 195.31 620.75 203.1 627.32 211.11 633.21 219.11 638 227.3 641.59 235.65 644.41 243.94 646 252.38 646.39 260.95 646.17 269.44 644.94 278.05 642.85 286.78 640.63 295.43 637.98 304.21 635.13 313.09 632.9 321.92 631 330.87 629.72 339.95 629.72 348.99 630.74 358.17 632.89 367.48 636.63 376.77 641.54 386.21 647.5 395.79 654.68 405.36 662.44 415.08 670.43 424.92 678.65 434.77 686.1 444.52 692.42 454.13 697.86 463.74 701.57 473.2 703.4 482.48 703.75 491.74 702.07 500.79 698.46 509.58 693.42 518.32 686.73 526.77 678.65 534.88 669.7 542.89 659.85 550.51 649.4 557.68 638.79 564.72 628.03 571.26 617.37 577.28 607.11 583.1 597.21 588.37 587.78 593.03 579.03 597.5 570.8 601.36 563.09 604.61 556.07 607.71 549.46 610.23 543.17 612.2 534.63 614.85 518.42 618.23 510.25 619.37 504.88 620.4 499.2 621.4 493.17 622.44 487.16 624.02 480.74 625.8 473.88 627.82 466.99 630.52 459.65 633.56 451.85 636.92 444.03 640.98 435.76 645.34 427.07 649.93 418.36 655.07 409.25 660.28 399.76 665.43 390.28 670.82 380.66 675.76 370.97 680.12 361.3 684.33 351.57 687.72 341.84 690.21 332.16 692.24 322.5 693.23 312.91 693.14 303.39 692.43 293.98 690.62 284.73 687.74 275.6 684.24 266.68 679.73 258.02 674.31 249.52 668.37 241.34 661.63 233.54 654.21 225.94 646.44 218.75 638.12 212.04 629.37 205.55 620.45 199.55 611.21 194.08 601.75 188.81 592.25 184.05 582.63 179.8 572.93 175.69 563.3 172.03 553.64 168.82 544 165.61 534.46 162.75 524.95 160.22 515.48 157.54 506.12 155.08 496.8 152.82 487.51 150.28 478.31 147.86 469.13 145.56 459.96 142.92 450.86 140.38 441.74 137.95 432.62 135.23 423.53 132.68 414.41 130.36 405.27 127.89 396.14 125.75 386.98 124.05 377.8 122.4 368.62 121.35 359.65 120.95 350.88 120.79 342.12 121.36 333.57 122.66 325.27 124.3 316.98 126.7 308.94 129.82 301.18 133.26 293.43 137.38 285.97 142.11 278.83 147.07 271.71 152.54 264.9 158.46 258.44 164.45 252 170.77 245.89 177.37 240.14 183.88 234.39 190.58 228.97 197.4 223.91 204.04 218.8 210.76 214.01 217.56 209.54 224.1 204.98 230.71 200.69 237.39 196.67 243.82 192.5 250.36 188.54 257 184.79 263.44 180.83 270.04 177.03 276.82 173.39 283.44 169.48 290.29 165.7 297.38 162.04 304.37 158.11 311.63 154.29 319.17 150.62 326.65 146.7 334.43 142.95 342.53 139.41 350.58 135.7 358.96 132.26 367.67 129.15 376.35 126 385.38 123.26 394.75 121.02" stroke-dasharray="9 6" transform="rotate(4.04, 400, 400)"></path><path d="M400.47 131.91C409.59 129.79 418.86 128.28 428.25 127.4 437.66 126.73 447.22 126.73 456.89 127.41 466.59 128.36 476.41 130 486.32 132.32 496.26 134.91 506.26 138.17 516.28 142.04 526.27 146.17 536.22 150.88 546.04 156.11 555.73 161.55 565.18 167.47 574.29 173.81 583.11 180.28 591.42 187.13 599.1 194.29 606.31 201.52 612.72 209.02 618.2 216.76 623.06 224.51 626.89 232.45 629.63 240.56 631.71 248.65 632.72 256.88 632.68 265.24 632.21 273.54 630.9 281.97 628.9 290.5 626.93 298.98 624.66 307.58 622.31 316.26 620.62 324.91 619.32 333.66 618.61 342.52 619.13 351.35 620.57 360.29 623.04 369.33 626.93 378.37 631.84 387.52 637.66 396.77 644.56 406.02 651.95 415.38 659.5 424.83 667.27 434.29 674.32 443.6 680.35 452.76 685.61 461.91 689.31 470.89 691.31 479.66 691.99 488.4 690.82 496.91 687.86 505.15 683.59 513.33 677.74 521.2 670.54 528.73 662.46 536.15 653.43 543.19 643.72 549.79 633.73 556.27 623.47 562.27 613.16 567.76 603.08 573.1 593.22 577.91 583.7 582.16 574.71 586.26 566.14 589.81 558.02 592.8 550.49 595.7 543.35 598.08 536.55 599.98 530.24 601.88 524.14 603.38 518.16 604.53 512.52 605.84 506.85 606.92 501.09 607.85 495.52 609.11 489.73 610.36 483.68 611.66 477.7 613.48 471.38 615.47 464.71 617.67 458.05 620.51 450.99 623.62 443.54 627.01 436.07 631.03 428.21 635.3 419.96 639.74 411.7 644.67 403.06 649.65 394.08 654.55 385.09 659.65 375.99 664.33 366.83 668.47 357.68 672.48 348.49 675.74 339.31 678.17 330.17 680.2 321.07 681.27 312.06 681.35 303.12 680.89 294.31 679.41 285.68 676.93 277.16 673.89 268.87 669.9 260.85 665.04 253 659.69 245.46 653.57 238.3 646.78 231.33 639.64 224.76 631.94 218.65 623.79 212.74 615.45 207.3 606.76 202.34 597.81 197.55 588.79 193.22 579.6 189.37 570.3 185.6 561.03 182.24 551.69 179.28 542.34 176.28 533.06 173.59 523.79 171.18 514.54 168.59 505.38 166.2 496.24 163.97 487.14 161.46 478.11 159.05 469.1 156.73 460.13 154.09 451.2 151.53 442.28 149.08 433.39 146.34 424.52 143.77 415.64 141.42 406.78 138.91 397.92 136.74 389.07 134.98 380.23 133.27 371.38 132.14 362.76 131.64 354.36 131.37 345.97 131.8 337.81 132.95 329.9 134.42 322 136.63 314.35 139.54 306.98 142.78 299.62 146.68 292.55 151.19 285.78 155.94 279.02 161.21 272.57 166.93 266.45 172.75 260.32 178.93 254.51 185.39 249.04 191.81 243.54 198.44 238.35 205.22 233.49 211.85 228.56 218.58 223.93 225.39 219.58 231.99 215.13 238.66 210.92 245.39 206.96 251.89 202.84 258.48 198.91 265.16 195.17 271.64 191.22 278.25 187.42 285.01 183.77 291.62 179.86 298.42 176.08 305.42 172.41 312.31 168.5 319.45 164.7 326.83 161.05 334.15 157.17 341.75 153.47 349.64 149.97 357.48 146.33 365.64 142.95 374.11 139.9 382.56 136.8 391.34 134.12 400.46 131.91" stroke-dasharray="5 7" transform="rotate(8.08, 400, 400)"></path><path d="M406.15 142.79C415.01 140.71 424 139.2 433.09 138.3 442.2 137.58 451.42 137.5 460.73 138.06 470.05 138.88 479.46 140.35 488.91 142.46 498.35 144.83 507.8 147.84 517.2 151.43 526.53 155.27 535.75 159.67 544.77 164.58 553.62 169.69 562.17 175.27 570.3 181.26 578.13 187.4 585.41 193.91 592.03 200.75 598.21 207.66 603.59 214.85 608.09 222.28 612.04 229.75 615.05 237.42 617.06 245.26 618.56 253.09 619.13 261.08 618.81 269.19 618.21 277.28 616.93 285.48 615.12 293.79 613.46 302.06 611.61 310.43 609.78 318.89 608.63 327.32 607.89 335.85 607.73 344.46 608.71 353.04 610.53 361.72 613.26 370.48 617.26 379.23 622.15 388.07 627.82 396.99 634.43 405.9 641.44 414.89 648.58 423.94 655.89 432.98 662.56 441.87 668.29 450.57 673.36 459.26 677.03 467.75 679.16 476.02 680.13 484.25 679.41 492.24 677.05 499.93 673.49 507.58 668.44 514.91 662.09 521.88 654.87 528.76 646.68 535.26 637.74 541.34 628.45 547.3 618.78 552.81 608.92 557.84 599.17 562.75 589.5 567.16 580.03 571.07 570.95 574.86 562.2 578.16 553.81 580.96 545.91 583.7 538.35 586 531.12 587.87 524.33 589.79 517.77 591.36 511.37 592.65 505.31 594.1 499.29 595.38 493.25 596.54 487.41 598.03 481.45 599.52 475.32 601.06 469.28 603.08 463 605.26 456.44 607.63 449.9 610.57 443.05 613.74 435.88 617.14 428.7 621.1 421.18 625.26 413.33 629.55 405.47 634.28 397.28 639.02 388.78 643.66 380.28 648.49 371.69 652.91 363.05 656.83 354.44 660.64 345.8 663.76 337.18 666.12 328.62 668.14 320.1 669.27 311.7 669.51 303.37 669.26 295.18 668.07 287.18 665.96 279.3 663.34 271.65 659.84 264.29 655.51 257.08 650.73 250.18 645.21 243.66 639.03 237.3 632.51 231.34 625.44 225.81 617.89 220.45 610.14 215.51 602.02 211.03 593.62 206.68 585.12 202.75 576.41 199.24 567.55 195.78 558.69 192.67 549.74 189.92 540.74 187.09 531.78 184.53 522.79 182.21 513.82 179.69 504.91 177.34 496.01 175.12 487.14 172.62 478.33 170.2 469.55 167.87 460.8 165.21 452.09 162.63 443.4 160.16 434.75 157.41 426.12 154.81 417.51 152.44 408.93 149.92 400.36 147.71 391.8 145.91 383.29 144.15 374.78 142.95 366.49 142.36 358.46 141.98 350.42 142.28 342.62 143.27 335.08 144.57 327.54 146.59 320.26 149.28 313.26 152.3 306.25 155.97 299.53 160.23 293.1 164.75 286.67 169.79 280.54 175.28 274.71 180.91 268.86 186.9 263.32 193.2 258.08 199.49 252.8 206.02 247.81 212.71 243.11 219.3 238.35 226.01 233.84 232.8 229.59 239.43 225.23 246.13 221.09 252.89 217.17 259.46 213.09 266.1 209.18 272.81 205.45 279.35 201.51 285.99 197.71 292.76 194.04 299.38 190.15 306.15 186.36 313.1 182.7 319.94 178.81 326.99 175.04 334.27 171.42 341.47 167.59 348.92 163.94 356.63 160.5 364.3 156.93 372.26 153.62 380.51 150.63 388.73 147.6 397.28 144.97 406.14 142.8" stroke-dasharray="9 11" transform="rotate(12.12, 400, 400)"></path><path d="M411.42 153.68C420.01 151.63 428.68 150.13 437.43 149.2 446.19 148.44 455.03 148.29 463.91 148.75 472.8 149.43 481.71 150.74 490.61 152.65 499.48 154.81 508.3 157.56 517 160.88 525.62 164.43 534.05 168.51 542.22 173.1 550.2 177.87 557.82 183.11 564.98 188.75 571.85 194.54 578.14 200.7 583.77 207.18 588.99 213.75 593.45 220.61 597.09 227.71 600.27 234.86 602.59 242.22 604.04 249.76 605.1 257.31 605.37 265.01 604.9 272.85 604.27 280.67 603.12 288.62 601.59 296.66 600.27 304.69 598.87 312.81 597.57 321.01 596.94 329.19 596.73 337.45 597.08 345.79 598.46 354.1 600.61 362.5 603.56 370.95 607.64 379.39 612.47 387.91 617.97 396.47 624.28 405.02 630.93 413.63 637.65 422.26 644.53 430.9 650.82 439.35 656.25 447.59 661.11 455.82 664.72 463.84 666.95 471.61 668.17 479.35 667.85 486.83 666.03 494.01 663.13 501.15 658.83 507.96 653.29 514.42 646.91 520.8 639.56 526.81 631.43 532.4 622.88 537.91 613.86 542.99 604.57 547.62 595.25 552.16 585.9 556.24 576.63 559.86 567.63 563.4 558.84 566.5 550.32 569.16 542.2 571.8 534.36 574.05 526.81 575.94 519.64 577.9 512.7 579.57 505.95 581 499.5 582.62 493.15 584.09 486.83 585.46 480.72 587.16 474.56 588.87 468.31 590.63 462.16 592.84 455.85 595.18 449.34 597.68 442.88 600.69 436.17 603.9 429.21 607.29 422.26 611.18 415.03 615.22 407.53 619.35 400.03 623.87 392.25 628.38 384.21 632.77 376.17 637.33 368.07 641.51 359.96 645.21 351.87 648.82 343.78 651.79 335.75 654.08 327.75 656.06 319.84 657.24 312.05 657.6 304.33 657.54 296.77 656.61 289.42 654.84 282.17 652.61 275.16 649.56 268.45 645.73 261.86 641.49 255.59 636.54 249.67 630.95 243.91 625.04 238.51 618.58 233.52 611.65 228.66 604.5 224.2 596.97 220.15 589.12 216.18 581.17 212.59 572.97 209.38 564.61 206.18 556.21 203.29 547.68 200.7 539.08 198 530.49 195.54 521.86 193.28 513.22 190.81 504.61 188.47 496 186.25 487.42 183.75 478.88 181.31 470.35 178.95 461.86 176.28 453.41 173.68 444.98 171.18 436.6 168.43 428.23 165.82 419.9 163.43 411.61 160.9 403.33 158.68 395.09 156.84 386.9 155.04 378.71 153.78 370.76 153.1 363.06 152.62 355.36 152.8 347.9 153.63 340.71 154.76 333.51 156.58 326.57 159.05 319.9 161.83 313.22 165.26 306.82 169.26 300.7 173.52 294.56 178.3 288.71 183.54 283.14 188.94 277.54 194.71 272.23 200.81 267.19 206.94 262.11 213.31 257.29 219.88 252.73 226.38 248.09 233.02 243.69 239.77 239.52 246.38 235.24 253.08 231.15 259.85 227.26 266.45 223.21 273.12 219.33 279.86 215.59 286.45 211.67 293.12 207.87 299.9 204.2 306.53 200.32 313.31 196.55 320.22 192.9 327.03 189.04 334.02 185.31 341.2 181.73 348.31 177.96 355.64 174.37 363.2 170.99 370.72 167.5 378.49 164.26 386.52 161.34 394.54 158.39 402.83 155.82 411.41 153.69" stroke-dasharray="2 10" transform="rotate(16.16, 400, 400)"></path><path d="M415.96 164.57C424.23 162.56 432.57 161.07 440.93 160.12 449.3 159.33 457.7 159.11 466.1 159.47 474.48 160.03 482.85 161.18 491.14 162.89 499.39 164.84 507.53 167.35 515.49 170.39 523.35 173.66 530.96 177.43 538.26 181.69 545.38 186.13 552.09 191.01 558.32 196.29 564.27 201.72 569.64 207.52 574.37 213.63 578.75 219.84 582.41 226.34 585.32 233.09 587.86 239.89 589.65 246.91 590.68 254.12 591.43 261.35 591.53 268.74 591.04 276.26 590.49 283.79 589.54 291.44 588.33 299.19 587.4 306.93 586.47 314.77 585.68 322.67 585.55 330.57 585.83 338.54 586.63 346.57 588.39 354.59 590.81 362.67 593.93 370.79 598.04 378.91 602.8 387.07 608.11 395.26 614.13 403.44 620.41 411.66 626.72 419.87 633.18 428.08 639.09 436.09 644.22 443.88 648.87 451.66 652.4 459.21 654.7 466.5 656.11 473.77 656.14 480.77 654.81 487.46 652.51 494.11 648.91 500.45 644.13 506.43 638.57 512.36 632.05 517.92 624.73 523.09 616.96 528.19 608.66 532.9 599.99 537.18 591.21 541.4 582.29 545.21 573.35 548.6 564.57 551.94 555.89 554.89 547.4 557.46 539.2 560.04 531.22 562.28 523.48 564.21 516.06 566.24 508.84 568.02 501.81 569.6 495.05 571.38 488.42 573.04 481.86 574.62 475.5 576.52 469.14 578.42 462.76 580.38 456.49 582.74 450.12 585.22 443.63 587.82 437.2 590.89 430.59 594.11 423.8 597.47 417.03 601.27 410.05 605.19 402.86 609.15 395.67 613.46 388.27 617.73 380.66 621.88 373.06 626.18 365.44 630.11 357.84 633.59 350.26 637.01 342.71 639.84 335.25 642.03 327.82 643.98 320.49 645.19 313.31 645.65 306.19 645.75 299.25 645.05 292.53 643.58 285.89 641.71 279.51 639.07 273.41 635.7 267.41 631.97 261.73 627.56 256.39 622.54 251.17 617.21 246.29 611.35 241.79 605.02 237.38 598.48 233.34 591.54 229.66 584.28 226.03 576.88 222.74 569.23 219.77 561.39 216.78 553.48 214.06 545.42 211.59 537.27 209 529.1 206.6 520.87 204.37 512.6 201.92 504.35 199.58 496.08 197.34 487.82 194.82 479.59 192.36 471.37 189.97 463.18 187.29 455.02 184.67 446.88 182.16 438.79 179.4 430.72 176.79 422.68 174.39 414.7 171.86 406.72 169.63 398.79 167.76 390.93 165.94 383.06 164.63 375.44 163.87 368.07 163.3 360.7 163.36 353.57 164.03 346.7 164.99 339.82 166.61 333.19 168.85 326.83 171.4 320.45 174.56 314.34 178.29 308.49 182.28 302.62 186.78 297.01 191.74 291.68 196.88 286.3 202.4 281.18 208.25 276.32 214.17 271.41 220.35 266.73 226.75 262.29 233.11 257.77 239.64 253.45 246.29 249.35 252.85 245.13 259.5 241.09 266.23 237.22 272.84 233.2 279.51 229.33 286.25 225.61 292.86 221.7 299.54 217.91 306.31 214.24 312.96 210.38 319.73 206.63 326.61 203.01 333.39 199.19 340.33 195.5 347.42 191.97 354.45 188.27 361.66 184.75 369.07 181.45 376.44 178.04 384.03 174.88 391.84 172.04 399.63 169.17 407.67 166.66 415.95 164.57" stroke-dasharray="8 8" transform="rotate(20.200000000000003, 400, 400)"></path><path d="M419.45 175.46C427.4 173.49 435.35 172.02 443.3 171.06 451.24 170.24 459.16 169.96 467.03 170.22 474.88 170.66 482.65 171.66 490.3 173.19 497.89 174.93 505.32 177.2 512.52 179.98 519.62 182.96 526.42 186.43 532.88 190.36 539.16 194.46 545.01 198.99 550.37 203.91 555.48 208.97 560.04 214.39 563.98 220.12 567.63 225.96 570.63 232.08 572.95 238.45 574.99 244.88 576.38 251.54 577.14 258.38 577.71 265.26 577.75 272.31 577.33 279.49 576.94 286.69 576.26 294.01 575.41 301.42 574.89 308.85 574.42 316.36 574.12 323.94 574.47 331.52 575.2 339.17 576.4 346.86 578.47 354.56 581.12 362.3 584.36 370.06 588.48 377.83 593.14 385.63 598.24 393.43 603.96 401.23 609.87 409.04 615.79 416.83 621.85 424.61 627.38 432.19 632.22 439.53 636.65 446.87 640.08 453.96 642.4 460.8 643.97 467.61 644.3 474.15 643.4 480.39 641.64 486.59 638.68 492.48 634.63 498.04 629.84 503.55 624.12 508.71 617.62 513.51 610.64 518.26 603.08 522.64 595.11 526.63 586.95 530.59 578.56 534.17 570.06 537.38 561.62 540.58 553.2 543.43 544.87 545.94 536.74 548.49 528.76 550.75 520.97 552.74 513.42 554.85 506.05 556.75 498.85 558.48 491.88 560.41 485.04 562.25 478.3 564.02 471.74 566.09 465.22 568.17 458.72 570.29 452.34 572.78 445.92 575.37 439.43 578.05 433.01 581.14 426.48 584.35 419.84 587.67 413.22 591.37 406.45 595.15 399.55 598.95 392.64 603.05 385.58 607.09 378.38 610.99 371.18 615.04 364.01 618.72 356.9 622 349.8 625.21 342.77 627.89 335.85 630 328.96 631.88 322.21 633.11 315.61 633.65 309.07 633.88 302.72 633.39 296.59 632.19 290.53 630.63 284.73 628.37 279.21 625.44 273.77 622.17 268.62 618.27 263.81 613.8 259.07 609.03 254.66 603.75 250.59 598.01 246.58 592.06 242.89 585.71 239.53 579.04 236.18 572.22 233.13 565.13 230.36 557.82 227.53 550.44 224.93 542.89 222.55 535.21 220.03 527.51 217.66 519.71 215.44 511.86 212.99 504.02 210.64 496.13 208.37 488.24 205.83 480.36 203.35 472.48 200.93 464.63 198.23 456.79 195.6 448.98 193.07 441.21 190.32 433.45 187.72 425.73 185.32 418.06 182.8 410.4 180.57 402.79 178.69 395.25 176.85 387.71 175.5 380.41 174.67 373.36 174.02 366.3 173.95 359.49 174.48 352.92 175.28 346.34 176.69 340.01 178.7 333.92 181.01 327.83 183.9 321.97 187.34 316.37 191.04 310.74 195.25 305.36 199.91 300.22 204.75 295.05 209.98 290.1 215.56 285.39 221.22 280.62 227.17 276.07 233.34 271.73 239.53 267.3 245.89 263.07 252.39 259.02 258.84 254.86 265.4 250.86 272.04 247.01 278.59 243.03 285.23 239.17 291.92 235.46 298.51 231.57 305.18 227.8 311.91 224.15 318.55 220.32 325.28 216.61 332.11 213.02 338.86 209.25 345.73 205.62 352.72 202.15 359.66 198.53 366.75 195.09 374 191.87 381.21 188.55 388.6 185.49 396.18 182.72 403.74 179.94 411.49 177.5 419.44 175.46" stroke-dasharray="8 2" transform="rotate(24.24, 400, 400)"></path><path d="M421.68 186.35C429.26 184.43 436.81 182.98 444.3 182.01 451.79 181.17 459.2 180.84 466.51 181 473.8 181.34 480.96 182.19 487.95 183.54 494.88 185.09 501.6 187.13 508.05 189.65 514.4 192.35 520.43 195.52 526.09 199.12 531.58 202.89 536.65 207.07 541.24 211.61 545.61 216.3 549.46 221.34 552.74 226.68 555.79 232.13 558.25 237.86 560.13 243.83 561.81 249.88 562.93 256.15 563.53 262.61 564.04 269.11 564.13 275.78 563.85 282.59 563.69 289.43 563.32 296.39 562.86 303.45 562.75 310.52 562.73 317.68 562.9 324.9 563.68 332.14 564.81 339.43 566.37 346.77 568.7 354.1 571.52 361.48 574.86 368.87 578.94 376.27 583.47 383.68 588.36 391.08 593.78 398.49 599.33 405.88 604.87 413.24 610.52 420.6 615.69 427.74 620.23 434.64 624.43 441.54 627.74 448.2 630.07 454.6 631.76 460.98 632.34 467.08 631.81 472.9 630.53 478.69 628.16 484.18 624.78 489.35 620.72 494.49 615.77 499.3 610.06 503.77 603.87 508.21 597.09 512.31 589.84 516.07 582.36 519.8 574.58 523.21 566.62 526.28 558.63 529.37 550.58 532.15 542.55 534.64 534.63 537.18 526.79 539.48 519.08 541.55 511.54 543.74 504.14 545.76 496.89 547.64 489.82 549.72 482.87 551.72 476.03 553.66 469.35 555.89 462.73 558.11 456.16 560.37 449.7 562.96 443.25 565.62 436.78 568.36 430.38 571.46 423.93 574.64 417.42 577.89 410.93 581.48 404.37 585.11 397.71 588.74 391.07 592.63 384.33 596.44 377.5 600.1 370.68 603.9 363.93 607.35 357.27 610.41 350.63 613.43 344.09 615.96 337.69 617.96 331.31 619.79 325.08 621.01 319.04 621.61 310.13 621.79 293.49 618.44 285.86 614.95 280.91 612.11 276.25 608.69 271.89 604.72 267.58 600.49 263.57 595.77 259.87 590.59 256.19 585.22 252.8 579.46 249.71 573.36 246.58 567.13 243.72 560.6 241.09 553.85 238.38 547.01 235.87 539.99 233.54 532.82 231.05 525.61 228.7 518.28 226.47 510.88 224.01 503.48 221.63 496.01 219.33 488.52 216.76 481.04 214.25 473.54 211.8 466.05 209.1 458.58 206.46 451.11 203.93 443.69 201.2 436.27 198.61 428.88 196.22 421.55 193.73 414.22 191.51 406.94 189.62 399.73 187.77 392.52 186.39 385.54 185.5 378.8 184.77 372.05 184.6 365.54 184.99 359.26 185.62 352.97 186.83 346.91 188.62 341.09 190.68 335.25 193.3 329.64 196.45 324.26 199.84 318.85 203.73 313.67 208.07 308.71 212.59 303.71 217.51 298.92 222.77 294.35 228.15 289.71 233.81 285.26 239.72 281.01 245.67 276.67 251.81 272.51 258.11 268.51 264.39 264.4 270.8 260.44 277.3 256.62 283.75 252.67 290.28 248.84 296.88 245.14 303.41 241.29 310 237.55 316.66 233.92 323.25 230.14 329.91 226.47 336.65 222.92 343.33 219.23 350.1 215.67 356.97 212.26 363.8 208.73 370.74 205.39 377.8 202.25 384.84 199.03 392.02 196.07 399.33 193.38 406.63 190.69 414.08 188.33 421.67 186.35" stroke-dasharray="3 4" transform="rotate(28.28, 400, 400)"></path><path d="M422.49 197.24C429.69 195.37 436.81 193.96 443.83 192.98 450.83 192.12 457.72 191.74 464.47 191.82 471.18 192.06 477.73 192.77 484.07 193.96 490.34 195.31 496.38 197.13 502.12 199.4 507.76 201.84 513.08 204.71 518.01 207.99 524.99 213.34 536.46 226.07 540.84 233.34 544.45 241.06 548.98 257.86 550.02 266.85 550.56 272.95 550.77 279.22 550.71 285.64 550.81 292.08 550.79 298.65 550.72 305.32 551.01 312.01 551.42 318.79 552.02 325.64 553.19 332.49 554.67 339.41 556.53 346.36 559.07 353.32 562.02 360.31 565.4 367.31 569.43 374.31 573.81 381.33 578.47 388.32 583.58 395.32 588.78 402.29 593.94 409.22 599.2 416.15 604.01 422.87 608.26 429.35 612.23 435.82 615.4 442.06 617.72 448.04 619.87 456.86 618.28 473.11 614.58 480.49 611.2 485.3 606.99 489.8 602.03 493.99 596.62 498.16 590.61 502.03 584.11 505.6 577.35 509.15 570.24 512.42 562.88 515.39 555.44 518.39 547.87 521.13 540.24 523.62 532.67 526.18 525.1 528.52 517.6 530.68 510.21 532.96 502.92 535.1 495.73 537.11 488.68 539.32 481.73 541.46 474.89 543.55 468.17 545.9 461.53 548.25 454.96 550.61 448.48 553.27 442.04 555.99 435.62 558.75 429.27 561.83 422.9 564.96 416.53 568.13 410.19 571.6 403.81 575.08 397.41 578.52 391.01 582.2 384.57 585.78 378.09 589.22 371.61 592.76 365.25 595.98 359.02 598.84 352.8 601.67 346.72 604.05 340.79 605.94 332.01 608.3 315.42 609.89 307.69 609.04 300.24 607.22 286.67 600.31 280.58 595.32 274.8 589.5 264.58 575.36 260.11 567.24 257.16 561.57 254.43 555.62 251.9 549.43 249.28 543.14 246.81 536.66 244.51 530.01 242.04 523.32 239.67 516.49 237.41 509.57 234.94 502.63 232.53 495.62 230.19 488.56 227.6 481.5 225.06 474.42 222.59 467.32 219.88 460.24 217.25 453.15 214.72 446.09 212.02 439.03 209.45 432 207.08 425.02 204.63 418.04 202.43 411.1 200.55 404.22 198.7 397.34 197.3 390.68 196.36 384.25 195.57 377.81 195.29 371.58 195.54 365.58 196.02 359.57 197.04 353.77 198.6 348.19 200.41 342.59 202.76 337.21 205.6 332.04 208.69 326.83 212.25 321.83 216.24 317.04 220.43 312.2 225.01 307.56 229.93 303.1 234.98 298.58 240.32 294.24 245.92 290.07 251.58 285.81 257.46 281.71 263.5 277.77 269.55 273.71 275.75 269.8 282.05 266.01 288.33 262.1 294.7 258.31 301.15 254.64 307.55 250.83 314.02 247.13 320.55 243.55 327.03 239.82 333.57 236.21 340.18 232.73 346.74 229.11 353.38 225.63 360.09 222.31 366.76 218.88 373.53 215.63 380.37 212.59 387.2 209.49 394.13 206.62 401.15 204.04 408.17 201.44 415.28 199.16 422.48 197.24" stroke-dasharray="2 2" transform="rotate(32.32, 400, 400)"></path><path d="M421.84 208.12C428.64 206.32 435.3 204.94 441.83 203.97 448.35 203.1 454.71 202.67 460.89 202.68 470.01 203.12 487.05 206.42 494.83 209.25 502.17 212.72 514.87 221.83 520.12 227.39 524.75 233.46 531.61 247.24 533.88 254.85 535.66 262.81 537.57 279.77 537.96 288.7 538.36 294.73 538.68 300.89 539 307.15 539.69 313.44 540.49 319.81 541.48 326.25 542.98 332.7 544.77 339.22 546.87 345.76 549.57 352.32 552.61 358.9 555.99 365.5 559.93 372.09 564.14 378.69 568.57 385.27 573.37 391.85 578.23 398.4 583.01 404.91 587.89 411.41 592.36 417.7 596.31 423.77 600.04 429.83 603.07 435.66 605.33 441.25 607.61 449.49 606.97 464.68 604.06 471.59 601.3 476.09 597.77 480.33 593.53 484.28 588.87 488.22 583.62 491.9 577.87 495.3 571.84 498.71 565.43 501.86 558.74 504.77 551.92 507.71 544.91 510.42 537.79 512.93 530.65 515.5 523.47 517.9 516.3 520.14 509.19 522.5 502.12 524.75 495.11 526.89 488.21 529.2 481.38 531.46 474.63 533.68 467.99 536.12 461.41 538.56 454.91 541.01 448.49 543.71 442.12 546.45 435.81 549.21 429.54 552.25 423.3 555.31 417.09 558.39 410.91 561.72 404.73 565.04 398.56 568.3 392.41 571.76 386.25 575.12 380.1 578.33 373.95 581.63 367.95 584.63 362.12 587.28 353.45 591.04 336.98 596.19 329.23 597.45 321.71 597.91 307.8 595.85 301.45 593.32 295.37 589.95 284.43 580.49 279.57 574.53 274.89 567.93 266.52 552.83 262.74 544.5 260.16 538.77 257.72 532.83 255.41 526.72 252.93 520.55 250.55 514.24 248.25 507.82 245.75 501.37 243.31 494.83 240.93 488.23 238.32 481.63 235.77 474.97 233.28 468.3 230.59 461.63 227.97 454.94 225.46 448.27 222.78 441.6 220.26 434.94 217.92 428.32 215.5 421.7 213.34 415.11 211.47 408.57 209.64 402.03 208.23 395.7 207.25 389.57 206.21 380.46 206.9 363.25 208.66 355.13 211.26 347.18 219.23 332.19 224.48 325.14 228.31 320.46 232.53 315.94 237.08 311.6 241.77 307.2 246.76 302.95 252.01 298.86 257.34 294.69 262.89 290.66 268.62 286.77 274.39 282.78 280.32 278.92 286.36 275.18 292.41 271.32 298.56 267.58 304.79 263.95 310.99 260.2 317.28 256.56 323.62 253.03 329.93 249.38 336.3 245.84 342.72 242.43 349.11 238.91 355.56 235.52 362.06 232.3 368.54 228.98 375.08 225.84 381.67 222.9 388.26 219.92 394.9 217.16 401.6 214.67 408.29 212.18 415.04 209.98 421.83 208.13" stroke-dasharray="7 6" transform="rotate(36.36, 400, 400)"></path><path d="M419.77 219.01C426.14 217.28 432.34 215.93 438.38 214.97 444.4 214.1 450.25 213.63 455.88 213.57 467.07 213.82 477.32 215.73 486.39 219.19 495.19 223.19 502.64 228.69 508.58 235.49 514.15 242.75 518.22 251.19 520.81 260.57 523.37 270.26 524.89 280.76 525.69 291.84 527.33 303.09 529.06 314.82 531.28 326.83 535.32 338.91 540.43 351.22 546.62 363.55 550.44 369.73 554.47 375.91 558.65 382.06 563.14 388.22 567.66 394.35 572.08 400.43 576.59 406.51 580.72 412.39 584.39 418.06 587.87 423.72 590.74 429.17 592.94 434.38 596.15 444.8 596.22 454.29 593.22 462.78 588.36 471.25 580.79 478.75 571.06 485.28 560.24 491.88 548.02 497.64 535 502.61 521.76 507.9 508.25 512.65 494.8 516.98 481.57 521.96 468.52 526.8 455.78 531.55 443.28 537.22 430.97 542.96 418.9 548.66 412.91 551.84 406.95 554.99 401.03 558.07 395.12 561.32 389.24 564.46 383.41 567.44 377.57 570.51 371.91 573.28 366.43 575.74 360.95 578.19 355.66 580.26 350.55 581.94 340.33 584.98 330.89 586.18 322.34 585.49 313.79 584.08 306.11 580.72 299.36 575.59 292.51 569.75 286.49 562.31 281.26 553.55 275.69 544.31 270.68 533.99 266.19 522.89 261.03 511.57 256.15 499.67 251.54 487.44 246.12 475.15 240.93 462.63 236.12 450.09 233.5 443.83 231.02 437.56 228.72 431.31 226.36 425.06 224.24 418.84 222.4 412.64 220.6 406.45 219.18 400.44 218.16 394.62 217.27 388.79 216.82 383.14 216.83 377.67 217.4 366.71 219.9 356.44 224.19 346.89 229.31 337.22 236.09 328.18 244.27 319.78 253.02 311.15 262.89 303.05 273.57 295.49 284.48 287.57 296 280.08 307.89 273.06 319.78 265.6 331.98 258.56 344.34 252.03 356.64 245.11 369.15 238.76 381.74 233.18 388.03 230.32 394.36 227.68 400.7 225.29 407.04 222.9 413.4 220.8 419.76 219.02" stroke-dasharray="9 0" transform="rotate(40.400000000000006, 400, 400)"></path><path d="M416.42 229.9C428.25 226.63 439.37 224.84 449.63 224.51 459.8 224.58 468.99 226.19 477.04 229.23 484.88 232.74 491.46 237.64 496.7 243.76 501.72 250.29 505.46 257.94 508.01 266.48 510.68 275.32 512.56 284.94 513.93 295.14 516.17 305.51 518.55 316.36 521.39 327.49 525.83 338.7 531.14 350.14 537.29 361.61 544.99 373.12 553.14 384.62 561.16 395.94 569.44 407.26 576.06 417.84 580.53 427.58 583.79 437.3 584.29 446.18 582.09 454.17 578.29 462.16 571.99 469.31 563.67 475.6 554.28 482 543.46 487.68 531.72 492.69 519.65 498.01 507.12 502.89 494.5 507.38 481.96 512.47 469.49 517.41 457.26 522.23 445.19 527.85 433.3 533.45 421.7 538.95 410.19 545.16 398.85 551.12 387.79 556.55 376.73 562.27 366.42 566.79 356.9 569.96 347.35 572.84 338.58 574.05 330.66 573.59 322.68 572.53 315.52 569.72 309.18 565.29 302.69 560.26 296.91 553.74 291.81 545.97 286.35 537.77 281.36 528.52 276.8 518.48 271.62 508.22 266.68 497.34 262 486.08 256.61 474.75 251.46 463.14 246.71 451.44 241.49 439.74 236.93 427.98 233.33 416.31 229.85 404.64 227.91 393.59 227.56 383.2 227.86 372.78 229.92 362.96 233.65 353.79 238.13 344.5 244.18 335.76 251.56 327.6 259.51 319.22 268.56 311.31 278.43 303.9 288.59 296.17 299.38 288.84 310.58 281.95 321.85 274.7 333.44 267.85 345.17 261.52 356.91 254.86 368.79 248.77 380.7 243.42 392.62 237.94 404.57 233.35 416.41 229.9" stroke-dasharray="8 0" transform="rotate(44.44, 400, 400)"></path><path d="M411.99 240.79C422.93 237.66 433.1 235.9 442.4 235.48 451.62 235.41 459.88 236.74 467.07 239.37 474.11 242.43 480.02 246.75 484.76 252.21 489.41 258.04 493 264.9 495.63 272.62 498.5 280.61 500.79 289.36 502.73 298.67 505.51 308.14 508.46 318.08 511.81 328.32 516.54 338.64 521.95 349.19 527.98 359.8 535.29 370.43 542.87 381.08 550.23 391.58 557.82 402.08 563.91 411.9 568.13 420.98 571.37 430.04 572.21 438.36 570.68 445.9 567.81 453.45 562.68 460.27 555.67 466.36 547.67 472.57 538.25 478.18 527.83 483.21 517.01 488.54 505.61 493.49 493.97 498.1 482.3 503.24 470.58 508.22 459.01 513.05 447.54 518.56 436.22 523.99 425.18 529.24 414.2 535.09 403.43 540.65 392.97 545.66 382.52 550.93 372.82 555.08 363.91 557.99 354.96 560.7 346.77 561.91 339.36 561.62 331.86 560.86 325.1 558.52 319.07 554.73 312.85 550.43 307.24 544.76 302.22 537.92 296.81 530.7 291.81 522.47 287.19 513.46 281.99 504.23 277.02 494.37 272.31 484.09 266.97 473.73 261.9 463.04 257.24 452.2 252.19 441.35 247.77 430.38 244.26 419.44 240.86 408.5 238.88 398.08 238.37 388.24 238.4 378.36 240.06 369.01 243.24 360.22 247.1 351.32 252.42 342.9 259 334.99 266.11 326.89 274.3 319.21 283.31 311.98 292.64 304.47 302.61 297.34 313.01 290.64 323.53 283.62 334.39 277.01 345.39 270.9 356.44 264.53 367.61 258.72 378.75 253.62 389.92 248.43 401.05 244.08 411.99 240.79" stroke-dasharray="6 3" transform="rotate(48.48, 400, 400)"></path><path d="M406.78 251.68C416.81 248.7 426.08 246.98 434.5 246.49 442.87 246.29 450.33 247.37 456.8 249.64 463.2 252.25 468.6 256.04 473.02 260.86 477.44 266.01 481 272.12 483.82 279.04 486.94 286.19 489.64 294.07 492.1 302.49 495.36 311.06 498.78 320.1 502.52 329.44 507.43 338.86 512.85 348.51 518.7 358.24 525.57 368.01 532.58 377.81 539.3 387.5 546.22 397.18 551.79 406.28 555.72 414.72 558.89 423.15 559.99 430.94 559.02 438.05 556.94 445.19 552.86 451.71 547.05 457.61 540.36 463.63 532.29 469.15 523.21 474.17 513.69 479.48 503.49 484.46 492.94 489.13 482.29 494.25 471.48 499.21 460.71 504 449.99 509.34 439.36 514.56 428.96 519.54 418.6 525.02 408.45 530.17 398.61 534.77 388.77 539.59 379.66 543.38 371.3 546.05 362.89 548.56 355.19 549.74 348.2 549.6 341.11 549.07 334.67 547.14 328.87 543.91 322.86 540.27 317.37 535.37 312.38 529.4 307.02 523.09 302 515.83 297.32 507.81 292.13 499.59 287.15 490.72 282.44 481.41 277.2 472.01 272.23 462.25 267.7 452.28 262.83 442.29 258.58 432.14 255.19 421.94 251.89 411.75 249.89 401.98 249.24 392.7 249.05 383.38 250.33 374.51 253 366.12 256.25 357.63 260.86 349.56 266.63 341.94 272.91 334.15 280.21 326.73 288.31 319.71 296.74 312.48 305.82 305.59 315.34 299.11 325.02 292.37 335.03 286.03 345.21 280.18 355.46 274.13 365.82 268.62 376.13 263.79 386.48 258.89 396.75 254.79 406.78 251.68" stroke-dasharray="7 9" transform="rotate(52.52, 400, 400)"></path><path d="M401.13 262.57C410.27 259.75 418.69 258.09 426.32 257.54 433.91 257.23 440.68 258.08 446.59 260 452.46 262.22 457.5 265.5 461.73 269.72 466.02 274.21 469.64 279.6 472.69 285.74 476.07 292.08 479.16 299.1 482.08 306.65 485.71 314.34 489.49 322.48 493.51 330.92 498.49 339.44 503.83 348.2 509.43 357.07 515.84 365.96 522.28 374.92 528.37 383.81 534.63 392.71 539.7 401.09 543.33 408.92 546.37 416.74 547.64 424.03 547.13 430.73 545.72 437.47 542.55 443.7 537.83 449.4 532.35 455.22 525.56 460.62 517.77 465.6 509.55 470.84 500.61 475.79 491.22 480.46 481.68 485.51 471.88 490.39 462.03 495.06 452.18 500.19 442.34 505.16 432.67 509.85 423.03 514.94 413.55 519.68 404.34 523.89 395.13 528.27 386.59 531.7 378.74 534.13 370.84 536.44 363.57 537.57 356.94 537.53 350.2 537.19 344.02 535.62 338.39 532.88 332.55 529.81 327.15 525.62 322.18 520.43 316.87 514.97 311.86 508.62 307.15 501.53 301.99 494.27 297.06 486.37 292.39 478 287.28 469.56 282.46 460.72 278.08 451.62 273.43 442.5 269.37 433.17 266.11 423.73 262.94 414.3 260.95 405.19 260.18 396.49 259.79 387.76 260.73 379.39 262.91 371.43 265.6 363.39 269.52 355.7 274.51 348.39 279.95 340.95 286.36 333.84 293.54 327.1 301.03 320.17 309.16 313.57 317.74 307.36 326.49 300.95 335.6 294.92 344.87 289.36 354.24 283.66 363.71 278.46 373.14 273.93 382.61 269.34 392 265.5 401.13 262.57" stroke-dasharray="1 3" transform="rotate(56.56, 400, 400)"></path><path d="M395.41 273.45C403.67 270.82 411.29 269.22 418.2 268.63 428.19 268.55 444.59 273.73 451.09 278.79 455.33 282.68 459.05 287.38 462.33 292.76 465.95 298.33 469.36 304.53 472.65 311.22 476.56 318.04 480.58 325.3 484.75 332.86 489.69 340.48 494.87 348.37 500.16 356.38 506.1 364.42 511.96 372.55 517.45 380.66 523.07 388.77 527.63 396.46 530.95 403.69 533.83 410.92 535.19 417.71 535.03 424.01 534.18 430.35 531.79 436.28 528.02 441.76 523.63 447.36 518.03 452.61 511.47 457.5 504.51 462.62 496.81 467.48 488.61 472.07 480.23 476.99 471.52 481.72 462.66 486.23 453.77 491.11 444.81 495.78 435.95 500.16 427.09 504.86 418.33 509.19 409.78 513 401.23 516.95 393.27 520.04 385.9 522.22 378.49 524.33 371.63 525.39 365.31 525.42 358.89 525.23 352.95 523.95 347.47 521.65 341.8 519.08 336.49 515.51 331.55 511.05 326.32 506.36 321.34 500.84 316.64 494.63 311.57 488.28 306.72 481.3 302.15 473.85 297.22 466.33 292.59 458.4 288.39 450.17 283.99 441.92 280.14 433.42 277.04 424.76 274.01 416.09 272.06 407.68 271.19 399.58 270.64 391.46 271.27 383.63 273.01 376.13 275.18 368.57 278.44 361.29 282.69 354.36 287.32 347.31 292.84 340.55 299.09 334.13 305.63 327.56 312.79 321.3 320.4 315.4 328.18 309.35 336.31 303.67 344.64 298.45 353.05 293.11 361.6 288.26 370.11 284.03 378.67 279.77 387.15 276.2 395.41 273.45" stroke-dasharray="9 6" transform="rotate(60.599999999999994, 400, 400)"></path><path d="M389.99 284.34C397.4 281.89 404.26 280.37 410.54 279.75 419.64 279.53 434.97 283.78 441.32 288.09 445.51 291.41 449.33 295.45 452.81 300.13 456.61 304.96 460.25 310.36 463.81 316.24 467.87 322.22 472.01 328.62 476.22 335.32 481.03 342.08 485.97 349.1 490.91 356.28 496.34 363.47 501.62 370.79 506.52 378.14 511.53 385.48 515.6 392.5 518.6 399.13 521.27 405.78 522.67 412.06 522.77 417.96 522.35 423.9 520.61 429.49 517.67 434.73 514.23 440.07 509.7 445.12 504.28 449.87 498.51 454.8 492.01 459.5 484.97 463.96 477.77 468.68 470.17 473.2 462.35 477.49 454.47 482.07 446.46 486.43 438.45 490.47 430.44 494.76 422.45 498.69 414.59 502.11 406.73 505.65 399.35 508.41 392.47 510.35 385.55 512.24 379.09 513.22 373.08 513.3 364.13 512.7 347.87 506.61 340.41 501.28 335.29 497.29 330.4 492.54 325.77 487.15 320.84 481.64 316.14 475.54 311.71 468.97 307 462.34 302.61 455.29 298.63 447.92 294.5 440.53 290.89 432.85 287.97 424.97 285.11 417.09 283.21 409.39 282.28 401.92 281.6 394.44 281.96 387.17 283.3 380.18 284.98 373.14 287.65 366.33 291.18 359.81 295.05 353.21 299.72 346.85 305.07 340.8 310.67 334.65 316.86 328.77 323.48 323.24 330.27 317.59 337.41 312.29 344.76 307.43 352.2 302.49 359.78 298.01 367.37 294.1 374.99 290.18 382.57 286.88 389.99 284.34" stroke-dasharray="0 10" transform="rotate(64.64, 400, 400)"></path><path d="M385.21 295.23C394.88 292.26 411.94 290.57 419.32 291.79 426.32 293.99 438.6 302.13 444.16 307.86 448.05 311.99 451.83 316.65 455.52 321.74 459.62 326.92 463.75 332.49 467.88 338.37 472.48 344.28 477.1 350.47 481.65 356.83 486.55 363.2 491.27 369.72 495.6 376.31 500.01 382.91 503.59 389.25 506.26 395.3 509.39 404.24 509.65 420.73 506.81 428.3 504.18 433.34 500.6 438.14 496.2 442.68 491.52 447.37 486.14 451.85 480.23 456.11 474.15 460.56 467.66 464.83 460.88 468.85 454.05 473.09 447.01 477.1 439.89 480.78 432.76 484.66 425.58 488.18 418.45 491.22 411.31 494.36 404.54 496.79 398.17 498.5 388.74 500.62 371.56 500.73 363.71 498.7 358.45 496.94 353.43 494.41 348.69 491.17 343.74 487.8 339.01 483.75 334.52 479.12 329.8 474.39 325.29 469.11 321.07 463.37 316.64 457.59 312.51 451.39 308.8 444.86 304.97 438.32 301.62 431.46 298.9 424.38 296.22 417.3 294.41 410.32 293.44 403.51 292.67 396.69 292.8 390.03 293.79 383.59 295.05 377.11 297.16 370.82 300.05 364.77 303.19 358.66 307.07 352.76 311.55 347.14 316.25 341.44 321.49 336 327.15 330.87 332.96 325.67 339.11 320.8 345.48 316.33 351.94 311.8 358.56 307.71 365.22 304.14 371.92 300.56 378.62 297.56 385.21 295.23" stroke-dasharray="3 1" transform="rotate(68.68, 400, 400)"></path><path d="M381.4 306.12C393.01 302.1 403.34 301.04 412.2 302.62 421.24 304.64 429.27 309.26 436.38 315.96 444.36 323.01 452.18 331.91 459.72 342.03 468.61 352.29 477.26 363.56 484.67 375.26 492.34 386.96 496.81 397.97 497.84 407.98 497.79 418.12 494.05 427.51 487.29 435.92 479.63 444.81 469.58 453.05 458.14 460.28 446.46 468.17 433.87 475.09 421.11 480.33 408.34 485.88 396.57 488.76 386.01 489.03 375.22 489 365.27 486.13 356.34 480.77 346.82 475.03 337.97 466.96 330.23 457.11 321.91 447.11 314.83 435.57 309.82 423 304.99 410.43 303.28 398.05 304.49 386.37 306.48 374.6 311.4 363.38 318.61 353.15 326.48 342.72 336.23 333.18 347.02 325.13 358.07 316.95 369.79 310.37 381.4 306.12" stroke-dasharray="10 1" transform="rotate(72.72, 400, 400)"></path><path d="M378.8 317.01C388.89 313.41 398.14 312.35 406.34 313.57 414.72 315.1 422.43 318.86 429.43 324.44 437.12 330.26 444.62 337.74 451.71 346.36 459.75 355.07 467.37 364.78 473.74 375.01 480.31 385.24 484.19 395.04 485.24 404.07 485.57 413.22 482.86 421.81 477.58 429.58 471.65 437.69 463.56 445.21 454.05 451.78 444.34 458.81 433.59 464.9 422.39 469.44 411.19 474.21 400.59 476.68 390.89 476.9 381.02 476.95 371.76 474.6 363.36 470.12 354.54 465.38 346.35 458.62 339.2 450.25 331.66 441.76 325.28 431.83 320.75 420.87 316.36 409.9 314.64 398.98 315.39 388.56 316.71 378.09 320.51 368.04 326.3 358.86 332.57 349.54 340.54 341.03 349.56 333.86 358.76 326.62 368.71 320.79 378.8 317.01" stroke-dasharray="0 2" transform="rotate(76.76, 400, 400)"></path><path d="M377.58 327.9C386.2 324.74 394.35 323.73 401.82 324.63 409.43 325.74 416.62 328.74 423.28 333.28 430.43 337.99 437.37 344.14 443.82 351.34 450.89 358.59 457.45 366.79 462.81 375.57 468.32 384.35 471.6 392.89 472.59 400.88 473.13 408.95 471.22 416.62 467.19 423.6 462.71 430.83 456.36 437.53 448.64 443.33 440.77 449.45 431.81 454.7 422.21 458.56 412.61 462.58 403.31 464.63 394.6 464.8 385.8 464.88 377.41 462.97 369.73 459.28 361.79 455.42 354.4 449.85 347.98 442.86 341.31 435.79 335.69 427.42 331.68 418.06 327.77 408.7 326.11 399.27 326.5 390.2 327.27 381.11 330.11 372.33 334.63 364.28 339.49 356.17 345.84 348.76 353.19 342.51 360.67 336.24 368.95 331.19 377.58 327.9" stroke-dasharray="10 8" transform="rotate(80.80000000000001, 400, 400)"></path><path d="M377.82 338.78C385.01 336.09 392.01 335.16 398.61 335.8 405.31 336.57 411.78 338.89 417.84 342.49 424.22 346.2 430.37 351.12 436.01 356.97 442.02 362.85 447.49 369.59 451.89 376.92 456.37 384.25 459.05 391.49 459.92 398.35 460.53 405.27 459.22 411.9 456.21 417.97 452.92 424.2 448.07 429.96 441.99 434.93 435.8 440.1 428.56 444.49 420.59 447.67 412.62 450.96 404.71 452.62 397.17 452.74 389.57 452.81 382.25 451.27 375.48 448.29 368.57 445.21 362.14 440.72 356.57 435.03 350.86 429.3 346.05 422.43 342.61 414.67 339.24 406.91 337.69 399.01 337.82 391.37 338.18 383.72 340.21 376.29 343.64 369.47 347.27 362.62 352.17 356.36 358.01 351.09 363.92 345.82 370.62 341.57 377.82 338.78" stroke-dasharray="9 8" transform="rotate(84.84, 400, 400)"></path><path d="M379.5 349.67C391.05 345.35 402.77 346.61 413.01 352.05 423.97 357.72 434.19 367.25 440.96 379.02 447.96 390.79 449.01 402.65 444.78 412.63 439.95 422.98 430.29 431.85 417.63 436.78 404.96 442 391.88 441.85 380.66 437.22 369.16 432.41 359.2 423.15 353.54 410.8 348.06 398.45 348.4 385.49 353.29 374.45 358.6 363.39 367.94 354.25 379.5 349.67" stroke-dasharray="6 9" transform="rotate(88.88, 400, 400)"></path><path d="M382.51 360.56C391.24 357.23 400.48 358.02 408.67 361.93 417.21 365.95 425.03 372.93 430.03 381.8 435.16 390.66 435.98 399.78 433.02 407.53 429.78 415.46 422.93 422.21 413.52 425.89 404.11 429.73 394.07 429.57 385.33 426.13 376.5 422.61 368.85 415.79 364.46 406.59 360.19 397.38 360.18 387.62 363.55 379.27 367.1 370.94 373.78 364.04 382.51 360.56" stroke-dasharray="9 1" transform="rotate(92.92, 400, 400)"></path><path d="M386.67 371.45C398.43 366.97 412.66 373.28 419.1 385.17 425.77 397.05 420.93 410.22 408.53 415 396.12 420.06 381.39 414.34 375.39 402.15 369.59 389.95 374.89 376.19 386.67 371.45" stroke-dasharray="5 3" transform="rotate(96.96, 400, 400)"></path></g></svg>