<svg xmlns="http://www.w3.org/2000/svg" xmlns:xlink="http://www.w3.org/1999/xlink" xmlns:svgjs="http://svgjs.dev/svgjs" viewBox="0 0 800 800"><g stroke-width="2" stroke="#ff1361" fill="none" stroke-linecap="round"><path d="M379.88 102.69C389.28 104.75 398.66 107.68 408.01 111.34 417.38 115.19 426.73 119.54 436.06 124.25 445.44 128.82 454.83 133.56 464.24 138.37 473.73 142.78 483.27 147.17 492.87 151.48 502.59 155.3 512.4 159.06 522.29 162.75 532.33 166 542.48 169.28 552.7 172.63 563.05 175.67 573.45 178.9 583.86 182.37 594.32 185.71 604.7 189.41 614.91 193.5 625.02 197.6 634.82 202.17 644.17 207.21 653.21 212.37 661.62 218.04 669.26 224.19 676.34 230.5 682.46 237.3 687.49 244.53 691.77 251.91 694.85 259.7 696.65 267.84 697.66 276.11 697.4 284.68 695.91 293.5 693.8 302.41 690.63 311.52 686.53 320.78 682.22 330.08 677.32 339.5 672.01 348.99 667.05 358.49 662.09 368.03 657.31 377.57 653.41 387.11 650.09 396.42 647.4 405.48 645.81 414.54 644.86 423.37 644.51 431.97 645.13 440.61 646.15 449.05 647.43 457.33 649.34 465.69 651.21 473.95 652.89 482.14 654.76 490.51 656.16 498.9 656.94 507.34 657.55 516.06 657.34 524.93 656.27 533.98 654.79 543.38 652.35 553.02 648.96 562.92 645.09 573.15 640.29 583.62 634.63 594.26 628.52 605.11 621.63 616.01 614.07 626.81 606.16 637.54 597.69 647.92 588.75 657.76 579.59 667.1 570.07 675.58 560.28 682.98 550.38 689.46 540.28 694.57 530.05 698.17 519.79 700.61 509.46 701.44 499.1 700.64 488.75 698.82 478.39 695.59 468.07 691.09 457.78 686.14 447.52 680.43 437.33 674.25 427.15 668.48 417.03 662.87 407 657.7 396.96 653.77 387.22 650.8 377.79 648.87 368.33 648.42 359.16 648.94 350.27 650.29 341.34 652.79 332.67 655.72 324.25 658.83 315.78 662.43 307.54 665.71 299.53 668.43 291.43 670.94 283.54 672.49 275.86 672.94 268.05 672.72 260.43 671.21 252.99 668.42 245.41 664.79 237.99 659.91 230.74 653.87 223.35 647.1 216.11 639.34 209.05 630.75 201.86 621.65 194.85 611.94 188.06 601.76 181.16 591.33 174.51 580.62 168.13 569.74 161.71 558.81 155.61 547.82 149.88 536.87 144.18 525.97 138.89 515.15 134.05 504.44 129.33 493.83 125.12 483.33 121.45 472.97 117.95 462.69 115.04 452.52 112.74 442.47 110.65 432.46 109.19 422.55 108.39 412.73 107.8 402.94 107.86 393.21 108.6 383.58 109.49 373.95 111.01 364.63 113.08 355.63 115.25 346.63 117.92 337.95 121.06 329.6 124.19 321.25 127.73 313.25 131.64 305.6 135.45 297.96 139.59 290.67 144 283.76 148.26 276.83 152.76 270.25 157.49 264.03 162.03 257.75 166.78 251.78 171.72 246.12 176.46 240.32 181.42 234.76 186.57 229.41 191.55 223.82 196.75 218.37 202.18 213 207.47 207.32 213.02 201.65 218.83 195.98 224.55 189.93 230.57 183.83 236.86 177.7 243.11 171.2 249.67 164.69 256.53 158.22 263.37 151.51 270.52 144.93 277.97 138.6 285.41 132.24 293.15 126.29 301.16 120.87 309.18 115.69 317.47 111.23 326 107.6 334.53 104.46 343.3 102.29 352.29 101.15 361.28 100.61 370.48 101.12 379.87 102.69" stroke-dasharray="9 9" transform="rotate(0, 400, 400)"></path><path d="M382.24 113.36C391.33 115.4 400.43 118.26 409.54 121.83 418.66 125.59 427.81 129.85 436.97 134.48 446.16 138.99 455.4 143.69 464.67 148.49 474.02 152.94 483.43 157.38 492.91 161.77 502.48 165.7 512.14 169.57 521.87 173.38 531.71 176.76 541.62 180.15 551.57 183.57 561.6 186.68 571.64 189.93 581.62 193.37 591.61 196.64 601.46 200.2 611.07 204.09 620.54 207.95 629.65 212.21 638.27 216.89 646.56 221.63 654.2 226.84 661.07 232.49 667.4 238.25 672.79 244.47 677.16 251.11 680.83 257.87 683.38 265.03 684.75 272.54 685.42 280.15 684.93 288.09 683.33 296.29 681.2 304.57 678.12 313.08 674.21 321.77 670.14 330.5 665.53 339.38 660.56 348.37 655.92 357.38 651.26 366.47 646.75 375.61 643.05 384.76 639.84 393.74 637.18 402.54 635.52 411.35 634.42 419.99 633.85 428.48 634.18 437.01 634.87 445.41 635.81 453.72 637.36 462.11 638.9 470.47 640.3 478.82 641.93 487.32 643.16 495.9 643.88 504.56 644.5 513.46 644.42 522.52 643.57 531.76 642.4 541.28 640.37 551.01 637.48 560.93 634.18 571.1 630.01 581.42 625.04 591.82 619.67 602.32 613.54 612.76 606.75 623 599.64 633.07 591.95 642.71 583.77 651.73 575.38 660.21 566.58 667.8 557.48 674.31 548.25 679.94 538.78 684.26 529.14 687.14 519.46 688.99 509.65 689.36 499.78 688.25 489.9 686.25 479.98 682.99 470.06 678.6 460.16 673.86 450.27 668.45 440.42 662.62 430.58 657.2 420.78 651.92 411.03 647.03 401.29 643.27 391.82 640.36 382.64 638.38 373.43 637.75 364.48 637.99 355.8 638.99 347.07 641.08 338.59 643.59 330.34 646.31 322.03 649.54 313.94 652.55 306.06 655.11 298.09 657.57 290.31 659.23 282.72 659.94 275.03 660.11 267.5 659.15 260.13 657.03 252.65 654.18 245.31 650.16 238.14 645.06 230.84 639.26 223.7 632.5 216.73 624.9 209.65 616.79 202.75 608.01 196.06 598.71 189.31 589.11 182.79 579.16 176.54 568.96 170.28 558.64 164.33 548.2 158.74 537.72 153.21 527.24 148.07 516.78 143.39 506.39 138.83 496.05 134.76 485.8 131.22 475.67 127.86 465.6 125.06 455.63 122.87 445.8 120.89 436 119.52 426.31 118.79 416.74 118.27 407.18 118.38 397.73 119.15 388.41 120.08 379.08 121.61 370.08 123.68 361.42 125.85 352.75 128.51 344.42 131.62 336.43 134.73 328.43 138.24 320.76 142.09 313.45 145.87 306.12 149.96 299.13 154.31 292.48 158.53 285.8 162.98 279.43 167.65 273.38 172.13 267.24 176.82 261.37 181.69 255.75 186.38 249.98 191.26 244.39 196.32 238.97 201.21 233.31 206.31 227.74 211.61 222.24 216.78 216.42 222.18 210.61 227.82 204.78 233.36 198.61 239.16 192.4 245.23 186.18 251.23 179.64 257.52 173.12 264.09 166.67 270.63 160.03 277.46 153.57 284.57 147.38 291.67 141.21 299.05 135.47 306.71 130.26 314.35 125.33 322.27 121.09 330.43 117.67 338.59 114.73 347 112.72 355.64 111.7 364.27 111.25 373.14 111.8 382.23 113.36" stroke-dasharray="8 7" transform="rotate(4.04, 400, 400)"></path><path d="M385.28 124.04C394.07 126.03 402.9 128.83 411.77 132.31 420.64 135.97 429.56 140.13 438.52 144.66 447.51 149.11 456.56 153.76 465.66 158.53 474.82 162.99 484.05 167.47 493.34 171.91 502.71 175.94 512.14 179.92 521.63 183.85 531.19 187.36 540.79 190.86 550.39 194.39 560.04 197.58 569.64 200.88 579.13 204.33 588.58 207.58 597.84 211.06 606.81 214.82 615.61 218.5 624.01 222.52 631.9 226.92 639.44 231.32 646.33 236.14 652.45 241.36 658.06 246.65 662.78 252.36 666.52 258.47 669.64 264.67 671.71 271.26 672.7 278.19 673.08 285.21 672.41 292.55 670.73 300.18 668.62 307.86 665.65 315.8 661.92 323.95 658.1 332.13 653.79 340.5 649.14 349.02 644.81 357.55 640.45 366.22 636.2 374.99 632.69 383.76 629.59 392.43 626.97 400.99 625.25 409.55 624.03 418.03 623.26 426.4 623.32 434.82 623.71 443.19 624.34 451.5 625.54 459.91 626.75 468.33 627.87 476.78 629.25 485.38 630.29 494.07 630.91 502.86 631.49 511.86 631.47 521 630.78 530.31 629.84 539.83 628.15 549.51 625.68 559.31 622.87 569.29 619.27 579.33 614.92 589.35 610.21 599.39 604.79 609.27 598.72 618.86 592.36 628.21 585.42 637.06 577.98 645.23 570.33 652.85 562.26 659.57 553.85 665.21 545.31 670.03 536.49 673.62 527.47 675.86 518.38 677.17 509.13 677.14 499.78 675.77 490.4 673.64 480.96 670.38 471.48 666.13 462 661.61 452.51 656.49 443.02 651.02 433.55 645.94 424.08 640.98 414.65 636.35 405.22 632.77 396.03 629.93 387.09 627.9 378.14 627.11 369.43 627.1 360.95 627.78 352.43 629.48 344.13 631.58 336.04 633.91 327.9 636.77 319.96 639.48 312.2 641.85 304.37 644.21 296.71 645.9 289.22 646.79 281.64 647.27 274.2 646.74 266.93 645.19 259.55 643.02 252.31 639.78 245.23 635.52 238.04 630.65 231 624.83 224.14 618.19 217.19 611.05 210.42 603.22 203.87 594.83 197.26 586.11 190.89 576.98 184.8 567.53 178.71 557.93 172.93 548.13 167.51 538.22 162.15 528.26 157.19 518.27 152.67 508.3 148.27 498.34 144.36 488.44 140.97 478.63 137.75 468.85 135.08 459.16 133 449.6 131.13 440.06 129.85 430.63 129.19 421.34 128.74 412.05 128.9 402.89 129.7 393.86 130.66 384.83 132.2 376.14 134.27 367.79 136.42 359.43 139.06 351.4 142.13 343.72 145.21 336.01 148.68 328.63 152.48 321.59 156.21 314.51 160.25 307.74 164.54 301.29 168.71 294.78 173.1 288.56 177.71 282.61 182.14 276.55 186.78 270.71 191.58 265.09 196.21 259.3 201.02 253.66 206.01 248.14 210.82 242.38 215.83 236.69 221.03 231.04 226.09 225.1 231.36 219.15 236.85 213.2 242.23 206.93 247.85 200.65 253.72 194.37 259.51 187.83 265.57 181.33 271.89 174.95 278.16 168.42 284.71 162.11 291.52 156.09 298.31 150.13 305.37 144.62 312.7 139.65 320.01 134.96 327.58 130.96 335.41 127.76 343.23 125.01 351.3 123.16 359.62 122.26 367.92 121.89 376.48 122.48 385.27 124.03" stroke-dasharray="3 11" transform="rotate(8.08, 400, 400)"></path><path d="M388.88 134.71C397.38 136.67 405.94 139.39 414.55 142.76 423.17 146.33 431.85 150.38 440.58 154.8 449.34 159.16 458.16 163.75 467.04 168.47 475.97 172.93 484.96 177.42 494 181.91 503.1 186.02 512.25 190.1 521.41 194.13 530.63 197.77 539.86 201.39 549.04 205.03 558.22 208.33 567.32 211.71 576.26 215.2 585.13 218.47 593.76 221.93 602.07 225.61 610.19 229.17 617.87 233.03 625.02 237.2 631.83 241.35 637.99 245.85 643.41 250.72 648.34 255.62 652.43 260.9 655.6 266.56 658.22 272.27 659.87 278.34 660.53 284.76 660.66 291.24 659.85 298.04 658.13 305.14 656.05 312.28 653.2 319.69 649.68 327.33 646.09 335 642.07 342.89 637.74 350.97 633.71 359.05 629.64 367.31 625.65 375.72 622.32 384.14 619.34 392.51 616.77 400.83 615.01 409.17 613.68 417.46 612.74 425.72 612.56 434.02 612.67 442.32 612.99 450.62 613.86 459 614.77 467.43 615.6 475.92 616.71 484.53 617.55 493.25 618.04 502.08 618.54 511.06 618.53 520.18 617.94 529.42 617.18 538.82 615.74 548.32 613.62 557.89 611.22 567.54 608.11 577.18 604.3 586.72 600.18 596.19 595.4 605.43 590 614.31 584.34 622.88 578.11 630.91 571.38 638.23 564.45 644.99 557.09 650.86 549.36 655.69 541.5 659.75 533.34 662.66 524.94 664.32 516.46 665.17 507.8 664.79 498.99 663.21 490.15 660.99 481.2 657.77 472.19 653.68 463.16 649.38 454.09 644.57 445 639.43 435.91 634.69 426.8 630.04 417.7 625.68 408.6 622.26 399.71 619.49 391.04 617.44 382.35 616.51 373.88 616.28 365.61 616.66 357.31 617.98 349.2 619.7 341.28 621.64 333.32 624.13 325.52 626.53 317.9 628.67 310.21 630.88 302.68 632.54 295.3 633.53 287.84 634.21 280.52 634.04 273.35 632.95 266.09 631.36 258.96 628.8 251.99 625.3 244.93 621.26 238.02 616.33 231.29 610.6 224.49 604.4 217.87 597.5 211.47 590.02 205.03 582.2 198.83 573.92 192.91 565.29 187.01 556.45 181.42 547.37 176.18 538.12 171.01 528.78 166.24 519.35 161.89 509.88 157.68 500.4 153.93 490.93 150.7 481.52 147.63 472.11 145.1 462.78 143.14 453.55 141.38 444.33 140.19 435.21 139.61 426.22 139.22 417.24 139.43 408.37 140.25 399.65 141.23 390.92 142.77 382.52 144.82 374.46 146.97 366.38 149.57 358.63 152.6 351.2 155.64 343.75 159.05 336.61 162.79 329.77 166.47 322.89 170.45 316.3 174.68 309.99 178.79 303.6 183.13 297.46 187.67 291.56 192.05 285.53 196.63 279.7 201.37 274.03 205.95 268.19 210.7 262.47 215.61 256.84 220.36 250.98 225.29 245.17 230.39 239.39 235.36 233.33 240.52 227.28 245.88 221.22 251.13 214.9 256.6 208.57 262.29 202.28 267.9 195.77 273.76 189.35 279.85 183.06 285.89 176.69 292.19 170.55 298.74 164.74 305.25 159.01 312.03 153.74 319.06 149.02 326.07 144.59 333.34 140.84 340.86 137.85 348.36 135.31 356.12 133.61 364.12 132.83 372.12 132.54 380.37 133.17 388.87 134.71" stroke-dasharray="1 1" transform="rotate(12.12, 400, 400)"></path><path d="M392.91 145.38C401.13 147.3 409.41 149.94 417.74 153.2 426.09 156.66 434.51 160.59 442.98 164.89 451.48 169.16 460.04 173.66 468.64 178.32 477.29 182.75 485.99 187.25 494.72 191.76 503.5 195.93 512.29 200.09 521.08 204.21 529.9 207.97 538.68 211.71 547.38 215.45 556.05 218.88 564.6 222.35 572.95 225.91 581.2 229.23 589.18 232.71 596.81 236.36 604.23 239.87 611.2 243.62 617.63 247.64 623.73 251.59 629.2 255.86 633.95 260.45 640.01 267.5 647.23 283.36 648.25 292.15 648.18 298.15 647.27 304.47 645.53 311.1 643.5 317.74 640.79 324.67 637.48 331.86 634.14 339.06 630.4 346.5 626.37 354.17 622.63 361.83 618.84 369.71 615.1 377.78 611.95 385.86 609.1 393.95 606.58 402.03 604.8 410.12 603.37 418.23 602.28 426.35 601.88 434.51 601.74 442.7 601.79 450.93 602.35 459.23 602.95 467.61 603.51 476.06 604.35 484.61 604.98 493.27 605.31 502.02 605.7 510.89 605.66 519.86 605.12 528.91 604.46 538.07 603.22 547.27 601.38 556.46 599.31 565.68 596.6 574.82 593.26 583.78 589.67 592.61 585.46 601.14 580.66 609.25 575.63 617.03 570.06 624.22 564 630.7 557.75 636.63 551.06 641.68 544.01 645.75 536.82 649.12 529.3 651.4 521.52 652.56 513.67 652.99 505.59 652.33 497.34 650.59 489.05 648.33 480.62 645.18 472.09 641.25 463.54 637.19 454.91 632.68 446.23 627.88 437.55 623.46 428.82 619.11 420.07 615.01 411.31 611.75 402.74 609.07 394.35 607.01 385.95 605.95 377.72 605.51 369.68 605.62 361.61 606.6 353.7 607.95 345.96 609.52 338.19 611.64 330.56 613.71 323.09 615.59 315.56 617.62 308.17 619.19 300.92 620.21 293.6 621.02 286.41 621.1 279.37 620.39 272.24 619.27 265.26 617.29 258.42 614.46 251.51 611.16 244.75 607.03 238.17 602.14 231.54 596.83 225.09 590.82 218.86 584.23 212.62 577.31 206.62 569.9 200.89 562.09 195.2 554.07 189.81 545.75 184.76 537.21 179.81 528.56 175.23 519.76 171.08 510.88 167.06 501.95 163.49 492.99 160.41 484.04 157.51 475.09 155.12 466.17 153.28 457.32 151.63 448.49 150.54 439.72 150.03 431.07 149.71 422.42 149.96 413.87 150.8 405.45 151.8 397.03 153.34 388.92 155.36 381.13 157.48 373.32 160.05 365.82 163.02 358.61 166.01 351.38 169.36 344.43 173.03 337.76 176.65 331.04 180.56 324.57 184.71 318.35 188.77 312.04 193.04 305.95 197.51 300.05 201.84 294.03 206.35 288.17 211.03 282.44 215.55 276.54 220.24 270.73 225.08 264.99 229.77 259.04 234.63 253.12 239.65 247.23 244.54 241.09 249.6 234.96 254.85 228.85 259.98 222.5 265.32 216.18 270.86 209.92 276.32 203.49 281.99 197.18 287.9 191.03 293.73 184.84 299.81 178.92 306.13 173.33 312.4 167.87 318.92 162.86 325.68 158.4 332.42 154.23 339.4 150.73 346.64 147.96 353.85 145.62 361.32 144.08 369.03 143.41 376.73 143.2 384.69 143.86 392.9 145.38" stroke-dasharray="5 8" transform="rotate(16.16, 400, 400)"></path><path d="M397.22 156.06C405.14 157.92 413.13 160.48 421.18 163.63 429.24 166.97 437.37 170.77 445.55 174.94 453.75 179.1 462.01 183.51 470.3 188.08 478.62 192.47 486.98 196.95 495.35 201.45 503.74 205.67 512.13 209.88 520.48 214.08 528.84 217.94 537.12 221.8 545.3 225.64 553.42 229.19 561.38 232.77 569.12 236.41 576.73 239.82 584.04 243.34 590.98 247 597.71 250.5 603.98 254.2 609.73 258.12 615.15 261.95 619.96 266.06 624.09 270.44 629.31 277.11 635.25 291.99 635.88 300.22 635.65 305.82 634.66 311.73 632.94 317.94 630.99 324.15 628.42 330.65 625.32 337.42 622.22 344.2 618.76 351.23 615.03 358.51 611.57 365.79 608.05 373.31 604.55 381.05 601.58 388.8 598.85 396.6 596.4 404.44 594.6 412.28 593.1 420.19 591.89 428.13 591.29 436.11 590.92 444.15 590.71 452.25 590.99 460.41 591.31 468.66 591.59 476.98 592.17 485.38 592.58 493.87 592.73 502.44 592.99 511.09 592.88 519.8 592.34 528.55 591.74 537.35 590.64 546.14 589 554.87 587.2 563.55 584.83 572.09 581.88 580.4 578.74 588.53 575.02 596.31 570.76 603.63 566.3 610.6 561.33 616.97 555.88 622.62 550.27 627.75 544.22 632.04 537.8 635.4 531.25 638.13 524.37 639.87 517.2 640.57 509.96 640.67 502.47 639.77 494.78 637.92 487.05 635.65 479.14 632.59 471.11 628.86 463.06 625.04 454.89 620.82 446.64 616.35 438.38 612.24 430.05 608.19 421.67 604.33 413.28 601.25 405.03 598.64 396.94 596.58 388.84 595.43 380.89 594.8 373.08 594.66 365.26 595.33 357.58 596.32 350.04 597.54 342.47 599.29 335.03 601.03 327.72 602.64 320.37 604.44 313.14 605.88 306.05 606.87 298.9 607.74 291.86 607.98 284.97 607.55 278.01 606.81 271.19 605.3 264.5 603.04 257.78 600.39 251.2 596.98 244.79 592.85 238.35 588.35 232.11 583.19 226.07 577.44 220.05 571.39 214.26 564.83 208.74 557.85 203.27 550.66 198.11 543.12 193.28 535.33 188.54 527.41 184.18 519.29 180.23 511.04 176.41 502.73 173.03 494.34 170.12 485.92 167.38 477.48 165.14 469.03 163.43 460.62 161.9 452.21 160.9 443.84 160.46 435.55 160.21 427.27 160.5 419.07 161.36 410.96 162.37 402.86 163.89 395.04 165.88 387.5 167.97 379.95 170.49 372.68 173.39 365.67 176.32 358.64 179.61 351.85 183.19 345.32 186.75 338.72 190.58 332.35 194.65 326.19 198.63 319.94 202.84 313.87 207.23 307.96 211.5 301.93 215.94 296.02 220.55 290.23 225.02 284.27 229.64 278.38 234.42 272.55 239.05 266.52 243.84 260.52 248.78 254.55 253.59 248.37 258.57 242.21 263.71 236.08 268.74 229.76 273.96 223.49 279.37 217.31 284.69 211.01 290.21 204.84 295.94 198.88 301.6 192.91 307.49 187.22 313.59 181.89 319.65 176.7 325.94 171.97 332.46 167.79 338.94 163.89 345.67 160.64 352.63 158.09 359.58 155.94 366.77 154.57 374.2 154 381.62 153.87 389.29 154.56 397.21 156.05" stroke-dasharray="2 4" transform="rotate(20.200000000000003, 400, 400)"></path><path d="M401.63 166.73C409.25 168.55 416.94 171.01 424.69 174.04 432.44 177.26 440.26 180.93 448.11 184.96 455.98 188.99 463.9 193.28 471.83 197.75 479.79 202.08 487.76 206.51 495.71 210.99 503.68 215.22 511.62 219.47 519.49 223.72 527.34 227.67 535.09 231.62 542.7 235.56 550.25 239.22 557.6 242.91 564.69 246.64 571.66 250.14 578.31 253.73 584.57 257.43 590.63 260.96 596.23 264.65 601.31 268.53 608.19 274.29 618.31 286.91 621.35 293.85 623.12 301.04 622.57 316.85 620.37 325.48 618.51 331.32 616.1 337.45 613.22 343.85 610.35 350.25 607.16 356.91 603.71 363.83 600.53 370.75 597.26 377.93 593.99 385.36 591.2 392.78 588.6 400.29 586.22 407.87 584.42 415.45 582.87 423.12 581.55 430.85 580.79 438.6 580.21 446.44 579.78 454.35 579.79 462.3 579.84 470.34 579.87 478.45 580.19 486.6 580.37 494.84 580.35 503.12 580.45 511.44 580.23 519.79 579.66 528.13 579.08 536.47 578.05 544.76 576.56 552.92 574.97 561 572.86 568.88 570.24 576.48 567.47 583.87 564.18 590.88 560.39 597.39 556.43 603.56 551.99 609.12 547.1 613.98 542.07 618.36 536.62 621.95 530.79 624.66 524.85 626.82 518.58 628.08 512 628.4 505.35 628.21 498.44 627.13 491.3 625.22 484.12 622.96 476.75 620.02 469.21 616.49 461.66 612.92 453.97 609 446.16 604.85 438.35 601.04 430.43 597.27 422.43 593.66 414.43 590.74 406.53 588.23 398.76 586.18 390.98 584.94 383.31 584.15 375.77 583.79 368.22 584.17 360.78 584.84 353.46 585.72 346.12 587.11 338.88 588.52 331.77 589.85 324.63 591.4 317.59 592.67 310.67 593.56 303.71 594.42 296.86 594.76 290.14 594.52 283.38 594.06 276.75 592.93 270.26 591.14 263.73 589.03 257.36 586.24 251.16 582.79 244.94 579.01 238.92 574.62 233.11 569.66 227.32 564.42 221.77 558.68 216.48 552.51 211.26 546.13 206.33 539.38 201.73 532.34 197.23 525.17 193.09 517.76 189.35 510.18 185.74 502.53 182.56 494.75 179.83 486.9 177.26 479.01 175.17 471.08 173.58 463.15 172.17 455.2 171.27 447.27 170.9 439.38 170.71 431.49 171.04 423.65 171.91 415.87 172.92 408.1 174.43 400.57 176.38 393.29 178.43 386 180.89 378.94 183.72 372.12 186.59 365.27 189.79 358.64 193.29 352.21 196.76 345.74 200.5 339.44 204.48 333.32 208.39 327.12 212.5 321.06 216.81 315.14 221.01 309.1 225.38 303.16 229.91 297.3 234.31 291.3 238.87 285.36 243.57 279.46 248.14 273.4 252.86 267.36 257.72 261.36 262.46 255.18 267.35 249.03 272.4 242.93 277.34 236.69 282.46 230.53 287.74 224.47 292.93 218.33 298.32 212.37 303.89 206.62 309.39 200.9 315.1 195.48 321.01 190.42 326.88 185.53 332.95 181.1 339.25 177.19 345.51 173.57 351.99 170.57 358.7 168.24 365.39 166.29 372.31 165.06 379.47 164.6 386.61 164.55 394 165.25 401.62 166.73" stroke-dasharray="4 11" transform="rotate(24.24, 400, 400)"></path><path d="M405.98 177.4C413.29 179.16 420.67 181.53 428.09 184.44 435.51 187.53 442.99 191.05 450.49 194.93 458 198.83 465.54 202.98 473.07 207.34 480.62 211.58 488.17 215.94 495.67 220.37 503.17 224.6 510.62 228.86 517.97 233.13 525.29 237.14 532.48 241.16 539.5 245.18 546.45 248.95 553.18 252.74 559.64 256.56 565.96 260.15 571.95 263.82 577.56 267.58 585.45 273.02 598.4 284.46 603.25 290.56 607.03 296.77 610.88 310.33 610.93 317.72 609.97 325.36 604.95 341.96 601.16 350.93 598.52 356.99 595.59 363.32 592.43 369.91 589.5 376.49 586.48 383.34 583.44 390.46 580.82 397.57 578.35 404.78 576.05 412.07 574.26 419.37 572.67 426.77 571.27 434.23 570.37 441.72 569.61 449.3 568.97 456.94 568.75 464.62 568.55 472.37 568.34 480.17 568.41 488.01 568.37 495.89 568.16 503.78 568.09 511.69 567.76 519.58 567.12 527.42 566.51 535.23 565.52 542.93 564.13 550.46 562.67 557.88 560.77 565.06 558.42 571.92 555.95 578.55 553.01 584.77 549.62 590.5 546.1 595.88 542.14 600.68 537.75 604.8 530.78 609.95 514.82 615.63 505.95 616.06 499.87 615.63 493.51 614.43 486.92 612.49 480.28 610.28 473.43 607.48 466.4 604.16 459.35 600.84 452.14 597.2 444.78 593.37 437.42 589.85 429.93 586.36 422.33 582.99 414.73 580.23 407.21 577.81 399.77 575.79 392.33 574.48 384.98 573.56 377.72 573 370.46 573.11 363.28 573.48 356.21 574.05 349.12 575.1 342.13 576.18 335.24 577.22 328.32 578.5 321.51 579.57 314.8 580.34 308.06 581.13 301.43 581.49 294.92 581.36 288.38 581.09 281.97 580.25 275.69 578.83 269.41 577.16 263.26 574.89 257.3 572.02 251.33 568.88 245.55 565.17 239.99 560.93 234.46 556.44 229.16 551.46 224.13 546.05 219.16 540.45 214.49 534.47 210.13 528.17 205.88 521.74 201.98 515.05 198.46 508.15 195.07 501.17 192.09 494.03 189.54 486.77 187.15 479.47 185.22 472.09 183.76 464.66 182.47 457.22 181.66 449.75 181.36 442.28 181.22 434.81 181.59 427.35 182.46 419.92 183.47 412.49 184.96 405.26 186.86 398.24 188.86 391.21 191.26 384.38 194.01 377.74 196.79 371.07 199.91 364.59 203.31 358.27 206.69 351.91 210.33 345.69 214.21 339.62 218.02 333.47 222.05 327.43 226.26 321.5 230.37 315.47 234.66 309.52 239.1 303.63 243.43 297.62 247.91 291.65 252.53 285.73 257.03 279.67 261.67 273.64 266.45 267.65 271.11 261.53 275.93 255.45 280.88 249.44 285.73 243.33 290.74 237.31 295.91 231.42 300.99 225.51 306.24 219.77 311.67 214.27 317.03 208.84 322.57 203.71 328.3 198.95 333.99 194.37 339.87 190.23 345.95 186.62 351.99 183.28 358.25 180.53 364.71 178.41 371.15 176.66 377.81 175.58 384.69 175.22 391.56 175.23 398.65 175.96 405.97 177.4" stroke-dasharray="2 3" transform="rotate(28.28, 400, 400)"></path><path d="M410.1 188.07C417.09 189.78 424.14 192.05 431.21 194.83 438.29 197.78 445.4 201.15 452.51 204.86 459.64 208.61 466.77 212.62 473.88 216.84 480.99 220.97 488.07 225.24 495.09 229.6 502.1 233.79 509.03 238.03 515.84 242.3 522.6 246.34 529.22 250.41 535.64 254.49 541.99 258.33 548.09 262.21 553.92 266.11 559.61 269.8 564.97 273.55 569.95 277.37 576.93 282.9 588.2 294.36 592.34 300.4 595.51 306.49 598.54 319.64 598.4 326.74 597.38 334.04 592.64 349.87 589.15 358.4 586.74 364.17 584.06 370.19 581.17 376.47 578.49 382.75 575.71 389.28 572.89 396.08 570.44 402.87 568.1 409.77 565.89 416.76 564.12 423.75 562.51 430.84 561.05 438 560.02 445.18 559.11 452.43 558.3 459.75 557.86 467.08 557.44 474.47 557.01 481.89 556.85 489.32 556.59 496.77 556.2 504.19 555.95 511.61 555.49 518.97 554.77 526.24 554.1 533.45 553.11 540.51 551.77 547.36 550.4 554.08 548.65 560.53 546.5 566.63 542.95 575.24 533.64 589.6 527.91 595.07 521.65 599.3 507.21 603.57 499.13 603.57 493.58 602.96 487.76 601.68 481.69 599.75 475.58 597.62 469.24 594.97 462.7 591.87 456.15 588.8 449.41 585.45 442.51 581.92 435.61 578.68 428.56 575.45 421.37 572.31 414.19 569.72 407.05 567.4 399.97 565.41 392.89 564.05 385.87 563.02 378.92 562.29 371.98 562.16 365.1 562.26 358.3 562.54 351.49 563.26 344.76 564.04 338.13 564.78 331.47 565.79 324.9 566.63 318.44 567.24 311.96 567.91 305.57 568.24 299.3 568.16 293.02 568 286.86 567.36 280.84 566.21 274.81 564.89 268.93 563.04 263.23 560.65 257.54 558.06 252.03 554.94 246.74 551.32 241.48 547.5 236.46 543.21 231.7 538.5 227.01 533.63 222.6 528.37 218.51 522.79 214.51 517.08 210.86 511.09 207.57 504.86 204.4 498.55 201.63 492.05 199.27 485.39 197.06 478.7 195.27 471.88 193.94 464.97 192.77 458.05 192.06 451.06 191.83 444.04 191.74 437.01 192.14 429.95 193.01 422.88 194.02 415.81 195.47 408.89 197.33 402.14 199.27 395.39 201.59 388.78 204.25 382.33 206.95 375.86 209.96 369.53 213.25 363.33 216.53 357.09 220.07 350.97 223.82 344.95 227.54 338.88 231.45 332.89 235.55 326.98 239.57 320.99 243.76 315.05 248.1 309.17 252.35 303.19 256.74 297.25 261.26 291.36 265.68 285.35 270.24 279.39 274.92 273.47 279.51 267.45 284.23 261.5 289.08 255.63 293.84 249.7 298.75 243.88 303.8 238.21 308.77 232.55 313.9 227.09 319.18 221.87 324.4 216.74 329.79 211.93 335.34 207.49 340.85 203.23 346.54 199.4 352.41 196.08 358.25 193.02 364.28 190.52 370.5 188.62 376.7 187.05 383.1 186.12 389.7 185.85 396.29 185.93 403.09 186.67 410.09 188.07" stroke-dasharray="8 1" transform="rotate(32.32, 400, 400)"></path><path d="M413.83 198.75C420.49 200.38 427.19 202.56 433.89 205.2 440.6 208.01 447.32 211.22 454.03 214.76 460.74 218.35 467.44 222.2 474.1 226.26 480.75 230.26 487.35 234.42 493.86 238.67 500.36 242.8 506.75 246.99 513 251.22 519.2 255.28 525.24 259.36 531.07 263.46 536.81 267.37 542.31 271.3 547.53 275.26 554.99 280.94 567.88 292.35 573.14 298.16 577.63 303.9 583.78 315.93 585.37 322.31 586.12 328.78 584.81 342.7 582.86 350.18 581.34 355.22 579.44 360.5 577.2 366.01 575.01 371.51 572.57 377.25 569.94 383.23 567.49 389.21 564.94 395.44 562.34 401.91 560.06 408.38 557.84 414.96 555.73 421.61 554 428.27 552.38 435.02 550.87 441.83 549.75 448.64 548.72 455.53 547.75 462.45 547.12 469.38 546.51 476.34 545.88 483.31 545.5 490.27 545.04 497.22 544.47 504.11 544.05 510.97 543.44 517.75 542.62 524.39 541.87 530.96 540.85 537.35 539.53 543.5 537.39 552.36 531.32 568.07 527.34 574.67 522.88 580.32 512.06 588.23 505.74 590.35 498.99 591.3 483.92 589.56 475.68 587.01 470.07 584.98 464.23 582.5 458.18 579.62 452.11 576.8 445.84 573.73 439.41 570.49 432.96 567.53 426.35 564.55 419.59 561.64 412.84 559.2 406.1 556.99 399.39 555.05 392.69 553.65 386.03 552.53 379.42 551.66 372.81 551.32 366.25 551.17 359.76 551.18 353.26 551.61 346.83 552.08 340.47 552.55 334.11 553.28 327.83 553.88 321.64 554.3 315.44 554.82 309.33 555.06 303.34 554.97 294.41 554.59 277.2 551.55 268.98 548.79 263.59 546.64 258.38 544.01 253.38 540.93 248.42 537.69 243.7 534.02 239.22 529.94 234.82 525.72 230.69 521.13 226.87 516.21 223.14 511.18 219.73 505.85 216.68 500.27 213.75 494.62 211.18 488.74 209.01 482.69 206.98 476.59 205.35 470.34 204.15 463.96 203.1 457.57 202.48 451.07 202.3 444.5 202.28 437.93 202.69 431.28 203.56 424.59 204.56 417.9 205.97 411.31 207.77 404.85 209.65 398.38 211.88 392.02 214.45 385.78 217.05 379.52 219.95 373.36 223.12 367.3 226.29 361.21 229.7 355.2 233.33 349.28 236.93 343.31 240.72 337.4 244.7 331.55 248.61 325.63 252.68 319.77 256.91 313.95 261.05 308.05 265.34 302.19 269.75 296.38 274.08 290.48 278.54 284.63 283.12 278.85 287.61 273 292.23 267.22 296.98 261.55 301.64 255.85 306.44 250.28 311.36 244.88 316.22 239.5 321.21 234.34 326.35 229.45 331.43 224.65 336.66 220.17 342.04 216.05 347.38 212.12 352.88 208.61 358.54 205.58 364.17 202.8 369.98 200.55 375.95 198.86 381.91 197.47 388.04 196.67 394.35 196.5 400.66 196.63 407.15 197.38 413.81 198.75" stroke-dasharray="9 9" transform="rotate(36.36, 400, 400)"></path><path d="M417.02 209.42C423.35 210.99 429.68 213.05 436 215.56 442.32 218.22 448.63 221.26 454.91 224.62 467.48 231.48 479.88 239.26 491.9 247.6 503.81 255.52 515.19 263.74 525.76 272.1 536 279.77 545.18 287.61 553.01 295.6 560.23 303 565.86 310.76 569.66 318.92 572.74 326.72 573.95 335.15 573.27 344.24 572.12 353.16 569.39 362.89 565.3 373.45 563.33 378.71 561.12 384.18 558.73 389.88 556.51 395.57 554.19 401.49 551.78 407.64 549.67 413.78 547.59 420.01 545.57 426.31 543.89 432.61 542.28 438.98 540.75 445.4 538.69 458.24 536.8 471.25 534.95 484.18 534.02 497.04 532.68 509.67 530.73 521.74 529.11 533.44 526.47 544.24 522.71 553.72 518.85 562.37 513.69 569.29 507.25 574.11 500.59 577.77 492.65 579.17 483.58 578.24 474.35 576.43 464.07 572.72 452.92 567.42 447.32 564.84 441.52 562.05 435.54 559.09 429.55 556.39 423.38 553.66 417.06 550.97 410.74 548.69 404.41 546.59 398.1 544.7 391.79 543.29 385.51 542.09 379.25 541.1 366.76 540.51 354.4 540.43 342.33 540.53 330.25 541.66 318.45 542.23 307.07 541.87 295.73 541.59 284.84 539.85 274.6 536.56 264.5 532.82 255.13 527.41 246.71 520.47 238.59 513.07 231.55 504.3 225.81 494.42 220.53 484.28 216.66 473.25 214.38 461.57 213.44 455.71 212.91 449.71 212.8 443.6 212.82 437.48 213.25 431.26 214.12 424.96 215.1 418.66 216.46 412.42 218.19 406.26 220 400.1 222.15 394.01 224.6 387.99 229.63 375.93 235.74 364.11 242.73 352.57 249.63 340.87 257.28 329.32 265.51 317.98 273.49 306.41 282.03 294.98 291.01 283.84 299.71 272.56 308.9 261.67 318.53 251.45 327.93 241.42 337.86 232.37 348.3 224.66 358.58 217.66 369.47 212.37 380.93 209.13 386.63 207.91 392.5 207.25 398.51 207.16 404.52 207.34 410.69 208.09 417.01 209.42" stroke-dasharray="9 11" transform="rotate(40.400000000000006, 400, 400)"></path><path d="M419.57 220.09C431.49 223.28 443.37 228.2 455.05 234.46 466.72 240.96 478.15 248.38 489.13 256.39 499.99 264.09 510.26 272.15 519.7 280.39 528.83 288.07 536.92 295.93 543.72 303.94 550 311.43 554.81 319.22 557.97 327.35 560.55 335.13 561.47 343.43 560.72 352.3 559.63 360.98 557.15 370.37 553.45 380.47 550.01 390.5 545.86 401.34 541.23 412.95 537.59 424.56 534.02 436.44 530.67 448.41 528.46 460.39 526.34 472.42 524.22 484.27 522.93 496.01 521.28 507.41 519.11 518.16 517.3 528.52 514.63 537.94 510.99 546.04 507.35 553.4 502.57 559.12 496.65 562.93 490.59 565.78 483.38 566.64 475.11 565.44 466.7 563.61 457.31 560.12 447.05 555.27 436.74 550.71 425.64 545.58 413.87 540.29 402.1 536.45 390.26 533.19 378.52 530.62 366.79 529.67 355.15 529.12 343.76 528.74 332.39 529.34 321.27 529.5 310.56 528.93 299.91 528.56 289.7 526.98 280.12 524.07 270.7 520.9 261.99 516.25 254.19 510.22 246.7 503.84 240.22 496.16 234.97 487.39 230.15 478.4 226.65 468.47 224.63 457.82 223.11 447.1 223.08 435.77 224.67 423.97 226.68 412.17 230.1 400.47 234.72 388.98 239.51 377.45 245.35 366.06 252.02 354.87 258.64 343.56 265.99 332.36 273.91 321.35 281.63 310.18 289.89 299.19 298.58 288.52 307.04 277.81 315.96 267.54 325.28 257.98 334.4 248.67 344.01 240.35 354.05 233.33 363.96 226.99 374.4 222.26 385.33 219.43 396.21 217.59 407.63 217.77 419.56 220.09" stroke-dasharray="10 11" transform="rotate(44.44, 400, 400)"></path><path d="M421.36 230.77C432.53 233.79 443.58 238.39 454.36 244.26 465.13 250.38 475.58 257.41 485.52 265.05 495.35 272.47 504.56 280.29 512.92 288.34 521.01 295.95 528.09 303.76 533.96 311.71 539.4 319.23 543.5 327.01 546.11 335.07 548.27 342.82 548.97 350.99 548.2 359.62 547.2 368.09 544.97 377.14 541.67 386.79 538.62 396.38 534.89 406.64 530.68 417.55 527.31 428.46 523.92 439.53 520.63 450.61 518.32 461.66 516.03 472.66 513.69 483.39 512.09 493.98 510.17 504.13 507.8 513.57 505.79 522.64 503.06 530.74 499.5 537.56 496.01 543.74 491.53 548.41 486.05 551.35 480.5 553.53 473.91 553.95 466.35 552.61 458.7 550.8 450.12 547.58 440.71 543.17 431.26 539.08 421.04 534.45 410.15 529.62 399.26 526.03 388.26 522.86 377.3 520.21 366.37 518.95 355.51 518 344.85 517.19 334.24 517.3 323.86 517.05 313.86 516.22 303.95 515.67 294.47 514.13 285.59 511.49 276.88 508.71 268.86 504.66 261.7 499.37 254.83 493.84 248.93 487.11 244.17 479.33 239.81 471.37 236.68 462.47 234.91 452.8 233.59 443.06 233.66 432.65 235.22 421.67 237.17 410.69 240.42 399.69 244.8 388.79 249.35 377.86 254.88 366.98 261.21 356.24 267.52 345.42 274.53 334.68 282.1 324.13 289.52 313.49 297.47 303.05 305.82 292.97 313.99 282.92 322.59 273.35 331.56 264.51 340.37 255.97 349.61 248.39 359.22 242.07 368.74 236.39 378.7 232.21 389.07 229.78 399.4 228.23 410.18 228.52 421.36 230.77" stroke-dasharray="4 6" transform="rotate(48.48, 400, 400)"></path><path d="M422.32 241.44C432.72 244.28 442.92 248.58 452.8 254.05 462.65 259.77 472.13 266.37 481.07 273.58 489.9 280.67 498.08 288.19 505.44 295.97 512.56 303.42 518.73 311.09 523.77 318.92 528.46 326.39 531.94 334.09 534.11 342.02 535.92 349.69 536.46 357.71 535.72 366.09 534.83 374.32 532.87 383.03 529.94 392.21 527.26 401.34 523.94 411.01 520.13 421.2 517.03 431.38 513.82 441.61 510.64 451.75 508.27 461.85 505.85 471.8 503.35 481.37 501.49 490.82 499.34 499.75 496.8 507.92 494.61 515.76 491.8 522.64 488.3 528.31 482.78 535.33 467.4 541.11 457.46 539.75 450.48 538.02 442.65 535.08 434.06 531.12 425.42 527.48 416.05 523.34 406.03 518.95 396.02 515.61 385.87 512.55 375.74 509.86 365.64 508.36 355.58 507.08 345.71 505.89 335.9 505.53 326.3 504.89 317.06 503.78 307.92 503 299.2 501.42 291.05 498.92 283.08 496.4 275.76 492.79 269.26 488.1 263.02 483.25 257.7 477.33 253.43 470.41 249.52 463.36 246.74 455.4 245.22 446.65 244.1 437.85 244.25 428.33 245.77 418.19 247.64 408.05 250.72 397.79 254.84 387.54 259.12 377.28 264.33 367 270.3 356.81 276.27 346.59 282.92 336.43 290.09 326.45 297.17 316.45 304.75 306.67 312.72 297.27 320.55 287.96 328.79 279.16 337.36 271.09 345.81 263.35 354.63 256.53 363.78 250.9 372.85 245.87 382.3 242.22 392.07 240.17 401.82 238.89 411.93 239.28 422.32 241.44" stroke-dasharray="9 6" transform="rotate(52.52, 400, 400)"></path><path d="M422.43 252.11C432.04 254.77 441.38 258.75 450.35 263.8 459.3 269.11 467.83 275.25 475.8 282.01 483.67 288.7 490.89 295.85 497.32 303.28 503.56 310.48 508.89 317.92 513.21 325.53 517.25 332.86 520.21 340.41 522.01 348.15 523.56 355.67 523.99 363.48 523.3 371.56 522.54 379.52 520.83 387.85 518.27 396.54 515.93 405.19 513 414.25 509.58 423.69 506.74 433.13 503.74 442.5 500.68 451.67 498.3 460.82 495.81 469.7 493.2 478.15 491.15 486.48 488.81 494.23 486.13 501.22 482.35 510.81 472.09 524.07 465.29 527.21 460.51 528.41 454.93 528.29 448.6 526.89 442.23 525.29 435.09 522.65 427.25 519.13 419.38 515.92 410.84 512.24 401.69 508.27 392.54 505.19 383.25 502.27 373.97 499.59 364.71 497.9 355.49 496.34 346.44 494.83 337.45 494.06 328.67 493.06 320.23 491.67 311.9 490.64 303.96 488.96 296.56 486.52 289.34 484.13 282.73 480.83 276.89 476.61 271.29 472.3 266.53 467.04 262.74 460.87 259.28 454.61 256.84 447.5 255.56 439.61 254.62 431.67 254.85 423.02 256.32 413.72 258.11 404.42 261 394.93 264.84 385.4 268.85 375.87 273.72 366.28 279.29 356.75 284.9 347.21 291.14 337.73 297.89 328.44 304.58 319.18 311.74 310.15 319.28 301.51 326.72 293.02 334.54 285.04 342.66 277.77 350.69 270.84 359.06 264.79 367.69 259.85 376.27 255.44 385.17 252.3 394.31 250.61 403.43 249.58 412.83 250.05 422.43 252.11" stroke-dasharray="4 1" transform="rotate(56.56, 400, 400)"></path><path d="M421.68 262.79C430.47 265.25 438.95 268.9 447.03 273.54 455.08 278.41 462.69 284.07 469.74 290.33 476.71 296.58 483.04 303.29 488.63 310.31 494.05 317.16 498.66 324.29 502.34 331.59 505.82 338.68 508.34 345.98 509.85 353.44 511.19 360.73 511.55 368.25 510.96 375.98 510.33 383.61 508.87 391.52 506.66 399.67 504.65 407.8 502.08 416.22 499.02 424.88 496.45 433.55 493.67 442.05 490.76 450.27 488.4 458.46 485.89 466.31 483.23 473.68 481.04 480.94 478.58 487.6 475.81 493.51 471.88 501.58 461.78 512.38 455.34 514.75 450.87 515.63 445.72 515.39 439.91 514.05 434.08 512.61 427.59 510.29 420.47 507.2 413.32 504.4 405.57 501.16 397.27 497.6 388.98 494.78 380.55 492.01 372.13 489.37 363.73 487.55 355.37 485.79 347.17 484.03 339.02 482.91 331.08 481.58 323.46 479.94 315.94 478.65 308.8 476.82 302.18 474.39 295.71 472.06 289.81 468.97 284.62 465.1 279.65 461.2 275.45 456.48 272.13 450.95 269.1 445.37 267 439 265.93 431.91 265.17 424.78 265.46 416.96 266.88 408.5 268.56 400.04 271.25 391.36 274.81 382.6 278.53 373.86 283.03 365.03 288.2 356.25 293.41 347.48 299.21 338.78 305.5 330.26 311.76 321.81 318.47 313.61 325.52 305.81 332.52 298.17 339.87 291.04 347.49 284.6 355.04 278.48 362.89 273.19 370.97 268.91 379 265.12 387.29 262.46 395.76 261.09 404.23 260.3 412.89 260.83 421.68 262.79" stroke-dasharray="8 9" transform="rotate(60.599999999999994, 400, 400)"></path><path d="M420.09 273.46C428.05 275.73 435.68 279.05 442.89 283.26 450.07 287.68 456.8 292.85 462.99 298.57 469.11 304.33 474.62 310.54 479.45 317.07 484.15 323.51 488.11 330.22 491.25 337.11 494.24 343.87 496.4 350.82 497.69 357.9 498.86 364.87 499.19 372.02 498.7 379.32 498.21 386.54 497 393.97 495.1 401.55 493.4 409.11 491.17 416.86 488.47 424.73 486.16 432.61 483.59 440.24 480.86 447.52 478.58 454.78 476.09 461.64 473.44 467.99 469.91 477.08 461.81 491.59 456.99 496.62 451.91 500.35 439.24 502.63 431.53 501.26 426.21 500.01 420.31 498 413.87 495.33 407.42 492.92 400.43 490.09 392.97 486.93 385.5 484.37 377.93 481.77 370.37 479.21 362.83 477.32 355.33 475.42 347.99 473.48 340.7 472.07 333.61 470.48 326.83 468.62 320.14 467.09 313.8 465.12 307.94 462.65 299.63 458.85 286.3 448.05 281.61 440.93 278.99 435.92 277.2 430.22 276.35 423.85 275.74 417.47 276.08 410.44 277.43 402.81 279.01 395.19 281.49 387.34 284.76 379.4 288.16 371.48 292.29 363.48 297.02 355.52 301.81 347.59 307.15 339.73 312.94 332.07 318.72 324.49 324.93 317.17 331.46 310.25 337.96 303.49 344.78 297.23 351.84 291.63 358.87 286.31 366.15 281.75 373.61 278.12 381.05 274.9 388.69 272.69 396.46 271.63 404.23 271.04 412.13 271.63 420.09 273.46" stroke-dasharray="4 8" transform="rotate(64.64, 400, 400)"></path><path d="M417.73 284.13C424.86 286.2 431.63 289.19 438 292.96 444.34 296.93 450.24 301.57 455.62 306.74 460.95 311.97 465.72 317.63 469.86 323.61 473.91 329.55 477.31 335.76 479.99 342.16 482.57 348.48 484.43 354.98 485.54 361.6 486.59 368.14 486.92 374.83 486.54 381.61 486.18 388.35 485.2 395.22 483.62 402.17 482.19 409.11 480.28 416.15 477.92 423.23 475.86 430.3 473.53 437.06 471 443.44 468.81 449.8 466.41 455.73 463.82 461.15 460.26 468.88 452.17 480.96 447.46 485.03 442.54 488.04 430.66 489.75 423.6 488.54 418.75 487.49 413.41 485.79 407.62 483.51 401.83 481.48 395.58 479.03 388.93 476.25 382.28 473.95 375.55 471.55 368.84 469.11 362.16 467.21 355.52 465.22 349.05 463.17 342.62 461.56 336.37 459.76 330.42 457.73 321.78 454.95 306.68 447.63 300.5 442.82 295.18 437.52 288.21 423.99 286.8 415.74 286.34 410.05 286.71 403.78 287.98 396.98 289.44 390.17 291.71 383.17 294.67 376.09 297.75 369.02 301.49 361.88 305.77 354.8 310.11 347.76 314.97 340.8 320.22 334.04 325.5 327.37 331.16 320.96 337.12 314.94 343.07 309.08 349.31 303.68 355.77 298.89 362.21 294.35 368.86 290.51 375.67 287.48 382.46 284.8 389.42 283.01 396.45 282.22 403.49 281.81 410.61 282.43 417.73 284.13" stroke-dasharray="4 5" transform="rotate(68.68, 400, 400)"></path><path d="M414.69 294.81C427.27 298.77 438.44 305.78 447.76 314.86 456.91 324.22 464.01 335.13 468.65 346.8 473.05 358.3 475.03 370.52 474.49 382.93 474.09 395.24 471.68 407.92 467.36 420.45 464.02 432.97 459.55 444.09 454.35 453.3 450.11 462.29 444.78 469.06 438.42 473.11 432.49 476.76 425.06 477.7 416.22 475.91 407.44 474.31 397.04 470.74 385.32 465.58 373.59 461.91 361.73 457.65 350.44 453.11 339.3 449.97 328.95 445.91 320.12 440.75 311.7 436.15 305.05 429.78 300.86 421.6 297.29 413.46 296.35 403.29 298.53 391.3 301.34 379.31 306.9 366.71 314.46 354.32 322.26 342.1 331.85 330.34 342.53 319.96 353.24 310.15 365 302.2 377.2 297.01 389.41 292.92 402.11 291.99 414.69 294.81" stroke-dasharray="4 3" transform="rotate(72.72, 400, 400)"></path><path d="M411.08 305.48C422 308.95 431.59 315.05 439.52 322.95 447.33 331.13 453.36 340.76 457.3 351.1 461.1 361.39 462.89 372.35 462.56 383.41 462.38 394.43 460.46 405.66 456.81 416.56 453.89 427.45 449.84 436.93 445.04 444.62 440.94 452.16 435.85 457.72 429.88 460.98 424.26 464.03 417.42 464.83 409.48 463.39 401.61 462.19 392.45 459.29 382.27 454.91 372.09 451.65 361.9 447.67 352.28 443.29 342.78 439.96 334.03 435.79 326.64 430.73 319.56 426.15 314.05 420.17 310.65 412.78 307.73 405.46 307.07 396.51 309.08 386.1 311.6 375.69 316.47 364.87 323.09 354.32 329.93 343.92 338.35 334.03 347.75 325.42 357.2 317.29 367.57 310.81 378.3 306.71 389.05 303.47 400.17 302.9 411.08 305.48" stroke-dasharray="5 9" transform="rotate(76.76, 400, 400)"></path><path d="M407.05 316.15C416.32 319.14 424.4 324.31 431.04 331.02 437.61 337.99 442.67 346.24 446.01 355.15 449.28 364.09 450.89 373.62 450.75 383.21 450.77 392.8 449.28 402.49 446.26 411.76 443.77 421.04 440.18 428.97 435.86 435.31 432.04 441.56 427.31 446.11 421.84 448.77 416.65 451.33 410.47 452.09 403.46 451.01 396.51 450.16 388.58 447.87 379.91 444.23 371.23 441.41 362.66 437.79 354.65 433.69 346.73 430.36 339.51 426.25 333.48 421.41 327.68 416.96 323.23 411.42 320.56 404.82 318.24 398.3 317.82 390.52 319.64 381.66 321.83 372.8 326.02 363.72 331.68 354.98 337.53 346.37 344.75 338.3 352.8 331.38 360.93 324.83 369.84 319.71 379.04 316.6 388.27 314.11 397.78 313.84 407.05 316.15" stroke-dasharray="11 4" transform="rotate(80.80000000000001, 400, 400)"></path><path d="M402.74 326.83C410.39 329.32 417.03 333.57 422.47 339.09 427.88 344.83 432.05 351.66 434.84 359.06 437.61 366.53 439.06 374.51 439.08 382.54 439.24 390.58 438.13 398.66 435.71 406.33 433.64 413.99 430.57 420.48 426.8 425.62 421.26 432.56 406.94 439.13 398.19 438.76 392.21 438.24 385.52 436.5 378.32 433.56 371.11 431.18 364.1 428.01 357.64 424.31 351.23 421.14 345.46 417.27 340.7 412.81 336.1 408.63 332.62 403.62 330.6 397.86 328.83 392.16 328.6 385.56 330.19 378.22 332.05 370.87 335.54 363.49 340.23 356.51 345.08 349.61 351.06 343.25 357.75 337.9 364.5 332.82 371.91 328.94 379.55 326.68 387.22 324.86 395.1 324.81 402.74 326.83" stroke-dasharray="2 8" transform="rotate(84.84, 400, 400)"></path><path d="M398.33 337.5C410.43 341.76 419.32 351.29 423.87 362.93 428.45 374.85 429.09 388.38 425.16 400.55 422.1 412.71 415.55 421.01 407.23 424.58 399.4 428.24 389.06 427.75 377.56 422.89 366.05 419.43 355.59 412.96 348.3 404.94 341.42 397.67 338.27 387.68 340.74 375.97 343.93 364.25 352.11 353.08 362.64 345.05 373.41 337.7 386.23 334.47 398.33 337.5" stroke-dasharray="7 8" transform="rotate(88.88, 400, 400)"></path><path d="M393.99 348.17C402.96 351.32 409.62 358.3 413.15 366.87 416.72 375.65 417.41 385.69 414.6 394.73 412.28 403.77 407.14 410 400.6 412.83 394.33 415.77 386.29 415.69 377.66 412.21 369.03 409.52 361.44 404.27 356.33 397.78 351.42 391.72 349.31 383.79 351.29 375.02 353.69 366.25 359.76 358.29 367.55 352.84 375.51 347.77 385 345.73 393.99 348.17" stroke-dasharray="8 10" transform="rotate(92.92, 400, 400)"></path><path d="M389.87 358.85C401.73 363.26 407.8 377.25 404.05 389.21 401.15 401.16 390.15 406.25 378.62 401.54 367.09 398.19 359.23 387.14 361.84 375.44 365.22 363.73 378 355.71 389.87 358.85" stroke-dasharray="0 9" transform="rotate(96.96, 400, 400)"></path></g></svg>