<svg xmlns="http://www.w3.org/2000/svg" xmlns:xlink="http://www.w3.org/1999/xlink" width="300" zoomAndPan="magnify" viewBox="0 0 49.5 49.5" height="300" preserveAspectRatio="xMidYMid meet"><defs><clipPath id="697ba20947"><path d="M 0 0 L 49.003906 0 L 49.003906 49.003906 L 0 49.003906 Z M 0 0 "></path></clipPath><clipPath id="def68447dd"><path d="M 111.375 0 C 49.863281 0 0 49.863281 0 111.375 C 0 172.886719 49.863281 222.75 111.375 222.75 C 172.886719 222.75 222.75 172.886719 222.75 111.375 C 222.75 49.863281 172.886719 0 111.375 0 Z M 111.375 0 "></path></clipPath><clipPath id="778e41b0b8"><path d="M 0 0 L 49.003906 0 L 49.003906 49.003906 L 0 49.003906 Z M 0 0 "></path></clipPath><clipPath id="f4f1195e52"><path d="M 111.375 0 C 49.863281 0 0 49.863281 0 111.375 C 0 172.886719 49.863281 222.75 111.375 222.75 C 172.886719 222.75 222.75 172.886719 222.75 111.375 C 222.75 49.863281 172.886719 0 111.375 0 Z M 111.375 0 "></path></clipPath><clipPath id="401c4b5694"><rect x="0" width="50" y="0" height="50"></rect></clipPath><clipPath id="810536a6c9"><path d="M 35.015625 44 L 49.003906 44 L 49.003906 49.003906 L 35.015625 49.003906 Z M 35.015625 44 "></path></clipPath></defs><g id="7c4b9f994f"><g clip-rule="nonzero" clip-path="url(#697ba20947)"><g clip-rule="nonzero" clip-path="url(#def68447dd)"><g transform="matrix(1,0,0,1,0,-0.000000000000014414)"><g clip-path="url(#401c4b5694)"><g clip-rule="nonzero" clip-path="url(#778e41b0b8)"><g clip-rule="nonzero" clip-path="url(#f4f1195e52)"><rect x="0" width="50" height="50" y="0" style="fill:#ffb013;fill-opacity:1;stroke:none;"></rect></g></g></g></g></g></g><g clip-rule="nonzero" clip-path="url(#810536a6c9)"><path style=" stroke:none;fill-rule:nonzero;fill:#ffffff;fill-opacity:1;" d="M 130.9375 134.585938 C 132.375 134.683594 133.839844 135.355469 135.378906 136.902344 L 172.222656 173.941406 L 157.21875 173.941406 Z M 96.570312 105.476562 C 97.914062 105.417969 99.484375 105.871094 101.050781 106.695312 C 107.316406 109.980469 110.179688 112.21875 111.597656 114.980469 C 113.253906 118.183594 113.554688 123.386719 113.554688 132.566406 C 113.53125 133.046875 113.582031 133.488281 113.664062 133.898438 L 101.058594 141.179688 C 96.863281 143.601562 94.058594 144.65625 89.492188 144.875 C 91.117188 132.503906 91.851562 122.972656 92.460938 110.738281 C 92.636719 107.117188 94.3125 105.582031 96.570312 105.476562 Z M 120.253906 53.640625 L 127.011719 53.871094 C 126.917969 54.023438 126.820312 54.171875 126.726562 54.355469 C 124.238281 59.808594 120.894531 62.769531 117.109375 64.6875 C 118.765625 61.835938 119.902344 58.269531 120.253906 53.640625 Z M 155 44.53125 C 154.035156 44.53125 153.265625 45.09375 153.265625 45.796875 L 153.265625 46.230469 L 111.144531 47.324219 C 106.394531 47.445312 106.585938 53.199219 111.144531 53.347656 L 115.390625 53.488281 C 114.226562 59.34375 111.488281 62.355469 108.242188 64.804688 C 106.382812 66.210938 102.390625 68.300781 99.65625 68.359375 L 86.613281 68.625 C 83.757812 68.683594 81.5625 71.144531 81.929688 73.976562 C 84.375 92.324219 83.890625 115.269531 80.074219 144.070312 C 80.023438 144.363281 80.023438 144.644531 80.023438 144.925781 L 77.53125 144.925781 C 69.667969 144.925781 67.671875 146.519531 61.554688 152.347656 L 36.625 176.109375 C 34.980469 177.675781 35.5625 181.863281 38.496094 181.863281 L 184.515625 181.863281 C 186.714844 181.863281 187.777344 178.328125 185.578125 176.109375 L 139.304688 129.59375 C 136.921875 127.203125 134.097656 126.199219 131.019531 126.296875 C 128.488281 126.378906 125.777344 127.230469 122.984375 128.617188 C 122.945312 121.421875 122.632812 115.773438 120 110.652344 C 117.25 105.332031 111.886719 101.65625 104.242188 97.960938 L 103.621094 77.417969 C 117.691406 75.894531 129.339844 67.429688 132.933594 57.777344 C 133.496094 56.289062 133.34375 55.015625 132.867188 54.050781 L 153.265625 54.722656 L 153.265625 55.1875 C 153.265625 55.878906 154.035156 56.441406 155 56.441406 C 155.964844 56.441406 156.738281 55.878906 156.738281 55.1875 L 156.738281 45.796875 C 156.738281 45.09375 155.964844 44.53125 155 44.53125 Z M 155 44.53125 "></path></g></g></svg>