<svg xmlns="http://www.w3.org/2000/svg" xmlns:xlink="http://www.w3.org/1999/xlink" width="300" zoomAndPan="magnify" viewBox="0 0 224.87999 225" height="300" preserveAspectRatio="xMidYMid meet"><defs><clipPath id="d677e3e1fa"><path d="M 0 0.0585938 L 224.761719 0.0585938 L 224.761719 224.9375 L 0 224.9375 Z M 0 0.0585938 "></path></clipPath><clipPath id="02e4609d2e"><path d="M 112.441406 0.0585938 C 50.339844 0.0585938 0 50.402344 0 112.5 C 0 174.597656 50.339844 224.941406 112.441406 224.941406 C 174.539062 224.941406 224.878906 174.597656 224.878906 112.5 C 224.878906 50.402344 174.539062 0.0585938 112.441406 0.0585938 Z M 112.441406 0.0585938 "></path></clipPath><clipPath id="93fbe05627"><path d="M 0 0.0585938 L 224.761719 0.0585938 L 224.761719 224.9375 L 0 224.9375 Z M 0 0.0585938 "></path></clipPath><clipPath id="d63458ba3b"><path d="M 112.441406 0.0585938 C 50.339844 0.0585938 0 50.402344 0 112.5 C 0 174.597656 50.339844 224.941406 112.441406 224.941406 C 174.539062 224.941406 224.878906 174.597656 224.878906 112.5 C 224.878906 50.402344 174.539062 0.0585938 112.441406 0.0585938 Z M 112.441406 0.0585938 "></path></clipPath><clipPath id="b30d387503"><rect x="0" width="225" y="0" height="225"></rect></clipPath><clipPath id="5f0e34cb84"><path d="M 36 45 L 189 45 L 189 183.710938 L 36 183.710938 Z M 36 45 "></path></clipPath></defs><g id="324020b225"><g clip-rule="nonzero" clip-path="url(#d677e3e1fa)"><g clip-rule="nonzero" clip-path="url(#02e4609d2e)"><g transform="matrix(1,0,0,1,0,-0.000000000000003234)"><g clip-path="url(#b30d387503)"><g clip-rule="nonzero" clip-path="url(#93fbe05627)"><g clip-rule="nonzero" clip-path="url(#d63458ba3b)"><path style=" stroke:none;fill-rule:nonzero;fill:#ffb013;fill-opacity:1;" d="M 0 0.0585938 L 224.878906 0.0585938 L 224.878906 224.941406 L 0 224.941406 Z M 0 0.0585938 "></path></g></g></g></g></g></g><g clip-rule="nonzero" clip-path="url(#5f0e34cb84)"><path style=" stroke:none;fill-rule:nonzero;fill:#ffffff;fill-opacity:1;" d="M 132.1875 135.929688 C 133.640625 136.03125 135.117188 136.710938 136.671875 138.273438 L 173.871094 175.664062 L 158.722656 175.664062 Z M 97.496094 106.546875 C 98.851562 106.488281 100.4375 106.945312 102.015625 107.773438 C 108.339844 111.089844 111.234375 113.351562 112.664062 116.140625 C 114.335938 119.375 114.640625 124.625 114.640625 133.894531 C 114.617188 134.378906 114.671875 134.824219 114.75 135.238281 L 102.027344 142.589844 C 97.789062 145.035156 94.957031 146.101562 90.347656 146.320312 C 91.988281 133.832031 92.730469 124.207031 93.347656 111.859375 C 93.523438 108.203125 95.214844 106.652344 97.496094 106.546875 Z M 121.402344 54.210938 L 128.226562 54.445312 C 128.132812 54.597656 128.03125 54.75 127.941406 54.933594 C 125.425781 60.4375 122.050781 63.429688 118.226562 65.367188 C 119.902344 62.488281 121.046875 58.886719 121.402344 54.210938 Z M 156.480469 45.015625 C 155.507812 45.015625 154.730469 45.585938 154.730469 46.296875 L 154.730469 46.730469 L 112.207031 47.835938 C 107.410156 47.957031 107.605469 53.769531 112.207031 53.917969 L 116.496094 54.058594 C 115.320312 59.96875 112.554688 63.011719 109.277344 65.484375 C 107.402344 66.902344 103.367188 69.015625 100.609375 69.074219 L 87.441406 69.339844 C 84.558594 69.398438 82.339844 71.882812 82.714844 74.742188 C 85.179688 93.265625 84.691406 116.433594 80.839844 145.507812 C 80.789062 145.800781 80.789062 146.085938 80.789062 146.371094 L 78.273438 146.371094 C 70.332031 146.371094 68.316406 147.980469 62.140625 153.863281 L 36.976562 177.851562 C 35.316406 179.433594 35.902344 183.660156 38.863281 183.660156 L 186.28125 183.660156 C 188.5 183.660156 189.574219 180.09375 187.355469 177.851562 L 140.636719 130.890625 C 138.230469 128.480469 135.382812 127.464844 132.269531 127.566406 C 129.71875 127.644531 126.976562 128.507812 124.160156 129.90625 C 124.121094 122.640625 123.808594 116.941406 121.148438 111.773438 C 118.371094 106.398438 112.957031 102.6875 105.242188 98.957031 L 104.613281 78.21875 C 118.816406 76.679688 130.578125 68.132812 134.207031 58.390625 C 134.773438 56.890625 134.621094 55.601562 134.136719 54.628906 L 154.730469 55.304688 L 154.730469 55.773438 C 154.730469 56.472656 155.507812 57.039062 156.480469 57.039062 C 157.453125 57.039062 158.234375 56.472656 158.234375 55.773438 L 158.234375 46.296875 C 158.234375 45.585938 157.453125 45.015625 156.480469 45.015625 Z M 156.480469 45.015625 "></path></g><path style=" stroke:none;fill-rule:evenodd;fill:#ffffff;fill-opacity:1;" d="M 102.414062 56.007812 C 100.449219 61.035156 94.71875 63.53125 89.617188 61.59375 C 84.527344 59.667969 82.003906 54.019531 83.972656 49.011719 C 85.949219 43.984375 91.667969 41.488281 96.757812 43.414062 C 101.851562 45.351562 104.378906 50.988281 102.414062 56.007812 Z M 102.414062 56.007812 "></path></g></svg>