<svg xmlns="http://www.w3.org/2000/svg" width="11" height="10" viewBox="0 0 11 10"><path fill-rule="evenodd" clip-rule="evenodd" d="M3.35944 6.57356C4.13931 7.45303 4.59889 8.57442 4.7276 9.57796L3.68425 9.70508C3.57929 8.88669 3.1977 7.95842 2.56392 7.2437C1.94061 6.54078 1.08955 6.05878 0.0140638 6.05463C0.00937748 6.05464 0.00469303 6.05465 0 6.05465V5.02981L0.00810528 5.02977H0.0162916C1.05742 5.02415 1.90338 4.47955 2.5392 3.64302C3.18293 2.79609 3.57487 1.69002 3.68314 0.705078L4.72863 0.814258C4.60324 1.9549 4.154 3.24011 3.38408 4.25307C3.17078 4.5337 2.93017 4.79641 2.66265 5.02977L11 5.02977V6.05461L2.82532 6.0546C3.01792 6.21506 3.19605 6.3893 3.35944 6.57356Z"></path></svg>