<svg xmlns="http://www.w3.org/2000/svg" width="11" height="10" viewBox="0 0 11 10"><path id="Union" fill-rule="evenodd" clip-rule="evenodd" d="M7.64056 3.8366C6.86069 2.95713 6.40111 1.83574 6.2724 0.832193L7.31575 0.705078C7.42071 1.52346 7.8023 2.45174 8.43608 3.16646C9.05939 3.86938 9.91045 4.35138 10.9859 4.35553C10.9906 4.35552 10.9953 4.35551 11 4.35551V5.38034L10.9919 5.38039H10.9837C9.94258 5.38601 9.09662 5.93061 8.4608 6.76714C7.81707 7.61406 7.42513 8.72013 7.31686 9.70508L6.27137 9.5959C6.39676 8.45526 6.846 7.17005 7.61592 6.15709C7.82922 5.87645 8.06983 5.61375 8.33735 5.38039L0 5.38039L0 4.35555L8.17468 4.35555C7.98208 4.1951 7.80395 4.02085 7.64056 3.8366Z"></path></svg>