<svg xmlns="http://www.w3.org/2000/svg" width="15" height="13" viewBox="0 0 15 13" fill="none"><path fill-rule="evenodd" clip-rule="evenodd" d="M0.279976 6.27643C0.279976 6.50834 0.372102 6.73076 0.536091 6.89475C0.700079 7.05874 0.922495 7.15086 1.15441 7.15086L11.2856 7.15086L7.53077 10.9039C7.44947 10.9852 7.38498 11.0817 7.34098 11.188C7.29698 11.2942 7.27433 11.408 7.27433 11.523C7.27433 11.638 7.29698 11.7519 7.34098 11.8581C7.38498 11.9643 7.44947 12.0608 7.53077 12.1421C7.61207 12.2234 7.70859 12.2879 7.81481 12.3319C7.92104 12.3759 8.03489 12.3986 8.14987 12.3986C8.26485 12.3986 8.3787 12.3759 8.48492 12.3319C8.59115 12.2879 8.68767 12.2234 8.76897 12.1421L14.0156 6.89553C14.097 6.8143 14.1616 6.71781 14.2057 6.61157C14.2498 6.50534 14.2725 6.39145 14.2725 6.27643C14.2725 6.16141 14.2498 6.04752 14.2057 5.94129C14.1616 5.83505 14.097 5.73856 14.0156 5.65733L8.76897 0.410736C8.60477 0.246541 8.38208 0.154297 8.14987 0.154297C7.91766 0.154297 7.69497 0.246541 7.53077 0.410736C7.36658 0.574931 7.27433 0.797627 7.27433 1.02983C7.27433 1.26204 7.36658 1.48474 7.53077 1.64893L11.2856 5.402L1.15441 5.402C0.922495 5.402 0.700079 5.49412 0.536091 5.65811C0.372102 5.8221 0.279976 6.04452 0.279976 6.27643Z" fill="#121212"></path></svg>