<svg xmlns="http://www.w3.org/2000/svg" width="23" height="14" viewBox="0 0 23 14" fill="none"><path d="M20.9556 0H5.11111C3.98667 0 3.06667 0.969231 3.06667 2.15385V2.96154C3.06667 3.25769 3.29667 3.5 3.57778 3.5C3.85889 3.5 4.08889 3.25769 4.08889 2.96154V2.15385C4.08889 2.04615 4.11444 1.93846 4.14 1.83077L9.86444 7L4.14 12.1692C4.11444 12.0615 4.08889 11.9538 4.08889 11.8462V11.0385C4.08889 10.7423 3.85889 10.5 3.57778 10.5C3.29667 10.5 3.06667 10.7423 3.06667 11.0385V11.8462C3.06667 13.0308 3.98667 14 5.11111 14H20.9556C22.08 14 23 13.0308 23 11.8462V2.15385C23 0.969231 22.08 0 20.9556 0ZM4.90667 1.10385C4.95778 1.07692 5.03444 1.07692 5.11111 1.07692H20.9556C21.0322 1.07692 21.1089 1.07692 21.16 1.10385L13.3656 8.13077C13.1611 8.29231 12.9056 8.29231 12.7011 8.13077L4.90667 1.10385ZM20.9556 12.9231H5.11111C5.03444 12.9231 4.95778 12.9231 4.90667 12.8962L10.6567 7.7L12.0367 8.96538C12.3178 9.23462 12.6756 9.36923 13.0333 9.36923C13.3911 9.36923 13.7489 9.23462 14.03 8.96538L15.41 7.7L21.16 12.8962C21.1089 12.9231 21.0322 12.9231 20.9556 12.9231ZM21.9778 11.8462C21.9778 11.9538 21.9522 12.0615 21.9267 12.1692L16.2022 7L21.9267 1.83077C21.9522 1.93846 21.9778 2.04615 21.9778 2.15385V11.8462ZM1.53333 5.65385C1.53333 5.35769 1.76333 5.11539 2.04444 5.11539H5.11111C5.39222 5.11539 5.62222 5.35769 5.62222 5.65385C5.62222 5.95 5.39222 6.19231 5.11111 6.19231H2.04444C1.76333 6.19231 1.53333 5.95 1.53333 5.65385ZM5.11111 8.88462H0.511111C0.23 8.88462 0 8.64231 0 8.34615C0 8.05 0.23 7.80769 0.511111 7.80769H5.11111C5.39222 7.80769 5.62222 8.05 5.62222 8.34615C5.62222 8.64231 5.39222 8.88462 5.11111 8.88462Z" fill="white"></path></svg>