<svg xmlns="http://www.w3.org/2000/svg" xmlns:xlink="http://www.w3.org/1999/xlink" id="Layer_2_copy_2" x="0px" y="0px" viewBox="0 0 250 250" style="enable-background:new 0 0 250 250;" xml:space="preserve"><g>	<path class="st0" d="M141.6,130.5c-3.8-4.5-7.6-9.1-11.4-13.6c-2.1-2.4-4.1-4.9-6.2-7.3c-4.6-5.4-9.3-11-13.9-16.6  c-4.4-5.4-9.9-7.9-16.7-7.8c-2.9,0.1-5.9,0-8.8,0c-2.5,0-5,0-7.4,0c-0.2,0-0.3,0-0.4,0c0-0.1,0-0.2,0-0.4c0.1-1.5,0-3,0-4.4v-1  c0-4.5-2.5-8.2-6.7-9.9c-0.4-0.2-0.4-0.2-0.4-0.6c0-2.8,0-5.3,0-7.6c-0.1-4.8-3.9-9-8.5-9.3c-3.7-0.2-7.7-0.3-12.7-0.1  c-2.8,0.1-5.3,1.2-7.2,3.3s-2.9,4.9-2.7,7.7c0.2,2.2,0.1,4.4,0,6.4c0,0.3-0.2,0.7-0.4,0.7c-3.5,2.2-5.2,5.4-5.2,9.5v1.7  c0,1.3,0,2.6,0,3.9l0,0c0,0,0,0-0.1,0c-1.3,0-2.4,0.1-3.3,0.3c-9.2,2-15.6,9.7-15.6,19c0,35.1,0,73,0,116c0,8.2,5.5,15.6,13.4,18.1  c2.8,0.9,5.6,0.9,8.4,0.9h0.6c6.8,0,13.5,0,20.3,0c3.7,0,7.4,0,11.1,0h24.1c11.5,0,23,0,34.5,0l0,0c4.3,0,7.9-1,11-3.1  c5.8-3.9,8.8-9.4,8.8-16.2c0-11.3,0-22.6,0-33.9c0-14.3,0-28.7,0-43C146.2,138.4,144.7,134.1,141.6,130.5z M38.8,81.6  c0-0.7,0-1.5,0-2.2c0-2.9,2-4.9,4.9-4.9c7.4,0,14.8,0,22.2,0c3.1,0,5,2,5.1,5.1c0,1.3,0,2.7,0,4.1v1.2c-0.5,0-0.9,0.1-1.3,0.1  c-9.8,0-19.7,0-29.5,0c-0.5,0-1,0-1.2,0c0-0.2,0-0.7,0-1.2C38.8,83,38.8,82.3,38.8,81.6z M44.5,64.7c0-0.7,0-1.4,0-2.2  c0-3,1.7-4.8,4.6-4.9c3.5-0.1,7.1-0.1,10.7,0c2.6,0.1,4.2,1.7,4.2,4.4c0,0.6,0,1.3,0,1.9c0,1.4,0,2.8,0,4.3c0,0.2,0,0.3,0,0.4  c-0.1,0-0.2,0-0.5,0c-1.4,0-2.8,0-4.2,0c-0.9,0-1.7,0-2.6,0H55h-3.4c-2.3,0-4.6,0-6.9,0c-0.1,0-0.1,0-0.2,0v-0.1  C44.5,67.3,44.5,66,44.5,64.7z M19.7,104.8c0-6.1,4-11.6,9.7-13.2c1.3-0.4,2.6-0.6,3.7-0.6c13.7,0,27.5,0,41.2,0h19.8l0,0  c4.6,0,8.3,1.7,11.3,5.3c2.6,3.2,5.3,6.3,8,9.5c1.9,2.2,3.8,4.5,5.6,6.7c5.3,6.3,10.4,12.4,15.6,18.7c1.5,1.8,2.9,3.5,4.1,5.4  c1.1,1.7,1.7,3.7,1.7,6v21.7c0,18.7,0,37.3,0,56c0,6.8-5.4,12.5-12.3,13.1c-1,0.1-1.9,0.1-2.8,0.1H35.1l0,0c-3.5,0-6.3-0.3-8.9-2  c-4.3-2.8-6.5-6.6-6.5-11.4c0-14,0-28,0-42v-15.9c0-5.3,0-10.5,0-15.8C19.8,132.8,19.8,118.7,19.7,104.8z"></path>	<path class="st0" d="M102.1,142.8c2.5,2.9,4.9,5.8,7.4,8.8c1.9,2.3,4.4,3.3,8.2,3.4c0.1,0,0.1,0,0.2,0c2.1,0,4.4-1.6,5.9-2.9  c4.9-4.2,5.4-9.6,1.3-14.5c-3.2-3.9-6.5-7.8-9.7-11.6l-3.5-4.2c-3.5-4.1-6.9-8.2-10.4-12.3c-1.4-1.6-3.3-2.6-5.6-2.9  c-4-0.6-6.9,1.5-8.7,3c-4.4,3.8-4.9,9.5-1.3,13.8C91.3,129.9,96.7,136.3,102.1,142.8z M91.2,113.9l0.3-0.3c0.9-0.7,1.7-1.4,2.6-1.4  c0.1,0,0.1,0,0.2,0h0.1h0.1c1.3,0,2.2,0.4,3,1.3l2.8,3.3c3.2,3.9,6.5,7.7,9.7,11.6c1.6,1.9,3.2,3.7,4.7,5.6c1.5,1.8,3,3.6,4.6,5.4  c0.8,1,1.5,1.8,2.1,2.7c0.7,1,0.9,2.1,0.6,3.2c-0.6,1.9-3.2,3.9-5.1,3.9l0,0c-1.2,0-2.1-0.5-3-1.6c-3.3-4-6.7-8-10-12l-3.2-3.9  c-3.3-3.9-6.5-7.8-9.8-11.7c-0.9-1.1-1.4-2.2-1.3-3.3C89.5,115.8,90.1,114.8,91.2,113.9z"></path></g><g>	<path class="st0" d="M186.2,109.6c-3.8-4.5-7.6-9.1-11.4-13.6c-2.1-2.4-4.1-4.9-6.2-7.3c-4.6-5.4-9.3-11-13.9-16.6  c-4.4-5.4-9.9-7.9-16.7-7.8c-2.9,0.1-5.9,0-8.8,0c-2.5,0-5,0-7.4,0c-0.2,0-0.3,0-0.4,0c0-0.1,0-0.2,0-0.4c0.1-1.5,0-3,0-4.4v-1  c0-4.5-2.5-8.2-6.7-9.9c-0.4-0.2-0.4-0.2-0.4-0.6c0-2.8,0-5.3,0-7.6c-0.1-4.8-3.9-9-8.5-9.3c-3.7-0.2-7.7-0.3-12.7-0.1  c-2.8,0.1-5.3,1.2-7.2,3.3C84,36.4,83,39.2,83.2,42c0.2,2.2,0.1,4.4,0,6.4c0,0.3-0.2,0.7-0.4,0.7c-3.5,2.2-5.2,5.4-5.2,9.5v1.7  c0,1.3,0,2.6,0,3.9l0,0c0,0,0,0-0.1,0c-1,0-1.9,0.1-2.7,0.2c0,0.6,0,1.2,0,1.8c1.8,0.9,3.3,2.2,4.4,3.7c13.2,0,26.4,0,39.6,0h19.8  l0,0c4.6,0,8.3,1.7,11.3,5.3c2.6,3.2,5.3,6.3,8,9.5c1.9,2.2,3.8,4.5,5.6,6.7c5.3,6.3,10.4,12.4,15.6,18.7c1.5,1.8,2.9,3.5,4.1,5.4  c1.1,1.7,1.7,3.7,1.7,6v21.7c0,18.7,0,37.3,0,56c0,6.8-5.4,12.5-12.3,13.1c-1,0.1-1.9,0.1-2.8,0.1h-18.6c0,1.9,0,3.9,0,5.8  c6.5,0,13.1,0,19.6,0l0,0c4.3,0,7.9-1,11-3.1c5.8-3.9,8.8-9.4,8.8-16.2c0-11.3,0-22.6,0-33.9c0-14.3,0-28.7,0-43  C190.8,117.5,189.2,113.2,186.2,109.6z M89,43.8c0-0.7,0-1.4,0-2.2c0-3,1.7-4.8,4.6-4.9c3.5-0.1,7.1-0.1,10.7,0  c2.6,0.1,4.2,1.7,4.2,4.4c0,0.6,0,1.3,0,1.9c0,1.4,0,2.8,0,4.3c0,0.2,0,0.3,0,0.4c-0.1,0-0.2,0-0.5,0c-1.4,0-2.8,0-4.2,0  c-0.9,0-1.7,0-2.6,0h-1.7h-3.4c-2.3,0-4.6,0-6.9,0c-0.1,0-0.1,0-0.2,0v-0.1C89.1,46.4,89,45.1,89,43.8z M115.6,62.8V64  c-0.5,0-0.9,0.1-1.3,0.1c-9.8,0-19.7,0-29.5,0c-0.5,0-1,0-1.2,0c0-0.2,0-0.7,0-1.2c0-0.7,0-1.4,0-2c0-0.7,0-1.5,0-2.2  c0-2.9,2-4.9,4.9-4.9c7.4,0,14.8,0,22.2,0c3.1,0,5,2,5.1,5.1C115.6,60.1,115.6,61.4,115.6,62.8z"></path></g><path class="st0" d="M144.5,119.1c2.5,2.9,4.9,5.8,7.4,8.8c1.9,2.3,4.4,3.3,8.2,3.4c0.1,0,0.1,0,0.2,0c2.1,0,4.4-1.6,5.9-2.9 c4.9-4.2,5.4-9.6,1.3-14.5c-3.2-3.9-6.5-7.8-9.7-11.6l-3.5-4.2c-3.5-4.1-6.9-8.2-10.4-12.3c-1.4-1.6-3.3-2.6-5.6-2.9 c-4-0.6-6.9,1.5-8.7,3c-4.4,3.8-4.9,9.5-1.3,13.8C133.7,106.2,139.1,112.7,144.5,119.1z M133.6,90.2l0.3-0.3 c0.9-0.7,1.7-1.4,2.6-1.4c0.1,0,0.1,0,0.2,0h0.1h0.1c1.3,0,2.2,0.4,3,1.3l2.8,3.3c3.2,3.9,6.5,7.7,9.7,11.6c1.6,1.9,3.2,3.7,4.7,5.6 c1.5,1.8,3,3.6,4.6,5.4c0.8,1,1.5,1.8,2.1,2.7c0.7,1,0.9,2.1,0.6,3.2c-0.6,1.9-3.2,3.9-5.1,3.9l0,0c-1.2,0-2.1-0.5-3-1.6 c-3.3-4-6.7-8-10-12l-3.2-3.9c-3.3-3.9-6.5-7.8-9.8-11.7c-0.9-1.1-1.4-2.2-1.3-3.3C131.8,92.1,132.4,91.1,133.6,90.2z"></path><g>	<path class="st0" d="M231.5,89.3c-3.8-4.5-7.6-9.1-11.4-13.6c-2.1-2.4-4.1-4.9-6.2-7.3c-4.6-5.4-9.3-11-13.9-16.6  c-4.4-5.4-9.9-7.9-16.7-7.8c-2.9,0.1-5.9,0-8.8,0c-2.5,0-5,0-7.4,0c-0.2,0-0.3,0-0.4,0c0-0.1,0-0.2,0-0.4c0.1-1.5,0-3,0-4.4v-1  c0-4.5-2.5-8.2-6.7-9.9c-0.4-0.2-0.4-0.2-0.4-0.6c0-2.8,0-5.3,0-7.6c-0.1-4.8-3.9-9-8.5-9.3c-3.7-0.2-7.7-0.3-12.7-0.1  c-2.8,0.1-5.3,1.2-7.2,3.3s-2.9,4.9-2.7,7.7c0.2,2.2,0.1,4.4,0,6.4c0,0.3-0.2,0.7-0.4,0.7c-3.5,2.2-5.2,5.4-5.2,9.5V40  c0,1.3,0,2.6,0,3.9l0,0c0,0,0,0-0.1,0c-1,0-1.9,0.1-2.7,0.2c0,0.6,0,1.2,0,1.8c1.8,0.9,3.3,2.2,4.4,3.7c13.2,0,26.4,0,39.6,0h19.8  l0,0c4.6,0,8.3,1.7,11.3,5.3c2.6,3.2,5.3,6.3,8,9.5c1.9,2.2,3.8,4.5,5.6,6.7c5.3,6.3,10.4,12.4,15.6,18.7c1.5,1.8,2.9,3.5,4.1,5.4  c1.1,1.7,1.7,3.7,1.7,6v21.7c0,18.7,0,37.3,0,56c0,6.8-5.4,12.5-12.3,13.1c-1,0.1-1.9,0.1-2.8,0.1h-18.6c0,1.9,0,3.9,0,5.8  c6.5,0,13.1,0,19.6,0l0,0c4.3,0,7.9-1,11-3.1c5.8-3.9,8.8-9.4,8.8-16.2c0-11.3,0-22.6,0-33.9c0-14.3,0-28.7,0-43  C236,97.2,234.5,93,231.5,89.3z M134.3,23.5c0-0.7,0-1.4,0-2.2c0-3,1.7-4.8,4.6-4.9c3.5-0.1,7.1-0.1,10.7,0  c2.6,0.1,4.2,1.7,4.2,4.4c0,0.6,0,1.3,0,1.9c0,1.4,0,2.8,0,4.3c0,0.2,0,0.3,0,0.4c-0.1,0-0.2,0-0.5,0c-1.4,0-2.8,0-4.2,0  c-0.9,0-1.7,0-2.6,0h-1.7h-3.4c-2.3,0-4.6,0-6.9,0c-0.1,0-0.1,0-0.2,0v-0.1C134.3,26.1,134.3,24.8,134.3,23.5z M160.8,42.6v1.2  c-0.5,0-0.9,0.1-1.3,0.1c-9.8,0-19.7,0-29.5,0c-0.5,0-1,0-1.2,0c0-0.2,0-0.7,0-1.2c0-0.7,0-1.4,0-2c0-0.7,0-1.5,0-2.2  c0-2.9,2-4.9,4.9-4.9c7.4,0,14.8,0,22.2,0c3.1,0,5,2,5.1,5.1C160.8,39.8,160.8,41.2,160.8,42.6z"></path></g><path class="st0" d="M189.8,98.9c2.5,2.9,4.9,5.8,7.4,8.8c1.9,2.3,4.4,3.3,8.2,3.4c0.1,0,0.1,0,0.2,0c2.1,0,4.4-1.6,5.9-2.9 c4.9-4.2,5.4-9.6,1.3-14.5c-3.2-3.9-6.5-7.8-9.7-11.6l-3.5-4.2c-3.5-4.1-6.9-8.2-10.4-12.3c-1.4-1.6-3.3-2.6-5.6-2.9 c-4-0.6-6.9,1.5-8.7,3c-4.4,3.8-4.9,9.5-1.3,13.8C178.9,86,184.4,92.4,189.8,98.9z M178.8,69.9l0.3-0.3c0.9-0.7,1.7-1.4,2.6-1.4 c0.1,0,0.1,0,0.2,0h0.1h0.1c1.3,0,2.2,0.4,3,1.3l2.8,3.3c3.2,3.9,6.5,7.7,9.7,11.6c1.6,1.9,3.2,3.7,4.7,5.6c1.5,1.8,3,3.6,4.6,5.4 c0.8,1,1.5,1.8,2.1,2.7c0.7,1,0.9,2.1,0.6,3.2c-0.6,1.9-3.2,3.9-5.1,3.9l0,0c-1.2,0-2.1-0.5-3-1.6c-3.3-4-6.7-8-10-12l-3.2-3.9 c-3.3-3.9-6.5-7.8-9.8-11.7c-0.9-1.1-1.4-2.2-1.3-3.3C177.1,71.8,177.7,70.8,178.8,69.9z"></path></svg>