<svg xmlns="http://www.w3.org/2000/svg" width="145" height="55" viewBox="0 0 145 55" fill="none"><path fill-rule="evenodd" clip-rule="evenodd" d="M40.1274 0.248091C40.6642 0.0374336 41.2766 -0.0364539 41.9587 0.0164824C42.946 0.0990983 43.95 0.470145 44.8448 1.08008C45.1658 1.30606 45.4415 1.57032 45.701 1.83035L45.7136 1.84285L45.7137 1.84287C45.9967 2.12244 46.267 2.38935 46.5838 2.5792C47.0038 2.83784 47.488 2.92506 47.9965 3.01665L48.0127 3.01957L48.0717 3.03017C48.5671 3.11916 49.0706 3.20959 49.5435 3.46984C50.3165 3.88917 50.9187 4.5814 51.1976 5.37296C51.2233 5.43815 51.2245 5.49697 51.2074 5.55935C51.201 5.58274 51.1843 5.61181 51.1676 5.64086C51.1115 5.71813 51.0273 5.77131 50.9272 5.78694C49.9123 5.93112 48.0404 6.31088 46.8439 7.24323C45.7565 8.09546 45.1021 9.33664 45.0378 10.6485C46.7843 13.7373 47.5987 17.3345 47.3466 20.8201C49.1839 22.4368 50.8017 24.3138 52.1274 26.3984C52.6483 27.2281 53.1201 28.0785 53.5405 28.9572L53.5592 28.9954C53.6706 29.2232 53.7862 29.4596 53.8853 29.6991C56.2124 34.9536 56.7303 40.9301 55.242 46.3487C55.2208 46.4257 55.1972 46.5041 55.1732 46.5834L55.1732 46.5835C55.1669 46.6042 55.1607 46.6251 55.1544 46.646C55.1493 46.6629 55.1442 46.6799 55.1392 46.6969C55.1261 46.741 55.1133 46.7855 55.1011 46.83C54.2119 49.8134 52.7713 52.574 50.8804 54.9999L50.3073 54.6367C52.162 52.2648 53.575 49.5632 54.4473 46.6424C54.4982 46.4886 54.5432 46.3249 54.586 46.1689C55.9908 41.0543 55.5558 35.4421 53.4719 30.4434C53.4681 30.4371 53.4635 30.4306 53.4586 30.4238C53.4482 30.4091 53.4367 30.3928 53.43 30.3739C53.3885 30.2451 53.3344 30.1129 53.2829 29.9871L53.2828 29.987L53.2625 29.9374L53.2623 29.9368L53.2622 29.9366C53.1533 29.6995 53.0445 29.4624 52.9336 29.233C52.4665 28.3338 51.8938 27.5657 51.2069 26.96C50.1835 26.0574 49.1361 25.2739 47.5323 25.565C44.6647 26.3362 43.3219 29.3863 43.4876 32.112C43.4943 32.2141 43.4417 32.3424 43.3553 32.4033C43.0648 32.6366 41.9672 32.4165 41.959 32.4144C41.4553 32.2827 40.9842 32.0008 40.5982 31.5991C40.4354 31.4312 40.3298 31.2448 40.2243 31.0585C40.1247 30.882 40.0251 30.7056 39.8982 30.5972C39.5999 30.3425 39.1666 30.1992 38.7082 30.0477L38.7079 30.0476L38.6523 30.0292C38.2362 29.8953 37.8061 29.7495 37.4342 29.5186C36.745 29.0794 36.2449 28.5225 35.9822 27.8939C35.3422 26.3562 36.299 24.9016 37.3223 24.1245C37.5562 23.9443 37.678 23.6727 37.8067 23.3858L37.8217 23.3525C37.9668 23.0144 38.1431 22.626 38.5076 22.3452C40.1053 21.125 42.8287 21.7032 43.6249 21.9113C45.3878 22.3721 47.1073 23.4984 48.1348 24.8617C49.3232 24.8465 50.2561 25.3494 51.0388 25.9551C48.1113 21.7136 43.9278 18.4307 39.1763 16.6454C38.1176 16.2517 37.0679 15.9523 36.0455 15.7435C36.0108 15.7428 35.9886 15.7287 35.9664 15.7145C34.5788 15.5356 33.6067 15.6826 32.5335 16.2294C31.4809 16.7648 30.497 17.4937 29.6067 18.3891C28.4127 19.5978 27.4824 21.051 26.9258 22.6019L26.9197 22.6186C26.7385 23.1208 26.4972 23.7894 25.8433 24.0069C25.5075 24.1197 25.1637 24.0716 24.9016 24.0115C23.5277 23.7192 22.2961 22.8457 21.5983 21.6772C21.5743 21.6375 21.5524 21.5984 21.5305 21.5592C21.5086 21.5201 21.4867 21.481 21.4628 21.4413L21.4389 21.4C21.2826 21.1296 21.1352 20.8745 20.92 20.7228C20.7252 20.5804 20.4566 20.518 20.1716 20.4519L20.1675 20.4509L19.9806 20.402C17.1795 19.6949 14.9929 16.9089 14.9 13.9181C14.8221 11.1902 16.3367 8.40235 18.8566 6.64604C19.3092 6.32982 19.598 5.91229 19.9036 5.4657C20.0824 5.19491 20.2797 4.92056 20.5094 4.65472C21.0785 4.00961 21.6115 3.46372 22.0881 3.02841C23.4806 1.7629 25.1927 1.14082 26.7697 1.32742C27.0242 1.35216 27.3372 1.41726 27.55 1.65674C27.8458 1.99009 27.7738 2.42325 27.7208 2.74259L27.7189 2.75378C27.4724 4.12666 27.7314 5.65672 28.4427 7.18805C29.1541 8.71939 30.2491 10.0585 31.1224 11.0639C32.373 12.5023 34.0863 14.2537 36.2536 15.1127C36.2628 15.1151 36.2706 15.1183 36.2774 15.122C36.2886 15.1282 36.2974 15.1356 36.3062 15.1432C37.3286 15.3519 38.3761 15.6592 39.4267 16.0507C42.0712 17.0428 44.5385 18.49 46.7259 20.2902C46.8607 17.0414 46.0466 13.7283 44.4113 10.8691C42.4537 9.56355 40.3651 9.52736 37.6487 10.7309C37.5892 10.7571 37.4622 10.8075 37.3117 10.7849C37.1282 10.753 37.0193 10.6251 36.97 10.5672L36.9641 10.5603C36.5149 10.0084 36.2838 9.29616 36.3017 8.56546C36.3087 8.19127 36.3828 7.82625 36.5258 7.49594C36.5549 7.4141 36.5971 7.34053 36.6386 7.26798C36.6514 7.24565 36.6642 7.22341 36.6764 7.20107C36.7556 7.07134 36.8202 6.96289 36.8258 6.84736C36.8363 6.75165 36.8121 6.62627 36.7862 6.49229L36.7781 6.45049C36.7534 6.31868 36.7286 6.18685 36.718 6.06709C36.6793 5.44697 36.7386 4.81902 36.9018 4.19317L36.9189 4.13079C37.2509 2.92231 37.9544 1.81932 38.8985 1.01319C39.319 0.655154 39.7177 0.408393 40.1274 0.248091ZM20.3857 19.831C20.69 19.9101 21.0343 19.9996 21.3243 20.2018C21.3426 20.2134 21.3595 20.2303 21.3839 20.2549L21.4009 20.2719C23.4981 17.9622 26.4305 15.687 29.6241 14.7753C25.4589 14.8815 21.3192 16.2896 18.0262 18.7045C18.484 19.0666 18.9936 19.3669 19.5371 19.5758C19.8007 19.2185 20.4262 18.4628 21.3415 17.9834C21.395 17.9473 21.466 17.9742 21.4959 18.0238C21.5055 18.0343 21.5104 18.0475 21.5122 18.0609C21.5142 18.0754 21.5125 18.0903 21.5091 18.1025C21.5005 18.1337 21.486 18.1549 21.4552 18.1719C20.622 18.6059 20.032 19.2957 19.7603 19.6509L19.7818 19.6578C19.9098 19.6992 20.0314 19.7384 20.1622 19.7726L20.3328 19.8172L20.3857 19.831ZM25.9685 4.87838C25.6825 3.70058 24.9782 2.71426 24.5952 2.23811C24.1671 2.40196 23.7402 2.62463 23.3168 2.89833C24.9667 5.73625 27.1944 8.34083 29.7666 10.4839C29.075 9.60957 28.3468 8.58356 27.8157 7.44197C27.0407 5.79373 26.7733 4.1361 27.0377 2.63422L27.0432 2.59683L27.0432 2.5968C27.0718 2.40229 27.1058 2.17112 27.0247 2.0793C26.9645 2.01342 26.7977 1.98653 26.6797 1.9724C26.0733 1.89745 25.4425 1.97491 24.8142 2.17001C25.2233 2.67803 25.8951 3.65586 26.1811 4.83368L26.1811 4.8337C26.185 4.85141 26.1888 4.86911 26.1845 4.88469C26.1738 4.92368 26.1468 4.95842 26.1019 4.96339C26.0468 4.97403 25.9861 4.94145 25.9685 4.87838ZM21.0297 5.07483C20.8188 5.30382 20.6463 5.55121 20.4777 5.81633C20.4167 5.91285 20.352 6.00315 20.2855 6.09602L20.2325 6.17006C23.6038 7.68638 26.96 9.41604 30.0471 11.4597C27.1834 9.17358 24.6962 6.309 22.9194 3.20392C22.7979 3.29752 22.6742 3.39889 22.5587 3.5024C22.1895 3.83208 21.7908 4.23759 21.3668 4.70336C21.9081 4.92005 23.1254 5.49729 24.0555 6.51755C24.0837 6.54165 24.0892 6.58488 24.0807 6.61607L24.0806 6.61614C24.0763 6.63172 24.0699 6.65506 24.0494 6.66638C23.9959 6.70254 23.9267 6.70115 23.8865 6.65724C22.9564 5.63696 21.6942 5.06471 21.2077 4.87067C21.1538 4.94003 21.0919 5.00728 21.03 5.07453L21.0297 5.07483ZM31.1165 12.8924C27.6152 10.4229 23.7228 8.39436 19.8184 6.66347C19.6571 6.83858 19.4796 7.00943 19.2657 7.15408C18.9427 7.37884 18.6398 7.62557 18.3511 7.88435C19.0152 7.90754 20.2365 8.02621 21.3746 8.5744C21.4293 8.59707 21.449 8.65234 21.4361 8.69912L21.4297 8.72252C21.3963 8.78063 21.3309 8.79696 21.2762 8.77431C20.0388 8.1751 18.664 8.1082 18.126 8.10129C17.7461 8.46994 17.4107 8.86693 17.1056 9.28021C21.8667 9.7309 26.7092 10.9633 31.1165 12.8924ZM19.0876 11.6701C17.5631 11.514 16.1115 12.012 15.7612 12.146C15.6271 12.7293 15.5623 13.3141 15.5727 13.9101L15.5735 13.9252L15.5742 13.9523L15.5743 13.9534L15.5743 13.9544C15.5746 13.9684 15.5749 13.9823 15.5757 13.9944C20.0652 11.5663 26.2994 12.3603 31.3505 13.689C26.7534 11.6266 21.6732 10.3404 16.6794 9.91255C16.296 10.5477 16.0101 11.2083 15.8216 11.8944C16.352 11.7071 17.6799 11.3106 19.1107 11.4589C19.1698 11.466 19.2159 11.5198 19.209 11.5766L19.2048 11.5921C19.1919 11.6389 19.1466 11.6772 19.0876 11.6701ZM19.3392 15.2874C17.8975 15.6543 16.7583 16.5682 16.4387 16.8439C16.7434 17.3832 17.1302 17.8771 17.5769 18.3114C21.1677 15.5731 25.7962 14.0337 30.4057 14.0854C25.5623 12.9197 19.8468 12.3616 15.6652 14.6195C15.7761 15.3254 16.0076 16.0042 16.3396 16.6342C16.725 16.3088 17.8454 15.4317 19.285 15.0727C19.3423 15.0542 19.4009 15.0946 19.4205 15.1499C19.4224 15.1585 19.4237 15.1689 19.4241 15.1792C19.4246 15.1901 19.424 15.2007 19.4218 15.2087C19.4111 15.2477 19.376 15.2803 19.3392 15.2874ZM22.1217 21.2458C22.1421 21.2825 22.1625 21.3192 22.1834 21.3539C22.2376 21.4437 22.2935 21.527 22.3512 21.6128C22.3826 21.6596 22.4146 21.7073 22.4471 21.7571C22.6414 21.3984 23.1848 20.5293 24.0754 19.9181C24.1289 19.882 24.1961 19.8912 24.2341 19.9429C24.238 19.9471 24.2414 19.9518 24.2443 19.957C24.2565 19.9783 24.2602 20.0063 24.2533 20.0314C24.2469 20.0548 24.2323 20.0761 24.2096 20.0952C23.2861 20.7313 22.7353 21.6903 22.6057 21.9406C22.8767 22.2537 23.193 22.5286 23.5406 22.7532C25.2841 19.4486 28.3616 15.916 32.1624 15.0126C28.1845 15.1343 24.3432 17.8656 21.7586 20.6495C21.8787 20.8146 21.9723 20.9812 22.0599 21.1378C22.0808 21.1724 22.1012 21.2091 22.1216 21.2457L22.1217 21.2458ZM26.2887 22.3852C26.877 20.7507 27.8573 19.2103 29.1215 17.9364C30.0512 16.9928 31.0864 16.2355 32.1822 15.6696C28.5675 16.5297 25.6039 19.7745 23.8501 22.926C24.2306 23.1258 24.624 23.2787 25.0426 23.3714C25.2235 23.4103 25.4492 23.4443 25.6212 23.389C25.965 23.2783 26.1384 22.8055 26.2887 22.3852ZM39.7929 29.7758C39.9934 29.87 40.1815 29.9777 40.3508 30.1222C40.3604 30.1283 40.3693 30.1374 40.3786 30.147C40.3909 30.1596 40.4041 30.1732 40.4214 30.1824C41.1194 27.9582 42.6103 25.5736 44.8181 24.7636C42.335 25.1173 40.1792 27.3866 38.9049 29.4267C39.1362 29.5039 39.3675 29.5811 39.5945 29.6738C39.7534 29.2223 40.1189 28.3987 40.788 27.7379C40.8253 27.6975 40.9048 27.6932 40.945 27.7371C40.971 27.769 40.9868 27.8066 40.9761 27.8456C40.9697 27.8689 40.9574 27.8824 40.945 27.8958L40.9449 27.8959C40.2985 28.5375 39.9432 29.3555 39.7929 29.7758ZM43.4655 22.5549C42.7425 22.3659 40.2936 21.8344 38.9388 22.8674C38.7083 23.0411 38.5948 23.2956 38.4686 23.5968C40.7733 23.0043 43.3106 22.8653 45.6196 23.494C44.9505 23.0767 44.2129 22.7502 43.4655 22.5549ZM38.5163 24.9129C37.6421 25.2109 36.9457 25.7809 36.6154 26.0957C36.5225 26.3388 36.4621 26.5904 36.4688 26.8512C36.9234 26.372 37.7578 25.9237 38.2686 25.6492C38.3502 25.6054 38.4235 25.566 38.4857 25.5317C40.4648 24.4446 42.6721 23.9853 44.9223 23.9719C42.6642 23.5069 40.2094 23.726 38.0406 24.3624C37.9597 24.4666 37.8648 24.5588 37.7535 24.6467C37.4344 24.8892 37.1285 25.2103 36.8893 25.574C37.2765 25.2741 37.8069 24.928 38.4416 24.7096C38.501 24.6833 38.5699 24.718 38.5895 24.7733L38.5908 24.7883C38.5924 24.8064 38.5937 24.8214 38.5886 24.8399C38.5801 24.8711 38.5553 24.898 38.5163 24.9129ZM36.5421 27.472C36.5596 27.5349 36.5851 27.5998 36.6106 27.6648L36.6109 27.6655C36.7472 27.9936 36.9596 28.2664 37.1789 28.4825C37.4634 28.0805 38.0329 27.4021 38.8379 26.944C38.8892 26.9157 38.9624 26.9348 38.9923 26.9844C39.0102 27.0141 39.0119 27.0397 39.0034 27.0709C38.9969 27.0942 38.9824 27.1155 38.9516 27.1325C38.1752 27.5814 37.6139 28.2619 37.346 28.6348C37.5012 28.7673 37.6585 28.892 37.8 28.9791C37.9779 29.0924 38.1887 29.181 38.4097 29.2638C39.3752 27.6193 40.9364 25.7712 42.8022 24.7798C41.3627 24.9801 39.9692 25.393 38.6719 26.0901C38.2326 26.3262 37.0623 26.9729 36.5421 27.472ZM40.8571 30.8146C40.9382 30.9502 41.0125 31.0745 41.1073 31.1723C41.262 31.3381 41.4356 31.467 41.6156 31.5726C41.8853 28.9105 43.2347 26.28 45.6684 25.1864C43.1456 25.6216 41.4464 28.1941 40.7039 30.5487C40.7458 30.6182 40.7876 30.6876 40.8214 30.7549L40.8571 30.8146ZM42.8244 31.8634C42.7982 31.0711 42.8986 30.2617 43.1128 29.4821C43.4618 28.2112 44.1277 27.0232 45.1155 26.1533C43.2497 27.3034 42.1976 29.4852 41.9559 31.7284C42.0188 31.7532 42.0816 31.7779 42.1466 31.7949C42.2381 31.8105 42.5841 31.8508 42.8244 31.8634ZM45.6288 2.66383C45.4877 2.54339 45.3569 2.41729 45.2342 2.29329L45.213 2.27237C44.9674 2.02993 44.7341 1.79974 44.481 1.61173C44.8585 4.04184 44.9297 6.50888 44.5938 8.93638C44.5985 8.96686 44.6017 8.99484 44.6049 9.02285L44.6087 9.05545C44.6108 9.07285 44.6131 9.09062 44.616 9.1093C45.0039 7.06308 45.9661 5.05001 47.5181 3.58387C47.0893 3.49683 46.6587 3.38428 46.2482 3.13494C46.1127 3.05773 45.9896 2.96705 45.8768 2.8707C45.9158 3.45751 45.9027 4.29807 45.6649 5.16349C45.6347 5.27353 45.5973 5.38168 45.5577 5.49622L45.5502 5.51789C45.5352 5.57247 45.4655 5.60438 45.4108 5.58172C45.3539 5.56686 45.3158 5.51513 45.3433 5.44708C45.7119 4.39026 45.6816 3.29599 45.6288 2.66383ZM42.4972 0.750543C42.2979 0.71518 42.1068 0.681934 41.9114 0.664274C41.872 0.661983 41.8331 0.660127 41.7947 0.658532C41.7436 0.656413 41.6934 0.654769 41.6441 0.653154L41.6392 0.652993L41.6391 0.65299C41.5338 0.649555 41.4325 0.646249 41.3349 0.638944C42.6699 2.94329 43.8692 5.48794 44.4338 8.09233C44.667 5.88033 44.5623 3.63015 44.1839 1.42543C43.735 1.15768 43.2771 0.954415 42.808 0.823445C43.1307 1.39246 43.6203 2.43129 43.725 3.60349C43.7288 3.62121 43.7246 3.63679 43.7224 3.6446C43.7096 3.69138 43.6745 3.72399 43.6215 3.72685C43.5582 3.73536 43.5017 3.68719 43.5005 3.62837C43.3868 2.36192 42.7903 1.23664 42.4972 0.750543ZM41.4135 3.77644C40.8457 2.64195 39.8907 1.80737 39.4247 1.44322C39.4021 1.46238 39.3794 1.48152 39.3507 1.49074C39.0787 1.72045 38.8429 1.97637 38.6213 2.24434C40.8088 4.04452 42.9601 6.26144 44.1637 8.79052C43.659 5.96782 42.2836 3.17658 40.8243 0.72272L40.8239 0.722807C40.6748 0.758982 40.5256 0.795157 40.3884 0.851138C40.1263 0.949732 39.8675 1.09936 39.604 1.29788C40.0982 1.68611 41.0429 2.52637 41.6227 3.6807C41.6273 3.69367 41.6301 3.70619 41.6312 3.71824C41.6323 3.73182 41.6312 3.74483 41.6278 3.75724C41.6192 3.78841 41.5966 3.80756 41.5658 3.82457C41.5063 3.85082 41.4413 3.83384 41.4135 3.77644ZM37.5941 4.24044L37.562 4.35739C37.4506 4.76281 37.3962 5.1831 37.3887 5.59062C39.4947 5.84863 41.6689 6.65094 43.2031 8.07145C41.9625 6.02576 40.1236 4.22476 38.2807 2.72355C38.0124 3.12973 37.8048 3.56849 37.652 4.02992C37.9466 4.09858 39.5389 4.5148 40.782 5.60018C40.8102 5.62427 40.8239 5.66963 40.8132 5.7086C40.8089 5.7242 40.8046 5.73979 40.7922 5.75326C40.7528 5.80147 40.6836 5.80008 40.6331 5.76181C39.4242 4.71045 37.84 4.29634 37.5941 4.24044ZM37.2725 7.51361L37.2673 7.52264C37.2215 7.59423 37.1839 7.66795 37.144 7.74947C37.106 7.85643 37.076 7.96552 37.046 8.07471L37.046 8.0748C39.3857 7.76719 42.0455 8.0697 43.8829 9.52768C42.4267 7.6011 39.8583 6.55371 37.4269 6.24405C37.4286 6.26956 37.4303 6.29508 37.4402 6.32271L37.4402 6.32289L37.4402 6.32302C37.4786 6.50012 37.5208 6.6949 37.5019 6.89038C37.4825 7.1481 37.3714 7.34151 37.2725 7.51361ZM36.9781 8.73394C36.998 9.23216 37.1526 9.71548 37.439 10.0995C39.3107 9.27679 40.9546 9.02964 42.4546 9.33818C40.785 8.60093 38.779 8.48604 36.9781 8.73394ZM50.4189 5.22791C50.1545 4.73259 49.7381 4.31458 49.2302 4.03975C48.9044 3.86268 48.5448 3.77703 48.1625 3.71054C46.7209 4.83786 45.6905 6.46541 45.1458 8.19488C45.477 7.65472 45.9074 7.16556 46.4285 6.7586C47.5591 5.87588 49.1505 5.43951 50.4189 5.22791ZM20.5259 49.2711C20.9767 48.3506 21.4728 47.2913 22.0144 46.0933L30.9628 26.2687H31.8092L42.4102 51.6754H42.4505L42.9745 52.9478C43.4313 54.0423 44.2644 54.5896 45.4736 54.5896V55H36.4043V54.5896H36.5656C37.3448 54.5896 37.8823 54.3707 38.1779 53.9328C38.4735 53.495 38.4735 52.9067 38.1779 52.1679L38.0569 51.9216L37.936 51.5522L35.5982 45.6828H23.0624L22.2159 47.5299C21.8397 48.3507 21.5576 49.158 21.3695 49.9515C21.2082 50.7177 21.141 51.4701 21.1679 52.209C21.2217 52.9204 21.477 53.495 21.9338 53.9328C22.4175 54.3707 23.1161 54.5896 24.0298 54.5896V55H20.0136H15.4442H0V54.7948H0.134622C0.972263 54.7948 1.63041 54.3843 2.10906 53.5634C2.61763 52.7425 2.87191 51.6754 2.87191 50.3619V30.9067C2.87191 29.5933 2.61763 28.5261 2.10906 27.7052C1.63041 26.8843 0.972263 26.4739 0.134622 26.4739H0V26.2687H9.91707V26.4739H9.78245C8.97472 26.4739 8.31658 26.8843 7.80801 27.7052C7.29944 28.5261 7.04516 29.5933 7.04516 30.9067V54.097H11.1287C12.9834 54.097 14.8083 53.5908 16.6032 52.5784C18.1576 51.7016 19.4651 50.5992 20.5259 49.2711ZM23.4655 44.7799L29.7132 30.9888L35.2354 44.7799H23.4655ZM73.0624 31.6919C72.7965 31.9222 72.4461 32.0373 72.011 32.0373H68.9295V26.6486H71.1591C71.9083 26.6486 72.6455 26.8617 73.3705 27.2877C74.0956 27.7137 74.6877 28.2664 75.1469 28.9457H75.3282L74.7482 26.2687H66.0836V26.355H66.138C66.4643 26.355 66.7301 26.5277 66.9356 26.8732C67.141 27.2186 67.2437 27.6677 67.2437 28.2203V36.407C67.2437 36.9597 67.141 37.4087 66.9356 37.7541C66.7301 38.0996 66.4643 38.2723 66.138 38.2723H66.0836V38.3586H75.2013L75.7633 35.6816H75.582C75.1228 36.3609 74.5306 36.9136 73.8056 37.3396C73.0805 37.7657 72.3434 37.9787 71.5941 37.9787H68.9295V32.4518H72.011C72.4461 32.4518 72.7965 32.567 73.0624 32.7973C73.3403 33.0275 73.6364 33.4593 73.9506 34.0926L74.1137 34.1099V30.3793L73.9506 30.3965C73.6364 31.0298 73.3403 31.4616 73.0624 31.6919ZM89.7656 26.2687H85.9047V26.4414C87.246 26.4414 87.4938 27.4316 86.6479 29.4121L83.6207 36.4761L79.5422 27.6677L79.2885 27.1495C79.228 26.9307 79.2582 26.758 79.3791 26.6314C79.4999 26.5047 79.6933 26.4414 79.9591 26.4414H80.0316V26.2687H76.2613V26.4414H76.2976C76.5392 26.4414 76.7689 26.5047 76.9864 26.6314C77.2039 26.758 77.361 26.9307 77.4577 27.1495L77.4939 27.2531L82.7869 38.3586H83.2401L86.7929 30.0166C87.3971 28.6233 87.8986 27.6734 88.2974 27.1668C88.6962 26.6602 89.1856 26.4069 89.7656 26.4069V26.2687ZM95.9261 32.0373C96.3612 32.0373 96.7116 31.9222 96.9775 31.6919C97.2554 31.4616 97.5515 31.0298 97.8657 30.3965L98.0288 30.3793V34.1099L97.8657 34.0926C97.5515 33.4593 97.2554 33.0275 96.9775 32.7973C96.7116 32.567 96.3612 32.4518 95.9261 32.4518H92.8446V37.9787H95.5092C96.2585 37.9787 96.9956 37.7657 97.7207 37.3396C98.4457 36.9136 99.0379 36.3609 99.4971 35.6816H99.6784L99.1164 38.3586H89.9987V38.2723H90.0531C90.3794 38.2723 90.6452 38.0996 90.8507 37.7541C91.0561 37.4087 91.1588 36.9597 91.1588 36.407V28.2203C91.1588 27.6677 91.0561 27.2186 90.8507 26.8732C90.6452 26.5277 90.3794 26.355 90.0531 26.355H89.9987V26.2687H98.6633L99.2433 28.9457H99.062C98.6028 28.2664 98.0107 27.7137 97.2856 27.2877C96.5606 26.8617 95.8234 26.6486 95.0742 26.6486H92.8446V32.0373H95.9261ZM110.944 27.2531C111.161 26.6544 111.427 26.355 111.741 26.355H111.796V26.2687H107.971V26.4414C108.708 26.4414 109.27 26.712 109.657 27.2531C110.043 27.7943 110.237 28.5024 110.237 29.3775V35.7507L102.769 26.2687H100.176V26.355H100.213C100.551 26.355 100.823 26.5277 101.028 26.8732C101.234 27.2186 101.337 27.6677 101.337 28.2203V35.5434C101.337 36.1537 101.228 36.7639 101.01 37.3742C100.793 37.9729 100.533 38.2723 100.231 38.2723H100.176V38.3586H103.983L104.001 38.1859C103.252 38.1859 102.684 37.9211 102.297 37.3914C101.923 36.8503 101.735 36.1364 101.735 35.2498V27.6158L110.237 38.3586H110.672L110.635 37.8578V29.0839C110.635 28.4621 110.738 27.8519 110.944 27.2531ZM112.291 28.6176H112.074L112.472 26.2687H121.681L122.08 28.6176H121.862C121.753 28.1916 121.53 27.8346 121.191 27.5468C120.865 27.2474 120.472 27.0401 120.013 26.925C119.566 26.8098 119.191 26.735 118.889 26.7005C118.587 26.6659 118.285 26.6486 117.983 26.6486H117.929V36.407C117.929 36.9597 118.025 37.4087 118.219 37.7541C118.424 38.0996 118.696 38.2723 119.034 38.2723H119.089V38.3586H115.083V38.2723H115.137C115.463 38.2723 115.729 38.0996 115.935 37.7541C116.14 37.4087 116.243 36.9597 116.243 36.407V26.6486H116.17C115.892 26.6486 115.602 26.6717 115.3 26.7177C114.998 26.7523 114.63 26.8329 114.195 26.9595C113.772 27.0747 113.385 27.2762 113.034 27.564C112.696 27.8519 112.448 28.2031 112.291 28.6176ZM66.0655 42.8755H66.1199C66.4583 42.8755 66.7241 43.0482 66.9175 43.3936C67.1229 43.7391 67.2256 44.1881 67.2256 44.7408V52.9274C67.2256 53.4801 67.1229 53.9292 66.9175 54.2746C66.7241 54.62 66.4583 54.7927 66.1199 54.7927H66.0655V54.8791H70.0715V54.7927H70.0171C69.6908 54.7927 69.425 54.62 69.2195 54.2746C69.0141 53.9292 68.9114 53.4801 68.9114 52.9274V50.6822L70.6697 50.2158C71.3947 50.0316 72.0473 49.7956 72.6273 49.5077C73.2195 49.2198 73.7029 48.909 74.0775 48.575C74.4642 48.2411 74.7844 47.8899 75.0382 47.5215C75.304 47.1415 75.4611 46.7673 75.5095 46.3988C75.5578 46.0304 75.5457 45.6677 75.4732 45.3107C75.4128 44.9538 75.2436 44.6257 74.9657 44.3263C74.6998 44.0269 74.3735 43.7621 73.9868 43.5318C73.6122 43.3015 73.1349 43.123 72.5548 42.9964C71.9748 42.8582 71.3404 42.7891 70.6515 42.7891H66.0655V42.8755ZM70.8691 49.784L68.9114 50.3022V43.1518H70.9053C71.437 43.1518 71.9083 43.2555 72.3192 43.4627C72.7421 43.67 73.0624 43.9463 73.2799 44.2917C73.4974 44.6257 73.6545 45.0056 73.7512 45.4316C73.86 45.8462 73.866 46.2779 73.7693 46.727C73.6726 47.1761 73.5095 47.6021 73.2799 48.0051C73.0624 48.4081 72.7421 48.7708 72.3192 49.0932C71.8962 49.4041 71.4129 49.6344 70.8691 49.784ZM84.5861 52.202H84.7674L84.1873 54.8791H76.1028V54.7927H76.1572C76.4956 54.7927 76.7614 54.62 76.9548 54.2746C77.1602 53.9292 77.2629 53.4801 77.2629 52.9274V44.7408C77.2629 44.1881 77.1602 43.7391 76.9548 43.3936C76.7614 43.0482 76.4956 42.8755 76.1572 42.8755H76.1028V42.7891H80.1088V42.8755H80.0544C79.7282 42.8755 79.4623 43.0482 79.2569 43.3936C79.0514 43.7391 78.9487 44.1881 78.9487 44.7408V54.4991H80.5982C81.3475 54.4991 82.0846 54.2861 82.8097 53.8601C83.5348 53.4341 84.1269 52.8814 84.5861 52.202ZM85.2361 54.8791H89.0971V54.7064C88.6862 54.7064 88.372 54.6143 88.1545 54.43C87.9491 54.2458 87.8343 54.004 87.8101 53.7046C87.798 53.3938 87.8282 53.0771 87.9007 52.7547C87.9853 52.4208 88.1122 52.0811 88.2814 51.7357L88.662 50.9585H94.2994L95.3508 53.4283L95.4051 53.5837L95.4595 53.6874C95.5925 53.9983 95.5925 54.2458 95.4595 54.43C95.3266 54.6143 95.0849 54.7064 94.7345 54.7064H94.6619V54.8791H98.7404V54.7064C98.1966 54.7064 97.822 54.4761 97.6166 54.0155L97.3809 53.4801H97.3628L92.5955 42.7891H92.2149L88.1908 51.1312C87.4899 52.582 86.9581 53.5492 86.5956 54.0328C86.2452 54.5049 85.792 54.7409 85.2361 54.7409V54.8791ZM88.8433 50.5785L91.6529 44.7753L94.1363 50.5785H88.8433ZM110.502 42.8755C110.188 42.8755 109.922 43.1749 109.704 43.7736C109.499 44.3723 109.396 44.9826 109.396 45.6044V54.3782L109.433 54.8791H108.998L100.496 44.1363V51.7702C100.496 52.6568 100.683 53.3707 101.058 53.9119C101.445 54.4416 102.013 54.7064 102.762 54.7064L102.744 54.8791H98.9373V54.7927H98.9917C99.2938 54.7927 99.5536 54.4934 99.7711 53.8946C99.9886 53.2844 100.097 52.6741 100.097 52.0639V44.7408C100.097 44.1881 99.9947 43.7391 99.7892 43.3936C99.5838 43.0482 99.3119 42.8755 98.9735 42.8755H98.9373V42.7891H101.529L108.998 52.2711V45.898C108.998 45.0229 108.804 44.3148 108.418 43.7736C108.031 43.2324 107.469 42.9618 106.732 42.9618V42.7891H110.556V42.8755H110.502ZM121.529 43.7736C121.747 43.1749 122.013 42.8755 122.327 42.8755H122.381V42.7891H118.557V42.9618C119.294 42.9618 119.856 43.2324 120.242 43.7736C120.629 44.3148 120.822 45.0229 120.822 45.898V52.2711L113.354 42.7891H110.762V42.8755H110.798C111.137 42.8755 111.409 43.0482 111.614 43.3936C111.819 43.7391 111.922 44.1881 111.922 44.7408V52.0639C111.922 52.6741 111.813 53.2844 111.596 53.8946C111.378 54.4934 111.119 54.7927 110.816 54.7927H110.762V54.8791H114.569L114.587 54.7064C113.838 54.7064 113.27 54.4416 112.883 53.9119C112.508 53.3707 112.321 52.6568 112.321 51.7702V44.1363L120.822 54.8791H121.257L121.221 54.3782V45.6044C121.221 44.9826 121.324 44.3723 121.529 43.7736ZM128.551 48.5578C128.986 48.5578 129.336 48.4426 129.602 48.2123C129.88 47.9821 130.176 47.5503 130.49 46.917L130.653 46.8997V50.6303L130.49 50.6131C130.176 49.9798 129.88 49.548 129.602 49.3177C129.336 49.0874 128.986 48.9723 128.551 48.9723H125.469V54.4991H128.134C128.883 54.4991 129.62 54.2861 130.345 53.8601C131.07 53.4341 131.662 52.8814 132.121 52.202H132.303L131.741 54.8791H122.623V54.7927H122.677C123.004 54.7927 123.27 54.62 123.475 54.2746C123.68 53.9292 123.783 53.4801 123.783 52.9274V44.7408C123.783 44.1881 123.68 43.7391 123.475 43.3936C123.27 43.0482 123.004 42.8755 122.677 42.8755H122.623V42.7891H131.288L131.868 45.4662H131.686C131.227 44.7868 130.635 44.2342 129.91 43.8081C129.185 43.3821 128.448 43.1691 127.699 43.1691H125.469V48.5578H128.551ZM132.819 42.8755H132.873C133.212 42.8755 133.478 43.0482 133.671 43.3936C133.876 43.7391 133.979 44.1881 133.979 44.7408V53.1001C133.955 53.6183 133.84 54.0328 133.635 54.3437C133.441 54.6431 133.187 54.7927 132.873 54.7927H132.819V54.8791H136.825V54.7927H136.771C136.432 54.7927 136.16 54.62 135.955 54.2746C135.761 53.9292 135.665 53.4801 135.665 52.9274V50.3713L137.767 49.7495C138.251 49.8186 138.704 50.0489 139.127 50.4403C139.562 50.8318 139.931 51.2809 140.233 51.7875C140.547 52.2826 140.843 52.7777 141.121 53.2729C141.411 53.7565 141.713 54.1652 142.027 54.4991C142.354 54.833 142.68 55 143.006 55C143.574 55 144.239 54.4703 145 53.411L144.927 53.3419C144.637 53.6528 144.341 53.8083 144.039 53.8083C143.761 53.8083 143.435 53.5837 143.06 53.1347C142.698 52.6741 142.347 52.1675 142.009 51.6148C141.683 51.0621 141.272 50.5382 140.777 50.0431C140.281 49.5365 139.792 49.2486 139.308 49.1795C140.07 48.8111 140.692 48.3505 141.175 47.7978C141.671 47.2336 141.961 46.6694 142.045 46.1052C142.13 45.5295 142.063 44.9941 141.846 44.499C141.628 43.9924 141.181 43.5836 140.505 43.2727C139.84 42.9503 139.006 42.7891 138.003 42.7891H132.819V42.8755ZM135.665 43.1691H138.003C138.619 43.1691 139.133 43.3533 139.544 43.7218C139.955 44.0787 140.202 44.5278 140.287 45.069C140.372 45.6101 140.36 46.1686 140.251 46.7443C140.154 47.3085 139.912 47.8266 139.526 48.2987C139.151 48.7708 138.692 49.0874 138.148 49.2486L135.665 49.9913V43.4109V43.1691Z" fill="white"></path></svg>