<svg xmlns="http://www.w3.org/2000/svg" width="97" height="97" viewBox="0 0 97 97" fill="none"><path d="M25.638 13.6546C25.4544 13.8382 25.2708 13.8382 25.0871 13.8382C24.9035 13.8382 24.7199 13.6546 24.5363 13.6546L20.6802 10.3494C20.4966 10.1658 20.313 9.98218 20.313 9.79856C20.313 9.61494 20.4966 9.43132 20.6802 9.2477C20.8639 9.06408 21.0475 9.06408 21.2311 9.06408C21.4147 9.06408 21.5983 9.2477 21.782 9.2477L24.9035 12.002L24.5363 12.1856L23.8018 7.96235C23.8018 7.77873 23.8018 7.59511 23.8018 7.41149C23.8018 7.22786 23.9854 7.04424 24.169 7.04424C24.3527 6.86062 24.5363 6.86062 24.7199 6.86062C24.9035 6.86062 25.0871 7.04424 25.2708 7.04424L28.2087 9.98218L27.8415 10.1658L26.9234 6.12614C26.9234 5.94251 26.9234 5.75889 26.9234 5.57527C26.9234 5.39165 27.107 5.20803 27.2906 5.20803C27.4742 5.02441 27.6578 5.02441 28.0251 5.20803C28.2087 5.39165 28.3923 5.57527 28.3923 5.75889L29.3104 10.7167C29.3104 10.9003 29.3104 11.0839 29.3104 11.2675C29.3104 11.4512 29.1268 11.6348 28.9432 11.6348C28.7596 11.8184 28.576 11.8184 28.3923 11.8184C28.2087 11.8184 28.0251 11.6348 27.8415 11.6348L24.9035 9.2477L25.0871 9.06408L25.8216 12.7365C25.8216 12.9201 25.8216 13.1037 25.8216 13.2874C26.0053 13.471 25.8216 13.471 25.638 13.6546Z" fill="#1D1F21"></path><path d="M32.4225 9.98247C32.2389 9.98247 32.0553 9.98247 31.8717 9.98247C31.688 9.98247 31.688 9.79885 31.5044 9.79885C31.5044 9.61522 31.3208 9.4316 31.3208 9.24798L32.0553 4.10658C32.0553 3.92296 32.2389 3.73934 32.2389 3.55572C32.4225 3.3721 32.4225 3.3721 32.6061 3.18848C32.7898 3.18848 32.9734 3.18848 33.157 3.18848C33.3406 3.18848 33.5243 3.3721 33.7079 3.55572L37.3803 7.22815C37.5639 7.41177 37.5639 7.59539 37.5639 7.59539C37.5639 7.77901 37.5639 7.96263 37.5639 7.96263C37.5639 8.14625 37.3803 8.14625 37.1967 8.14625C37.0131 8.14625 36.8294 8.14625 36.6458 8.14625C36.4622 8.14625 36.2786 7.96263 36.095 7.77901L35.3605 6.8609L36.095 7.04453L32.6061 8.32988L32.9734 7.77901V9.06436C32.9734 9.24798 32.9734 9.4316 32.7898 9.61522C32.7898 9.79885 32.6061 9.98247 32.4225 9.98247ZM33.157 4.84107L32.9734 7.41177L32.6061 7.04453L34.9932 6.12642L34.8096 6.67728L33.157 4.84107Z" fill="#1D1F21"></path><path d="M40.505 7.59472C40.3214 7.59472 39.9541 7.59472 39.9541 7.4111C39.7705 7.22747 39.7705 7.04385 39.5869 6.86023L38.8524 2.82056L37.3834 3.1878C37.1998 3.1878 37.0162 3.1878 36.8325 3.1878C36.6489 3.1878 36.6489 3.00418 36.6489 2.82056C36.6489 2.63694 36.6489 2.45332 36.6489 2.2697C36.6489 2.08608 36.8325 2.08608 37.1998 2.08608L41.6067 1.16797C41.7903 1.16797 41.9739 1.16797 42.1576 1.16797C42.3412 1.16797 42.3412 1.35159 42.3412 1.53521C42.3412 1.71883 42.3412 1.90245 42.3412 2.08608C42.3412 2.2697 42.1576 2.2697 41.9739 2.2697L40.6886 2.45332L41.4231 6.49299C41.4231 6.67661 41.4231 7.04385 41.4231 7.04385C41.0558 7.4111 40.8722 7.59472 40.505 7.59472Z" fill="#1D1F21"></path><path d="M47.2979 6.86083C46.5634 6.86083 46.0125 6.86083 45.4617 6.49359C44.9108 6.30997 44.5436 5.94272 44.3599 5.39186C43.9927 4.841 43.9927 4.29013 43.8091 3.73927C43.8091 3.1884 43.8091 2.82116 43.9927 2.45392C44.1763 2.08667 44.3599 1.71943 44.5436 1.35219C44.7272 0.984946 45.0944 0.801325 45.6453 0.617703C46.0125 0.617703 46.3798 0.434082 46.9306 0.434082C47.1143 0.434082 47.4815 0.434082 47.8488 0.434082C48.216 0.434082 48.3996 0.617703 48.5832 0.617703C48.7669 0.617703 48.9505 0.801325 48.9505 0.984946C48.9505 1.16857 49.1341 1.16857 48.9505 1.35219C48.9505 1.53581 48.9505 1.53581 48.7669 1.71943C48.7669 1.90305 48.5832 1.90305 48.3996 1.90305C48.216 1.90305 48.216 1.90305 48.0324 1.90305C47.8488 1.90305 47.6651 1.71943 47.4815 1.71943C47.2979 1.71943 47.1143 1.71943 46.9306 1.71943C46.5634 1.71943 46.1962 1.90305 46.0125 1.90305C45.8289 2.08667 45.6453 2.2703 45.4617 2.45392C45.2781 2.63754 45.2781 3.00478 45.2781 3.37202C45.2781 3.73927 45.4617 4.10651 45.4617 4.29013C45.6453 4.47375 45.8289 4.65737 46.0125 4.841C46.1962 5.02462 46.5634 5.02462 46.9306 5.02462C47.1143 5.02462 47.2979 5.02462 47.4815 5.02462C47.6651 5.02462 47.8488 4.841 48.0324 4.841C48.216 4.841 48.3996 4.65737 48.5832 4.841C48.7669 4.841 48.7669 5.02462 48.9505 5.02462C48.9505 5.20824 49.1341 5.20824 49.1341 5.39186C49.1341 5.57548 49.1341 5.7591 49.1341 5.7591C49.1341 5.7591 48.9505 5.94272 48.7669 6.12635C48.5832 6.30997 48.3996 6.30997 48.0324 6.49359C47.6651 6.67721 47.4815 6.86083 47.2979 6.86083Z" fill="#1D1F21"></path><path d="M51.3375 6.86083C51.1539 6.86083 50.9703 6.67721 50.7866 6.49359C50.603 6.30997 50.603 6.30997 50.7866 5.94272L51.3375 1.16857C51.3375 0.984946 51.5211 0.617703 51.7047 0.617703C51.8884 0.434082 52.072 0.434082 52.2556 0.434082C52.4392 0.434082 52.6229 0.617703 52.8065 0.801325C52.9901 0.984946 52.9901 1.16857 52.9901 1.53581L52.8065 3.1884L55.3772 3.55565L55.5608 1.90305C55.5608 1.71943 55.7444 1.35219 55.928 1.35219C56.1117 1.16857 56.2953 1.16857 56.4789 1.16857C56.6625 1.16857 56.8462 1.35219 57.0298 1.53581C57.2134 1.71943 57.2134 1.90305 57.2134 2.08667L56.6625 6.86083C56.6625 7.04445 56.4789 7.4117 56.2953 7.4117C56.1117 7.59532 55.928 7.59532 55.7444 7.59532C55.5608 7.59532 55.3772 7.4117 55.1936 7.22807C55.0099 7.04445 55.0099 6.86083 55.0099 6.67721L55.1936 5.02462L52.6229 4.65737L52.4392 6.30997C52.4392 6.49359 52.2556 6.86083 52.072 6.86083C51.8884 6.86083 51.7048 6.86083 51.3375 6.86083Z" fill="#1D1F21"></path><path d="M66.399 10.9004C66.2154 10.7168 66.0318 10.7168 66.0318 10.5332C66.0318 10.3496 65.8481 10.166 65.8481 9.98233L66.0318 4.84093C66.0318 4.65731 66.0318 4.47369 66.2154 4.29007C66.2154 4.10645 66.399 4.10645 66.5826 4.10645C66.7663 4.10645 66.9499 4.10645 67.1335 4.10645C67.3171 4.29007 67.5007 4.29007 67.5007 4.47369C67.5007 4.65731 67.5007 4.84093 67.5007 5.02455L67.3171 9.61509L66.9499 9.43147L70.4387 6.3099C70.6223 6.12628 70.8059 6.12628 70.9895 5.94266C71.1732 5.75904 71.3568 5.94266 71.5404 5.94266C71.724 5.94266 71.9076 6.12628 71.9076 6.3099C71.9076 6.49352 71.9076 6.67715 71.9076 6.67715C71.9076 6.86077 71.724 7.04439 71.5404 7.22801L67.5007 10.5332C67.3171 10.7168 67.1335 10.7168 66.9499 10.7168C66.7662 11.0841 66.5826 11.0841 66.399 10.9004Z" fill="#1D1F21"></path><path d="M70.9927 13.4715C70.8091 13.2879 70.6255 13.1043 70.6255 12.9207C70.6255 12.737 70.6255 12.5534 70.8091 12.3698L73.3798 8.33013C73.5634 8.14651 73.7471 7.96289 73.9307 7.96289C74.1143 7.96289 74.2979 7.96289 74.4815 8.14651C74.6652 8.33013 74.8488 8.51375 74.8488 8.69738C74.8488 8.881 74.8488 9.06462 74.6652 9.24824L72.0945 13.2879C71.9108 13.4715 71.7272 13.6552 71.5436 13.6552C71.36 13.6552 71.1764 13.6552 70.9927 13.4715Z" fill="#1D1F21"></path><path d="M73.7388 15.3064C73.5552 15.1228 73.3716 14.9392 73.3716 14.7555C73.3716 14.5719 73.3716 14.3883 73.5552 14.2047L76.4931 10.7159C76.6768 10.5323 76.8604 10.3486 77.044 10.3486C77.2276 10.3486 77.4113 10.3486 77.5949 10.5323L78.8802 11.634C79.7983 12.3685 80.1656 13.103 80.3492 13.8374C80.5328 14.5719 80.1656 15.49 79.6147 16.2245C79.2475 16.5918 78.8802 16.959 78.513 17.1426C78.1457 17.3262 77.7785 17.5099 77.4113 17.5099C77.044 17.5099 76.6768 17.5099 76.1259 17.3262C75.9423 16.959 75.3914 16.7754 75.0242 16.4081L73.7388 15.3064ZM75.2078 14.7555L75.9423 15.3064C76.1259 15.49 76.4932 15.6737 76.6768 15.6737C76.8604 15.6737 77.044 15.8573 77.4113 15.8573C77.5949 15.8573 77.7785 15.8573 77.9621 15.6737C78.1457 15.49 78.3294 15.3064 78.513 15.1228C78.8802 14.5719 79.0638 14.2047 79.0638 13.8374C79.0638 13.4702 78.6966 13.103 78.3294 12.5521L77.5949 12.0012L75.2078 14.7555Z" fill="#1D1F21"></path><path d="M79.2505 20.2653C79.0669 20.0817 79.0669 19.898 79.0669 19.7144C79.0669 19.5308 79.2505 19.3472 79.4341 19.1636L82.9229 16.2256C83.1066 16.042 83.2902 16.042 83.4738 16.042C83.6574 16.042 83.8411 16.2256 84.0247 16.4092L86.0445 18.6127C86.2281 18.7963 86.2281 18.9799 86.2281 19.1636C86.2281 19.3472 86.0445 19.5308 86.0445 19.5308C85.8609 19.7144 85.6773 19.7144 85.4936 19.7144C85.31 19.7144 85.1264 19.5308 85.1264 19.5308L83.6574 17.6946L82.7393 18.4291L84.0247 20.0817C84.2083 20.2653 84.2083 20.4489 84.2083 20.6325C84.2083 20.8161 84.2083 20.9998 84.0247 20.9998C83.8411 21.1834 83.6574 21.1834 83.4738 21.1834C83.2902 21.1834 83.1066 20.9998 83.1066 20.9998L81.8212 19.3472L80.9031 20.2653L82.3721 22.1015C82.5557 22.2851 82.5557 22.4687 82.5557 22.6524C82.5557 22.836 82.3721 23.0196 82.3721 23.0196C82.1885 23.2032 82.0048 23.2032 81.8212 23.2032C81.6376 23.2032 81.454 23.0196 81.454 23.0196L79.2505 20.2653Z" fill="#1D1F21"></path><path d="M83.8443 26.8752C83.4771 26.3243 83.2935 25.7735 83.2935 25.2226C83.2935 24.6718 83.4771 24.1209 83.6607 23.7536C84.0279 23.2028 84.3952 22.8355 84.9461 22.4683C85.3133 22.2847 85.8642 22.1011 86.2314 21.9174C86.5986 21.9174 86.9659 21.9174 87.5167 21.9174C87.884 21.9174 88.2512 22.1011 88.6185 22.4683C88.9857 22.6519 89.1693 23.0192 89.5366 23.3864C89.9038 23.9373 90.0875 24.4881 90.0875 25.039C90.0875 25.5899 89.9038 26.1407 89.7202 26.508C89.5366 27.0588 88.9857 27.4261 88.4349 27.7933C88.0676 27.9769 87.5167 28.1606 87.1495 28.3442C86.7823 28.3442 86.415 28.3442 85.8642 28.3442C85.4969 28.1606 85.1297 28.1606 84.7624 27.7933C84.3952 27.6097 84.2116 27.2425 83.8443 26.8752ZM85.1297 26.1407C85.3133 26.3243 85.4969 26.508 85.6805 26.6916C85.8642 26.8752 86.2314 26.8752 86.415 26.8752C86.7823 26.8752 86.9659 26.6916 87.3331 26.508C87.884 26.1407 88.0676 25.7735 88.2512 25.4062C88.4349 25.039 88.4349 24.6718 88.0676 24.3045C87.884 24.1209 87.7004 23.9373 87.5167 23.7536C87.3331 23.57 86.9659 23.57 86.7823 23.57C86.415 23.57 86.2314 23.7536 85.8642 23.9373C85.3133 24.3045 85.1297 24.6718 84.9461 25.039C84.7624 25.2226 84.7624 25.7735 85.1297 26.1407Z" fill="#1D1F21"></path><path d="M89.895 45.2378C89.895 45.0542 89.895 44.8705 90.0786 44.6869C90.2623 44.5033 90.2623 44.5033 90.6295 44.3197L95.4037 42.4835C95.5873 42.2998 95.9545 42.4835 96.1381 42.4835C96.1381 42.6671 96.1381 42.8507 96.1381 43.2179C96.1381 43.4016 96.1382 43.5852 95.9545 43.7688C95.7709 43.9524 95.7709 43.9524 95.4037 44.1361L91.5476 45.605V45.2378L95.5873 46.5231C95.7709 46.5231 95.9545 46.7068 96.1381 46.8904C96.3218 47.074 96.3218 47.2576 96.3218 47.4412C96.3218 47.6249 96.3218 47.8085 96.1381 47.9921C95.9545 48.1757 95.9545 48.1757 95.5873 48.3594L91.7312 49.8283V49.4611L95.7709 50.7464C95.9545 50.7464 96.1381 50.9301 96.3218 51.1137C96.5054 51.2973 96.5054 51.4809 96.5054 51.6645C96.5054 51.8482 96.5054 52.2154 96.3218 52.2154C96.1381 52.2154 95.9545 52.399 95.5873 52.2154L90.6295 50.0119C90.4459 50.0119 90.2623 49.8283 90.0786 49.6447C89.895 49.4611 89.895 49.2775 89.895 49.0938C89.895 48.9102 89.895 48.7266 90.0786 48.543C90.2623 48.3594 90.2623 48.3594 90.6295 48.1757L94.1183 46.8904V47.074L90.6295 45.9723C90.4459 45.9723 90.2623 45.7887 90.0786 45.605C89.895 45.605 89.895 45.4214 89.895 45.2378Z" fill="#1D1F21"></path><path d="M89.7194 52.7657C89.7194 52.5821 89.903 52.3985 89.903 52.3985C90.0866 52.2148 90.0866 52.2148 90.2703 52.2148C90.4539 52.2148 90.6375 52.2148 90.8211 52.3985L95.0444 55.3364C95.228 55.52 95.4117 55.7037 95.4117 55.8873C95.4117 56.0709 95.5953 56.2545 95.4117 56.4381C95.4117 56.6218 95.228 56.8054 95.228 56.989C95.0444 57.1726 94.8608 57.1726 94.6772 57.3562L89.5358 58.6416C89.3522 58.6416 89.1685 58.6416 88.9849 58.6416C88.8013 58.6416 88.8013 58.458 88.6177 58.2743C88.6177 58.0907 88.6177 57.9071 88.6177 57.7235C88.6177 57.5399 88.8013 57.3562 88.8013 57.1726C88.9849 56.989 89.1685 56.989 89.3522 56.989L90.4539 56.6218L90.2703 57.3562L90.8211 53.6838L91.1884 54.4183L90.0866 53.6838C89.903 53.5002 89.7194 53.3166 89.7194 53.3166C89.7194 53.3166 89.7194 53.1329 89.7194 52.7657ZM93.9427 56.0709L91.7392 54.6019L92.2901 54.4183L91.9229 56.989L91.5556 56.6218L93.9427 56.0709Z" fill="#1D1F21"></path><path d="M87.8804 61.213C87.8804 61.0294 88.064 60.8458 88.2476 60.6622C88.4313 60.6622 88.6149 60.4785 88.9821 60.6622L93.0218 61.9475L93.389 60.6622C93.389 60.4785 93.5727 60.2949 93.7563 60.2949C93.9399 60.2949 94.1235 60.2949 94.3071 60.2949C94.4908 60.2949 94.6744 60.4785 94.6744 60.6622C94.6744 60.8458 94.6744 61.0294 94.6744 61.213L93.389 65.4363C93.389 65.6199 93.2054 65.8036 93.0218 65.8036C92.8382 65.8036 92.6545 65.8036 92.4709 65.8036C92.2873 65.8036 92.1037 65.6199 92.1037 65.4363C92.1037 65.2527 92.1037 65.0691 92.1037 64.8855L92.4709 63.6001L88.4313 62.3148C88.2476 62.3148 88.064 62.1311 87.8804 61.9475C87.6968 61.5803 87.6968 61.3967 87.8804 61.213Z" fill="#1D1F21"></path><path d="M85.3109 67.2718C85.6782 66.7209 86.0454 66.1701 86.4127 65.8028C86.9635 65.4356 87.3308 65.252 87.8816 65.252C88.4325 65.252 88.9834 65.4356 89.5342 65.6192C89.9015 65.8028 90.2687 66.1701 90.636 66.3537C91.0032 66.7209 91.1868 67.0882 91.1868 67.4554C91.3705 67.8227 91.3705 68.1899 91.3705 68.7408C91.3705 69.108 91.1868 69.6589 91.0032 70.0261C90.8196 70.2097 90.8196 70.577 90.4524 70.7606C90.2687 70.9442 90.0851 71.1278 89.9015 71.3115C89.7179 71.4951 89.5342 71.4951 89.5342 71.4951C89.3506 71.4951 89.167 71.4951 89.167 71.3115C88.9834 71.3115 88.9834 71.1278 88.9834 70.9442C88.9834 70.7606 88.9834 70.7606 88.9834 70.577C88.9834 70.3934 89.167 70.3934 89.167 70.2097C89.3506 70.0261 89.5342 70.0261 89.5342 69.8425C89.7179 69.6589 89.7179 69.4752 89.9015 69.4752C90.0851 69.108 90.0851 68.9244 90.0851 68.5571C90.0851 68.1899 89.9015 68.0063 89.7179 67.8227C89.5342 67.639 89.3506 67.4554 88.9834 67.2718C88.6161 67.0882 88.2489 67.0882 88.0653 67.0882C87.698 67.0882 87.5144 67.0882 87.3308 67.2718C87.1472 67.4554 86.9635 67.639 86.7799 68.0063C86.7799 68.1899 86.5963 68.3735 86.5963 68.5571C86.5963 68.7408 86.5963 68.9244 86.5963 69.108C86.5963 69.2916 86.5963 69.4752 86.4127 69.4752C86.2291 69.6589 86.2291 69.6589 86.0454 69.6589C85.8618 69.6589 85.8618 69.6589 85.6782 69.6589C85.4946 69.6589 85.4946 69.4752 85.3109 69.4752C85.1273 69.2916 85.1273 69.2916 85.1273 69.108C85.1273 68.9244 85.1273 68.5571 85.1273 68.3735C84.9437 67.8227 85.1273 67.639 85.3109 67.2718Z" fill="#1D1F21"></path><path d="M83.1024 70.9443C83.2861 70.7607 83.4697 70.5771 83.6533 70.5771C83.8369 70.5771 84.0205 70.5771 84.2042 70.7607L88.0602 73.515C88.2438 73.6986 88.4275 73.8823 88.4275 74.0659C88.4275 74.2495 88.4275 74.4331 88.2438 74.6167C88.0602 74.8004 87.8766 74.984 87.693 74.984C87.5094 74.984 87.3257 74.984 87.1421 74.8004L85.8568 73.8823L84.3878 75.9021L85.6731 76.8202C85.8568 77.0038 86.0404 77.1874 86.0404 77.3711C86.0404 77.5547 86.0404 77.7383 85.8568 77.9219C85.6731 78.1055 85.4895 78.2892 85.3059 78.2892C85.1223 78.2892 84.9386 78.2892 84.755 78.1055L80.899 75.3512C80.7154 75.1676 80.5317 74.984 80.5317 74.8004C80.5317 74.6167 80.5317 74.4331 80.7154 74.2495C80.899 74.0659 81.0826 73.8823 81.2662 73.8823C81.4498 73.8823 81.6335 73.8823 81.8171 74.0659L83.2861 75.1676L84.755 73.1478L83.2861 72.046C83.1024 71.8624 82.9188 71.6788 82.9188 71.4952C82.9188 71.4952 83.1024 71.3116 83.1024 70.9443Z" fill="#1D1F21"></path><path d="M72.4537 82.1455C72.6373 81.9619 72.8209 81.9619 73.0045 81.9619C73.1882 81.9619 73.3718 81.9619 73.5554 82.1455L77.9623 84.7162C78.1459 84.8999 78.3295 84.8999 78.3295 85.0835C78.3295 85.2671 78.3295 85.4507 78.3295 85.4507C78.3295 85.6343 78.1459 85.818 77.9623 85.818C77.7787 86.0016 77.5951 86.0016 77.4114 86.0016C77.2278 86.0016 77.0442 86.0016 76.8606 85.818L73.0045 83.4309L73.3718 83.0636L74.2899 87.4706C74.2899 87.6542 74.2899 87.8378 74.2899 88.0214C74.2899 88.205 74.2899 88.5723 74.1063 88.7559C73.9226 88.9395 73.739 88.9395 73.739 88.9395C73.739 88.9395 73.3718 88.9395 73.3718 88.7559C73.3718 88.5723 73.1882 88.3887 73.1882 88.205L72.0864 83.0636C72.0864 82.88 72.0864 82.6964 72.0864 82.5128C72.0864 82.3292 72.27 82.1455 72.4537 82.1455Z" fill="#1D1F21"></path><path d="M68.0474 84.9C68.231 84.7164 68.4147 84.7164 68.5983 84.7164C68.7819 84.7164 68.9655 84.9 69.1491 85.0836L71.3526 89.3069C71.5362 89.4905 71.5362 89.6741 71.5362 90.0414C71.5362 90.225 71.3526 90.4086 71.169 90.5922C70.9854 90.7759 70.8017 90.7759 70.6181 90.7759C70.4345 90.7759 70.2509 90.5922 70.0673 90.4086L67.8638 86.1853C67.6802 86.0017 67.6802 85.8181 67.6802 85.6345C67.6802 85.0836 67.8638 84.9 68.0474 84.9Z" fill="#1D1F21"></path><path d="M65.1104 86.3691C65.2941 86.1855 65.6613 86.1855 65.8449 86.3691C66.0286 86.3691 66.2122 86.5527 66.2122 86.9199L67.8648 91.1432C68.0484 91.3269 68.0484 91.6941 67.8648 91.8777C67.8648 92.0613 67.6811 92.245 67.3139 92.245L65.6613 92.7958C64.5596 93.1631 63.8251 93.1631 63.0906 92.9795C62.3561 92.6122 61.8053 92.0614 61.438 91.1432C61.2544 90.5924 61.2544 90.2251 61.2544 89.8579C61.2544 89.4907 61.438 89.1234 61.438 88.7562C61.6216 88.3889 61.8053 88.0217 62.1725 87.8381C62.5397 87.4708 62.907 87.2872 63.4579 87.1036L65.1104 86.3691ZM64.7432 87.8381L64.0087 88.2053C63.6415 88.3889 63.4578 88.3889 63.2742 88.5725C63.0906 88.7562 62.907 88.9398 62.907 89.1234C62.907 89.307 62.7234 89.4906 62.7234 89.6743C62.7234 89.8579 62.7234 90.2251 62.907 90.4088C63.0906 90.9596 63.4579 91.3269 63.8251 91.5105C64.1923 91.6941 64.7432 91.6941 65.2941 91.5105L66.0285 91.1432L64.7432 87.8381Z" fill="#1D1F21"></path><path d="M57.9463 88.7559C58.1299 88.7559 58.4972 88.7559 58.6808 88.7559C58.8644 88.9395 59.048 89.1231 59.048 89.3067L59.9661 93.7136C59.9661 93.8973 59.9661 94.2645 59.9661 94.4481C59.7825 94.6317 59.5989 94.8154 59.4153 94.8154L56.4773 95.3662C56.2937 95.3662 56.1101 95.3662 55.9265 95.3662C55.7428 95.3662 55.7428 95.1826 55.7428 94.999C55.7428 94.8154 55.7428 94.6317 55.7428 94.4481C55.7428 94.2645 55.9265 94.2645 56.1101 94.2645L58.3135 93.8973L58.1299 92.7955L56.1101 93.1628C55.9265 93.1628 55.7428 93.1628 55.5592 93.1628C55.3756 93.1628 55.3756 92.9792 55.3756 92.7955C55.3756 92.6119 55.3756 92.4283 55.3756 92.2447C55.3756 92.061 55.5592 92.061 55.7428 92.061L57.7627 91.6938L57.5791 90.0412L55.3756 90.4085C55.192 90.4085 55.0084 90.4085 54.8247 90.4085C54.6411 90.4085 54.6411 90.2248 54.6411 90.0412C54.6411 89.8576 54.6411 89.674 54.6411 89.4903C54.6411 89.3067 54.8247 89.3067 55.0084 89.3067L57.9463 88.7559Z" fill="#1D1F21"></path><path d="M50.0556 89.6738C50.6065 89.6738 51.1574 89.6738 51.7082 90.0411C52.2591 90.4083 52.6263 90.5919 52.81 91.1428C53.1772 91.6937 53.1772 92.2445 53.1772 92.7954C53.1772 93.3463 53.1772 93.7135 52.9936 94.0807C52.81 94.448 52.6263 94.8152 52.4427 95.1825C52.2591 95.5497 51.8919 95.7333 51.5246 95.917C51.1574 96.1006 50.7901 96.1006 50.2393 96.1006C49.6884 96.1006 49.1375 95.917 48.5867 95.7333C48.0358 95.5497 47.6686 95.1825 47.4849 94.6316C47.1177 94.0807 47.1177 93.5299 46.9341 92.979C46.9341 92.4282 46.9341 92.0609 47.1177 91.6937C47.3013 91.3264 47.4849 90.9592 47.6686 90.5919C47.8522 90.2247 48.2194 90.0411 48.5867 89.8575C49.1375 89.8575 49.5048 89.6738 50.0556 89.6738ZM50.0556 90.9592C49.6884 90.9592 49.5048 90.9592 49.3212 91.1428C49.1375 91.3264 48.9539 91.51 48.7703 91.8773C48.5867 92.2445 48.5867 92.4282 48.5867 92.7954C48.5867 93.3463 48.7703 93.8971 48.9539 94.0807C49.1375 94.2644 49.5048 94.6316 50.0556 94.448C50.4229 94.448 50.6065 94.2644 50.7901 94.2644C50.9737 94.0807 51.1574 93.8971 51.341 93.5299C51.5246 93.1626 51.5246 92.979 51.5246 92.4281C51.5246 91.8773 51.341 91.3264 51.1574 91.1428C50.7901 91.1428 50.4229 90.9592 50.0556 90.9592Z" fill="#1D1F21"></path><path d="M31.1463 86.0013C31.33 86.1849 31.5136 86.1849 31.5136 86.3685C31.5136 86.5521 31.6972 86.7358 31.5136 86.9194L30.7791 92.0608C30.7791 92.428 30.5955 92.6117 30.4119 92.6117C30.2282 92.7953 30.0446 92.6117 29.6774 92.6117C29.4938 92.428 29.3101 92.428 29.3101 92.2444C29.3101 92.0608 29.3101 91.8772 29.3101 91.6935L30.0446 87.6539L30.4119 87.8375L27.2903 90.4082C27.1067 90.5918 26.9231 90.5918 26.7394 90.7754C26.5558 90.7754 26.3722 90.7754 26.1886 90.7754C26.0049 90.7754 25.8213 90.5918 25.8213 90.4082C25.8213 90.2246 25.8213 90.041 25.8213 89.8573L26.5558 85.8177L26.9231 86.0013L23.8015 88.572C23.6179 88.7556 23.4342 88.7556 23.2506 88.9392C23.067 89.1228 22.8834 88.9392 22.6998 88.7556C22.5161 88.572 22.3325 88.3884 22.3325 88.2047C22.3325 88.0211 22.3325 87.8375 22.6998 87.6539L26.5558 84.1651C26.7394 83.9814 26.9231 83.9814 27.1067 83.9814C27.2903 83.9814 27.4739 83.9814 27.6575 84.1651C27.8412 84.3487 28.0248 84.3487 28.0248 84.5323C28.0248 84.7159 28.0248 84.8995 28.0248 85.0832L27.4739 88.7556L27.2903 88.572L30.0446 86.0013C30.2282 85.8177 30.4119 85.8177 30.5955 85.8177C30.7791 85.8177 30.9627 85.8177 31.1463 86.0013Z" fill="#1D1F21"></path><path d="M24.3452 82.1455C24.5288 82.3291 24.5288 82.3291 24.7124 82.5128C24.7124 82.6964 24.7124 82.88 24.7124 82.88C24.7124 83.0636 24.5288 83.0636 24.3452 83.2472L19.571 85.6343C19.3874 85.8179 19.2038 85.8179 19.0202 85.8179C18.8365 85.8179 18.6529 85.8179 18.4693 85.6343C18.2857 85.4507 18.2857 85.2671 18.1021 85.2671C18.1021 85.0835 18.1021 84.8998 18.1021 84.7162L19.3874 79.5748C19.3874 79.3912 19.571 79.2076 19.571 79.024C19.7546 78.8403 19.7546 78.8403 19.9383 78.8403C20.1219 78.8403 20.3055 78.8403 20.3055 79.024C20.4891 79.2076 20.6727 79.3912 20.6727 79.5748C20.6727 79.7584 20.6727 79.9421 20.6727 80.1257L20.3055 81.2274L20.1219 80.4929L22.8762 82.6964H22.1417L23.2434 82.1455C23.4271 81.9619 23.6107 81.9619 23.7943 81.9619C24.1616 81.9619 24.1616 81.9619 24.3452 82.1455ZM19.571 84.1653L21.9581 82.88V83.4309L19.9383 81.7783L20.4891 81.5947L19.571 84.1653Z" fill="#1D1F21"></path><path d="M18.103 76.4532C18.2866 76.6368 18.2866 76.8204 18.2866 77.004C18.2866 77.1876 18.103 77.3713 17.9194 77.5549L14.7978 80.3092L15.7159 81.4109C15.8996 81.5946 15.8996 81.7782 15.8996 81.9618C15.8996 82.1454 15.8996 82.329 15.7159 82.5127C15.5323 82.6963 15.3487 82.6963 15.1651 82.6963C14.9815 82.6963 14.7978 82.6963 14.6142 82.5127L11.6763 79.2075C11.8599 78.8402 11.6763 78.8402 11.6763 78.6566C11.6763 78.473 11.6763 78.2894 11.8599 78.1057C12.0435 77.9221 12.2271 77.9221 12.4108 77.9221C12.5944 77.9221 12.778 77.9221 12.9616 78.1057L13.8797 79.2075L17.0013 76.4532C17.1849 76.2695 17.3685 76.2695 17.5522 76.2695C17.7358 76.2695 17.9194 76.2695 18.103 76.4532Z" fill="#1D1F21"></path><path d="M13.8842 71.1281C14.2514 71.679 14.435 72.2299 14.6187 72.7807C14.6187 73.3316 14.6187 73.8824 14.2514 74.4333C14.0678 74.9842 13.5169 75.3514 13.1497 75.7187C12.7825 75.9023 12.4152 76.2695 11.8643 76.2695C11.4971 76.4531 11.1299 76.4531 10.579 76.2695C10.2118 76.2695 9.84451 76.0859 9.47727 75.7187C9.11003 75.535 8.74279 75.1678 8.55917 74.6169C8.37554 74.4333 8.19192 74.0661 8.19192 73.8824C8.19192 73.6988 8.0083 73.5152 8.0083 73.148C8.0083 72.9643 8.0083 72.7807 8.0083 72.5971C8.0083 72.4135 8.19192 72.4135 8.37554 72.2299C8.55916 72.0462 8.55917 72.2299 8.74279 72.2299C8.92641 72.2299 8.92641 72.2299 9.11003 72.4135C9.29365 72.4135 9.29365 72.5971 9.29365 72.7807C9.29365 72.9643 9.29365 73.148 9.47727 73.3316C9.66089 73.5152 9.66089 73.6988 9.84451 73.8824C10.0281 74.2497 10.2118 74.4333 10.579 74.4333C10.7626 74.6169 11.1299 74.6169 11.3135 74.6169C11.6807 74.6169 11.8643 74.4333 12.2316 74.2497C12.5988 74.0661 12.7825 73.8824 12.9661 73.5152C13.1497 73.3316 13.1497 72.9643 13.1497 72.7807C13.1497 72.4135 12.9661 72.2299 12.7825 71.8626C12.7825 71.679 12.5988 71.679 12.4152 71.4954C12.2316 71.3117 12.048 71.3117 12.048 71.1281C11.8643 71.1281 11.6807 70.9445 11.6807 70.7609C11.6807 70.5773 11.6807 70.5773 11.6807 70.3936C11.6807 70.21 11.6807 70.21 11.8643 70.0264C12.048 69.8428 12.048 69.8428 12.2316 69.8428C12.4152 69.8428 12.5988 69.8428 12.5988 69.8428C12.7825 70.0264 12.9661 70.0264 13.3333 70.3936C13.5169 70.5773 13.7006 70.9445 13.8842 71.1281Z" fill="#1D1F21"></path><path d="M11.6784 67.4562C11.862 67.6398 11.862 67.8234 11.6784 68.0071C11.6784 68.1907 11.4948 68.3743 11.1275 68.3743L6.90424 70.3941C6.72062 70.5778 6.35338 70.5778 6.16976 70.3941C5.98614 70.3941 5.80252 70.2105 5.80252 69.8433C5.61889 69.6597 5.61889 69.476 5.80252 69.2924C5.80252 69.1088 5.98614 68.9252 6.35338 68.9252L7.82235 68.3743L6.72062 65.9872L5.25165 66.7217C5.06803 66.9053 4.70079 66.9053 4.51717 66.7217C4.33354 66.7217 4.33354 66.5381 4.14992 66.3545C3.9663 66.1708 3.9663 65.9872 4.14992 65.8036C4.14992 65.62 4.33354 65.4364 4.70079 65.4364L8.92408 63.4165C9.1077 63.2329 9.29132 63.2329 9.65856 63.4165C10.0258 63.6001 10.0258 63.6001 10.0258 63.7838C10.2094 63.9674 10.2094 64.151 10.0258 64.3346C10.0258 64.5183 9.84219 64.7019 9.47494 64.7019L8.00597 65.4364L9.1077 67.8234L10.7603 67.089C10.9439 66.9053 11.1275 66.9053 11.4948 67.089C11.4948 67.089 11.6784 67.2726 11.6784 67.4562Z" fill="#1D1F21"></path><path d="M7.27101 52.7661C7.27101 52.9498 7.27101 53.1334 7.27101 53.317C7.27101 53.5006 7.08739 53.5006 6.72015 53.6842L2.31324 56.2549C2.12962 56.4386 1.94599 56.4386 1.76237 56.4386C1.57875 56.4386 1.39513 56.4386 1.39513 56.2549C1.21151 56.0713 1.21151 55.8877 1.21151 55.7041C1.21151 55.5205 1.21151 55.3368 1.39513 55.1532C1.57875 54.9696 1.57875 54.9696 1.76237 54.786L5.80204 52.5825V53.1334L1.39513 51.848C1.21151 51.848 1.02789 51.6644 0.844266 51.6644C0.844266 51.2972 0.660645 51.2972 0.660645 50.9299C0.660645 50.7463 0.660645 50.5627 0.660645 50.3791C0.660645 50.1954 0.844266 50.1954 1.02789 50.1954C1.21151 50.1954 1.39513 50.1954 1.57875 50.1954L6.53653 51.848C6.72015 51.848 6.90377 52.0316 7.08739 52.2153C7.27101 52.3989 7.27101 52.3989 7.27101 52.7661Z" fill="#1D1F21"></path><path d="M7.08739 47.4407C7.08739 47.6244 7.08739 47.808 6.90377 47.9916C6.72015 48.1752 6.53653 48.3588 6.16929 48.3588L1.39513 48.1752C1.21151 48.1752 0.844266 48.1752 0.844266 47.9916C0.660645 47.808 0.660645 47.6244 0.660645 47.4407C0.660645 47.2571 0.660645 46.8899 0.844266 46.8899C1.02789 46.7063 1.21151 46.7063 1.39513 46.7063H6.16929C6.35291 46.7063 6.72015 46.7063 6.72015 46.8899C7.08739 47.0735 7.08739 47.2571 7.08739 47.4407Z" fill="#1D1F21"></path><path d="M7.08739 44.1361C7.08739 44.3197 6.90377 44.6869 6.72015 44.6869C6.53653 44.8706 6.35291 44.8706 5.98567 44.8706L1.39513 44.1361C1.21151 44.1361 0.844266 43.9525 0.844266 43.7688C0.660645 43.5852 0.660645 43.4016 0.660645 43.0343L0.844266 41.3818C1.02789 40.28 1.39513 39.5455 1.94599 38.9947C2.49686 38.4438 3.41497 38.2602 4.33307 38.4438C4.88394 38.4438 5.25118 38.6274 5.61842 38.8111C5.98566 38.9947 6.35291 39.3619 6.53653 39.5455C6.72015 39.9128 6.90377 40.28 6.90377 40.6473C6.90377 41.0145 6.90377 41.5654 6.90377 42.1162L7.08739 44.1361ZM5.98567 43.218L6.16929 42.2999C6.16929 41.9326 6.16929 41.749 6.16929 41.5654C6.16929 41.3818 5.98567 41.1981 5.98567 41.0145C5.98567 40.8309 5.61842 40.6473 5.4348 40.6473C5.25118 40.4636 4.88394 40.4636 4.70032 40.4636C4.14945 40.28 3.59859 40.4636 3.23134 40.6473C2.8641 40.8309 2.68048 41.1981 2.49686 41.749L2.31324 42.6671L5.98567 43.218Z" fill="#1D1F21"></path><path d="M8.56 36.9749C8.56 37.1585 8.37637 37.3422 8.19275 37.5258C8.00913 37.7094 7.82551 37.7094 7.45827 37.5258L3.05135 36.0568C2.86773 36.0568 2.68411 35.8732 2.50049 35.6896C2.50049 35.506 2.50049 35.3223 2.68411 34.9551L3.60222 32.0171C3.60222 31.8335 3.78584 31.6499 3.96946 31.6499C4.15308 31.6499 4.3367 31.6499 4.52032 31.6499C4.70394 31.6499 4.88757 31.8335 4.88757 32.0171C4.88757 32.2008 4.88757 32.3844 4.88757 32.568L4.15308 34.7715L5.25481 35.1387L5.80567 33.1189C5.80567 32.9353 5.9893 32.7516 6.17292 32.7516C6.35654 32.7516 6.54016 32.7516 6.72378 32.7516C6.9074 32.7516 7.09102 32.9353 7.09102 33.1189C7.09102 33.3025 7.09102 33.4861 7.09102 33.6697L6.54016 35.6896L7.82551 36.0568L8.56 33.8534C8.56 33.6697 8.74362 33.4861 8.92724 33.4861C9.11086 33.4861 9.29448 33.4861 9.4781 33.4861C9.66172 33.4861 9.84534 33.6697 9.84534 33.8534C9.84534 34.037 9.84534 34.2206 9.84534 34.4042L8.56 36.9749Z" fill="#1D1F21"></path><path d="M11.6733 29.446C11.306 29.9969 10.9388 30.3641 10.5715 30.7314C10.2043 31.0986 9.65344 31.2822 9.10258 31.2822C8.55171 31.2822 8.00085 31.0986 7.44998 30.915C7.08274 30.7314 6.7155 30.3641 6.34825 30.1805C5.98101 29.8132 5.79739 29.446 5.79739 29.0788C5.61377 28.7115 5.61377 28.3443 5.61377 27.977C5.61377 27.6098 5.79739 27.0589 5.98101 26.6917C6.34826 26.1408 6.7155 25.7736 7.08274 25.4063C7.44998 25.0391 8.00085 24.8555 8.55171 24.8555C9.10258 24.8555 9.65344 25.0391 10.2043 25.2227C10.5715 25.4063 10.9388 25.7736 11.306 25.9572C11.6733 26.3244 11.8569 26.6917 11.8569 27.0589C12.0405 27.4262 12.0405 27.7934 12.0405 28.1607C12.0405 28.5279 11.8569 29.0788 11.6733 29.446ZM10.3879 28.7115C10.5715 28.3443 10.5715 28.1607 10.5715 27.977C10.5715 27.7934 10.3879 27.4262 10.2043 27.2425C10.0207 27.0589 9.65344 26.8753 9.46982 26.6917C8.91896 26.5081 8.55171 26.3244 8.00085 26.5081C7.63361 26.5081 7.26636 26.8753 7.08274 27.2425C6.89912 27.4262 6.89912 27.7934 6.89912 27.977C6.89912 28.1607 7.08274 28.5279 7.26636 28.7115C7.44998 28.8951 7.81723 29.0788 8.00085 29.2624C8.55171 29.446 8.91896 29.6296 9.46982 29.6296C9.83706 29.446 10.2043 29.2624 10.3879 28.7115Z" fill="#1D1F21"></path></svg>