<svg xmlns="http://www.w3.org/2000/svg" width="23" height="15" viewBox="0 0 23 15" fill="none"><path d="M20.9556 0.734375H5.11111C3.98667 0.734375 3.06667 1.70361 3.06667 2.88822V3.69591C3.06667 3.99207 3.29667 4.23438 3.57778 4.23438C3.85889 4.23438 4.08889 3.99207 4.08889 3.69591V2.88822C4.08889 2.78053 4.11444 2.67284 4.14 2.56514L9.86444 7.73438L4.14 12.9036C4.11444 12.7959 4.08889 12.6882 4.08889 12.5805V11.7728C4.08889 11.4767 3.85889 11.2344 3.57778 11.2344C3.29667 11.2344 3.06667 11.4767 3.06667 11.7728V12.5805C3.06667 13.7651 3.98667 14.7344 5.11111 14.7344H20.9556C22.08 14.7344 23 13.7651 23 12.5805V2.88822C23 1.70361 22.08 0.734375 20.9556 0.734375ZM4.90667 1.83822C4.95778 1.8113 5.03444 1.8113 5.11111 1.8113H20.9556C21.0322 1.8113 21.1089 1.8113 21.16 1.83822L13.3656 8.86514C13.1611 9.02668 12.9056 9.02668 12.7011 8.86514L4.90667 1.83822ZM20.9556 13.6575H5.11111C5.03444 13.6575 4.95778 13.6575 4.90667 13.6305L10.6567 8.43437L12.0367 9.69976C12.3178 9.96899 12.6756 10.1036 13.0333 10.1036C13.3911 10.1036 13.7489 9.96899 14.03 9.69976L15.41 8.43437L21.16 13.6305C21.1089 13.6575 21.0322 13.6575 20.9556 13.6575ZM21.9778 12.5805C21.9778 12.6882 21.9522 12.7959 21.9267 12.9036L16.2022 7.73438L21.9267 2.56514C21.9522 2.67284 21.9778 2.78053 21.9778 2.88822V12.5805ZM1.53333 6.38822C1.53333 6.09207 1.76333 5.84976 2.04444 5.84976H5.11111C5.39222 5.84976 5.62222 6.09207 5.62222 6.38822C5.62222 6.68438 5.39222 6.92668 5.11111 6.92668H2.04444C1.76333 6.92668 1.53333 6.68438 1.53333 6.38822ZM5.11111 9.61899H0.511111C0.23 9.61899 0 9.37668 0 9.08053C0 8.78438 0.23 8.54207 0.511111 8.54207H5.11111C5.39222 8.54207 5.62222 8.78438 5.62222 9.08053C5.62222 9.37668 5.39222 9.61899 5.11111 9.61899Z" fill="#1C1D20"></path></svg>