<svg xmlns="http://www.w3.org/2000/svg" width="145" height="56" viewBox="0 0 145 56" fill="none"><path id="Logo" fill-rule="evenodd" clip-rule="evenodd" d="M40.1274 0.354048C40.6642 0.143391 41.2766 0.0695032 41.9587 0.122439C42.946 0.205055 43.95 0.576102 44.8448 1.18604C45.1658 1.41202 45.4415 1.67628 45.701 1.93631L45.7136 1.94881L45.7137 1.94883C45.9967 2.22839 46.267 2.49531 46.5838 2.68516C47.0038 2.94379 47.488 3.03102 47.9965 3.12261L48.0127 3.12552L48.0717 3.13612C48.5671 3.22512 49.0706 3.31555 49.5435 3.57579C50.3165 3.99512 50.9187 4.68735 51.1976 5.47892C51.2233 5.54411 51.2245 5.60293 51.2074 5.6653C51.201 5.68869 51.1843 5.71776 51.1676 5.74682C51.1115 5.82408 51.0273 5.87727 50.9272 5.8929C49.9123 6.03708 48.0404 6.41684 46.8439 7.34919C45.7565 8.20142 45.1021 9.4426 45.0378 10.7545C46.7843 13.8433 47.5987 17.4405 47.3466 20.9261C49.1839 22.5428 50.8017 24.4197 52.1274 26.5044C52.6483 27.3341 53.1201 28.1844 53.5405 29.0631L53.5592 29.1014C53.6706 29.3291 53.7862 29.5655 53.8853 29.805C56.2124 35.0595 56.7303 41.036 55.242 46.4547C55.2208 46.5317 55.1972 46.61 55.1732 46.6893L55.1732 46.6894C55.1669 46.7102 55.1607 46.731 55.1544 46.7519C55.1493 46.7689 55.1442 46.7858 55.1392 46.8028C55.1261 46.847 55.1133 46.8914 55.1011 46.936C54.2119 49.9194 52.7713 52.68 50.8804 55.1059L50.3073 54.7427C52.162 52.3708 53.575 49.6692 54.4473 46.7483C54.4982 46.5945 54.5432 46.4308 54.586 46.2749C55.9908 41.1603 55.5558 35.548 53.4719 30.5493C53.4681 30.5431 53.4635 30.5366 53.4586 30.5297C53.4482 30.515 53.4367 30.4988 53.43 30.4799C53.3885 30.351 53.3344 30.2188 53.2829 30.0931L53.2828 30.093L53.2625 30.0434L53.2623 30.0428L53.2622 30.0426C53.1533 29.8054 53.0445 29.5683 52.9336 29.339C52.4665 28.4398 51.8938 27.6717 51.2069 27.066C50.1835 26.1634 49.1361 25.3798 47.5323 25.6709C44.6647 26.4422 43.3219 29.4923 43.4876 32.218C43.4943 32.32 43.4417 32.4483 43.3553 32.5093C43.0648 32.7426 41.9672 32.5225 41.959 32.5204C41.4553 32.3887 40.9842 32.1068 40.5982 31.7051C40.4354 31.5371 40.3298 31.3508 40.2243 31.1644C40.1247 30.988 40.0251 30.8115 39.8982 30.7031C39.5999 30.4485 39.1666 30.3052 38.7082 30.1536L38.7079 30.1535L38.6523 30.1351C38.2362 30.0013 37.8061 29.8554 37.4342 29.6245C36.745 29.1853 36.2449 28.6284 35.9822 27.9999C35.3422 26.4621 36.299 25.0075 37.3223 24.2304C37.5562 24.0502 37.678 23.7787 37.8067 23.4917L37.8217 23.4585C37.9668 23.1204 38.1431 22.732 38.5076 22.4512C40.1053 21.231 42.8287 21.8092 43.6249 22.0172C45.3878 22.4781 47.1073 23.6044 48.1348 24.9677C49.3232 24.9524 50.2561 25.4553 51.0388 26.061C48.1113 21.8195 43.9278 18.5366 39.1763 16.7514C38.1176 16.3577 37.0679 16.0582 36.0455 15.8495C36.0108 15.8488 35.9886 15.8346 35.9664 15.8204C34.5788 15.6416 33.6067 15.7886 32.5335 16.3353C31.4809 16.8708 30.497 17.5996 29.6067 18.495C28.4127 19.7038 27.4824 21.157 26.9258 22.7078L26.9197 22.7246C26.7385 23.2268 26.4972 23.8954 25.8433 24.1129C25.5075 24.2257 25.1637 24.1776 24.9016 24.1174C23.5277 23.8251 22.2961 22.9517 21.5983 21.7832C21.5743 21.7435 21.5524 21.7044 21.5305 21.6652C21.5086 21.6261 21.4867 21.5869 21.4628 21.5472L21.4389 21.506C21.2826 21.2355 21.1352 20.9804 20.92 20.8288C20.7252 20.6863 20.4566 20.624 20.1716 20.5578L20.1675 20.5568L19.9806 20.508C17.1795 19.8009 14.9929 17.0148 14.9 14.0241C14.8221 11.2962 16.3367 8.50831 18.8566 6.752C19.3092 6.43577 19.598 6.01824 19.9036 5.57165C20.0824 5.30087 20.2797 5.02652 20.5094 4.76068C21.0785 4.11557 21.6115 3.56968 22.0881 3.13437C23.4806 1.86886 25.1927 1.24677 26.7697 1.43338C27.0242 1.45811 27.3372 1.52321 27.55 1.76269C27.8458 2.09604 27.7738 2.5292 27.7208 2.84855L27.7189 2.85974C27.4724 4.23262 27.7314 5.76268 28.4427 7.294C29.1541 8.82534 30.2491 10.1645 31.1224 11.1699C32.373 12.6082 34.0863 14.3597 36.2536 15.2186C36.2628 15.221 36.2706 15.2243 36.2774 15.228C36.2886 15.2341 36.2974 15.2416 36.3062 15.2491C37.3286 15.4578 38.3761 15.7651 39.4267 16.1567C42.0712 17.1488 44.5385 18.5959 46.7259 20.3961C46.8607 17.1473 46.0466 13.8343 44.4113 10.9751C42.4537 9.66951 40.3651 9.63332 37.6487 10.8369C37.5892 10.8631 37.4622 10.9135 37.3117 10.8908C37.1282 10.8589 37.0193 10.731 36.97 10.6732L36.9641 10.6663C36.5149 10.1143 36.2838 9.40212 36.3017 8.67142C36.3087 8.29723 36.3828 7.93221 36.5258 7.60189C36.5549 7.52006 36.5971 7.44649 36.6386 7.37394C36.6514 7.35161 36.6642 7.32937 36.6764 7.30702C36.7556 7.1773 36.8202 7.06885 36.8258 6.95332C36.8363 6.85761 36.8121 6.73222 36.7862 6.59825L36.7781 6.55645C36.7534 6.42464 36.7286 6.29281 36.718 6.17305C36.6793 5.55292 36.7386 4.92498 36.9018 4.29913L36.9189 4.23675C37.2509 3.02826 37.9544 1.92527 38.8985 1.11915C39.319 0.761111 39.7177 0.51435 40.1274 0.354048ZM20.3857 19.937C20.69 20.0161 21.0343 20.1056 21.3243 20.3077C21.3426 20.3194 21.3595 20.3363 21.3839 20.3609L21.4009 20.3779C23.4981 18.0682 26.4305 15.7929 29.6241 14.8812C25.4589 14.9874 21.3192 16.3956 18.0262 18.8105C18.484 19.1725 18.9936 19.4729 19.5371 19.6818C19.8007 19.3245 20.4262 18.5688 21.3415 18.0894C21.395 18.0532 21.466 18.0802 21.4959 18.1297C21.5055 18.1403 21.5104 18.1534 21.5122 18.1668C21.5142 18.1814 21.5125 18.1962 21.5091 18.2084C21.5005 18.2396 21.486 18.2609 21.4552 18.2779C20.622 18.7119 20.032 19.4017 19.7603 19.7568L19.7818 19.7638C19.9098 19.8051 20.0314 19.8444 20.1622 19.8786L20.3328 19.9232L20.3857 19.937ZM25.9685 4.98434C25.6825 3.80653 24.9782 2.82022 24.5952 2.34407C24.1671 2.50792 23.7402 2.73058 23.3168 3.00428C24.9667 5.84221 27.1944 8.44679 29.7666 10.5899C29.075 9.71553 28.3468 8.68952 27.8157 7.54793C27.0407 5.89968 26.7733 4.24206 27.0377 2.74018L27.0432 2.70279L27.0432 2.70276C27.0718 2.50825 27.1058 2.27708 27.0247 2.18526C26.9645 2.11937 26.7977 2.09249 26.6797 2.07836C26.0733 2.00341 25.4425 2.08086 24.8142 2.27596C25.2233 2.78398 25.8951 3.76182 26.1811 4.93964L26.1811 4.93966C26.185 4.95737 26.1888 4.97507 26.1845 4.99065C26.1738 5.02963 26.1468 5.06437 26.1019 5.06935C26.0468 5.07999 25.9861 5.04741 25.9685 4.98434ZM21.0297 5.18079C20.8188 5.40977 20.6463 5.65717 20.4777 5.92229C20.4167 6.01881 20.352 6.10911 20.2855 6.20197L20.2325 6.27602C23.6038 7.79234 26.96 9.522 30.0471 11.5657C27.1834 9.27954 24.6962 6.41495 22.9194 3.30988C22.7979 3.40347 22.6742 3.50485 22.5587 3.60836C22.1895 3.93804 21.7908 4.34355 21.3668 4.80932C21.9081 5.02601 23.1254 5.60325 24.0555 6.62351C24.0837 6.6476 24.0892 6.69084 24.0807 6.72203L24.0806 6.7221C24.0763 6.73768 24.0699 6.76102 24.0494 6.77234C23.9959 6.8085 23.9267 6.80711 23.8865 6.76319C22.9564 5.74292 21.6942 5.17067 21.2077 4.97663C21.1538 5.04599 21.0919 5.11324 21.03 5.18048L21.0297 5.18079ZM31.1165 12.9984C27.6152 10.5289 23.7228 8.50032 19.8184 6.76943C19.6571 6.94453 19.4796 7.11539 19.2657 7.26003C18.9427 7.4848 18.6398 7.73153 18.3511 7.99031C19.0152 8.01349 20.2365 8.13217 21.3746 8.68035C21.4293 8.70303 21.449 8.7583 21.4361 8.80507L21.4297 8.82847C21.3963 8.88659 21.3309 8.90291 21.2762 8.88027C20.0388 8.28106 18.664 8.21416 18.126 8.20725C17.7461 8.5759 17.4107 8.97289 17.1056 9.38617C21.8667 9.83686 26.7092 11.0692 31.1165 12.9984ZM19.0876 11.7761C17.5631 11.6199 16.1115 12.1179 15.7612 12.252C15.6271 12.8353 15.5623 13.42 15.5727 14.0161L15.5735 14.0312L15.5742 14.0582L15.5743 14.0593L15.5743 14.0603C15.5746 14.0743 15.5749 14.0882 15.5757 14.1004C20.0652 11.6723 26.2994 12.4662 31.3505 13.7949C26.7534 11.7326 21.6732 10.4464 16.6794 10.0185C16.296 10.6536 16.0101 11.3143 15.8216 12.0004C16.352 11.8131 17.6799 11.4165 19.1107 11.5649C19.1698 11.5719 19.2159 11.6258 19.209 11.6825L19.2048 11.6981C19.1919 11.7449 19.1466 11.7832 19.0876 11.7761ZM19.3392 15.3933C17.8975 15.7602 16.7583 16.6741 16.4387 16.9499C16.7434 17.4891 17.1302 17.983 17.5769 18.4173C21.1677 15.6791 25.7962 14.1397 30.4057 14.1914C25.5623 13.0256 19.8468 12.4675 15.6652 14.7255C15.7761 15.4313 16.0076 16.1102 16.3396 16.7401C16.725 16.4147 17.8454 15.5377 19.285 15.1786C19.3423 15.1602 19.4009 15.2005 19.4205 15.2558C19.4224 15.2644 19.4237 15.2749 19.4241 15.2852C19.4246 15.296 19.424 15.3066 19.4218 15.3147C19.4111 15.3536 19.376 15.3862 19.3392 15.3933ZM22.1217 21.3518C22.1421 21.3884 22.1625 21.4251 22.1834 21.4598C22.2376 21.5496 22.2935 21.633 22.3512 21.7187C22.3826 21.7656 22.4146 21.8132 22.4471 21.863C22.6414 21.5044 23.1848 20.6353 24.0754 20.0241C24.1289 19.9879 24.1961 19.9971 24.2341 20.0488C24.238 20.0531 24.2414 20.0578 24.2443 20.0629C24.2565 20.0843 24.2602 20.1122 24.2533 20.1374C24.2469 20.1608 24.2323 20.1821 24.2096 20.2012C23.2861 20.8372 22.7353 21.7963 22.6057 22.0465C22.8767 22.3597 23.193 22.6346 23.5406 22.8591C25.2841 19.5545 28.3616 16.022 32.1624 15.1186C28.1845 15.2403 24.3432 17.9715 21.7586 20.7555C21.8787 20.9206 21.9723 21.0871 22.0599 21.2437C22.0808 21.2784 22.1012 21.3151 22.1216 21.3517L22.1217 21.3518ZM26.2887 22.4912C26.877 20.8566 27.8573 19.3163 29.1215 18.0423C30.0512 17.0987 31.0864 16.3415 32.1822 15.7755C28.5675 16.6357 25.6039 19.8804 23.8501 23.032C24.2306 23.2317 24.624 23.3847 25.0426 23.4774C25.2235 23.5163 25.4492 23.5503 25.6212 23.4949C25.965 23.3842 26.1384 22.9115 26.2887 22.4912ZM39.7929 29.8818C39.9934 29.976 40.1815 30.0836 40.3508 30.2281C40.3604 30.2343 40.3693 30.2433 40.3786 30.2529C40.3909 30.2656 40.4041 30.2791 40.4214 30.2884C41.1194 28.0642 42.6103 25.6795 44.8181 24.8695C42.335 25.2232 40.1792 27.4925 38.9049 29.5327C39.1362 29.6098 39.3675 29.687 39.5945 29.7797C39.7534 29.3282 40.1189 28.5046 40.788 27.8439C40.8253 27.8035 40.9048 27.7992 40.945 27.8431C40.971 27.875 40.9868 27.9126 40.9761 27.9515C40.9697 27.9749 40.9574 27.9883 40.945 28.0018L40.9449 28.0019C40.2985 28.6435 39.9432 29.4614 39.7929 29.8818ZM43.4655 22.6608C42.7425 22.4718 40.2936 21.9403 38.9388 22.9734C38.7083 23.1471 38.5948 23.4016 38.4686 23.7028C40.7733 23.1103 43.3106 22.9713 45.6196 23.5999C44.9505 23.1827 44.2129 22.8562 43.4655 22.6608ZM38.5163 25.0189C37.6421 25.3168 36.9457 25.8869 36.6154 26.2016C36.5225 26.4447 36.4621 26.6964 36.4688 26.9572C36.9234 26.4779 37.7578 26.0296 38.2686 25.7552C38.3502 25.7114 38.4235 25.672 38.4857 25.6376C40.4648 24.5505 42.6721 24.0913 44.9223 24.0778C42.6642 23.6129 40.2094 23.832 38.0406 24.4683C37.9597 24.5726 37.8648 24.6647 37.7535 24.7526C37.4344 24.9951 37.1285 25.3163 36.8893 25.6799C37.2765 25.38 37.8069 25.034 38.4416 24.8155C38.501 24.7893 38.5699 24.824 38.5895 24.8793L38.5908 24.8943C38.5924 24.9124 38.5937 24.9274 38.5886 24.9459C38.5801 24.9771 38.5553 25.004 38.5163 25.0189ZM36.5421 27.578C36.5596 27.6408 36.5851 27.7058 36.6106 27.7708L36.6109 27.7715C36.7472 28.0996 36.9596 28.3723 37.1789 28.5884C37.4634 28.1865 38.0329 27.5081 38.8379 27.05C38.8892 27.0216 38.9624 27.0408 38.9923 27.0903C39.0102 27.1201 39.0119 27.1456 39.0034 27.1768C38.9969 27.2002 38.9824 27.2215 38.9516 27.2385C38.1752 27.6874 37.6139 28.3679 37.346 28.7408C37.5012 28.8733 37.6585 28.9979 37.8 29.0851C37.9779 29.1984 38.1887 29.2869 38.4097 29.3698C39.3752 27.7252 40.9364 25.8771 42.8022 24.8857C41.3627 25.086 39.9692 25.4989 38.6719 26.196C38.2326 26.4322 37.0623 27.0789 36.5421 27.578ZM40.8571 30.9205C40.9382 31.0562 41.0125 31.1805 41.1073 31.2782C41.262 31.444 41.4356 31.573 41.6156 31.6785C41.8853 29.0165 43.2347 26.386 45.6684 25.2923C43.1456 25.7276 41.4464 28.3001 40.7039 30.6547C40.7458 30.7241 40.7876 30.7936 40.8214 30.8609L40.8571 30.9205ZM42.8244 31.9694C42.7982 31.1771 42.8986 30.3677 43.1128 29.588C43.4618 28.3172 44.1277 27.1291 45.1155 26.2592C43.2497 27.4093 42.1976 29.5911 41.9559 31.8343C42.0188 31.8591 42.0816 31.8839 42.1466 31.9009C42.2381 31.9165 42.5841 31.9567 42.8244 31.9694ZM45.6288 2.76979C45.4877 2.64934 45.3569 2.52325 45.2342 2.39925L45.213 2.37833C44.9674 2.13589 44.7341 1.9057 44.481 1.71769C44.8585 4.1478 44.9297 6.61484 44.5938 9.04234C44.5985 9.07281 44.6017 9.1008 44.6049 9.12881L44.6087 9.1614C44.6108 9.1788 44.6131 9.19658 44.616 9.21525C45.0039 7.16904 45.9661 5.15597 47.5181 3.68983C47.0893 3.60279 46.6587 3.49024 46.2482 3.24089C46.1127 3.16369 45.9896 3.07301 45.8768 2.97666C45.9158 3.56347 45.9027 4.40403 45.6649 5.26945C45.6347 5.37948 45.5973 5.48763 45.5577 5.60218L45.5502 5.62385C45.5352 5.67843 45.4655 5.71034 45.4108 5.68768C45.3539 5.67282 45.3158 5.62108 45.3433 5.55304C45.7119 4.49621 45.6816 3.40195 45.6288 2.76979ZM42.4972 0.8565C42.2979 0.821137 42.1068 0.787891 41.9114 0.770231C41.872 0.76794 41.8331 0.766084 41.7947 0.764489C41.7436 0.76237 41.6934 0.760726 41.6441 0.759111L41.6392 0.75895L41.6391 0.758947C41.5338 0.755512 41.4325 0.752206 41.3349 0.744901C42.6699 3.04924 43.8692 5.5939 44.4338 8.19829C44.667 5.98629 44.5623 3.73611 44.1839 1.53139C43.735 1.26364 43.2771 1.06037 42.808 0.929402C43.1307 1.49842 43.6203 2.53725 43.725 3.70945C43.7288 3.72716 43.7246 3.74275 43.7224 3.75055C43.7096 3.79734 43.6745 3.82995 43.6215 3.83281C43.5582 3.84132 43.5017 3.79315 43.5005 3.73433C43.3868 2.46787 42.7903 1.3426 42.4972 0.8565ZM41.4135 3.88239C40.8457 2.74791 39.8907 1.91333 39.4247 1.54918C39.4021 1.56833 39.3794 1.58747 39.3507 1.59669C39.0787 1.8264 38.8429 2.08233 38.6213 2.3503C40.8088 4.15048 42.9601 6.3674 44.1637 8.89648C43.659 6.07377 42.2836 3.28254 40.8243 0.828677L40.8239 0.828764C40.6748 0.864939 40.5256 0.901114 40.3884 0.957095C40.1263 1.05569 39.8675 1.20532 39.604 1.40384C40.0982 1.79207 41.0429 2.63232 41.6227 3.78665C41.6273 3.79963 41.6301 3.81214 41.6312 3.82419C41.6323 3.83778 41.6312 3.85078 41.6278 3.8632C41.6192 3.89437 41.5966 3.91352 41.5658 3.93053C41.5063 3.95677 41.4413 3.93979 41.4135 3.88239ZM37.5941 4.34639L37.562 4.46334C37.4506 4.86877 37.3962 5.28905 37.3887 5.69658C39.4947 5.95459 41.6689 6.7569 43.2031 8.17741C41.9625 6.13171 40.1236 4.33072 38.2807 2.82951C38.0124 3.23569 37.8048 3.67445 37.652 4.13588C37.9466 4.20453 39.5389 4.62076 40.782 5.70613C40.8102 5.73023 40.8239 5.77559 40.8132 5.81456C40.8089 5.83016 40.8046 5.84575 40.7922 5.85922C40.7528 5.90743 40.6836 5.90603 40.6331 5.86777C39.4242 4.81641 37.84 4.4023 37.5941 4.34639ZM37.2725 7.61957L37.2673 7.6286C37.2215 7.70018 37.1839 7.77391 37.144 7.85542C37.106 7.96238 37.076 8.07147 37.046 8.18066L37.046 8.18076C39.3857 7.87314 42.0455 8.17565 43.8829 9.63364C42.4267 7.70706 39.8583 6.65967 37.4269 6.35001C37.4286 6.37551 37.4303 6.40103 37.4402 6.42867L37.4402 6.42884L37.4402 6.42898C37.4786 6.60608 37.5208 6.80085 37.5019 6.99634C37.4825 7.25406 37.3714 7.44746 37.2725 7.61957ZM36.9781 8.8399C36.998 9.33812 37.1526 9.82143 37.439 10.2055C39.3107 9.38275 40.9546 9.1356 42.4546 9.44414C40.785 8.70689 38.779 8.59199 36.9781 8.8399ZM50.4189 5.33387C50.1545 4.83855 49.7381 4.42054 49.2302 4.14571C48.9044 3.96863 48.5448 3.88299 48.1625 3.81649C46.7209 4.94381 45.6905 6.57137 45.1458 8.30084C45.477 7.76067 45.9074 7.27152 46.4285 6.86456C47.5591 5.98183 49.1505 5.54547 50.4189 5.33387ZM20.5259 49.3771C20.9767 48.4566 21.4728 47.3973 22.0144 46.1992L30.9628 26.3746H31.8092L42.4102 51.7813H42.4505L42.9745 53.0537C43.4313 54.1482 44.2644 54.6955 45.4736 54.6955V55.106H36.4043V54.6955H36.5656C37.3448 54.6955 37.8823 54.4766 38.1779 54.0388C38.4735 53.601 38.4735 53.0127 38.1779 52.2739L38.0569 52.0276L37.936 51.6582L35.5982 45.7888H23.0624L22.2159 47.6358C21.8397 48.4567 21.5576 49.2639 21.3695 50.0575C21.2082 50.8236 21.141 51.5761 21.1679 52.3149C21.2217 53.0263 21.477 53.601 21.9338 54.0388C22.4175 54.4766 23.1161 54.6955 24.0298 54.6955V55.106H20.0136H15.4442H0V54.9007H0.134622C0.972263 54.9007 1.63041 54.4903 2.10906 53.6694C2.61763 52.8485 2.87191 51.7813 2.87191 50.4679V31.0127C2.87191 29.6992 2.61763 28.6321 2.10906 27.8112C1.63041 26.9903 0.972263 26.5799 0.134622 26.5799H0V26.3746H9.91707V26.5799H9.78245C8.97472 26.5799 8.31658 26.9903 7.80801 27.8112C7.29944 28.6321 7.04516 29.6992 7.04516 31.0127V54.2029H11.1287C12.9834 54.2029 14.8083 53.6968 16.6032 52.6843C18.1576 51.8076 19.4651 50.7052 20.5259 49.3771ZM23.4655 44.8858L29.7132 31.0948L35.2354 44.8858H23.4655ZM73.0624 31.7979C72.7965 32.0281 72.4461 32.1433 72.011 32.1433H68.9295V26.7546H71.1591C71.9083 26.7546 72.6455 26.9676 73.3705 27.3936C74.0956 27.8197 74.6877 28.3724 75.1469 29.0517H75.3282L74.7482 26.3746H66.0836V26.461H66.138C66.4643 26.461 66.7301 26.6337 66.9356 26.9791C67.141 27.3246 67.2437 27.7736 67.2437 28.3263V36.5129C67.2437 37.0656 67.141 37.5147 66.9356 37.8601C66.7301 38.2055 66.4643 38.3782 66.138 38.3782H66.0836V38.4646H75.2013L75.7633 35.7875H75.582C75.1228 36.4669 74.5306 37.0196 73.8056 37.4456C73.0805 37.8716 72.3434 38.0846 71.5941 38.0846H68.9295V32.5578H72.011C72.4461 32.5578 72.7965 32.6729 73.0624 32.9032C73.3403 33.1335 73.6364 33.5653 73.9506 34.1986L74.1137 34.2158V30.4852L73.9506 30.5025C73.6364 31.1358 73.3403 31.5676 73.0624 31.7979ZM89.7656 26.3746H85.9047V26.5473C87.246 26.5473 87.4938 27.5376 86.6479 29.518L83.6207 36.582L79.5422 27.7736L79.2885 27.2555C79.228 27.0367 79.2582 26.864 79.3791 26.7373C79.4999 26.6107 79.6933 26.5473 79.9591 26.5473H80.0316V26.3746H76.2613V26.5473H76.2976C76.5392 26.5473 76.7689 26.6107 76.9864 26.7373C77.2039 26.864 77.361 27.0367 77.4577 27.2555L77.4939 27.3591L82.7869 38.4646H83.2401L86.7929 30.1225C87.3971 28.7293 87.8986 27.7794 88.2974 27.2727C88.6962 26.7661 89.1856 26.5128 89.7656 26.5128V26.3746ZM95.9261 32.1433C96.3612 32.1433 96.7116 32.0281 96.9775 31.7979C97.2554 31.5676 97.5515 31.1358 97.8657 30.5025L98.0288 30.4852V34.2158L97.8657 34.1986C97.5515 33.5653 97.2554 33.1335 96.9775 32.9032C96.7116 32.6729 96.3612 32.5578 95.9261 32.5578H92.8446V38.0846H95.5092C96.2585 38.0846 96.9956 37.8716 97.7207 37.4456C98.4457 37.0196 99.0379 36.4669 99.4971 35.7875H99.6784L99.1164 38.4646H89.9987V38.3782H90.0531C90.3794 38.3782 90.6452 38.2055 90.8507 37.8601C91.0561 37.5147 91.1588 37.0656 91.1588 36.5129V28.3263C91.1588 27.7736 91.0561 27.3246 90.8507 26.9791C90.6452 26.6337 90.3794 26.461 90.0531 26.461H89.9987V26.3746H98.6633L99.2433 29.0517H99.062C98.6028 28.3724 98.0107 27.8197 97.2856 27.3936C96.5606 26.9676 95.8234 26.7546 95.0742 26.7546H92.8446V32.1433H95.9261ZM110.944 27.3591C111.161 26.7604 111.427 26.461 111.741 26.461H111.796V26.3746H107.971V26.5473C108.708 26.5473 109.27 26.8179 109.657 27.3591C110.043 27.9003 110.237 28.6084 110.237 29.4835V35.8566L102.769 26.3746H100.176V26.461H100.213C100.551 26.461 100.823 26.6337 101.028 26.9791C101.234 27.3246 101.337 27.7736 101.337 28.3263V35.6494C101.337 36.2596 101.228 36.8699 101.01 37.4801C100.793 38.0789 100.533 38.3782 100.231 38.3782H100.176V38.4646H103.983L104.001 38.2919C103.252 38.2919 102.684 38.0271 102.297 37.4974C101.923 36.9562 101.735 36.2424 101.735 35.3558V27.7218L110.237 38.4646H110.672L110.635 37.9637V29.1899C110.635 28.5681 110.738 27.9578 110.944 27.3591ZM112.291 28.7235H112.074L112.472 26.3746H121.681L122.08 28.7235H121.862C121.753 28.2975 121.53 27.9406 121.191 27.6527C120.865 27.3533 120.472 27.1461 120.013 27.0309C119.566 26.9158 119.191 26.841 118.889 26.8064C118.587 26.7719 118.285 26.7546 117.983 26.7546H117.929V36.5129C117.929 37.0656 118.025 37.5147 118.219 37.8601C118.424 38.2055 118.696 38.3782 119.034 38.3782H119.089V38.4646H115.083V38.3782H115.137C115.463 38.3782 115.729 38.2055 115.935 37.8601C116.14 37.5147 116.243 37.0656 116.243 36.5129V26.7546H116.17C115.892 26.7546 115.602 26.7776 115.3 26.8237C114.998 26.8582 114.63 26.9388 114.195 27.0655C113.772 27.1806 113.385 27.3821 113.034 27.67C112.696 27.9578 112.448 28.309 112.291 28.7235ZM66.0655 42.9814H66.1199C66.4583 42.9814 66.7241 43.1542 66.9175 43.4996C67.1229 43.845 67.2256 44.2941 67.2256 44.8468V53.0334C67.2256 53.5861 67.1229 54.0351 66.9175 54.3806C66.7241 54.726 66.4583 54.8987 66.1199 54.8987H66.0655V54.9851H70.0715V54.8987H70.0171C69.6908 54.8987 69.425 54.726 69.2195 54.3806C69.0141 54.0351 68.9114 53.5861 68.9114 53.0334V50.7881L70.6697 50.3218C71.3947 50.1376 72.0473 49.9015 72.6273 49.6137C73.2195 49.3258 73.7029 49.0149 74.0775 48.681C74.4642 48.3471 74.7844 47.9959 75.0382 47.6274C75.304 47.2475 75.4611 46.8733 75.5095 46.5048C75.5578 46.1363 75.5457 45.7737 75.4732 45.4167C75.4128 45.0598 75.2436 44.7316 74.9657 44.4322C74.6998 44.1329 74.3735 43.868 73.9868 43.6378C73.6122 43.4075 73.1349 43.229 72.5548 43.1023C71.9748 42.9642 71.3404 42.8951 70.6515 42.8951H66.0655V42.9814ZM70.8691 49.89L68.9114 50.4081V43.2578H70.9053C71.437 43.2578 71.9083 43.3614 72.3192 43.5687C72.7421 43.7759 73.0624 44.0523 73.2799 44.3977C73.4974 44.7316 73.6545 45.1116 73.7512 45.5376C73.86 45.9521 73.866 46.3839 73.7693 46.833C73.6726 47.282 73.5095 47.708 73.2799 48.111C73.0624 48.514 72.7421 48.8767 72.3192 49.1991C71.8962 49.51 71.4129 49.7403 70.8691 49.89ZM84.5861 52.308H84.7674L84.1873 54.9851H76.1028V54.8987H76.1572C76.4956 54.8987 76.7614 54.726 76.9548 54.3806C77.1602 54.0351 77.2629 53.5861 77.2629 53.0334V44.8468C77.2629 44.2941 77.1602 43.845 76.9548 43.4996C76.7614 43.1542 76.4956 42.9814 76.1572 42.9814H76.1028V42.8951H80.1088V42.9814H80.0544C79.7282 42.9814 79.4623 43.1542 79.2569 43.4996C79.0514 43.845 78.9487 44.2941 78.9487 44.8468V54.6051H80.5982C81.3475 54.6051 82.0846 54.3921 82.8097 53.966C83.5348 53.54 84.1269 52.9873 84.5861 52.308ZM85.2361 54.9851H89.0971V54.8123C88.6862 54.8123 88.372 54.7202 88.1545 54.536C87.9491 54.3518 87.8343 54.11 87.8101 53.8106C87.798 53.4997 87.8282 53.1831 87.9007 52.8607C87.9853 52.5268 88.1122 52.1871 88.2814 51.8417L88.662 51.0644H94.2994L95.3508 53.5343L95.4051 53.6897L95.4595 53.7933C95.5925 54.1042 95.5925 54.3518 95.4595 54.536C95.3266 54.7202 95.0849 54.8123 94.7345 54.8123H94.6619V54.9851H98.7404V54.8123C98.1966 54.8123 97.822 54.5821 97.6166 54.1215L97.3809 53.5861H97.3628L92.5955 42.8951H92.2149L88.1908 51.2372C87.4899 52.688 86.9581 53.6552 86.5956 54.1388C86.2452 54.6108 85.792 54.8469 85.2361 54.8469V54.9851ZM88.8433 50.6845L91.6529 44.8813L94.1363 50.6845H88.8433ZM110.502 42.9814C110.188 42.9814 109.922 43.2808 109.704 43.8796C109.499 44.4783 109.396 45.0886 109.396 45.7103V54.4842L109.433 54.9851H108.998L100.496 44.2423V51.8762C100.496 52.7628 100.683 53.4767 101.058 54.0179C101.445 54.5475 102.013 54.8123 102.762 54.8123L102.744 54.9851H98.9373V54.8987H98.9917C99.2938 54.8987 99.5536 54.5993 99.7711 54.0006C99.9886 53.3903 100.097 52.7801 100.097 52.1698V44.8468C100.097 44.2941 99.9947 43.845 99.7892 43.4996C99.5838 43.1542 99.3119 42.9814 98.9735 42.9814H98.9373V42.8951H101.529L108.998 52.3771V46.0039C108.998 45.1288 108.804 44.4207 108.418 43.8796C108.031 43.3384 107.469 43.0678 106.732 43.0678V42.8951H110.556V42.9814H110.502ZM121.529 43.8796C121.747 43.2808 122.013 42.9814 122.327 42.9814H122.381V42.8951H118.557V43.0678C119.294 43.0678 119.856 43.3384 120.242 43.8796C120.629 44.4207 120.822 45.1288 120.822 46.0039V52.3771L113.354 42.8951H110.762V42.9814H110.798C111.137 42.9814 111.409 43.1542 111.614 43.4996C111.819 43.845 111.922 44.2941 111.922 44.8468V52.1698C111.922 52.7801 111.813 53.3903 111.596 54.0006C111.378 54.5993 111.119 54.8987 110.816 54.8987H110.762V54.9851H114.569L114.587 54.8123C113.838 54.8123 113.27 54.5475 112.883 54.0179C112.508 53.4767 112.321 52.7628 112.321 51.8762V44.2423L120.822 54.9851H121.257L121.221 54.4842V45.7103C121.221 45.0886 121.324 44.4783 121.529 43.8796ZM128.551 48.6637C128.986 48.6637 129.336 48.5486 129.602 48.3183C129.88 48.088 130.176 47.6562 130.49 47.0229L130.653 47.0057V50.7363L130.49 50.719C130.176 50.0857 129.88 49.654 129.602 49.4237C129.336 49.1934 128.986 49.0782 128.551 49.0782H125.469V54.6051H128.134C128.883 54.6051 129.62 54.3921 130.345 53.966C131.07 53.54 131.662 52.9873 132.121 52.308H132.303L131.741 54.9851H122.623V54.8987H122.677C123.004 54.8987 123.27 54.726 123.475 54.3806C123.68 54.0351 123.783 53.5861 123.783 53.0334V44.8468C123.783 44.2941 123.68 43.845 123.475 43.4996C123.27 43.1542 123.004 42.9814 122.677 42.9814H122.623V42.8951H131.288L131.868 45.5721H131.686C131.227 44.8928 130.635 44.3401 129.91 43.9141C129.185 43.4881 128.448 43.2751 127.699 43.2751H125.469V48.6637H128.551ZM132.819 42.9814H132.873C133.212 42.9814 133.478 43.1542 133.671 43.4996C133.876 43.845 133.979 44.2941 133.979 44.8468V53.2061C133.955 53.7242 133.84 54.1388 133.635 54.4496C133.441 54.749 133.187 54.8987 132.873 54.8987H132.819V54.9851H136.825V54.8987H136.771C136.432 54.8987 136.16 54.726 135.955 54.3806C135.761 54.0351 135.665 53.5861 135.665 53.0334V50.4772L137.767 49.8554C138.251 49.9245 138.704 50.1548 139.127 50.5463C139.562 50.9378 139.931 51.3868 140.233 51.8935C140.547 52.3886 140.843 52.8837 141.121 53.3788C141.411 53.8624 141.713 54.2712 142.027 54.6051C142.354 54.939 142.68 55.106 143.006 55.106C143.574 55.106 144.239 54.5763 145 53.517L144.927 53.4479C144.637 53.7588 144.341 53.9142 144.039 53.9142C143.761 53.9142 143.435 53.6897 143.06 53.2406C142.698 52.7801 142.347 52.2734 142.009 51.7208C141.683 51.1681 141.272 50.6442 140.777 50.1491C140.281 49.6424 139.792 49.3546 139.308 49.2855C140.07 48.917 140.692 48.4565 141.175 47.9038C141.671 47.3396 141.961 46.7754 142.045 46.2112C142.13 45.6355 142.063 45.1001 141.846 44.605C141.628 44.0983 141.181 43.6896 140.505 43.3787C139.84 43.0563 139.006 42.8951 138.003 42.8951H132.819V42.9814ZM135.665 43.2751H138.003C138.619 43.2751 139.133 43.4593 139.544 43.8277C139.955 44.1847 140.202 44.6337 140.287 45.1749C140.372 45.7161 140.36 46.2745 140.251 46.8502C140.154 47.4144 139.912 47.9326 139.526 48.4047C139.151 48.8767 138.692 49.1934 138.148 49.3546L135.665 50.0973V43.5169V43.2751Z" fill="#1C1D20"></path></svg>