<svg xmlns="http://www.w3.org/2000/svg" width="31" height="19" viewBox="0 0 31 19" fill="none"><path fill-rule="evenodd" clip-rule="evenodd" d="M22.2456 6.06785C20.7441 3.9948 20.466 1.59583 20.6735 0L21.8115 0.155665C21.6362 1.50438 21.8748 3.5811 23.1672 5.3654C24.443 7.12688 26.773 8.68332 31 8.91155V10.0566V10.0877V10.0894H30.9703C26.7623 10.3233 24.4938 11.8773 23.221 13.6346C21.9287 15.4189 21.6901 17.4956 21.8654 18.8443L20.7273 19C20.5199 17.4042 20.7979 15.0052 22.2994 12.9321C23.1083 11.8153 24.2483 10.816 25.8175 10.0894L0 10.0894V8.91156L25.8341 8.91155C24.2296 8.19193 23.0614 7.19429 22.2456 6.06785Z" fill="white"></path></svg>