<svg xmlns="http://www.w3.org/2000/svg" width="19" height="15" viewBox="0 0 19 15" fill=""><path id="Union" fill-rule="evenodd" clip-rule="evenodd" d="M18.1824 0.56024C18.6046 0.92016 18.882 1.41742 18.9646 1.96187L9.50002 8.00562L0.0354858 1.96187C0.118011 1.41742 0.395481 0.92016 0.817596 0.56024C1.23971 0.200321 1.77853 0.00156403 2.33639 0H16.6637C17.2215 0.00156403 17.7603 0.200321 18.1824 0.56024ZM9.5 9.37517C9.62202 9.37517 9.74144 9.34038 9.8439 9.275L19 3.42813V12.6944C18.9993 13.3057 18.753 13.8917 18.315 14.324C17.8769 14.7562 17.2831 14.9993 16.6636 15H2.33637C1.71693 14.9993 1.12305 14.7562 0.685046 14.324C0.247038 13.8917 0.000670569 13.3057 0 12.6944V3.42875L9.1561 9.275C9.25856 9.34038 9.37798 9.37517 9.5 9.37517Z" fill=""></path></svg>