<svg xmlns="http://www.w3.org/2000/svg" width="99" height="24" viewBox="0 0 99 24"><path d="M61.008 17V6.696H62.544L67.92 14.28V6.696H69.648V17H68.112L62.752 9.432V17H61.008ZM71.6799 17V6.696H78.8639V8.056H73.4239V11.176H78.2719V12.52H73.4239V15.656H78.8639V17H71.6799ZM79.7505 17L83.4305 11.864L79.8305 6.696H81.8465L84.4705 10.52L87.0945 6.696H89.1265L85.5105 11.864L89.1905 17H87.1425L84.4705 13.224L81.7985 17H79.7505ZM93.5706 17V8.056H90.2746V6.696H98.5946V8.056H95.3146V17H93.5706Z"></path><rect y="12" width="50" height="1"></rect></svg>