<svg xmlns="http://www.w3.org/2000/svg" width="100" height="24" viewBox="0 0 100 24"><path d="M1.008 17V6.696H5.6C6.38933 6.696 7.04 6.84533 7.552 7.144C8.064 7.44267 8.44267 7.85333 8.688 8.376C8.93333 8.888 9.056 9.47467 9.056 10.136C9.056 11.16 8.736 11.9813 8.096 12.6C7.46667 13.2187 6.61333 13.528 5.536 13.528H2.752V17H1.008ZM2.752 12.152H5.216C5.90933 12.152 6.432 11.9707 6.784 11.608C7.136 11.2453 7.312 10.7547 7.312 10.136C7.312 9.47467 7.14133 8.96267 6.8 8.6C6.46933 8.23733 5.968 8.056 5.296 8.056H2.752V12.152ZM10.4455 17V6.696H15.1815C16.3335 6.696 17.1708 6.99467 17.6935 7.592C18.2268 8.17867 18.4935 8.97867 18.4935 9.992C18.4935 10.7173 18.3122 11.336 17.9495 11.848C17.5868 12.36 17.0642 12.7173 16.3815 12.92C16.5735 13.0587 16.7228 13.208 16.8295 13.368C16.9362 13.528 17.0428 13.7413 17.1495 14.008L18.4455 17H16.6535L15.3895 14.12C15.2722 13.8427 15.1282 13.6453 14.9575 13.528C14.7975 13.4107 14.5202 13.352 14.1255 13.352H12.1895V17H10.4455ZM12.1895 11.944H14.7175C15.3468 11.944 15.8428 11.7893 16.2055 11.48C16.5682 11.1707 16.7495 10.6747 16.7495 9.992C16.7495 8.70133 16.1255 8.056 14.8775 8.056H12.1895V11.944ZM20.2111 17V6.696H27.3951V8.056H21.9551V11.176H26.8031V12.52H21.9551V15.656H27.3951V17H20.2111ZM32.4056 17L28.4696 6.696H30.2776L33.3656 15.128L36.4536 6.696H38.2616L34.3576 17H32.4056Z"></path><rect x="50" y="12" width="50" height="1"></rect></svg>