<svg xmlns="http://www.w3.org/2000/svg" width="32" height="32" viewBox="0 0 32 32" fill="none"><mask id="mask0_14946_11" style="mask-type:alpha" maskUnits="userSpaceOnUse" x="0" y="0" width="32" height="32"><rect width="32" height="32" fill="#D9D9D9"></rect></mask><g mask="url(#mask0_14946_11)"><path d="M21.8459 8.47791C23.0342 5.79008 23.6458 2.90929 23.6458 0H3.1104e-06L0 22.1538C3.10521 22.1538 6.18001 21.5808 9.04885 20.4675C11.9177 19.3541 14.5244 17.7223 16.7201 15.6651C18.9158 13.608 20.6576 11.1657 21.8459 8.47791Z" fill="#FFCD4D"></path><path d="M15.3594 28.546C14.9087 29.6411 14.6767 30.8147 14.6767 32H23.6458V22.9744C22.468 22.9744 21.3017 23.2078 20.2135 23.6614C19.1253 24.115 18.1365 24.7798 17.3037 25.6179C16.4708 26.456 15.8102 27.451 15.3594 28.546Z" fill="#FFCD4D"></path></g></svg>