<svg xmlns="http://www.w3.org/2000/svg" width="32" height="32" viewBox="0 0 32 32" fill="none"><g id="fav-brand"><mask id="mask0_14946_11" style="mask-type:alpha" maskUnits="userSpaceOnUse" x="0" y="0" width="32" height="32"><rect id="Rectangle 7121" width="32" height="32" fill="#D9D9D9"></rect></mask><g mask="url(#mask0_14946_11)"><g id="Union"><path d="M25.8459 8.47791C27.0342 5.79008 27.6458 2.90929 27.6458 0H4L4 22.1538C7.10521 22.1538 10.18 21.5808 13.0489 20.4675C15.9177 19.3541 18.5244 17.7223 20.7201 15.6651C22.9158 13.608 24.6576 11.1657 25.8459 8.47791Z" fill="#C8F31D"></path><path d="M19.3594 28.546C18.9087 29.6411 18.6767 30.8147 18.6767 32H27.6458V22.9744C26.468 22.9744 25.3017 23.2078 24.2135 23.6614C23.1253 24.115 22.1365 24.7798 21.3037 25.6179C20.4708 26.456 19.8102 27.451 19.3594 28.546Z" fill="#C8F31D"></path></g></g></g></svg>