<svg xmlns="http://www.w3.org/2000/svg" width="50" height="50" viewBox="0 0 50 50"><path id="Union" fill-rule="evenodd" clip-rule="evenodd" d="M47.1971 7.6973C47.1971 10.6148 44.8183 12.9883 41.8943 12.9883C38.9704 12.9883 36.5915 10.6148 36.5915 7.6973C36.5915 6.49071 37.0092 5.3112 37.7684 4.37393V4.37355L40.7404 0.557327C41.0158 0.204086 41.4301 0.00114441 41.8775 0H41.881C42.3269 0 42.7408 0.201035 43.017 0.551987L46.0016 4.34761C46.0104 4.35944 46.0195 4.37126 46.0283 4.38309C46.7824 5.31921 47.1971 6.49338 47.1971 7.6973ZM39.3225 5.55687C39.3137 5.5687 39.3049 5.58014 39.2954 5.59158C38.8044 6.19278 38.5446 6.92101 38.5446 7.69768C38.5446 9.53789 40.0472 11.0352 41.8943 11.0352C43.7414 11.0352 45.244 9.53789 45.244 7.69768C45.244 6.92368 44.9724 6.16989 44.4791 5.57442C44.4601 5.55153 44.4425 5.52826 44.4261 5.50423L41.8825 2.26936L39.3225 5.55687ZM49.9956 28.4294C50.0318 28.0357 49.827 27.6588 49.4768 27.4754L42.5138 23.8255L49.3116 21.7247C49.6896 21.608 49.9597 21.275 49.996 20.8809C50.0318 20.4868 49.827 20.1103 49.4768 19.9268L34.35 11.9968L31.4936 8.36411C31.2178 8.01354 30.8039 7.8125 30.3576 7.8125H30.3545C29.9071 7.81365 29.4924 8.01659 29.2174 8.36983L26.7909 11.4853L16.9925 14.5138V12.5H19.5315C19.9264 12.5 20.2826 12.262 20.4337 11.8973C20.5848 11.5322 20.5012 11.1122 20.222 10.833L13.5814 4.19235C13.1999 3.81127 12.5816 3.81127 12.2001 4.19235L5.55951 10.833C5.28028 11.1122 5.19674 11.5322 5.3478 11.8973C5.49924 12.262 5.85515 12.5 6.24997 12.5H8.78902V17.049L0.688169 19.5526C0.310516 19.6693 0.0400547 20.0024 0.00419675 20.3964C-0.0320427 20.7901 0.172806 21.167 0.522993 21.3505L7.43977 24.9764L0.683591 27.1027C0.307082 27.2213 0.0389104 27.5547 0.00381528 27.9476C-0.0308983 28.3405 0.173569 28.7163 0.523375 28.8994L7.43977 32.5249L0.683591 34.6512C0.307082 34.7698 0.0389104 35.1032 0.00381528 35.4961C-0.0308983 35.8891 0.173569 36.2648 0.523375 36.4479L8.78902 40.7806V45.8984C8.78902 46.2685 8.99807 46.6064 9.3288 46.772L15.5788 49.897C15.7169 49.9657 15.866 50 16.0156 50C16.1941 50 16.3722 49.9512 16.529 49.8543C16.817 49.6761 16.9921 49.3618 16.9921 49.0234V45.0809L18.711 45.982C18.8521 46.056 19.0078 46.0938 19.1642 46.0938C19.2611 46.0938 19.3584 46.0793 19.4526 46.0503L30.5888 42.6086C31.1041 42.4492 31.3925 41.9025 31.2334 41.3872C31.0744 40.8718 30.5274 40.5827 30.012 40.7425L19.2611 44.0651L3.51103 35.8089L8.99768 34.082V36.1168C8.99768 36.6562 9.43523 37.0934 9.97424 37.0934C10.5136 37.0934 10.9508 36.6562 10.9508 36.1168V34.3655L15.039 36.5086V38.6719C15.039 39.2113 15.4765 39.6484 16.0156 39.6484C16.5549 39.6484 16.9921 39.2113 16.9921 38.6719V37.5324L18.711 38.4335C18.8521 38.5075 19.0078 38.5452 19.1642 38.5452C19.2611 38.5452 19.3584 38.5307 19.4526 38.5014L39.8676 32.1922L46.4735 35.6552L37.4857 38.4327C36.9703 38.5921 36.682 39.1388 36.841 39.6542C36.9703 40.0734 37.3568 40.3427 37.7737 40.3427C37.8691 40.3427 37.9664 40.3286 38.0625 40.2988L49.3116 36.8221C49.6893 36.7054 49.9597 36.3724 49.9956 35.9783C50.0318 35.5843 49.827 35.2078 49.4768 35.0243L42.5138 31.3744L49.3116 29.2732C49.6893 29.1565 49.9593 28.8235 49.9956 28.4294ZM15.039 44.0571V47.4434L10.7421 45.295V41.8049L15.039 44.0571ZM27.772 13.4041C27.7815 13.3926 27.7903 13.3812 27.7991 13.3694L30.3591 10.0819L32.9028 13.3167C32.9192 13.3408 32.9367 13.364 32.9558 13.3869C33.449 13.9824 33.7206 14.7362 33.7206 15.5098C33.7206 17.3504 32.218 18.8477 30.371 18.8477C28.5239 18.8477 27.0213 17.3504 27.0213 15.5098C27.0213 14.7335 27.2811 14.0053 27.772 13.4041ZM3.52629 20.7199L8.78902 19.0933V20.6387C8.78902 21.1781 9.22657 21.6152 9.76558 21.6152C10.305 21.6152 10.7421 21.1781 10.7421 20.6387V17.7742V17.7689V11.5234C10.7421 10.984 10.305 10.5469 9.76558 10.5469H8.60782L12.8906 6.26412L17.1737 10.5469H16.0156C15.4765 10.5469 15.039 10.984 15.039 11.5234V15.8314V15.8405V23.0957C15.039 23.6351 15.4765 24.0723 16.0156 24.0723C16.5549 24.0723 16.9921 23.6351 16.9921 23.0957V16.5581L25.2925 13.9931C25.1452 14.4825 25.0682 14.9937 25.0682 15.5098C25.0682 18.4273 27.447 20.8008 30.371 20.8008C33.2949 20.8008 35.6737 18.4273 35.6737 15.5098C35.6737 15.2973 35.6604 15.0856 35.6348 14.8758L46.4735 20.5578L19.2611 28.9681L14.6087 26.5293L10.4412 24.3446C10.4408 24.3444 10.4404 24.3442 10.4401 24.344L10.4394 24.3437C10.4389 24.3434 10.4383 24.3431 10.4377 24.3427L3.52629 20.7199ZM39.6757 30.2071C39.6751 30.2074 39.6745 30.2076 39.6739 30.2078C39.6732 30.2081 39.6725 30.2083 39.6718 30.2084L39.6711 30.2086L19.2611 36.5166L3.51103 28.2604L8.99768 26.5335V28.418C8.99768 28.9574 9.43523 29.3945 9.97424 29.3945C10.5136 29.3945 10.9508 28.9574 10.9508 28.418V26.8169L13.5574 28.1834L15.039 28.96V31.1276C15.039 31.6669 15.4765 32.1041 16.0156 32.1041C16.5549 32.1041 16.9921 31.6669 16.9921 31.1276V29.9839L18.711 30.8849C18.7114 30.8851 18.7119 30.8853 18.7123 30.8855L18.7123 30.8855C18.7128 30.8857 18.7133 30.8859 18.7137 30.8861C18.7453 30.9025 18.7778 30.9166 18.8106 30.9296C18.8131 30.9306 18.8156 30.9316 18.8182 30.9325C18.8222 30.9339 18.8262 30.9352 18.8302 30.9366C18.8342 30.9379 18.8382 30.9392 18.8422 30.9406C18.8663 30.949 18.8903 30.9567 18.9147 30.9631L18.9208 30.9647C18.9309 30.9672 18.9408 30.9697 18.9509 30.9719C18.9754 30.9773 19.0002 30.9814 19.025 30.9853C19.036 30.9868 19.0471 30.9887 19.0585 30.9898C19.0894 30.9933 19.1207 30.9952 19.152 30.9956C19.1562 30.9956 19.16 30.9963 19.1642 30.9963H19.1657C19.2088 30.9959 19.2519 30.9925 19.2946 30.9864C19.3046 30.9853 19.3145 30.9837 19.3248 30.9818C19.3675 30.9746 19.4106 30.9658 19.4526 30.9528L39.8676 24.6433L46.4735 28.1063L39.6757 30.2071ZM34.0312 39.5458C33.774 39.5458 33.5223 39.6503 33.3407 39.8319C33.1591 40.0139 33.0546 40.2657 33.0546 40.5224C33.0546 40.7795 33.1591 41.0313 33.3407 41.2128C33.5223 41.3944 33.774 41.4989 34.0312 41.4989C34.289 41.4989 34.5397 41.3944 34.7216 41.2128C34.904 41.0313 35.0077 40.7795 35.0077 40.5224C35.0077 40.2645 34.904 40.0139 34.7216 39.8319C34.5397 39.6503 34.289 39.5458 34.0312 39.5458Z"></path></svg>