<svg xmlns="http://www.w3.org/2000/svg" width="50" height="50" viewBox="0 0 50 50"><path id="Union" fill-rule="evenodd" clip-rule="evenodd" d="M2.19385 2.19385H31.8877V24.4897H34.0817V0H0V34.0815H24.4897V31.8877H2.19385V2.19385ZM47.8574 47.8572H18.1125V38.2654H15.9697V50H50.0004V15.9695H38.2656V18.1123H47.8574V47.8572ZM19.6432 18.1123L41.3269 39.7959L39.7963 41.3267L18.1125 19.6431V27.7041H15.9697V15.9695H27.7045V18.1123H19.6432ZM9.5918 9.59204V11.7346H9.54053V9.5918L9.5918 9.59204ZM12.2445 12.2449H9.0813H9.03027V9.03052H12.2445V12.2449ZM9.5918 15.9695V18.1633H9.54053V15.9695H9.5918ZM12.2445 18.6226H9.0813H9.03027V15.4082H12.2445V18.6226ZM11.7344 22.3469H9.5918V24.49H9.54053V22.2961H11.7344V22.3469ZM9.03027 21.8369H12.2445V25.0002H9.03027V21.8369ZM18.6742 12.2449H15.46V9.03052H18.6742V12.2449ZM22.3477 9.59204V11.7346H22.2954V9.5918L22.3477 9.59204ZM24.9994 12.2449H21.8362H21.7852V9.03052H24.9994V12.2449Z"></path></svg>