<svg xmlns="http://www.w3.org/2000/svg" width="160" height="160" viewBox="0 0 160 160" fill="none"><g id="Play button"><circle id="Ellipse 20" cx="80.0015" cy="80.0005" r="79.5" stroke="white" stroke-opacity="0.5"></circle><g id="Ellipse 21"><mask id="path-2-inside-1_207_404" fill="white"><path d="M80 -3.49691e-06C90.5057 -3.95613e-06 100.909 2.06926 110.615 6.08963C120.321 10.11 129.14 16.0028 136.569 23.4315C143.997 30.8601 149.89 39.6793 153.91 49.3853C157.931 59.0914 160 69.4942 160 80L158.999 80C158.999 69.6257 156.956 59.3529 152.986 49.7683C149.016 40.1837 143.197 31.4749 135.861 24.1392C128.525 16.8034 119.816 10.9844 110.232 7.01429C100.647 3.04422 90.3743 1.00084 80 1.00084L80 -3.49691e-06Z"></path></mask><path d="M80 -3.49691e-06C90.5057 -3.95613e-06 100.909 2.06926 110.615 6.08963C120.321 10.11 129.14 16.0028 136.569 23.4315C143.997 30.8601 149.89 39.6793 153.91 49.3853C157.931 59.0914 160 69.4942 160 80L158.999 80C158.999 69.6257 156.956 59.3529 152.986 49.7683C149.016 40.1837 143.197 31.4749 135.861 24.1392C128.525 16.8034 119.816 10.9844 110.232 7.01429C100.647 3.04422 90.3743 1.00084 80 1.00084L80 -3.49691e-06Z" stroke="white" stroke-width="2" mask="url(#path-2-inside-1_207_404)"></path></g><path id="Polygon 1" d="M94.0013 80.5004L73.7513 92.1918L73.7513 68.8091L94.0013 80.5004Z" fill="white"></path></g></svg>